<mxfile host="Electron" modified="2025-03-08T18:22:20.134Z" agent="Mozilla/5.0 (Windows NT 10.0; Win64; x64) AppleWebKit/537.36 (KHTML, like Gecko) draw.io/23.0.2 Chrome/120.0.6099.109 Electron/28.1.0 Safari/537.36" etag="LABwifuDKGRCrNRhnTSz" version="23.0.2" type="device">
  <diagram name="Page-1" id="VmJEM63dlZ8Z077wUYMp">
    <mxGraphModel dx="2123" dy="2183" grid="0" gridSize="10" guides="1" tooltips="1" connect="1" arrows="1" fold="1" page="0" pageScale="1" pageWidth="1100" pageHeight="850" math="0" shadow="0">
      <root>
        <mxCell id="0" />
        <mxCell id="1" parent="0" />
        <mxCell id="nav4vZcdkOdR8qJwMDK2-58" style="edgeStyle=none;curved=1;rounded=0;orthogonalLoop=1;jettySize=auto;html=1;fontSize=12;startSize=8;endSize=8;" parent="1" source="oD7F2wmuKAaa95ZOwkJN-18" target="nav4vZcdkOdR8qJwMDK2-57" edge="1">
          <mxGeometry relative="1" as="geometry" />
        </mxCell>
        <mxCell id="oD7F2wmuKAaa95ZOwkJN-18" value="&lt;b&gt;2 Pages &lt;/b&gt;with &lt;b&gt;annotations&lt;/b&gt;" style="rounded=1;whiteSpace=wrap;html=1;fontSize=16;" parent="1" vertex="1">
          <mxGeometry x="286" y="267" width="133" height="69" as="geometry" />
        </mxCell>
        <mxCell id="nav4vZcdkOdR8qJwMDK2-46" style="edgeStyle=none;curved=1;rounded=0;orthogonalLoop=1;jettySize=auto;html=1;fontSize=12;startSize=8;endSize=8;" parent="1" source="nav4vZcdkOdR8qJwMDK2-44" target="oD7F2wmuKAaa95ZOwkJN-18" edge="1">
          <mxGeometry relative="1" as="geometry" />
        </mxCell>
        <mxCell id="nav4vZcdkOdR8qJwMDK2-44" value="" style="shape=image;verticalLabelPosition=bottom;labelBackgroundColor=default;verticalAlign=top;aspect=fixed;imageAspect=0;image=data:image/png,iVBORw0KGgoAAAANSUhEUgAABXgAAAIuCAYAAAAFe2BTAAAAAXNSR0IArs4c6QAAAARnQU1BAACxjwv8YQUAAAAJcEhZcwAADsMAAA7DAcdvqGQAAP+lSURBVHhe7J0FnBXVF8cPjUgJ0qCAtCCSYlBioCJgoNjd3d2Jhd3xt8XAwgYJKQVEuru7O/Y/v7vvLHdnZ+bNvH1vA37f/cy+mTu37507c8+cObdAmoMQQgghhBBCCCGEEEIIyXcUjP0SQgghhBBCCCGEEEIIyWdQwEsIIYQQQgghhBBCCCH5FAp4CSGEEEIIIYQQQgghJJ9CAS8hhBBCCCGEEEIIIYTkUyjgJYQQQgghhBBCCCGEkHwKBbyEEEIIIYQQQgghhBCST6GAlxBCCCGEEEIIIYQQQvIpFPASQgghhBBCCCGEEEJIPoUCXkIIIYQQQgghhBBCCMmnUMBLCCGEEEIIIYQQQggh+RQKeAkhhBBCCCGEEEIIISSfQgEvIYQQQgghhBBCCCGE5FMo4CWEEEIIIYQQQgghhJB8CgW8hBBCCCGEEEIIIYQQkk+hgJcQQgghhBBCCCGEEELyKRTwEkIIIYQQQgghhBBCSD6FAl5CCCGEEEIIIYQQQgjJpxRIc4jtZ2XJEknbuFFk82aR7dtjjoQQQgghhCSZokVFSpSQAiVLilSpEnMkhBBCCCGExMNbwLthg6TNmSOybVvMgRBCCCGpZOf27fL3zz/L6iVLYi57qFa3rjQ/7rjYESF7B1s3bpSh334rW6BM4KLhMcdI3R49REqVirkQQgghhBBC/Mgq4HUestOmTIkdEEKisnvXLtmyYYMUKlxYikMLKZusXbZMRvbrJzu2b5f9nPiOOe20pMTrhVvA1KpzZ6lcq5bZt9m+ZYts37pV9nMm3ignIST74Lr67MknZd7kyTGXPTRt316633hj7IiQvYMNq1fLe/fcI+tWroy57KHT+eeb+12Bhg1FUnTPI4QQQgghZG8hs4B3925JmzjRaO7+9sEHMnnEiNgJbyBsql6vnhzkPHzXad5cSlDLIgNU6+jff5cR338vu3bulEZHHiknXnJJ7GzOMHvcOPn+tdfMfvH995fTb75ZKh18sDkme7DrKRHann66tOzc2exv3bRJvnz2WZkzYYI5Pv6ii+TIU0+VAgUKmONEWDxzpvzvgQeMgLfMgQfKZU89JaXKlYudTS5uAVPPu++W+q1amX0F48LXzz9v+niFGjXk3HvvlbIVK8bO5g/CtDkE11UPOUSq1K4tDY44QspVqZKtdiQkHvb1h/tpvZYtpWChQlK4SBFp2qGDVK1TJ+aT5BXWr1xpxpKVixYlfJ/FM8LMsWNl2HffycJp08zYqmCMPfzYY6VFp05SzIl/bwNlxz1lLp49HTavWydTR40y+yrglWLFpEDjxiIFuWwEIYQQQgghfmR+Wl69OsMsAzQQ169aFbgtmzdPxvzxh3z78svy7MUXy1fPPWcmO3kVaFZuWrtWNsMEhUtxOZlgwjL4yy/l57ffljXLlpm6Qn3mNBAIalutWbpUdu3YETtDbOx6SmTbumVLLCaR6WPGZAh3wT8//2w0lPYW8BntsG+/zbh+VixYIBOHDTP7XkBghfJDMzgvEabNce1OGj5c+n/yibx6ww3y+k03yZzx41M6diSDnBrngsgLecjvQLB30mWXyanXXCMnXX75Xi3cxWf6G9esMffO/ATGv/89+KDMdsYFM2YkcJ9dNHOmvOaMLV88/bQsmDo1y/WCNP748EPpfdVVMn306Fy5nlI5juNFWpO2bU0/x9b2zDOlCOzw2uC5dC+6jxJCCCGEEJIKMgl407IphIQWBgQhmITkRfDp+XPOhPnLZ56RHVu3xlyTCz5b/+G114yAl+x7YCJsg8n+3iRYT9u9W3a4bHO7y6xAYPPmbbfJC1dcIbPGjYu55l+goffRI48YYUteFkTlxDgXj7yQB5I/WDpnjvS++mp5+dprZdncuTHXvA++Anj/vvvMi6BEWTRjhnzy6KNGMKzA/E791q2lVpMmmUzxbHPGWQiBp4wcGXPJGfLKOG4W/CWEEEIIIYT4klmD1+cB+uBGjeSeTz6Rh775JtN2f58+ctVzz8lh7dvHfKZrxkGjFxOXvMYyLByXQjAR+vTxx2X8kCExF5LfgObQFb16ZenrQZv5hDRGo6OOMmZLlDZdukjZSpViR/mfEqVLy9Hdu2eYKihXubLvwk/QaMM1kdfxa/MHv/5abn3nHTnu/POl2H77xXyLjPjxRxnpbHlVMzXV41wY8kIeSP4Atlf9XhLlRXDd//fnn/LJY48ZkzyJgq+dvnvllYw4DqxWzTxP3fm//0nPu+6SCx9+2Oxf+NBDUrp8eeMHaQ9wnsW87NWmijwzjlPASwghhBBCSCB7BLzQSIuoaYVP67AAU/cbbpAzbrklQ+iDCcuQr77KoumXm+DTQnwunCrwGSW0eebHFqiDLb4yFSqYfbLvALuZFzsT/6uff15ue/ddORoLxOxldlubduxoBJ8o47UvveRrfxfjAF745FfQbrB1jDa88tlnjTBbGf799+aaz2ukepwLQ17IA8k/5CcTNmp+CTZ39QXPgdWrS8EEbMP+O2CA+SoAYGw57/77zfOUfb/Afq3DDpOz7rjDPFOA1UuXyrR//jH7OUGeGcfxEiCfmfAghBBCCCEkJ9kzK8nGSviYhBx69NFmsSkFtuTWLl8eO8p9MEHZtG5d7Ci5wC4nFsHSTzWhbXPRI49IzUaNzDHZt8CLj0o1a0rJAw6Iuex9oGwoI8rqx8YUXW+5ARZY63rddRnlhQBTX+bkJVI5zoUlL+SB5B+gIZofgPmlfm++mcn8EhbQ7HrttYHjoBewZT5jzJjYkUjHc84JXKgS9pdhp1aZO2mS7M4hYWeeGsez8ZxKCCGEEELI3k50tRMfIOSF3ThdHGPLpk0Z2il5AWiVpULoMH7wYPnk8cczNNaw6v5lTz5pNHEI2ZfJL4KbsFRxrmnb/Mb8yZPznJmGVI1zUcgLeSD5h7y8MKuC/tynVy/5b+BAc4znHSyAd/xFF0mhQoWMWxTWrVghKxcvNvv40ueghg3Nvh9Ir+JBB8WORDavXy87c8i2+942jhNCCCGEELK3kjQBL8DnzLDRqaxasiS2lxmssI7PDCcOHSq/vPuu/PT222bitHbZsrgCE13NedPatSYeBdo100aNMvFhlf/VrrQRBpOiZAPNPp3gNTrySLkA9vIOPNAc743gE9XFM2eatvvjo49k1K+/yqz//gv8JBttivNoA9jyC7NAlV87+4FV2KPEnyrssmILY1sS5cPn/qjLH994w9TrjH//NX06USBkgx1s2INGfPhFuyWjbhC3li+ofVaGMGGA/KDNEmk7Ox+o81QLW4vut5+UtcyurHfStRcQ0z7ozguO8SII49zo334zfvxAHWAcQ19Au+E6Wz5/fuh6Melnc5zLqTxofWHDfljc1xj6AUA/RH+Em/u6w7WEawrliXK/cYM0cO+a+vffMuiLLzLGv+zYYo2KX/n9COPfb7xF2FWLF2eMTSjz3IkT46YZFqS7dsWK2FFiZLe/hgHmEdQOLl5i97z7bml98slG8JoIsLd7jhPHKVdeaeztatxB7F+mTGzPm1T1/zDjuBeof9xzcO/57YMP5N/+/ZPadwghhBBCCCGZKeA84Gc84ac5kyTlu5dflnGDB5t9LLJ27r33GgFHEJhYvHfPPRkLgHQ6//xMC1DBJi8mX/0/+cRXAAANuTNuvtl3Yaqh335rFhkB5953n9Rt3txMXL554QWzyrSCFahPuvRSGfXbb+ZT6nWrVmUIETApwyfm9uQME7jTnXQrHXxwzCUcqD7Yw9vklOfwjh0zfapp12HT9u2l+403mv0gUEeYCI0dMMAsXtXihBMif/6pYNKLVbcBJqWwDYtPPRNh26ZN8ufnn5tJtN+ksHrduuZz1QqWphGA/x9eey1D+wmftZ5w8cVm3wsIS7CAjS7UB/vOjY85xux7gUkkTGTg0/AK1aubctovGuKRzHrCxPqzJ5+UeZMnm2P3NeAGn9r+9NZbntruBQsVkmPPPddod3388MOmfGUOPFAue+op8zLFi3jtVLhIEenQs6e0PukkKVKsWMx1D+78Q5BRv1Urs6/Y9eXOD/ru9DFjTJtA8KJ5wGrwRV3p4YUIygfNOF2dvdmxx0qXq66SgnH6PD5P/vaVV8x4AqBNB4FLWBJt86BxUc/h+BInPpiwgED31/ffzyQ0Qxlh7kFBHc2dMEF+fvdd368egtoNgprhP/yQrXEuN/KA+wUWpQRR2mDBtGny4YMPGgESBGUwh4M07PsPxn/0XaT7z88/m2vCbgOlQevWRsiG8EEg7KThw01b+t270J9PdMa17Lzgs68/v/tumGvUJox/r/vqivnz5btXX5XFs2YZdxssOtjl6quNaSa7bcMAAd/fTptAML5i4UIzTigYt9HPbGD6qWXnzrGjdLLbXxMB+RzjjG+NnTKXr1o15pr5/pPd+0cQf339tenHAO0Du7yFnfSUZPb/qOP4iZdcEjtKF+yifQd+9pmnljHy1Mppz2PPOUeKxewK29j16b5/Fgjo54QQQgghhOzrJFWDF4I5TCaV4iVKxPbSBQB4aP/h9dcDtbsWTp8uHz/6aCj7vfjMEcLVz53Jqy3cBaXLlTMTBKx2vWzevEwaYpisYDKETw91W7N0qexK4JNHTFYaHHGEtDj++IQFsTaYGEGIgDz/8t57ZsX+3GbpnDny+i23yD+//JIx0fNi4YwZxh80qO3JpKkjZyKpzBw7NrAPLHfKvsQSKkAYF2RvcLYz0Udbg5qNG8t+pUqZ/bwM6hET748eeshXQIE67P/xx+aaCaONhonxy9ddl6mdICSGdhh+ASbciPPLZ55JidYhzBbgmsT1ZfcVXH/29YZty4YNRvBy+LHHxnyJTPn774xPl4OAH/QjAOEyBB6pBoIpaEIqRYsXz6hXG4yB6N+4dn9+550sgpVylnAI7frHhx/KR4884tsPgLbbO3fdleXrBOQpO+NcbuUBL/Oq1a1r/JmxeuDATH3GC5yfMGRIxvUAAaOXcBb3D+Tx86eeMi8UvYRbYKrTVz+4//7A+w2uE9xj+r74YqZxC+lC4KVMHjFC3rr9dnMd5mcgdB3ntMWbKIuHcBfgfvtN794y/Lvv4raZG7QF7M/OccZtW7gLUL92X8G21XVvT0Z/TQS0d/sePTIJd3MKvPhVAT2AANkW7rrJbv+POo4raBuMeWgfW7hbsmxZ8xwAEB/uUW/fead5LiSEEEIIIYQkh0IPO8T2RSzBCj5BxWQd4LNkLPBRyKVZ4wYaORNiGnVYVfrobt2MfTlMTr59+eWMRYmg/XPyFVdI12uukeMuvNBoaECjDJ/vYaKPBUhg865Bq1ZSwLU69fypU82iZqB8lSpGowZ+oRUGraQa9esbocshhx9uNkyEGh5xhBxQsaLR/DLhnAla50sukSbHHCOHHnWU2RodfbRUrlkzKZo+il2HiBuC4CAgxMTEBxNsZT+nXA1bt85SD2HAp7Wq4QgzEhCk+Wl++oGJHyaJ+hktJmrQlux+ww1y3PnnS9szzpCGbdqYiTrSA7Od9ilWooRpCwXpTx450gi/MEms16KF6RtejPnjj0yTWQgTIMhBnG4gdBv+/fcZE/iOPXuafhGFZNSTggnuhL/+Mi8fQO3DDvO0rzh73Dj59qWXMibPsN3c4/bbjVYcyoB6Rf+FsBt9SP3hpQk0u3EN2eCT5I8feSRDAAmB+jn33GM0q47s2tUIJqAFvXzuXKPhhc/MMTGv06xZphXg3flHGGhJ2tj15c7PAZUrS63Gjc21CLMTOvnHWNCmS5eM6w0bVoeH8LlEqVJG4IO8QyiAT5EhqA9CP40H0IhFPlWAEIZE2hzXwl99+2aYzkAZ0EaKfb1jjBnh9EuMZ4gX1zDaGNcxwuE82nTEDz/IkK+/NmEAygHtVlxj6AfQSkZ/njdpkmkbCMDQdzA26vWA30THudzMw34lS5rrVwX1ECahnuDuBwRCEFhhHEG/Od65f+in63DDlw/bNm82AuQZTrxLZs82ffHMW2815Wl/1lnStEMHM9aq8BL3G6SNa8a+FgDuXX179zZxAfRvfGHS7brr5Oju3c2960inX6MesbAo2hv3MaSJe1JU7OvP774b5hq1CePfvq9iLIcGJzQ1cZ/udv31cvwFF8hRzjiCPrzYqVMV4mOcrnnooZlMl8QD2vkHOv0CY0/tpk3NcwGue9T9seedJy2PPz6jr2DD+KltnKz+mkzQd/ByAkLU7N4//EBfxeJuabt3mxfJWJQNX0/YJLP/JzKOg4lOPxsY0zLG9XnWnXdKd6f/4FpB2s06dTJ5Q74QFtrQ7mcbuz7d988CAf2cEEIIIYSQfZ3oUkMfIPywV5eu4kwEK8Y+A4Ywod2ZZxphJT6XvOWtt4xQaP+YVgc0USDAw2RAtWBnOZMTPxu+CgSBmHxgwnHrO+/ImbfdJqdec41c/vTTcsQppxgNu3otW0ojZyJRw5okQEiJyQzcdcNxbmt+YuJboUaN2FE6qMd4n6unCkyOYbMPwkAAIfwVvXqZCawKL9BeWFDu7LvuMgJfZVjfvkboqGAyik+OwW5nkjo/JgByg8mmCu5UOw6CCVuj12bNsmWyMBYXhBYQHOV1IMj887PPMoS2+JwWtptrNGiQoRGKesXE9qJHH5XD2rUzbn5ACIXPq1W4i2sL1wLsQ9tCT9RPz3vuMekBCAMgjEom6CN6PeE6U3D92dcbNl2wDJpx+GRXmTRsWBbNPhucgx+AfojyRhHuJgKuhWHffZeRL7RP3RYtzL4XQ53+j74MAfvNb75pzLPALMOVzzxjxiQAwdbAL74w+wB+1XyC9gMISVC+q194QcpVrmzcoLUIcwjaf7IzzuV2HvB5twobIdiBuZ0gcB7+AO4Z7vFSgaAVwmAItTA2YYxCm6FMKMPJV16ZabzCVwJe2qrQZMWn6gDhLnSuUwgm9T4F8Jk5PiXX+DBejuzXL6Nu8hsYt6vUri3XvviiaXe0P4CpCLzMQx1oP8B1ATMkQV9YuMG1irEOfQEv+vTlEOq0tjM22X0Fm93Gyeqv+QmM70O/+cbUNcD9oJrzXBBEdvt/IuM4XnypGSZw2k03pb9AjLULwHMA0r7buV91dvKWW882hBBCCCGE7I1kW8CLCRM+4YctRRUEAghdbQ0mCKvu/OgjOenyyz3trgF7lfotmzYFfn4JMPGBgOC4Cy5IquZtbgJNF9glxQSr86WXyhER7IomG0z4MPEDmByi7fzsS2LSDiGdCnEhbMTEXyfUmMhBG0iZ+e+/RuPIDdpctSCbd+pkXgoA2Gj1mpwvcfoe+gpA38FLg+yAiTE+6X3kjDPibrC5mggLpkzJmExDGIF29tP2g+Cs9SmnZLFLaQNbxSoYw+S9XY8emQRQNkgH2l84j/qEFmteEHrAxIJqvaEPwDaxHzinYwMECNAGTCXoyz++/rrRalSgWQltRj8wNsF2KF402QIOBQIxXB8qtME4huvHT1BdtmJFM84p4wYNMi+3skNeyAOE+xDUKliQyc90CNxxHqD/NmnXLlCwj37e6qSTPP3Ardlxx2W0IeoAWuQ2Zgz7/ffYkZiyow68QHywl64mJ/Dpuwqi8xsHVKokPW67zXesRx1AG1PBSyK1u59K8kJ/zWkwNsOUj/2SAeN7GMFodvt/VKA5rF/SYCyHPXw/cF/zu0cRQgghhBBCEiOUgHfj2rVmwjp5+PCMDYIhrIz82o03GruDtjC2pTPRhaZPVKAhZH/qGU+DFwuaQCC6N00UIKjG5/nQPoJwKDcF19Ck1ck0PsMNEmgBtF/z44+PHaVP/G37fNXq1MnQBoLpAS+hgKYJwS4+va0eM/MAe41YIdwGE357UgptI7/Jfl4BE3ZcSwq0Hv20EBWUKKhcU0aOzBDSQljm/nTXDTQm8QIBQDhst1FugUUV0X4K7LlCSOoGbjin4HPj7GqBob/BjrM9vmGDLekPH3pInrvkkoyF1QDaCwKuoHEHgpjmzjjo127o+7YZEny6HG8cg9kKvQYh7FSTN4mSF/IAIKjTFxzoj7DD7gXcdeFFjEfxtPUrHnRQ4HWDlyu2iQ3Er+Y3wNLZszNeNqHM8cyGoAz4pBzgq4OVlqmd/IQxmxJnkUqY39GxHM8HYexmZ5e80l9zEoztAz791OyjL0NT3O8lg5vs9v+ooC0guAV4uaFmWgghhBBCCCE5QygBL+xVwobuV88/n7FhgRV8hqp2VwE01aAxg0/v4k28/DgwjrDLBjYf3bYESXKAbUx7sSBo5oYRNld02k9XfYf5hDXW4i0QPOLTXACtW2jf2mACrvY4IdiFBhA0NAFeINgmH8DGdesyJpGw5wtzFnkdlNEuB+wXBk3C44EJuW2zGbYnMbkO2iDQVVuLMCMAzavcBnUAjUwdN6Clu3TuXLNvAzfV7oW2pGr8ZweYDIGJC3t8wwZbr3hJYWs4QwiNT9TjCVkgAAsStOPaQFsAaLvhuokHbNOqYB5gIaTsaF/nhTwAtceqQNPS/ck/juGuwExMMl5+qcYtgPahfS0ss65TtDfGRPs68trsKxnj094KbOLCvrKigvBUklf6a04Bu8E/vvGGyS/Gx67XXpvQi/Mggvp/VGCPvZL10gXPjDDbpaaDCCGEEEIIIaklKTZ4obl05KmnGluTiWjUQoMOti0xedvh8dk+yXkgOLRX1j4w4HNLG0z81awCFs6xbalC09JeaA6LUtmCHAgqYe4DQLMVtpmhgaXafWouQoGgVBcOwoIw+ol/doBWOOwMP/TNN3E32FWNCoREWBRQKRlbPChRYObCbqfvXn1VXrjiisDtleuvl4UxTUhM6CHkzQvArqQKMDAmTBgyJJMwBvtwU61y2KLUvpFKIFyBCYnLnnrK2AmHWYHsYpuzwSfxYRd/KmcJ1dZjvMyGxl1eyAPAuICFsfS+gZc8bo1QHOvLH7zUgwZvMkBbqvkTXEt4AaOssAS8k0eM8LyW3NsQZ1xQ1q9aFdvb+yhSvLiUtsbbDTlQ1rzSX3MCCHfxkkn7IxajbdqxY7ZeBnoR1P+jguv4qG7dMsZkLJI2qE8fefbii+UdZ9wcP3hwtuInhBBCCCGEBBNKwAtNndNuvNHY5bO3a3r3lrs+/FDu+ugjOcF5iA8jYIOQBot/4PPnN2+9VR476yx5/Oyz5fnLL88yQSa5B4Ro9ueaXnZEvYBQVlc896JGvXoZn/bCDq2t5WabZ1BbvpjIw7QDwCektjDSNs+AT02TPflNBXiJgVXdAYTJ2RVQ4nrCRFrBp9X4xDrsVs1pj3gmHXIKCAhgckGBKQuMFQr21bwFTCDUt0w6ZAdoM+PTZ/f4dtEjj8jt770n9/fpI+fed5/RFk5WH9tqacohzrDxos2SRV7IgwJzCyq0hRAIAlUbHKtwCIKuZAjZAUqs5cYLKdssiH1dQVvYvm7ibWbcygdfFCQK6sy+J+TEVwB5qb+mkgVTp2YW7jpjE16ghy1vFIL6fyJgcT4scus254R7PTR6e114oXz62GOZXp4QQgghhBBCkkMoAa/XSujYYOOteMmSMV/BQBA1Z/x4ef2mm+Sla681nz/js06dROsEOjdtzpLsk7Z7d+AkES8BMAkE0L5VcwXQHsLn8ADmGSAgAegP0OYF0O7ViSGEpLDLCxCnCoH3ZSAwPu++++SWt98OvUGImd2F6ZIJhKj62TCE4bp4HMC+fqINcw7JEkxDc9Rr9X5oj6Nuwr7cyAm8FibMaVKRB1znMLugTBo2LEP7H784BrjWDz3ySLOfbAo47ezX1ljYyuv68dtufP11Y35lXyEvXSNu8sI1ExYIdz978slMwt2jundPiXDXTVD/jwIUAi7v1Uuu7d1bDu/YMUucM//7T968/XZjX5gQQgghhBCSPJJioiEeEO6O+PFH+eiRRzIWY8NiNGfeeqvRkHvw66/l3s8+MxNjTKRJ7oPFUmDXVtkWcpLs1vx1Aw1fFdgC1cJFv1Cbv2qeQYHQD8JL2ErF5BBgASO1/wxt37yihRoPvCzRlyI7tm/P9ierdjshvg2WSYz8CDSaD7e0eMcPGWLqCBv2AfxgYa78DGwlK3ghssvSFg3C1mLMLnkhDzYws6ILDmI8UFvL+NX7Bl40YkG+ZLFp/Xpz3QB8OWB/fWDbmF25YEFsjwCM8TB3oNhmEFJFXuuvycYt3D323HPlyK5dUyrcDer/2QF5rnDQQdLt+uvlvs8/N4vGHta+fexsunZ8vzffzGJXnxBCCCGEEJI4OSLghT25/h99ZPahpQvtjgseesis+A8NuZzQTiHRgEDVnuyFXREek361MYvF1rwErxDIqp1eNbswe8IEM9G0zTMosLmJBfXA7PHjzQQY/iHwBXVbtDCf9+cHILjGYjRKdhdiMnVsfYK8PAcWO0o1sNOsiycumjHD2F5FP8E+wIJcWJgrP7N/6dIZC93BVuvWEHaQ8aJsubXwHMxU6IKGiZAX8mCDe0HLE06IHYlZxBMa2//9+ac5hqY1NLeTeb9QwTHAixK8MFFsu+NYLDIvLEaYV4BWrG372xa+poq81l+TiZdwF+sZpFozOqj/JwuUAQvdwcwX7JireRUsvjZ/yhSzTwghhBBCCMk+KRfwYhGtMX/8YSZaALYu+Tl93gcCU3shIxWsxmPR9OnGlh+oUL26WX3eDcwvwAwDWLFggSxzJuAzY5/i2+YZFEzI6zRvbvYhwIRpD50YQiMWdn3zC5hA23WycNq0jGsjESDsqtOiRexIZNro0aHaKS8DAQBe/iiThw+X8YMGxY7E2OnNLwJ9P8pVqWI2sHHtWlkU014PYpPjb0lsEUJQu2nT2F5i5IU8uMFidmrLfcmsWTJx2LCMax3jEWz1Jgtogc6KLdwGELe9cBeO1V44Xi4szyNavBCY2YI4LE6Z0yx1xuw1MfvYeCmnL2RSSV7sr8nALdxtf9ZZZrGyVAt34/X/VICvcZpZpljyi3Y1IYQQQggh+YGUC3gh7NNFpUCxAO0ZCLq2btgQO9p32YlP7VevNr+5CWyQlihVyuyrJmUQmEyP/v332FG6JqbXImLQYoUWJoDWLmyrquap2zyDAhup0CqG/6l//20Ew6BGgwb5xjwDsMsOpjhlWWOtDu8Gn0L//dNPGZ/RegEBtwrF0E7TR482+/kZmGDQvoM6mjB0qNmHfV4ICfI70FbFwoDKqF9/jSuYR79XjTtoIqLvZ4e8kAc3ML8AMwwAGvr48kP7Pmz0RrHRbi+S5gUEx3hxBaAd3LhtW7OvYFzBGAhgembkjz+a39wGY4j9EgymbfAi1Q8IgPFSLCy4Dwe9dIJgcNQvv8SORA5xxrMc0eDNg/01u7iFu1hMre0ZZ5j+mF2y2/9TBe7jiv01CyGEEEIIISR7pFzAW7hIEbOyv4KFtbzApHFwnz4y7PvvYy7JxdaGge1WNSMA4tmNzUkwWe995ZXywhVXmF+1S5sbwB6m/cn0T2+/bSakXqD+fv/wwwzBKzS6DguYMEJwogK8CX/9JVucCa6XeQbFNtPw38CBGS8NIETOb9qctpYiFpAa/OWXnv1vy4YN8t3LL2fYnvXjgMqVpc2pp8aOxNg2nPbPP75CmvUrV0qfXr2k10UXyZLZs2OuSaZA5lX21byCgs/dgwQQMMHQ0GlbN7DP6/XSIL8BzevWJ52U8bkyhC2//+9/Zhz0AmZuBnz2WexIpMWJJ3q+2IgyzuWFPLhBnrAwkwqB1AwLxiLY6I3CHx99lDEeuYE7xjO9Ruq3apVl5X+MK9Ck1P42ecQI6f/xx771A/dh334rj/fsKcN/+CHmmhpgw16BEHPqqFGxoz2gbBgHPnzwwbiCUBv0A9jM9xJmw23Yd9/J9JjtdAgGWzr9INExGO2t/QWC/JUxu+oA+cc4oW2Uqv6aW7iFu7jX4gunZAh3QXb7v8FqHxBvHJ/m9MO/vvnG9xqHWYapTp8EuMY90ySEEEIIIYQkRKGHHWL7ItbkCpNG1fopW6GCNGnbVgoVKWKOo1CgYEEzwVftz3mTJhlbb7BvCHt60FLFZBGCrEnDh5tPYnVygEnsQQ0bmn1lvjMpmhPTOomSL2g4TfzrL6NRjPgXTJtmtMHwifw3L75oJiYQKHlpj8YDgrhZzmQSWqiYOOmGBcHWrVxp/ODTx2LFi2c6j4XLYJPYZuDnn5u8AUx403bvlvoxjbaoQLgyMab5iEnYv/37G2FimK1K7dpGqIpfCJlhbxF1N/bPP82nuRDcF3E2aEdB4PpN797GTiqAQOSsO+7IWDDJC3xijAk64tJVzms1aWImufaEUkEbr12xwvQf5AMTUwiEoe2U3YVh7Hoq5KQNTUEVwEYFAhAIrPVFhlcfRv2kOe2h2lO4ziYMGWIEFdCCxvE/v/xirgksQgMBChZPQz1B46n5ccdl0YSHOYxlc+bI6qVLTVvj03YsYAdhAfo5+ig0ezHp/+W990y74dpD/6rbrJm5ToE7/42POSbL59d2ffnlB+mi3+hn1Ogbu5x2Qz6gCfm1018Qb8WDDjLn3SA/JZx2HT94sMkjgH+sKp8MG5rJbHPFHjPxuTNePgSxX6lSZgybMmKEOV7qtB/Ki7Lj+kB/mOWMIX98+KEM6tMnw/QJ6rtjz54Z9khtoo5zeSEPbmBrdYXTP+0FmNr36GHGhyBwfYwdMCDDVi4EZzAPtNm5/0CYhD4JW+IQwv7wxhumLwJodp52000ZXyvY4H4E4SWEhQD9GHHiOsEY6AxE5p404ocfpK/TpzHmo7+udcY1lDHqJ+/29Rd0f8NL07kTJmQsqoi+h3KiDGgzXOv9nDJCUIt2hPar1ovXNW3fVwHGWcSBNkLboW5x/MNrr8kkZ2xROp17rtH8hPA1ETDWz3HKsXrJEnOMPKC8KD/uhRir0O56n0xFf40C2h/92L6PL5492/QPIyx1Nmih48Wdnl/llA19GvWoQFD66RNPZAh30T+x4BkE1l73Y/cGISpehtrmflLR/6OM47hev3zmGfM8h/sZ7nOlDzzQlBv92lz/L7yQYTKjeadOxlyD3nsUY3fbeabAfcx9/yzg6reEEEIIIYSQPRRwJiUZan5plhYQhEvjnIkTwETi3HvvTViwgonGl88+ayZyfmCC2Om884xm50ePPGImK9BmOea002I+0hnqTE4GfPKJ2Y+SLwgdMFm0TQi4wSIg9krPYcEE6H8PPBD4Gb0XTZ20ujtpKmgKTKAxuVGgzdb1uusSmkBDkPLF00/HjqLR8+67jVYPwGSu31tvGQ22eGCSeOatt0otS8PMD7stwSlXXmmEmX5AUARtNEwWATRhIUhORChvY9cTJsIXP/ZYhrZwVNBvoZU1b/Jkc+zVhwHK8PM77xihexAdzznH9IFPHn3UfGoNDTQsVOMljIQw7Zd3383Uf4KANhzyB8GI4s6/3Q8Uu76C8gPt4I8efjhDiOEGtrjPd66b4iVLxlwyA2ENNI3x8gTANmWHs882+9klmW2u2GOm+9r2A9c8BPF9X3zRvPCJB/rCSZdfnqnNbBIZ5/JCHtzgheCnjz9u9tG3LnHaB5rqQUAw9N4992S8VIMgE2NWkKY4BIfnOGEq16oVc8kK6gc2oCEUC4pLgVbi6TffLOUTWAjQvv7i3d8gJPzEqRe/6wugfGfdeae59+pY63VN22MxXszhZeRCl7amG5gTSIbGKbSM+zzzjKlnL9CO3a+/PkPQnez+GgX7Gg+Le3zBizU8D8E0UXZwt2Oq+n/YcRzn8QJHX/QGUefww+UM5znB62sM+3nKff8s4Oq3hBBCCCGEkD1kT50lJHiI73HbbUZjww0ElxDUXfPCC3K08yCPSXEyF9JRoIV1/EUXGaGWGwgOIJTEhCg3QV1AwKmTHghLW3XunLB2VLKA1tSZTvthklq9bt2Ya2agUQbtyhtfey2UcBeoXV0ALVy1d+kHtFTtiaifvd78AIQiEGhDEIS6c4N6vrZ3b2l35pmmHwRpQysQYOBlAASumEB7gb7V4oQT5LqXX06a0MMPaH+ffdddWQRz6M/Q3IJw3k+4CyAE10V4kG/Y5d3bQF2gH9/y1ltytGUOwA3aE+2K9g1qs0TGubyQBze2MAk2eaEVGRWkcfVzz3mOWdC+RVlxjQUJtwDqp2nHjnLzm28aoabR3HUBP7APC2EZ6igR4W5UYI8a902v68IuHwRwVZwyIo9hwHjT0ynHcRdc4FlWCLBxL0AbZ1e4C+q1amXGQfdXAFqGLs44aWsxJ7u/5jQQuOpXSqkkWf0/7DiOa/SSxx8314Cf6QW8rOl67bXmpYNfuxFCCCGEEEISI7MGLzRsUzzxgPbKlo0bzT4mCBAeJmOSGAU7DxAwBgmZcgPN335OvvKiABOCN2j1atfBxDwZn83vy2x12ls1wJPV7hAkoJ3UjmlutRP6CfozPu2Ncs3bWpwQVpx2ww0J2/rMT9h9AZ+Uo768zJbEIzvjXG7mwdbcRj+56NFHpUb9+rGz/rg1GG0NRzsfEBbiGgsr8PTCrp9kxKdE0eC1scuXSHv5fRljX7sglfcke7yKWoZk9df8TKr7f9Rx3E4ThL3+fTV4ixeXAnHMtBBCCCGEELIvk1mDNwdWNMbkEFoc2LBYSk4Ld4Gdh7wm3AWav1RNpLML2gxtp3VI4W72QT/U+kxWu0PAAdubud1OEAZAKxB5CHvNQ8gHG49K0w4d9gnhLrD7AtovUUFVdsa53MwDhJtqlqPmoYcm5YsOOx/oi9kVxtr1k4z4sotdvuy0lxv72sWWrLHJC3u8ilqGZPXXvZVk9P+o47idJraoY1AWcuD5lBBCCCGEkPxMJgFvAT5AE0LyAItnzZK5kyaZfWgUHtSggdknezf4OgALRSkwJ2IvTkUI2Tfh8ykhhBBCCCHBZNbgPfBAEcvWHSGE5DRYpGv0b79lLKYHu9TUEt83gGAfC+AB2JittQ9/kg1N5qfOP18eOeMMs/352WexM4TsPWzesMGYltB+/s5dd2WY28gA2sJ4PiWEEEIIIYT4klnAW6SIFKhdO3ZACCE5z8rFi439XXBgtWrmM32y9wMbnxOGDMkQ7B/Wrh0XYrJYH7OtSsjeBGz6wn5wEAXq1KHyASGEEEIIIXHItMhaBlhAa84ckW3bYg6EEJJ6MBz98u67MurXX81xpkV2yF7N8vnz5YP775etmzZJucqV5cJHHpEyEbT2ghaZyi/YC1m5SeWCoH6LrJH8Q37t/+7FQG2KlS0rxZz+KKVKxVwIIYQQQgghfngLeJUlSyQNqyBv3izi/mSOEEKSTHZW0if5m+1btsg2ZwPF9tsvsoDRLSjar2TJlC4Ktjdh132hIkVM3eX2wnEkGntN/0eeS5SQAniZUaVKzJEQQgghhBASj2ABLyGEEEIIIYQQQgghhJA8S2YbvIQQQgghhBBCCCGEEELyDRTwEkIIIYQQQgghhBBCSD6FAl5CCCGEEEIIIYQQQgjJp1DASwghhBBCCCGEEEIIIfkUCngJIYQQQgghhBBCCCEkn0IBLyGEEEIIIYQQQgghhORTKOAlhBBCCCGEEEIIIYSQfAoFvIQQQgghhBBCCCGEEJJPoYCXEEIIIYQQQgghhBBC8ikU8BJCCCGEEEIIIYQQQkg+hQJeQgghhBBCCCGEEEIIyadQwEsIIYQQQgghhBBCCCH5FAp4CSGEEEIIIYQQQgghJJ9CAS8hhBBCCCGEEEIIIYTkUyjgJYQQQgghhBBCCCGEkHwKBbyEEEIIIYQQQgghhBCST6GAlxBCCCGEEEIIIYQQQvIpFPASQgghhBBCCCGEEEJIPoUCXkIIIYQQQgghhBBCCMmnUMBLCCGEEEIIIYQQQggh+RQKeAkhhBBCCCGEEEIIISSfQgEvIYQQQgghhBBCCCGE5FMo4CWEEEIIIYQQQgghhJB8CgW8hBBCCCGEEEIIIYQQkk8pkOYQ2zfs2rVb1q1fb35Lly4pxYoWjZ3xZv2GjbJt23YpVqyolC5VMuYanrnzF8i/4ydKx2OOkgPKlom55m22r10rY59+WnZt2SJNbrlFStWsGTuTz3Cafvk//8j6WbOkZrduUnj//WMnSH5k2/btsn79RilUqKCUKV3a/OYGmo8w6Bizdds2GTL8bylbprS0atZUChQoEPNBSGaWLlshk6dNl527dkmDuofIQdWrxc6QVIJ7/fuf9jH3+/PPOk2qVakcO0MIIYQQQgghJLfJIuBdsXK1XHTtLbJw8RJ5+elHpcMxbWJnvLn/iWflh1/+kK4nHS+P33dHzDUcCxcvlStuulMWLVkqndofLU8/dE9cgXJeYPOSJfJdmzaydeVK6TpkiBzYokXsTP5i2YgR8mOHDrJ7+3ZpcuutcuTzz8fOEACBRuFChaREif1iLnmbQUNHyo13PyjVq1aRD1/vLRUOLBc7k7NoPsKgY8zr730kb37wibn+X3/uCWnVvGnMR/4hFf0Fw/PadetNnPlhbEwlO3fulKdffF2+/uFn2b17t3FL5L5DEkOfDdZv2CBv9+4ljRrUjZ0hhBBCCCGEEJLb5BkTDTt27Iztkdxg944dsT0CIMzoedl18sW3P8ZcSFSgQVy5UgWpXrWy71a8WGah5a7du2XXrl2xo/xDqvrLlGkz5dRzLpER//wbc9l36dvvVyPcrVq5orzwxIMy4Lsv5N5bro+dJYQQQgghhBBC9l1yVcALAc9zj90vt1x7uTx05y37vIZaTlOpTRs58fvv5ehXX5VWjz8ecyVgxcpVRlONJE6VSpXk07dekZ+//Mh3a9OqufF78Tk95N5br5cXn3xIWjU/3LjlJ1LVX5abeMOZu9ib2bx5i/z+5xApWLCg009ukOPaH2M01POLdj0hhBBCCCGEEJJKcl2D99AG9eSSc8/Ktc/J92kKFJAanTvLodddJ0VLl445ErB67RrZuGlz7IikGgjqep7eVdoddUSu2Q7ODqnqLwsWLYrt7dts2rxFFi9dJuXLHSA1D6oecyWEEEIIIYQQQghIqSQFiy3NmD1X/hwyTOYtWGRsKLqBdho+b4aGloIF3lavWZtJcw3nR/07Tob/M0bWrF0Xc/UG6U6YPFV+HzhEZs6Z65luWGC6YM2kSTL766/NgmS7tm6NncnKjo0bZcuyZRnmDuB38aBBZnOHg1+4I17E7zaRAP+w9YsF3bxI27VLtixf7nse8SEvW1etMoupeeK44zzS8SsX0tm0cKHM+/FHk1+/9MKifQJtg18c27jbHjZIYaN58LCR5tdlMtr4036BcO7zNjgHjUjYiMWGfT//69ZvyLDzGY8oeQhC+3gy+m0UkA6uT1ynuG7sazGnQB5WrV5j6g99IB7II/xrHSHM7LnzTd2hDO5+BaL2LaSBuILGLyVKf4kS75q162N7mUH5MG5iLAzqb+pPy5xIvdkgLdQh+jr6qsabCEgbC6bhWgwbV5HChaVY0WKxI2+QR9QLyh1UHvVn14cSNm/ap7ziAH7ntV00fzg3aep0U68bNm4ybjZBeVXcbesGZfCrE5xLZAzTvoxw8e7LfqCOFixabK6HoHgS6bta/3b7oX6RTrx7ACGEEEIIIYTkJ1KyyBomVX2+/UFefvsDMylToKV39cXnmxW4CzsTdaDhb77mcrn0vLOMm+bhgLJl5PnHHpD/ff6ViQ/xAnyme0bXk+SOG66W4sX2TPaxEv+b738sn371XabJXqmS+8vRR7SSkvuXMMfHtjtKjmnT2uwHseCXX2TgRRfJ1hUrYi4iRUqXliN69ZJ/H39ctq9Zk2mRtf8c93/uvls6fvKJ7F+livQ/+2yzEBs48Ycf5OBTTzXC0mE33ihzv/3WuCulDzlEOn3+uVRo1cocr589W74/+mgjeO36119SrnFj467Mc+L7rVs3KduggZw6aJDsV6lS7Ew6mpdm994rrZ54IuaaGQiZf+3SRZYMHpyRPwWC3Vlffil/XX217FifWchUsU0b6fjhh1KmXr2YS3zQNu993Ec+/vKbTH0CZjl6dD9Frr/8YtM/3G3/2nsfyo+/9jfCs9bND3f65CPGHwRyDzz5nPw7bmImwVqdWjXl0Xtvk8YN68dc0oUj//w7Tp54/hWZO39BzDW9Hx3foa3cf/uNUqZ0KeOGtLDg18pVWQUhpUuVzLS4UJQ8BAFB0jMvvyF//jU8Uzw1D6ohTz5wZ+h4ILCIssga2uTzb76Xt/73aaY2gQbtce3byl03XSMHlo+uWR81H2Dy1Bly5S13OXVcKlSY9z/9Ul5841156sG75OAa1eXex57J1LboP0/cf0em6zxs3/JrD4wjV118npx7ZveM8StKf4kS72vvfijf//K7k+dVGeOegnp98cmH5e5HnpLZ8+abOjjpuI6xs3vY6VzD9z/+jPw6YHCGn0TqTZk4ZZo8+OTz5uWDgmuoedPG8ti9t0u1KpVjrsGgPL/9OVh6vfR6JmEe4jrs0Iby6D23ZWjp2vcjL+z7hs3n3/wgT/V+VZo2bmQW7UMduxk3cbJcfeu9Uqd2zQw/UfIGNH9+C4/5nddr5PILzpEuJ3aS2x94PKNe/cr08lsfyLsffy7nnNFV7r75OilQoEDsTLrw88a7H3LGuf/knluuN35slq1YKZdef7ts37FDPnj1OdOHQJQxzC7Ly70edcowQj7u802m+/KJx7Y346lXfbvxq2uMPxecfYZce9mFme7v2b3mez/5kHzyZd9s5ZkQQgghhBBC8iqFHnaI7RswUfzup9+MxgsEAvE+h4WwYtrM2VK/7iFybLujjdvPf/wpjz33slQ8sLzcd9sNcvv1V8nhjQ81WjoTp0yX9se0cSZTJY1fDQ9bnM0OO9S4aR6WO5PS/oOHyZx5C+Sic86UHt27yEHVq8mUGTNl3ITJsv/++2eEgRCv9+vvyIdffGMEDhCAXH3JBdL+qCNk7PhJZuI7d8FCKV+unLRo2kSqVs4sEHUDAeqv3brJzk2b5JCePaXNM89I/UsukULFi8vYxx4zmqwFixQxbiWqVjVhlg4bJov695fiThoTXn5Zti5fLiWqVZMSVapI3QsuMMLeb9u0kVVjx0q144+Xlo8+Kof06GG0bZePHCnz+/WTmk6axZzwRUqVkhX//GP8lm/aVCq0bGnSMDhlhQB31X//GQ3cGieeKKVr146dTBfc/uvEvWnRImNbt+RBB8XOZGb39u0y87PPZOO8eVLnnHOkbP3YZN6Jf/xzz8nQa65xPO2WRtddJ03vuEMOdvK2w5ncLx0yRGZ88olUPfZY2d8pXzygcYXV7zGxLum02WXn95SzTztVjjqihTMBXyVDR46WJo0aOJP2ahltv2XLVqOt9a2zf2C5A8wEvXGj+tLhmCNl/sLFcu3t98n0WbPltFNOlMfvv9MIRGo4eRk0dLj82n+wtDi8iVSqcKBJ/7Ovv5N7Hu1lBHA9unUxfalNy2ZOf1gkY/4bL4uXLJNj2x5lJvsboYW9davpT9DugoADZgMa1a8rjRrUk9YtmhrB3dz5CyPlwY9pM2fJxdfdKlOmzzR5glADAgcI58ZPmiJD/x4l7Y9uI2VCmNBAnn7pP9AISU87pbPsX8LfPqm2yfuf9MnSJhAGjRz1r/w18h9Tdr1WwxIlHwoEMT/+1l+KFSsWKszYCZNk5Oh/BQuyfeT0K1zTl1/Q07y82bRps8ycPdcsTGa3QZi+tXT5Crnm9ntlzLgJ0rB+Hbnu8ouky4nHSd1DahkNyz+HDDdhjz6iZaT+AvMCUeLFfuFChYy2IbSDj2rdQo5o0Swj3rZHtpaNztg0auw42bp1m3Rqf0yGcFiZNXe+vPHex2asu+bSC6TEfvslVG/g3/ET5bo77pd1zvV/6Xk95aE7b5ZzzuhmXprBNm7YvoJ6+vCLr+XJF141Akq9Hju2PdK0D+rn1/6DMtIvVrSI7OfkG30U1ynCwy/yjbpo2ayJuSe4QZtCADln/gJpfljjLH4QzweffWnKdel5Z5v0ouYNaJ/C2HJq5+OlgnPPs/E7n3GNlC7p3OOGyoxZc6RyxQrOdV5SOh/XQWrXzDpmF3Hq4rcBg2Xj5s1yQsd2sp9zL1JmzJpryoN0ChYskN4fnP6joJ989f1PclSrFtK9S2fTx6KOYVoWmCIZ5/Sj6TPnmH7V3Qmr9+Up02bIeqe/aj/2A+PbMy+9IS+++Z4ph44/TRs3dK6HGWb8QRu0at40Q5CdnWseeYKWLwTZmmcI9qc6ecb1FybPhBBCCCGEEJKncSa1mVi+YlXaST0uTGty9PFpA/8aEXP1577HnzF+8QucCVXaFTfflda606lpf48Za9yU3bt3p23fvj12lI6Gf++TPjGXzHm459Gn05zJW+xMOj/+2j+tadsT006/8Mq01WvWGrcFi5akdT7zArNh32bSlOlpR3c+Le2yG+7IEpcX29auTfv2iCPS3nKq579evZDx2Jl0Fvz2W9p7JUqYbcXo0THXtLSxTz9twrxVoEDan+efn7Zj48bYmXR2OWWf8PLLaYsHD84UJ9z/6NHDhJ385psx17S06Z98Ytx+P+OMtF07dsRc09I2LlyY9unBB6d9ULZs2tuFC6cNveGG2Jl01kyenPa/cuXS+jRqlLZlxYqYa1a2b9iQ9kP79iaNuT/8EHNNS1syZEjaO0WLmviX/f13zDWGk+9/n3zShEFYxBEPba9u512WtmjJ0phrOjt37kpbt3696RtA2x7+j+12dtqIf8YYd2XL1q1pN971oDn//qd9MsIpo/8bn9bm+G5pN9/7cNrWbduM29Jly9Pe/vCztCVLl5tjZd6ChWnHn35uWseuZ6fNmjMv5poO+qO7XyqJ5MGPHU67fvb1d2mjx47LFA/cb3/gcZOHL7/tF3MNBtcr/KP+UI9BBLUJ0r7/iWdNXA899ULajp07Y2fCofk48Yzz06ZMn2ny4t5Wrlpt0lH0Gg2Td6DtgzCDh42MuaZj5/+uh5/MyD/iDepbdp0/0qt3pvyBhYuXpHXpeXFas/Ynpf0x6K+YazpB/SU78er46DUWz5g9x5QDfe2/CZNirnt47d0PTVj8KonU26rVa9LOuOiqtJYdT0n7feAQ42ajfenZV96Kufij10b7U3qkjZ80JeaaDvr/ux99btJ3j9Xadsg3+ko8EFevl17PUhbF636RSN7i5cvvvF4jzdp1Trv0htvTVqyM3+cxTp57xQ3m3jpm3ISYazpoV7gj717j2VO9XzPp6ViSyBimZUE8tz3wWNr6DZnvb+MmTjHl9OuPbqbNmGXyvWHjpphLOpq2fX8HifTdZOeZEEIIIYQQQvIqSVdXceKU3bHPH91AE6dIkSKxo/hA8+38Hqebz6ZtDm/SyGhCQfsT2oYAGjgbNm40nwmXK1vGuCnwC21CaNFhsZ54rBg1ytjbhfmDehddZBYjsynXpIkUP3CPdpsbaPRCO7fw/pk/+YTGb+MbbpAq7dplihPu1Tp1MvtLhw83v6BC8+ZGm3fZyJGyacGeT1FXT5ggG+fPN1q15Q8/XBYNGJBhCgIsGTJEtq1ebeIMyqcnTvvN6tPHaPceeu21UrG161NtJ9/1LrxQSh58sEkHmsdBwAwANLp3794tZ5/WNYvmND7HRduolpYC/2ecerLR7LaZPWe+0aSrffBB0rXz8VnCNaxbxyzcB01x9A9QqWIFueLCc6RypQrmWIF7vUNqm8/roRUclkTy4Ae0LqEJ2eLwwzLFA/fWzQ83++MmTTa/ycJuE9SLu01Mnk7vZq6/ISP+lvkLElvoC9fbWZdcI52698yydTvvMqMBmF2gdQvNURvk/7QunY1m4ITJ04w2rI1f35ozf6GxQ4p+cen5Z2fRiMXYclqXk4z2s2plhiFV8R5S82A5rv0xzpi22bQnxl4FZe4/aKgzFpaV4zs6442LKPU2btIUox0JbUpoDruBO8owdvxE8/m+H8jf738ONvk9/dSTjNa+Dfp/l87HSY1qVY1mLTTYEwVxoU5R/pGjxpqvQGz+GvGPMU/Q7qjWTt4r5WjebKCxfuOVl4QyhYJxEvmCxjg0XBVcz6PHjpPq1arIZRecbcazMf9NiJ2FHed1RoMXaUC7FWRnDMO4cOm5Z2cxaQDzE21aNjd1CJM48ahXp7bRGFbTSQryVNVpk2XLV8iSpctjrntI5JoPk+cx4ybGXAkhhBBCCCEk/5F0Ae9++xV3Jm61zCT01vseNZ+Auydb2QWL7GCxHQhqVJiMT13xKS8WVEHaNtu2b5MdO3caQVaoz8XHjDGCzgObN5f9KlaMuYanavv2UqpmzdhRONTMg02pWrWMvdvNixYZoa7ByRdMORQ74ACpddppUunII2Xd9OmydupUc3q3U86Ff/xhBLE1u2a2wxgGmHdYNS59co60vYC9X2MywsnLqvHjY67erFu33ghXypYpnWFOIwyYiLsn8WDO/PnGfAgm7BBiYIEde4NJg91pu2XLli2yfn3wok2w/4t8RSWZeQjC/bl3stA2Qf5r+ZjvqF6tsrFzietp8dKlxg1mFE4+6yI57JgTMm1wwzk3+5coIaec0EnO7Hpylg2fq5cpk273OBVUc671cgeUlXXr18uqVZnHH7++NW/BQlm9dq0cXL2aEQx6gZdLECLB70aPxbC8SFW8EMqdfPyxpp6HDIfAclnsjBiTNLDP26ZVM6l1cI2Ya3y86m3CpKlmrE1P5+8s/R3C66JFixhB4rZtmReLtNnsXA/TZ6XbmYU9Wy/KlztAGtarY4TdM2Zn7wUAyo3yo+7/cPKpwOwFBOIoD+oP9ZjTeVMaOPHBVEBYOhzdxggzYWoA5gfAgkVLjA3rVs2aGlvzEOT+PWasMYMAYKZioeMHJi2qVU23k5yKMQwmIWA+BKAfJwrG5QPKZH5JG4aga94P5BnmpcDsufPMLyGEEEIIIYTkR5Iu4MVk+ZpLLzT2e2GrDzb2OnY9W7qee5lZTA3aRqmgcqWKxt4uhBrvffJFxuR37br18tq7HxktpBOObZdFG9iLNZPTNSaNkNYpT1QKQEMvIBxs7q4YPVpGP/SQ/Na9u3x60EFmMTc3sPerQtqF/fub3y3LlxuNXQhfIQDGeSyIhgXhADR9ofELe7rQNI4KBLzQDi5cooTs7yF0BgWd8ql28oa5exZc8mLV6rVGsxo2NMsfcEDMNT7oRwULZO2ey1aka5NBi+72Bx83ixO5t9FjvYXOEOxgcSPYnr3g6pvl5LMuNPYvo5KdPPgBoRFsQaKv3nzvIyZvD/d6IXY2uWibQCPQT4hcuFBhI3CEYG/J0vRFBqFtDS3U6lUrZ9rghnNuYAf11muvkAfvvDnLhgXcwi7KlQgFCxaKCe62ZtEq9etbqsUNTW+/caI4Xi4VKSz4EgC2ccOQqngBhFN4cQJtVGilAoyxWPwNL8G6nXxCJlus8fCqt+WxrwOwIJZXX7/3sV4ya848Ew5CQT82b95qtDIhVIR9di+Q1+LF0xfWsgXWiYC4YOcYAlFoM2doJE+cbK611s2bZgj3cjpvSqGCBaWA8xcW5BeCa9znYC8aYKxZ71zPEP5CgAtBLrSuly5L136Fti9eekL4C+EpSMUYZgN71LB1HQa0S7/fBsijz74kPS+7Ts646CrTRlEJuuaDKBS7PvCsEFZ7nhBCCCGEEELyGlmkHIULFzJauGDT5mBNMkyGMCkCFS1TANCQ6/XwPfLrVx9nfAKO1a7vf+JZs9I3BG3JBpPvm66+TI7rcIx88uW30uaEbka7sN0pZ8qvAwaahVVO79I55jt3gCB25uefy4dOXX3bqpWMf/55I1Ct0blz5kXULGDOAWYa1AwDNHnXTptmBLsQAMNEQ9mGDWXB77/LtjVrzHlo/MI8QyLaxwo+WU7b7S+sUYqWSp0WZhBdTzpexg/93Xcb+ktf8/ktwIuGp3q/5vSFM+Tmex82iy9VqVTRfJp7oFO3iRIlD35gNfef/xgonbqfI+dcfr180fd7o02IvDWICZ9ShTGnsjtdyy+IEiXSxwNox2EF/p+//CjTBjecy4vsV7yYlHR9lh0PtIlt7sALCIWgtRqFVMRbvFgxY1IAQkxopWJsnTZjlllYEqYTmh3WOOYzGl71dvM1l3v2c91+6vO/TAuz+WH6XYAgWMGicNkFC6xhg0AUWs3Qau33W/rLMizaifqzycm8JQJemkBTV80w4B487O9RRugL4S8EuO2PamOE1RCS4kUntH2hOd6y2WGxWPaQjDHMCwjJ9TnCj6XLVpivfDD2PfDks0agDG1m5BNf5CRKItc8wAKBRSOYkCKEEEIIIYSQvEQWAW8p89l2+ie90AjTzzy9wGfZ0NzCytN1D8n6mSk01m648hL55auP5I3nnzSTzH/G/Cej/0tcMyiI+QsXyX/jJ8nF5/aQF598SJ577H5584WnZMhP38hVF59nhCBhgPYr2Lgw8c9MvZjyzjvy57nnSunateXMcePk0g0bpEv//tLu7beNbV4vStasKRVatcowwzD3hx+MeQZjx9cBNnYhzF09frysnTJFFv7+u9EePqhLl0AtYj+KlCplNIN3bdkiGy27vza7tm7NsPlbrHywGQG1f4zPZpetSNc4yw71nH6G/hZWQwzajPc91kv6fPujnNn1FBn045fy69cfyzOP3Gs0SfFpfFSi5iGIb3782WhAVqlcUb7+35tOX/1a3u79tMlbz9O7xXwlF20TaLmtWJXVtAKA4GjNunWmnGVK544QPztAQxltDxunYYVxsP0JoBkJIbsXqDNoCBYvVtRoOIchVfEqR7RoZuylQisVQj0IeqGxeWrn47IIMOPhVW/169Q2v4naYlZgHgcv+yCEVu1TN/ZLwwPKRjef4gYa02d0PcnsQ6t5yrQZxiYv6qtp4z3XfqJ5K1iwgKf2eio5pk0rcy+DGYZ58xfKZKdMEPpC+AtgZxdmGnD/nufcE2E/GULaGtWqmPMgmWOYzfKYTXx8sREETL9cf9cDJo83XHGxDPvlW/nhs/fk8fvukHtuvs7XdEwQiVzzQPOMcQ4awIQQQgghhBCSH8mqwVuokHRqf7SZ/A0YPEwG/rVn0S8bfFL+/idfmE+DIcDQBaG8wKTp6CNaGk0zfPK9cFH4Ba3Cgsn3G+9/bPaxgNKx7Y6WEzq2k6Nat8iysEo8yjVO13qDGQV78TIFWrc7fQQ1fuzctElmf/21Md9w9CuvSLnDDgslgC3sTFQP7tJF0pz6nvfjj5nMMyjQ5oXZB8S/aOBAKelMjhMxzwCKlCyZnjeHxX/+CZU2s2+zeckSY6e3YNGixgZwENDEql3zICM4gf3O7FLTKRu0bydPnZ5l4SQv5s5fKGMnTDICnRuuvDghm7tuoubBDwhWYCICWnd33niNWXQoJwQMdptgQSIv8LJk8ZJlppwob35jwuSpRssRY1PlipkX1/PjoOpVjWBsztz5sthjcSeAT9ox9qE/lQnZl1IVr4LxDbZkEf6t/30qA4eOiDsm++FVb7BJC3u1YydMNFqXiQJhq9qbHfXvf57azPrSEOn52cKNCuoB5YFWM+4RsMmL+rLvC4nmDcL4ShUqmK8EVq9Nrq15P2AHuGaN6jJt5iwzfkDoDPMMipppwLXdf9BfprwtmzXNJOxP1hhmAxvMeMGAZ4cjWjaLuXozedp0I3hu7+T7onN7+JouiUIi13yUPBNCCCGEEEJIXsZT9ahj26OMPVsITR/p1dvYx4PwQMGEstdLb0jffr+aiVHPM7qaBWiUGbPmmBX0bRAeC7tA86hu7T3CyWSBT5uxGjc0ks6+7Fpjx/TRZ1402xd9f5Dh/4wxAq0wlG/WTErXqSNrJ0+Wae+/n0nIuXnpUhl82WWyNaI2KgQGENICCGNtEOe4Z5+NHWUFQlTYxJ3y9ttGk1fNMygQ5kLreMpbbxkt36odO2ayn4v0Rt13n/Rp0CDDVm8Qja66ymgGT3rjDZnTt2/MNR0Itv994gljBqJmt26+piUUCC+7n3Kiafcvv+0n/02YFDuTDuyNvvPR57IgpNAfK953bHukYIGgF998N4u9Umhwff39T/LT7wNMnWMRPrMYn7PhE3kb2KYcOmJU7MibOfPmZwh7VJs9ah780PwB+/oCEFR81Ofr2FFyQZuc16O7+X3rg0+MYMQG5Xnt3Q/NyvKnnHCsKW9eZeKUaUYYbYPjDz770oxN6HthhUf4zL1zp/ZGIPbsK29mGS/Qd9GHIeDD5/14GebGq78kI16YGACI292PQdsjWxubxhBWQQgLUzX2mOwmSr3h03/Yq4Ug8E2nv6B/20C4iWt45OixMRd/zux2slQ4sJz0/fHXLPavEe+7Tjx4aQgtVQi7kwHqAfWB/jx05ChTT6gvN4nkDWYIoH2P8eW3P4dkuo5hHuHlt9/Pci/MLjCHcmjDerJ8xSrTb9Q8g4LrGvZ2lyxbLl9+18/YFW7TIrPwMjtjGNp7xKgxmfoh9vv++ItMmT5TGjt5a9YkeEHNnTtjYzJMxFjxI60/Bv1l+rEfiVzzUfKMNnz5rQ/ktAuucPpLul1rQgghhBBCCMnrFHrYIbafAYRx+ORz2qzZRmNpwJBh8u7Hn0vffr/Ie5/0kdff+8h8DozPU2+6+lI55/RuZh9gUnnNbffKex/3MZOu7Tt2GE2jF994z0yuj2hxuFzY80wpErN19+dfw53zs6VNq+ZmsSCAifF3P/1mBMxYbd+9EJTXeUzsatc82EzIsIgUhBH4dBUbPgOFkPrDz7+SEs6EHNpXQZqSRcuUMdqp83/6SRb17y9zv/9eVv77r0x9910Zes01RqiJ8NvXrpX6l1wiJWLC1KXDhhn/5Zs2lVqnnWbclEJOfBvnzpXFAwfK0qFDjYB2w5w5RoD653nnGVMHEPRCWOsOW6R0aVkyeLCsmzZNijr7LR56KJN93SL7728Eu8uGDzeT5ZaPPCJlGzSInRVZPXGi/HX11bJ58WKTRu0zzjDl2+3U38zPPpON8+ZJnXPOyTBNgbhLVKkic7/7Tmb36SOLBw0yceN45K23yhLnuHTdunLsxx8b+8DxgAYjFrkbM26CsTcLG6Gr16yTb3/6VZ584RXTPvh8uEmjBnHbHvV+2KGNTLtCoAQhxLQZs83k/aff/5THn3vZCAiwmn+ndkcbkyMQ7qO/QpsXzT5zzlwjDHj/0z5O3qoZe5VYFLDmQdVjqYisXb9efv9ziMxwrgGk9Uv/gaZPQ+MMmn9R8oDFs7zANbBw8RInjn9l/KSpZlGshUuWGuHSg08+bz4ZxsuUQ2odbDTS44HyIZ8Q2nz0xddGW9FrwyfM0GBEXeKa7Pdrf1M/0FxEvnu99LrRrsM1Cc3iYsXSF2YKi+YDZiBOO6Wz4PP3eEA78sff+pu8hQkDrWzU2wanrN/9/JvMmJ3+Uunzb76XZ199ywi/zjj1JLnkvLPM2ADC9K2G9evK5KkzzOfvqJfps+aYOoIpjZff/sAIvq67PH0RSXsMiddfEo137oJF6f1j8hSZ6lw3X/T90bmGBshx7Y/JGEMB0kD50Y9gCufmay+X8h52kROpN9wPYM4A1xG273/+PSP/eMn3+LMvGXe8YDuqdcuMe4EXEE4if4OHjTSLtsHuKgTcuA/0fv1dUz/QLsen+mWcsU6J13bxOOCAMk4aw0w8XU481un/mesZJJI3xFGhfDkZ9NcI4xfa01OnzzTXEYT5EJyibbZu3ZYp33qNQNiMNrfbMh5IExvGGpj8OPHYdnJch7aZyoPF4H4fMNiMH2i7c87olikN+I06hmkbQAiLhQMxfuO6HfXvOKfvvGlMgxzg3DufeOBOObhGtVhK3qBPwRY6hLW4N+A5YeqMmfLC6+/IQKcuy5Ytbcpm11l2rnm8VBk9dpx5lomXZ/RtjIFLli6XVWvWxq61cOadCCGEEEIIISS38BTwAmjAHN+xrVSvWkWmz5xthEbQgoFtR9gchJ2/Xg/dayaXOpkCmMxigahJzsQRgrvfBw4xph4w+ep5+qnywO03ZdKuSZaAFxO9W+9/zCzy8/m7r8m1l10oPU/rKhf1PNPkEVpNmMBCW6fdkUdk2Cv0o0KLFmbxMti0hQAUAl6YJjjq5ZelxQMPGIHr+lmzQgt4wYHNmsnG+fNlyZAhMr9fP5n91VfmGCYbmt1zj9GuLVG5sqdweMuyZSbuascdJw2vukoK2gIBTPidNoCwtuTBB0vz++83gmAF5+b//LNsWbpUajpxH3zKKSaMn4AXoAxIC4u2QbiL8q8aO1Z2bt4sh95wg3T6/HPZr1I4zU70j2PatJZKFQ+UiZOnGo1RCOIhsKpRrao89eDdRsMRQod4bQ/QluibWBTn33ETjJACGwS3WDTt+isulpuvucx8Pg2/+KR57LiJxi+EFhD0HFi+vDz36P3SpGF9+W3AYGPOwxbw1nD6/XYnD9Akw8sCaBi3PPwwaXdUa9N/o+QhiAZO3pYtX+nEMV4GDR1prhcIIG6/4Sq59LyzjRANGohRBLzxwLXWomkTs+Gz9MnTZhrhFPKPa7FE8f3MooR33Hh1KOGsm5wU8J50/LHS9aQTjIAK9Tdj9lzzKfr1l18sV11yvhR12kkJ07fQXhDo7E5LM22Pvop6gUALdYW+Cq1mW5gG4vWXROPFOQia8FIEQvfVq9dIWyfO1s0PzyKw27Rpi/w5ZJic2KmDdDv5hEzjspJIvQH08y4nHmfGf5g60P6Ol3gQjN176/VywdlnhrJHC5u+WEhrlnOt/OfUBV4uQCgKjeezTzvVqYt7smgfh2m7IPCSYtjfY5w62iR3XH+1VKzgHT6RvOGeU6f2wUZoiPZEveAawAJmvR66x/QHaGDb+c6OgBfAxizMJ23btk2uuewCM47a4PqB2Q/kB1rhrVtkNdcRdQzTNijr3Dufefge86UOXlBAcApTBxAkv/DEg2ZMiwe0imseVC3DJj/GPXxNgUUBn3rwLiPg/ds5hz6ndZadax5C6cfuu8MIhaGVHJRnXDd4dlnlXGv4mgnXsPu6JIQQQgghhJC8RgFn4uP/DbkFJkqbnA3aWdAshAZOPDAZX79+o5n0Q+MplYvRPPx0b/lj0BB5q/fT0rjhHkGlggn63Q8/5UzyR8ubLzyZaYGdQJzq2bo6fSGq4tBWTcJED4uUbVuzxtjXLVo2q5ZdKoCZhh0bNpgF2qKWAWG3OXUA+8HJqAO8LNjhxBm2H8UD8W3btt3YloXQwo+w/my036cibhu9ViCIgvAjp8nt9KPy/qdfyotvvGuEaNCoxDCmC2DBznKyBDJR2zVV/QX+g64ZaADfet+jRvgaNL4lo940DD6xz+41jM/hoeUKoVoy280NXpTcePdDckLHtvL4/Xd6msFwEzVvyayX3CCRMUzHDQiU3WYRwhClzhLpu3hxdNG1tzhl2yBv9+5lFpvTPAeVE21vrmNnLExVnySEEEIIIYSQZBJa4orJG+wTQnsp7MQVkyeEwaevqRTuYqKHSdvOnbt8V6nHqt2z5s4zE8HyEFKGxZncFS9f3mzYTwYwzwATCDkl3AXQ+DXmFBIoA8JCWzdZdYBJc5R+FA/Eh34WTygR1p+N9vtUxG2j1wriyQ1yO/3sAiEMtPKxJVMgE7VdU9Vf4D/omhk7fqLRIMVXELY91ngkUm8aJhnXMMIjnmS3mw2E319918/sQyM0jHAXRM1bMuslN4jaJ4GOG4kId0F26kzDRu07muegciIvEDhHiZcQQgghhBBCcpPQGrx5Hdg+vPPBJ8xE84KzT5fj2rcVLFq0Y+cOGTZytLG5Clt/Tz54lxzfoW0sVFZ+7NDBmF8g4Wl6111yxNNPx44IST1ubb59GXydcP/jz8ivAwabz9vxyb8f+2K9wSTG1bfea8xdvP7cE8aMEMl/JNJ3vTR4CSGEEEIIIWRvJHVqtTlMh6PbyGP33W4WqsIK2F3PvVQ6de8pnc+8QB577iVjo+/VZx83djAJIWRvYfqM2cYEAQSYR7RoFnMlAMLvb/v9ZmwHn9r5OAp3CSGEEEIIIYTslew1GrwKioPFU7CA18ZNm8wK2fhkOb9+ek4IyYraus0vNoNTSVi7v2Bfq7ddu3bLuvXrzaf2qbTxS1JPIn1X2x/PBfnRLjIhhBBCCCGEhGWvE/ASQgghhBBCCCGEEELIvsJeY6KBEEIIIYQQQgghhBBC9jUo4CWEEEIIIYQQQgghhJB8CgW8hBBCCCGEEEIIIYQQkk+hgJcQQgghhBBCCCGEEELyKRTwEkIIIYQQQgghhBBCSD6FAl5CCCGEEEIIIYQQQgjJp1DASwghhBBCCCGEEEIIIfkUCngJIYQQQgghhBBCCCEkn0IBLyGEEEIIIYQQQgghhORTKOAlhBBCCCGEEEIIIYSQfAoFvIQQQgghhBBCCCGEEJJPKZDmENsnhBBCCCGEEEIy0a9fP+nbt68sWbJEtm7dGnMlhBBCSFgGDhwY20sNmQS86zdslG3btseOwlG4cCEpW6a0TJ0xS776rp8cVL2anHNmNylWtGjMR86xefMW2eRsmqcCBQrEzuQsmo94FCxYQMqULuXkt7Bs3LRZBgweKvXq1JaG9erEfJB9FVyL73/ax1yP5591mlSrUjl2Ju/Qt98vMnHyNOnRvUvoPpuqcuWH+iKpY8r0meb+07hRfTm9y0kx172Lrdu2yZDhf5t7W6tmTXPt/pYT4LFk3oJFMn3WbClcqJA0adRQKhxYLnaWpBK9lnLzWS4n0Oe00qVL7rVlTCY7d+6UcRMny6o1a6VUyf2l2WGNpXixYrGz+ZM1a9fJl9/9KLVrHizHtj1aChXK+x81ej135cS9YceOHfLSSy/JTz/9FHPJe+C+ker7Yk6kQfZdovYv9c9+mRh2/YG9qQ5TVaa9sa5yg1QLeDM9zTzz8hvSqXvPSNsdDz4hW7ZslWXLV8rXP/wsQ0eOkl07d8VizFm++PbHTHnKLTQf8bZu510m02fOkZ27dsnjz70kDzz5nNx414Myd/6CWEz5B1zweFjetj3aC4J4YFKBeHft2h1z2TeAoPL3P4fIj7/+IevWbYi55i3+HTfRXPO49sOSqnLlh/oiqUPvP+iTyQAvDCAAyku8/0kfuf2Bx+W62++X0WPHx1z3PjZs3CTX3fGAdD33UlPem+99RH78rX/sLEk1eeFZLifQ57QR//wbcyF+TJo6XU4883y55PrbzTWJZ+zZc+bHzuZd4j2XvvW/T+W1dz+Sex/t5dw7JsRc8zZez13x7g3JuJ+NGDEiTwt3gQocVACRTNxCjVSkQUii/Qvh2CcTB/Wndb+3kEiZ0If8+pG67231lChaV371ldtkEvCWKV1aqletnGmrXKlCxlvtcgeUzXK+fLkD2Ng+QCsEmoTuOtOtauVKUqRI4ZjvdHbt3i27d+e/QXrKtJly6jmXJH2y9FGfvnLelTfK6jVrYy6EEJI6VqxcLT0vu84IgPIiuEfs2rV3Ct7woPTG+x/J0JH/SKMGdeWD156XAd99Ief16B7zQQjJSfDs9dDTL8iq1WvlzK4nyw+fvW+2+nUPifnIu8R7LsXXc/pbtGgRs5+f8bo3JOt+BrMMJB3cpzjvJXmJvCpkyi/sTfWHsmh53PvxSEQovC+Tl+sqk4D3jhuukp+//CjT9ulbr0iVSpXM+YfvujXL+V4P3yP77VfcnCeZadq4kXzz4VtZ6ky3Lz94Q+oeUst8gnrXTdfKLddeLi8++bDUOrhGLIb8w/KVq4yWQLKZPXdebI8QQlLPCjOW5T0t8IvP6SH33nq9c494SFo1PzzmuneB+8jgYX9LubJl5bF775AWTZsY0wz8hJ6Q3GHcpCkyc/ZcOap1C7nzpmuk5kHVjbJHfjBnEO+59PorLpK3ej9lXiQddmjDmGv+I+jekKz72cyZM2N7+yaYyNsCkjDCEkJSjQqYKJhLDLv+9hbsvuDejwfHtXCgnsLUZ26S95/Q9hEOKFtGLjn3LOchs0Ge7zReLFi0KLaXPGBmAw/ohBCSU6xeu8bYRM9rlCixn/Q8vau0O+qIfCFcSYRVq9bIuvXrpVrVylKpQvmYKyHJp0jhQrE9EsSceQtk9+7d0qBunXxnczfecynKc2SrFk7ZDsmXz91K0L0hWfezTZs2xfb2XWxBSX7uL4SQvRcV0uI3qsCW41p48rowPGWzRBQcwrlBQ0fKhMlT49pmhX98Cjb8nzEy6t9xKdEG9QO2qZDHP4cMMwu7wO5rToP6wadUsBcWr9PgPPzZfhEe9YYyLFi02NNmraahbYFywrYa6hx2D92gDRAn2nDpshWBdnDXrF0f24tP2Hh37NzhPFR6P5iizVCWeP1E/eE30XqzQZ2hj8D/jNlzM+oyKtrnwtStgjDIK9oLZYiHnVekhfBewN+q1WvM9eeVj3jn/UC4mXPmyu8Dh4QaA4LIK/WF/mZfQ27gHnQecWp/DAPiQV6SUYcIiz6LuOL1XdQv6hn1jTr0u868rin0FXxi776ecF7vCegXqG838I9+ZqeHsQltiHAIr+lEAWHC3l/Wrd9gBBphQDzaxxB/mLzBD+oL9eRVB4rWhV53Ya5Duw97tbHGYbeXjebN77w7T2GAvzB9yWa/4sWlcKHM5ovcaF6i1qONXV9+1zyIl5bfecRnu6E9UAfYvK6/MH3DHacb1K/fGJRof4VfhMnOGIQ6wpiAukZcKKcbr/6ndYZwYZ9tEHbRkqUmDMJ6tWuNatXMp/nFi2XVDod/lDXK/caNXW9h6lvTRJ7RJ/3a111W+PN7jrPzgHoIc+35UbLk/rG9PSR6XXi1V6LzhaC6jfJc6kfYdtGy2nWMsHq9efV3G5QZ6SRyr0eeUMdI391X/e5n2gb2teaF+gsL4tL47H0v7HNhwyjqzw6XKHbYoHjstLw2P/Sclx/3uaB4gkA4O46w8dhh/ND4dLOJd6y4w9v+tH/a573wChuE7S9KmETD6W+UMLb/sOFsgsLa53TTYxv3eTfucG6/fuGAO4y92eix+9cPjUM3P+L583O3sc8H+ddzth+v40SJGk9UYa0dfxjsvIQNa4exf6PgDoPjsPHZ/rz8qrt93t5XwtatO5z7OJUUcBILTA039ouuvUUWLl4iLz/9qHQ4pk3sTGbwYHbj3Q9K6+aHy63XXiFP9n5Fxk+aGjub/ob50btvk+M7ts1SMROnTJMHn3zeTPqVggULSvOmjeWxe28PvSL++59+KS++8a7Jw8tPP2LSDAIP7lhY7s+/hmd6AMIKwVddfJ6ce2b3DBtdUYiaD2DXX7wweGi88e6HZN7CRfLuS8/IsL9Hyctvf2DcleaHNTbmMypVrBBz2ZPG5RecI11O7GQWZdA6v/may+XS884y+7PmzJOHnn4+U/uBigeWl9tvuEpOPLZ9Rhu+9u6H8v0vvzv9ZFWWB8vqVavIh6/3zlj9PGy8a9etl7sefkqmzZxlHljddD3peLnonB5yxY13mofPN1940pjDcIPJzrW332c+L4SfurVrJVRvAGX78rt+8uo7H2SaROHTYdiHvPrSC0Jpt2C149ff+0g+7vNNpvqCBvc9t1yXUQd63eHTOpjt6D94qPT59oeMMLg+zuh6ktxxw9VZ0kUan3/zvVlAxC4bNDuOa99W7rrpGjmw/J4V6SdPnSFX3nKXlC5VKlN7KX7n73/iWfnhlz88xwUI+B5+uncmDWyU8brLL5IPnOtjw8aN8nbvXsbOZhB5rb5++n2A3PNoLzmmTSt54YkHM8WFofTBp56X73/+Xc45o6vcffN1mcY6vW4xeXvD6Y/oa35A4+YVp29ihW93uR+95zajqWPHHQTK997HfeTjL7/JVD703R7dT5HrL784Y7xBWr/9OVh6vfR6pgkp6g+fsCJtfKKraJlwTb32zGNOGn3lx1/7Z4ynx7Rpba4nTD7vf+KZTNc++tGTD9wtR7TY80mptiPK2fvJh+QTJz677ZEPtPn9t99oxmlFxzaMDY/fd0fMNZ2w9xfkG31t5aqswrHSpUpm6q8QHmFRTCx4Y9876tSqKY/ee5s0blg/5pIV9JOnX3zN6XM/yIU9z5Tbr78ydiYzOP9U71fl5OM7yuP33ynTZ8z2vA4B6ifM+ITr45rb7pMp02ea+wz6sY1e6xCuvvPyM86YWTN2Jp2BQ0fILfc+4lwXx8jTTrvCvJAfUfqSpusngPIaY+x61Dryys8v/Qeaa7Zzp/YZfqKOkfb44jVu+Z3XZ4GnHrzLia+83PvY08Yv8HueevmtD+Tdjz8PHEP++fc/Z/y73vixWbZipVx6/e2yfccO+eDV58w9GETpr/azCOrhiedfkX/H71m8EGPFzVdfJmefdmqoMcivH6CuLzj7DLn2sgszxlF7PEn02Qbj/H2PPRM3zxgPcA97+sG7nX6YbhYr7P0mHri+Hnmmt+nXNqhvfErfstlhMZfoz6Fhn+Oy+1ytfdcLfbYDiVwXdhkwZrvvDWgvv/lCmLoNei71wuu5O2q72Peu5x97QP73+VehnkGi3uu9nru8ntHi3c+efeQ+efaVt2T2vPlmfDrpuI6xs3vAAtD3P/6M/DpgsBxQaFvMNRr2FNPdlnrOzx14XW84b7vHO04ErzhsN+yDeOloGLd/PQbx4kiEsPFr/tz7btz5B15uwM9dcZ/H9YXrIygczsE9Xtzx0Hjc2PHb5/3cFT93JWy4eMd+BPnDOeAVb9j4ge03Xnruc3AD7jR1X88Dv3jjYcfljt+N26+fPxB0DrjPh4k7XpxeIAxwp6Woe7y4E0kbaDg7vF9ccAfuc+oOEsmDTVDafnH75QvY4XTf/au4jxMBcYBBgwaZ31RR6GGH2L4neLD+7qffzMQLDwD25N5m7vyFZiKFzyu/cx6s8PB4xUXnOBOvY81DAoR7I0aNkSNbtnAePvZ8eomH8OvuuF/WOQ+Al57XUx6682Zn0tJNSu5fwqyK/9fIf8wDTqmSJWMh/Bk7YZKMHP2vSRt5LVLEf9GExUuXyTW33ytjxk2QhvXrGMFTlxOPMzZxoQ3x55DhRihx9BEtzY0nClHyoWj9hQmzY8dOx+8gWeKUYf6ixfLTb3+aiRImL3h4h+YWhJr47XDMkRn2CzWN0qVLGgHYjFlzpLIzSSrjHHc+roPUrnmQET5dfeu9Jt4jWzU3ky/kB5Pd8c45POgVL15MDm/cyHRy1BEmzBAqQFMAdtqOaNFMGtWv6zzM15NWzZpKsWJFI8WbtjvNmaiuMA+ri5csk6JOXZzQsZ00PbShibdpk0bSpmVzmT5rtkyeNsN5WC5qBBXuiw6aEx998Y2Th8PkvB6nmYsqkXpDuDfe/8SZaL5v7FFjonfXjdfI8R3aGgHmdz//biau8foK4nnrg0/kvU/6mD73iDOBueHKS6TWQQfJtJmzZcHiJdLxmKNMunrdrVm33plgDDOTjYvOOVN6dO8iB1WvJlNmzJRxEybL/vvvL80OOzSWQromx9Mvvm5WVS7pnLvs/J6mfEcd0cJM/keO+jfLNYWJCVapL+ZMOk47pbPsb01ygN95THyQb7SjPS5ACHT7/Y+bictJTr+CbeluJ58oRZzJ0AeffWmE9ugTp3Y+PtNY4CYv1leJ/fZzrp1hZuKItDEJU9AX3nTyi8ksJlTos9BEVGbMmmvKj+vswrNPN/XpBeK5/MY7ZPDwvzONTZhYjps02UyOmzn9FYs0xkPLB4GFu3wow9CRo6VJowZycI1qpr4//OJrefKFV8211KNbF1OHHdseaeoXY+WvzvXT4vAmUqnCgSZ+HYtmz51vxpRt27eZaxuCEMQ/auw4KeRcE+989Lls3rJVbnTaD2MNNPOnz5zjnP9P2h/dxizwCTLuN85YgjEDAqlrLr1Aup9yotSpXVOmOu2I8Rnn7etNxzYs/HNsu6ONG4hyf9m4caNs2brV1APaAEIvnNOxrHWLpmZijLTw4gjjz2lOviA0hFAFGoGDhg536mhwpjpyg7pFPEh/rTNuHNfhGNOvbDCevvjme2Z8venqy8z15XcdRhmf9nPSWbR4qYz+b7ypc7eA98ffBsjgYSNNPdQ/pLYc6pRbQTrvf9pHpk6fKZdf2NN81uxH1L60f4kSRlhSsmQJWbBoiblu7DG/dYvDpYIlcAV2PeJ6b+u0VfkDysbOpgOBHYQni5z7iNZjImOk9ktc117jlt95fRYo69T1F31/kLVOv0V5cf6UE4717CNFihaR35z74cbNm33HEKRTsGAB6dT+mExCbVxvX33/kxzVqoV079LZXB9R+6teS7t275Kffv/TvIDVa1qf5f4ePVZqOePYITUPNmH8gP9nXnrD9GWUQ+u6aeOGznU8w9Q12rFV86bmN7vPNlhkCi/YypQplZFnLGQ7dcasLHmGHdkzu54iZcukj+Hos2HvN0Fg3Lru9vtloXOd2c86FSuUN/1+idNXj217lMlXIs+hWtag57hkPFfj3oY20fEQ91GMKfazHRb0SuS60DKsWLXa6a/9TN8LM18IW7cot+9zqbWVLVPajDfu5+5E2kXLutwZQ/CMANMW8Z5BErnXez13ed0b4t3P2h7V2rnedpgxY+vWbeljiSWwBrOc+/ob731s0t+6PpwWL9JDv1Gwr8e2O7DP2ai7+xziBnC303EfA3dYN+rfjhN4HfvFq+H1V91s9Nj+tf2qe7x04+H2b8cdFA/OaVgvf+5ztn/72Eb9u/NkY4dTP0HhbD/2rxsN647b69jvnJc7NjsM0GN3eMU+r+dsv7a7+xjY+0H4+fOKC79e+QLuY5sw4cKGdWOH1fP2sdc5r/ji+cOv+tFfYO8r6l/3gX3sF173vdzsvADbjxd2On5+NT782vvuX/XrBfwo6scvHPa94tY4vMLY5/z823HFw8+f7e7Om30unjt+3e7q197Hr55X3OfcaBzg4osvNr+pIukCXmT8vltvMBqZeJDApPx4ZwKLhx0I44o6D8c6qYSg586HnzQPSk84kw7YkMIDFzZM6PBQ0bffr06cBc0DWjzCClYxwXv8uVdk9NjxZlXg3k885Exk68shtQ6WlocfZiZV0EAc5ZzHAx0emKOg+cCDaZtWzWT79p2mHu1tmzPxRF1gkga0/qIIeFGnmKC++1IvIyRB/iGs6dTuaJN/rCBcz8k/NFeBprHQeaCt4tTt/157Qa686Fwj/EQZoTl73+O9zMTqpqsvlftvu1Hq1alt4kWbtW7eTP4YNETGOpMHffBG3EgbbYuHzjtuuMY81MINQlgI8qLGW7VKJTN5aHpoI/l1wCAzMXzm4XuNlhbibVivrnmo3t+ZrPwx8C8zSejgTLww2VcwSXjzg4/NRBCTgIb16iRcb2jLp3q/5jykV5U3nk/XvET4ypUqmr6CesWkCQsCof38QH9//rW3zQTxlV6PGXvLmGBBiHJW91PlFKd8OpnX6w51h0nVq888Jke0bGbyit/KFSsaQerK1aszCQF+/mOgvPbeR2ahvg9efd6ZkB5pwqDOup98oixdvsJMqjdv3irHHNna1GMyBbyYUD3+3MvORGu5aevbr79KDq5R3Wj8oK0b1a8nQ5zJDIgn4M2L9YXPVCc6k0xMNCGkqHdIbRMPUOEKxi1MQNs4E8rq1dI16AAma38M+stoP2Iy5QeEfUgHk93br7vKlBd5Ql/duXOX6Y8QiLmFc14ElQ9C955nnGr6OcZtCAUee/ZlKenEjX5+xqknGb8o4ykndDIvWgYNG2HGD5QBY5ReU/h0unOnDvLcY/ebawlhjmrdUob+PcoIDCFMfP35J0xb4Byu1/GTphgh7yE1a2YIErUd0X8aONfsq888bsZk5AOaWS2dcaH/4L9k+qw5RvMXgg2gY5st4I16f8Ex6nidc69DHZ/rjIs3X3OZcUNdY3yBwPCxZ18y7Y/+DaFh+XIHmH7ZpFF98/IJmlMrVq2Sjm2P8tQoBcgDyo+XWxibdKxRxo6baDTAUC8QiuEa8LsOo45PKkDEfRD3ZsQHUPdvf/iZsX0OdjjnbQEiri0IvzBmIE/2yw03UfsSNOcgwDuoWjUz5qN+7DHfLdxV4G+Kc++BVl85Jz8QFNpAGPPuR18YYbTWYyJjpPbLRAW8uA9BGPTey8/KxeeeZfqil3AXoF1HOOmj3Y52+l0Vpx0VCOD/GfOflHb620qnXyPvdjv06fuj6VfQLkR/TKS/6rWEa/vayy6Su2++1tyv8SwHLWi03bB/Rsuy5SvNWBsk8ETdoZxVnX735AN3mesMdY0vbqDF3X/QUFm1Zk3GmJzdZxu8MLn8wnMy5Rl9OEyeo9xv/Ah61jn6iFZyzund5CQnHrzMTvQ5VMvq9xyXrOdq+Me4p+Mh2uGRe24zv/psl+h1oWXAczC0xMPMF6LUbdBzqb2V3L+kyYf93J1ou2hZ8TyKPId5BknkXh9WwBvmfnbAAWXMC/EFC5cYgbneT5U+fX8wLwPOOq2LTB7/X8w1KzqpBfoL7Amw7R4P9+TYL6zt7vYTLz2/sF77Qef9zrmxJ/7qzz7WzT62/XrhjkuBO9B4grD9eqWn7rqvuPd102P718adZ90U97Gi4bzyaOOOS/Hax6/G53fejdufuzyKO5/2vk2QH78wbvz8IQ/APq/5cufPjfscjjWcHgP7OChOdcevva+/GlY3+9jrnIZzu+NXUXfdV7z8xcPtB8decai7nUcb218Y7Pi8wrjPu/3qbxAazvbrF079eZVP9203d17sfLqPbb+J4E7LRtPwcld0H7/uvLj3/fLt/gXqD5sdLtUC3miqqSHAgzseoJF5BW+F9VMifA6kE0hdnReTsrbORMoN3PHgBcEftOKSxRzn4RLanfjE79Lzz87y1hppntblJPOgpw+nifCfM7nr0vMS6dS9Z5bt/KtuMg/i2eWKC8815bBB/o/v0M589gLbX+hQNngIhCad/QkqwCd9k52JEx4yMSG32xBgQohJIIT9P/z6R8w1PqmKt9lhjU0fweenf434J+aaDiYII0eNldoHH2Q+v3MTtt6wQSCAPnD2aV3NQ7MN+s7JJxxrhCGYlAexe3ea7+eC+FzV3Q8BHsLP73F6pk8HweHOxByTJWhJQusMYDL/8x9/mvxf4UxyvfKKSRDiHDLib5m/IPkL401y2hpCFdR7V2dC525rTLygmR2GvFhfEIBAEwigz+FFAkA/GTlqjNEKu+S8s4y28qBhI805gP4zePhIE2cHZ4IVBOoMQjCMoyinAndMMBEHxk1MKIOwy+fVdxE32gLxIv+//zlYNm3eLKc71yiEKTbw06XzcVKjWlUjvIMQyQ006uxPTytVPNAI9FFHOGenDw0lLG4DoKnkBnV+6blnG382+MQXwgXkc8y4PZ9ge5GK+8vsOfONVpdf/25Yt44Z5yZOmW76mh+op1Od+gQQsKGtFLTFwKHDzf0HE393HdgkMj7VOqiGefEArWuMk8qipctMfUGjGPUF4Qi0fZVpM2YZ/xDEYBE0P5LRl8KCeoSGHMpphIWr18TOaN38afKh9ZhbYySEnBCWusclL3BNos6gfQdBs4K8jx47zrTdZRecbT69HvPfhNhZ2BtdZ14y4b4OjVyQnf6KZ7luJ2UOg/0TO7U3987Zc+fJvAULY2f8gRAOGsPQHrVBnvAyd9nyFbJk6fKY6x4SebaJl+c5zvPngoWLY2cyk8j9xo0+6/jVN9pfhcvZfQ71e47LrefqRIgyX4hSt9khu+0S5RkEZUjGvT5RoM2OF2wYIzEu2tcTxlKMqeXKlpXjO7aLuXrjbgsF7tg0Xvf1Crzc7Ph0X/3pse0nEbzStQkbv50vd5z2sTs+9e+XTtA5xe883DV+4M6XjfrVfbdfOx/Yt4+BvQ9sv4mi6Sh2mu703MRLN15+vc7rBtz50l93OBt3WD0OCpMM/OIPm18/7PPYx6ZxahmVMHEF5SdeXm3UH36DwsSLT9O0Nxsc2+V0n1e83DWcHd4L93mvPKib5jensdOMlz7OB+Uzahn86s/LPShev3Rttyj5An55A1Hjyg5JF/D6sX+J9EnqbucBWgs/YdJU86CON9TQ6sPiAvaGh6yiRYuYicu2bTtMmGSAScnqtWvl4OrVzMOLF3gYwxt2+N0Ys2kIO1fHnHS6HHbMCZm2y2+80/MBDHawup18gtECcG8nHNvOaECkCrV1homTPiArDerVMZoSbqAFhYdWaDZ5CeHQMdu0TBdu2Q/e8UhVvCokgZYQHk5t25N/OP0HbQxhBTSWwuKuN9iKhSAEaW3avClLH8UGoQcmFstXpj+0+1Gq1P4Cm5bms7yb7jSfktp5jkKxosWMEBHXD64psG7depMXTDDwWakX1atVNhq1eLmweOke4U2ymBxra2hSQtiZHfJqfUF4gkn1hMnTMgRKOD/q3/FG+NXuyCOMEAZaczqBxqQOWje4BlA3iYLrp8R+wVpkipYPmli2WQovNm/ZItNnpdtqhGadF7iOoG2K9p0xe07M1R9c1zpp9Vqgp5CPdmsQELBr/UHAFEQq7i9z5s83L6LQZyBcc8cJjeXdabudsWOLrF8fvKARXjxBWDF2/CQjPFVgTmDI8H+MIMFLQGOTyPgEjU98IeEWkkNjbb0THyb8eIkBAeKU6XvsXP7j1Bfavv1RbQIFKanoS0FASAQhJe4dsE2reNVjbo2Rhzc51MlHZmFyEHgJBOEOTJToswU+JcczCNoOGosYg/4eMzbjJdOc+QuMVqctgE9mf1XwzIRnJ4zFK1ftEahHBX3ogJh5hCgEPdv4gT6Pr0hQF7ifeJGM+40+66Dfx3vuSPQ5VPF7jsut5+pk4jVfiFK32SG77eKH1zNIEFHu9YmCezRefqX3lX/MmKlgLMWYiq8Q8dySKH4T6HggDDZtf/s4kfjc2HFpGoqXmx+aFz//6q6/8fIelK8oaBxhcOfRC8Sl8cFfmPj94vNyt+MH7rg1jF+cCsJp3tx+vdz02Oucjdc5zaP+2vi5aTpe53MKTdtdpkTzFK/evOKNlxbOa1iN304nKLztD/v2cVi80nQTxo8b5Dte2d34xQ93bFHjSxV2PnU/Xt5wXstgh08ExKHphY0rKH+ar0TQsNiwn92yJUKOCXi90AknFuDAQhHu7d7HehlbXKggTEKSxfyYBkflShV8NWqK42GsSGFnErzF2PACOIbGT3Vn8mRveNj06gSYQN5z83Xy4J03Z9mw4AcmXalCVyBfs855iHdpGMAmptPtYkd7wMMqqB1gV08fvCHYsrXOgkhVvECFJNAaHTcxXRNQNQ8gYIcgPQruesMECBMh5AmL33j1UyxEAm0rvZD9gBAGi4DgE2poLWHRm7YnnyHnX3WjmYj5aQ+FZdXqtUbgg4mB+1NJBeXDxASTjCVLV8Rck4cK3fBZsdc1EYW8Wl8QnkCIAjMCc+bON26YfM51+jmEXxhXIISB5s1MZ/wCEPZCyNvy8CZG4BoGlA/CO9jcvPOhJ+XUcy4xC9PAtnEYtHz41Ln8AcETYnyOjjrGmASbm15AuIrPX4E9EcxpVDCMT3bdY5tNKu4vy1akC4egeXr7g1njxAZBaRhw34BmMwStw/4eHXNN1wzHVwntjmodVyiY6Pi0R4A4wdQhwv814u+MFxD6EmPgXyOMABGCLmiHQuBxeLyXBTncl6CZCyEFrlFbG1rrEXZ/tR5za4zEi44o4yHaAG0BAQtMRgAVwKPtdAyCtuZSZxwC0PZFO0P4qwL4ZPZXLxYsCq/hjPtyv98GyKPPviQ9L7tOzrjoqox7dhSCnm38wPMOnnuAn2Z9Mu43+qxzUI1q5jeIRJ9DFb/nuNx6rk41Ueo2O2S3XRIhu/f67ICxBi+A7S/hMIZiLIVAGkoqGK+jopNa+76THZIRh407PvvYzneYcVvD2n7dYb3i8Ys7TJp+IF07/2HQ9PDrF07d1I+G8SMoLr+wdhq6j187Lr+wijs9+1jD2/Hob1Dcfv6BXxigfvCr296Ku34UHMcrt18dhnH3qlc7Tezbx2HRNOy03GjcQX4SJUy8qUg3lfjlN1XlcLe59hXdUoXddkjHPgapTNsmVwW8Clb+HT/0d9/tpz7/87VXlx3wUBWvoiFMgLYDgL2tLz94Q37+8qNMG1Z03i/Fb9oTBRNZzX9YsHBGPDAZsj8pC0Mq4oWQBJ/7QrOj32/9jTBCNQ+giRZvERg/3PUGYcUX777m2T91w8rU8QYqfPb3wWvPy7cfvyM9up9iFt/B6tHX3/mAPPH8y6Yc2QV9evfu+HVdokTe7LM2ebG+IDyBIBdpqxmGoSNHGcGtfhoNIQw+ix86YpSJH58TQ9O87ZGZV8T2Av7/HvOfnHbBFdL9/MvNSv8QJkNo3OTQBiaeVGHqIsSk370oWG4A+5iwrRmPVNxfsPK7V1y6Df2lb4amYRDtjz7CaE+peQEIUvE1AtwgtIzXV5So45MKENUMAxazxEJU6GPQdnQLEPFZOz5vR5lqVNtjVzqInOxLsEWL8qg2tNYjBNL4nNpdj1Gv+ZxGtazVDAMEmcP+HpUhgNcxCIJICEmh5QttX5QXtqrdJKu/usFCbfHAAni33veodOp+jjzw5LNGoAzNU+QTC4UlSiLPNgB2R/3IifuNm6jPoWHJrefqvYVUtYsN4s+te72CZ26Y0sELP/0SDmMoxlKY84AptHigHF51Ffb+lRto3pBv7Nt5jZpv27/WRbw4vOrLTZg4vOKJmn9F40J4O17se8XplbabKHnRdO14o5ZF/Wue7fDx4gpTHhJM1DoM41/bzW4/hHO3sR0X3NSP+rOx/fqhYXMTr7znR8LUY6rKaaeNNDQd/Ka6fb3SSFU53eSqgLd+nfQFilJhCzQIaHwCaMbgc1Iv8Gk1Vn0vXqyo0ebJb6iWChZbcNsQ80M1bKFJ4NfpM+Ldv4QUKRzuwTZV8SpYsAKf4cLmLhbcgeYB2iyKgERx1xvsBuJze2hSrF6b+OeoNsgTFtJ44PabZMD3X8jDd99iJuz4fBKLTiUKNNIw6UXfxUIfXkBQAM0nTBzKlE43l1GwUMGkTSTwaTOIZ64iCnmtvgC0GCFMgWYuFoyBdqP9abQK0OAOzaNJU6ZLTadu8Fl6PLAgyvV33C87d+6Qt3o/JcN++VY+fvNFo/l/xQXnhv5sU8u3bv16WbYiWBNRF2XB5E41Bt2gLqA1Cw4oG04LORVglXKA9gi6vlNxf6l3SE3TF/AZd9jPw4NQ7Sk1LwANeGh+ww3n4pHo+ISXEdAmVzMMECKibdU+tAoQMR6ij0PQi8/b8YICAoEgcqMvQdvuxGPbG21oCCkg9MRXHe7PixMeIwvuMTeSU2AhJNyDYIZhnjPGQBivAnigWtbQupu3cJHpN24BfLL7K9D6Qd7wfBQEzFxcf9cDJo83XHGxGct++Ow9efy+O8zXTX5mMoJI5NnGzjMW/gsiO/cbfdaZMWtO3IlDqp5Dc/K5Oieviyh1mx1ycn6QrHt9doFJHpi50S/hMIbiawCYQIs33iu4btAu2jZ6b8Zx0H06ChpXstvfHZ+7DGGw/QblEe7YklUnmpY7z1HT0PBAwwbFYftPJnZ6SMPeopQHuPOox+404qF1Adxx4NgvDvWDX9u/Hd/egtaDljMeUf270TrVeNRN94H6wRYF239QWE3bTjNZ+JXJJhXpJhutn6htkF2QXlCaWq85kS9NS8mpdstVAS9saUFTaeyEiUbLI6fAauOYGOHz6sUei3sAfNIIbQ089JQJ+Ul1XgH5Hj4q/ZPf5k2bmMlJGBrVq2MmQHh7j4mZG2jHjhmX/jnn4Y0bhdZaTlW8Cj6/xefMsJv2yjv/M4v2hBWQ2HjVG/KCPOFz3f6DhmXYO0wWmBx1PekEs7JxdoXI0IbCis4QrMA+rBfzFy4y2nowoVAzNrnG5/v4jH/jpk1mRfPsAM0sCBRgsgCfjrvBhGm7M9lOlLxQXwBCFAhTFixabFa1hl1PCMT0WlMNPGg99h881JhvOLRhvVB2iX8bMMQIJK67/CKzEFmiE2i7fPjEOAh8iqr2HEf9+5/nDQgrdePTXozZfrZVUw36FCag6GNYmTyIVNxf0AfQFyY7E2G0eXbB5FkXWxsweJh5OQUh5SknHBtqYp3o+IQHDghrMS5D+xwLAKp2qAIBIvorzDRg1XhoCTcN0e651ZewEBBeumClemjCgS4nHpfp8+JEr3kIcSpVqJDUF33xwMsgvBSaNnOWGUNsATxQLWuUo/+gv8z9r6Uz5tj9Jtn9FcBmMmz9It5aTl0GMXnadCN4xnh90bk9TN/IDok+20TJs03U+40+62CB3XimR1L1HJqTz9U5eV1EqdvskJPzg2Td67OLmrlBmTB2YgyFoNtrgeIgcF9J5YRZ4/ZKA/eZKBNn9esVVyJl8IoPbu643OeTAeJMJM82XnHosdvdLleyyuDGTtOdfhBe7aD4uWl5/NLxO2/Xgxu7Xux99e8VDv5sv/kNv7rwwvabnTIjHmwaR1AetH7jpad+7HjdaLq6n2zccXrlIxXpJhs7j/HqPbto/HY6Xm65gV0POdVuuSrgxWSydXMIQRbImx98kmE7T8FD4zsffS4jR4+NuSQHTGQ7d2pvJkTPvvKmmezZ4AHyy2/7mYdks0J3AvancopBzoOYXW/oxJgM4tNwaDUd1/7o2Jn4QCuxbZtWMnPOXHnt3Q/Nw55i4nUmkRBCIN4uJ3aKnckMNNEA/KvNuuzGa7StYlo7Xp/N4WLRhSJghxD9Jp7mQZR6gx1f2PP96fcBJq/u9CGogP1LfC4bBMJBG84t+NywYaOxfwZhStXK/qvTxwOT3fN6dDe/bznXE9Kyga041L8KkNQupWrcQYAwbGS6SQEFGn4vvvWe0d4LA1ZlP7hGNVMn3/38W5a4Hnmmt9EmC0NerS+AvgVhCursq+/6ZTLPoEADD1o+n339vRHAHdvu6FAD+85d6dfHzp2ZhXX4DPuTr/qGbguUq/spJ5pJMcYzjGs2KB/GVwipwZndTjb9vO+Pv5prwQbXyruOX9Q7yoWJbSrBNTxi1JiMMQRgv++Pv5iXB40b1pNmTYJtwWb3/gLhvPZfFZyiD8CmK9rgxTffzWJ/EWl8/f1PZqyw+34Qakcc5cXLAnyN0LRxcNlsEh2fYHIIAq8R//xrFl6ytUNBVaesDZw6hHAXn9U3cK7tmgela+jHIzf6Eu7r0NiFUAsvARAvFmCzSfSahyC9SuWK5jr+7c8hme5huC5ffvt9Wbw0uUInjG94KbR8xSpz/boF8CgD7O3ik+4vnTEIAvg2LTK/9MhOf4Vgdvqs2bGjdBAebQftvpOO6+BrY1nZuXO3qbNdMIdhxY+0/nD6KtrJj0SebbKTZ8Sf3fsNhKuw4Qv/SNOdf5jqQX1jP1XPoTn5XJ2T10WUunXj9VzqR07OD5J1rw+D1/3MBgtR4t6DaxJjaNQFioFX3SdrMmvHg3TstHQ/Slq2X+x75d3LzQ+Nzw7jFW+8OO3zYdP38helLhSNJ0xY+IW/oDJ65SsMGqcdP37DYPvTsG5st3h5tNP223en4/anqBuAuzsMsP3kJ7QO7DIFEc+fV91o/O6wOPaqW7c/oP6C6tk+p+VyY7t5nU8GWgbkwZ1f+5weJxM7vuzEHS9sIukE+cM5d1351V+ysOMOKo8eJzPtIMJ935YiICS56+ZrzeeFffv9YiaSbVo1N3YVV61ZK8P/Hm3ebp9zRlcz+Qz7dhufurY5oVvsKCsvP/2oXH7hOeZzOwgETzv/8ox0V65ebT4nRP3fdPWl5oEyL/PDr3+Y8nZse5T51HXY32Nk7PiJZnGEO264Wg6qHn5BCrTHLddeYR6Gv/7hZxn93wSjCYvFPObMXxgYr34+9/aHnxqtHSxmU9hpr5eeesRo7SQSrwoeFy5eYhaIad60sbEzeGa3U+TS886K+UpHJzVhNQ+i1FudWjXl7puvk3sf7SV3P/K0/O/zr6RRvXR7hZOnz5Cp02eZcCgTbPj5MXHKNLn61nvMPhauwMrq0JrF5Byro5/lTBayu4BIK6fc6NtvvP+xXHr97XLUES2lvDMx3b5jh+nXmLyir190To+MQQntc/bpp5oHe2hAD3Wuu1oHVTcTQdh9RNtCMy4MmHif1+M0efKFV+WlN983C72grnA9j3AmYO2OPkLq1antTCC8NWNs8mp9KRCmQKiigioIxGxUAw8vNmpUq2q07cJwtJMHLEb0wuvvOBO8DaZPQTj+yZffGiED0gwLNP66O3WH6+6Km+6SdkcdYQTT0GgbMHioEX7gOjv3zO6mn9989eXy6DMvyp0PPSEtmh5mtJl2OZN3CABxHUL78ZZrLzdC41QDQdsvAwZJx2OOMscDhw53xuzZpi/eddO1cRerS/T+ggk+NIRh0xvmLcDCRUvl9eeeMP37mksvNIvn4d5x8lkXGiEbTCXo9QKBwDFtWsuxbY8O9TUCJtGYTEMYg7DIj/0yIR6Jjk8QdGFM/f7n3017og/boP6g5QsNX4BrI6wGZm70JQhaME7gZSHaFS/9oJnmJpFrHr8Yb/4a/o+pL7xkOKxRAxMG/aCUc01Cq98tHMwOSBMvhaDVDeHkiZ3aZenzxo5tyZJGGIV7nlsAjzgS7a8wl3TbA48ZQbn5GsG5V2PMCBoT3UCTG0IjCGufeP4VObJ1C9nh1BnKtGDREqOFjLHNi0SebTBeXnrDHU55WkbOczLuN7g+8Nx4w50PmjEHmp5YC6BUqf1liNN3kP9DnH7fzhmXcf2l4jk0Vc/VXuTkdRG1bkG851IvUKacmh8k817vR7z7maIvg0zazj0WX0REIacmrUgHbYRfTdM+9ru+4+EVTuNNNE7gDmsfa/zufSVMuu4w2cGdH+BVfvvYnb59HCb/XrjjTDQe4BUWblour/N2mW2/Nnpsx2P7CxM/frEB+9grTF7Ezrv9Gwbbr5bdva/Y8XvVj/vYxs+/l7sbd570V93s31Rgp2dj592dn+xgx6tp4zc7cdthNU73vhIlHQ2vYfz2bX/qptjnomKHQRzA7eYVv/rV31SSqxq8AAK8T9562QgYIGz44Zc/jDBi8LCRxrbgs4/eJ3feeG3SP13CA8zLTz8il55/tpk8abp4UDzEmZy+1ftpuTjEBCa3eejOm+WwQxvIZ19/a7S0xvw33gg4X332cfPwGxVMED949Xk5rUtnWbJ0mXzb71dTL/9NmGiEAV+895oc36FtzPceenQ7RU46rqNs3bpNfv9ziEycPNVoiCmJxIsH8Nuuv9IJW8MIBNBG+Ly/auWKWS4OTGoaOxMLgEXX4mkeRK035A15hBYJBCbIO7ZZs+cZwQjOQQMiiMYN68sLTzxkPmnEQzRWtH746d5mAaPbnXLe7UzKsqstjvBXXnSuuW6qONfWwL+Gm3yi7pzhTW699grT792CD5T59huuMsI+1AXCYPJ/1cXnyWvPPib16qbb9QsD+sLTD91t7FdiYpzezpPkzpuukcfuuT2Tjcgg8nJ9AfRpaDVi8tThmCNNH7TBBK1V8/QFj9DH42m7Kehrl5x3ltHiefaVt0y53/+kj1xw9hnGTh8WPgkLhGf33XajsemH9oDW3FO9XzWasLBHinHunDP2vAyD5vtbLz5thDqjY/0A1yoESOefdZoZqzFmpxoIoJ5++B4zwX3no8/krf99YrTzIHR575VnpUnsWo9HIvcXfG1w8Tlnmv1BQ0eaCT1schYunN7X0BfQJ9A3wK8DBpk48YuF3+655Tqn3z4QSrirqHkBaIUlYjs8kfEJaUCAiP4LYavXCwgIEJEvL+3QeORGX4INcAhJINTAwmteJHrNo889fv/t5jrGiwaE+W3AYKNB/alTFgixk42x612lstHWxRjj7hdqKgb4CeAT7a/oL70eulfmzl9kxiFoR2JMwrX0wuMPZqkfL6pXreyMP9cbM0DfOGOOjuFoow9ff0Eu7HmG6X9eJPJsg6+FYN8X952oeU7W/Qb95NN3Xjb9b8GiRfLux59L79ffNbauzz2zm3z4xosZ94JUPYfm5HN1Tl4XUeoWxHsu9SOn5gfJvNf7Ee9+pqAshzc+1PRxjDUYQ6OA8O76wHN6Kieymp6mkUh7aB698qluXueyi52m5lvr0D4XDw1jEyW8F3Ye3HHbeKWh/rObvqL5iIqG8wqrbu5z6t8ug+3Xry7Uj56PUgduv35p5AXc5UFes5tfxOlVf9jsc4o7PfXj9gc0Hjfw6+Vuo+e9frH5pZlsNF2g6amblsP2kx3c8XilnSh2fWm8mnf7XBj88qXx2OeDUL9R0rax09M0/fIGbD+2v1RRwMlAYiVLAcgKPnnG514QRuSElpiCT6G2bdtubPRhMpWXwcPgjXc/ZLRboI3c4Zj0Ff3xIA+baH6aCVFJpD1Qj9DQCfIfNV58UgfNA1wQ0GDyujCwAj00FPEw/s5Lz5iJpZtk1ZuGwcTULz/xQF42ORseshONIwzQ1Fm/fqMUK1Y0lDaI1jUoU7p0tiaA2s4gu2XMq/WVSpLRz9yEuT6VVKQfD9hmvejaW4w209u9exnhlbZJdsfmqOOO9rl46ea1e0dutFs8cipPn3/zg3mBcfUl58u1l10Ycw0m6jWfm88pySCR/hpl3PAibJ0leo+G4OrGux80WswQzMEf8oywidzHknW/0bwXKVIkVN9KxViSU/01p6+LKHWb3f6binaxyYnxMd79DCYvbr3vURk7fpK8+cKTWczbdOzYMbbnD/qATSrvPUgL8etvImh+vcLnp7LkZF69SHb6idaDovnxiiNMXjX9KPkIE6+bRNLJDez8pTLPicQdz68dJ0g0z4nkLdloGZRU5yO7deZHMurSHUe8uHDeJtF03djxesUZlK+BAwfG9lJD9l/fJxFUAmwAQvsy1Q+HbvCACJuBeWGCngioL9RbsoS7IJH2QD3G8x81XkzOoA2JMH4XyoAhw4wJCCy2FuXz5kTqTcME5SceSA/9LTtxhAH9GemEmVwCrWts2dXu0XZORhnzan2lkmT0Mzdhrk8lFekngrZJdsdm7Y9hy699Ll66ee3ekVfazSYn8oQFPL/58WejfRfl8+Ko13zUfpTXSKS/Rhk3vMhOnWnfifpsgzwneh9L1v1G8x62byXSNvHIqf6a09dFlLrNbv9NRbvYaFmy29+CiHc/g4kLmM/xW6C4YcP4i2Ei7/aWSjT+RNLBpFsn3n7h7XOJpBGF7KajedUtp0ll+m7BTBDJatd4573QeHULg/oL6z8vkYo8J1If8fzacUaJ140dT26hZdAt1aQqHY0zGXGHjQvn7S1ZxIszmWlFJU8JeAlJBNgQhE0/aPgk8nkzIYSQ/M3fY8YaMx5YaC3q58WEELKvgkXXYEN5x86dvgsUX3LJJbG9/I9OyG3hoVuQGEWwSJKHCmjxq/thYbsSQkg6FPCSfA8m9pOmTjeLrHlpHhBCCNl7wefH3/zwi1mACwtkZdc2NyGE7CtMnzHbLKaJRRGP8LG13qpVKzn11FNjR/kfFR6qwM8WJKqb+iG5QyJ1z3YlhBBn7HMGOr7OymegyWDrbOfOXXnG7mNuEta+GuuNkLyN2oDGtZoTdhzJ3kFUW6ckb5LoPVrtKKfaRjsheyNh7c2DyZMnS9++fWXMmDGydu3amGv+RqfBfoJBknOg/rUdstsGbNfkYLcJYB2S3GRv6YeptsFLAS8hhBBCCCGEEEIIIYTkU2iigRBCCCGEEEIIIYQQQvIpFPASQgghhBBCCCGEEEJIPoUCXkIIIYQQQgghhBBCCMmnUMBLCCGEEEIIIYQQQggh+RQKeAkhhBBCCCGEEEIIISSfQgEvIYQQQgghhBBCCCGE5FMo4CWEEEIIIYQQQgghhJB8CgW8hBBCCCGEEEIIIYQQkk+hgJcQQgghhBBCCCGEEELyKRTwEkIIIYQQQgghhBBCSD6FAl5CCCGEEEIIIYQQQgjJpxRIc4jtS8eOHWN7hBBCCCGEEEIIIeEpVqyY1KhRQ7p16yZdunSJuRJCCEk1KRXwIuoCBQrEjsKh2YkaziYZcaQCv3xZTWBIJN95tcw2yGNezt/eTnbqP5Gw7n6tsA+QnMZvfHT30UT6pl/cZO8kkbEwmbC/EUKC0DEqt8eqVGGXD4Qt495aH1FJpB60rpWo4U855RS59dZbpWBBfjhMCCGpJqUjrd4A3DeGIBAmkXBukhFHsgkqm31OUT9hy5AXy2yT1/NnE7Xu8wM5Xf+aHn51I+mgDVLRDqmKN79j9z93/Xj1TfUTti794iZ7D9q27r6SKFH7mOLVX0nyQHvotrezL5V1XwTjRE62bU73p6hjofrdV/u7ltuvHoLaTus6Sn3b/PTTTzJmzJjYESGEkFSSp1+lJXojyQ/szWUjex/or/rwZ282XufYz71BvaSiblIV794E64dExR7rvMa5nMBOz71Pksu+NEZwPNx7yY2xISf7E8e+xEHdudsKx6lsv6+++iq2RwghJJXkOQEvbjp76017by4b2fvRhz970/6MX/c54k+qxgGOL96gXlg3JFF0TNM+lBvjnJ2ee58kB7TvvlKf+1JZ9zXssWFvbGO7fCQ8qC/7Ocj9TOQ+TjYzZ86M7RFCCEkleU7Au7c+kIC9uWyEkPCkahzg+OINx16SHXTim5v9SPOA31RPxPdl9qW6ZT8iyYT32LyPtpHXvSzV7bdmzZrYHiGEkFSSScBrTyC8yO55YPvx8me7e50HtrvtPwj1p36jhvHyH++8G9tfGP/ZxZ1WvDTd57OTR4TVTY/j4fbrDoNje0sErzgTxc5HUDzqz8uPn7uNnnf/BqHxRgmTk9j5CpM3t58o5dE0dFM3xd63cfv1Cmtjn/fzA+Kdd5OMeO04grD9uTd1V+x9P9x+woQBXul54Xce7l6bnks17rTipek+HzaPYeLHOXuziXesuMPb/nbv3m1+7fNeeIX1I0xcXufV3e+8jZ53/wbh5QduQWHjnY9KmEm4O02/9NXd79cPnI/nxw87XJh44vlxn9djdXOfCyKKgMMdV7y4cV792PteuP3Zxzbu81FItKyJpmej4cPEZZ+P4l/92sc27vNu3OFsf+4wOLY3L9Q9kfO2m+3Pyy+w/XjhFYefX+DlPzu404waZ5h8qB/1F88/cPuNF8b2FyaM+1yQXyVevFHP2792GPdxGPziIoQQkrtkEvDqAx9+3YM1ju0HQr/zbn9u7DT8CDrnThd+1b/7HMA5zZPtNyp+4eLFi7R1A4mmHwVNw+vXq46Al7v69wvjB/wjrG56HA/1Y/v1Sj9eXLZ/3dd4vMK644+HHVe8vAL155W2ugXlQf3Y4f3SAnDX9LDpcV5A8+H+9SuPunvl38u/H37pAjsPXgSFBRrOPm/7ccfrPq+4/SUzXjuOMLj9e4XXfXc+FC93hIG7XxhF/dnpudHzfunYm7qlGnda9q9XPuHmV04v/374xQ/suO19L/8aj/sc3HWLki8FYaKEhd8g3Oc1Xs2jburula7Gob8A/my/drz2r+I+70e880F4pWHve+UXeKVpn7dRv+5fNwiPDeex+cWn/nTf/rXj1niAX1y2fy/c5zVObH5xurH9aXzueBX4xeZ1Pig9zZPuA43LC01DNz22/dvnw+IOb/+6Ub/2eTs9O64wwL9X/hX7XHbSxjn1i02P7TD2+SDc4YC66RY2LhDPj995zYOe11/Ngxdh0nLHZ2OXD9j+3Wnax15x2djxKZpWWILS0DzrpsfxUD+2X698qZvtH1u8dNznNIw7fhsNo35t3On5nXf7A17HbjfgjhOoP/cv/Hr5J4QQkrNkMdGgA7R7oPca+P1wD/B+YRON0yucV56BhrPDq1/82u5u4Ec3L/zcgcYbL45U4i4zcOfD9oNzOLY3zbvtzw87jO0/bHgvEBZovHocL049p/7ssH7Ey6N93i+usPlS7LzFS99G07fDYF/js92jxp0q/PKg5dcyKVoWt7ubKGVTv3YY3Q9Kxw6nmx4jnO1m4z7v9mfv2+nDPZnxus/Zx164z+uxOx5g5xvYfrzyCDd3ntyEOadx+KUfFEeqsdO282ujeXe7uwkqh9aB7rvxOmfHp+HtDW52vF7Y4XQ/KBzc7d9kYqen+/obNV315w7vVSYvt1SAPLjLZacdlEfg9hvPH351c4Pwmh6w9xWEc/ux3dxx++0nC00/KG71A7z82ufgV8vihzs8cLsFxaPudhi4afruuLzS88MOj1+/uPBr58P257cfhPrTOBU7vJ1eomnb4RS44Vh/bbzi8ELjVXDsdgPqhnjDxh2PoLT8znlh58e9784rjjXeoHD6C7/2sYJ9+9gPr7SiomnZeQHu4yh45Uvd3Njutn/se23ALy4b9e/2Gyasoum50bjt8/a+Ow2/eOBPN0IIIbmLp4kGvwHavgm4/ehxqgd4xO2+wfjdcGz88hQmr1puOx33vvs88HLLCTRdd9nU3S9PGkY3mzD1pHjFHxTeLz8I4z6nx35h/AhKI0rZgFe+bILOB6XlDhcUR1D6XueC0s0p/PKA/NqbjVdZAOKKWib1jzjdYf3SV+Bfw+nmdnfjdtdwbjcv4J7MeHGMcIr7vH3OK37glR+46eaFhtHNxn1sY/t3xx8UDuC8+vfLV6rQvLrzqO7u/LiPFbv8QdjhveLSusDmFZ+6e6UX5B+4w2n6fuH01+t8stC47TQ0bcV9rCCM3zkv4D+VZbHRvGl67nT1nFd+1A1+gsoHf3Y8XnEBOw6v+ILCqX8vP+rmFWciIB6NE7+6+YFzGkb3FTucX/40nE1QHHrOHQZ4nYMbjvXXjR1nPOx4dF+x47bj9EpT3eKla6flBm52OortFiVtrzBw03S84oK7O554aBiN1yZqXImiedAtHn51oMdeceCc27+boPN2eL884nyY/IfFrxx+RM0X3LzO4Vg3Oz33vm4a3j7vJp4fTQ+4/egxfv3C6zn7vJ9f4HdO82HnhxBCSO6QxUSDPXjrIB1vwNbzfn6CwoIo5738uvPtxuucxhM2bXcaXnH6nY+XRipw5w/HugHkCZvtzysMCJN/u57s3yh4pYN47Hxg307LDoN99aO4j4MI8menA9x+caxufmm64wB2GBAlnB3WHd4rnrxAUB0Au0xhyxC1rG7/OLY3rzwCdzigfuPlN+icF6mKFyCMu4waT5S0cGxviNOdX3sf6LE7fT/UnzseO7ymawP/uuU07jTdedH8hs1bkD87Xvy668FOxytdex/YfhNF01HsNN3pJQPEGRSv3zmvMtpxZacOchp3nt1l1nLFK5s7nBd2HNi348K+O271Z2827jjc5/MKWo4wqD8//3DHpuV215lfuHh5CDoXBU3H3mxwbOfZfd6NV3gbHKtbdtN2HyuprDs7rOYtO/F5YZdZsdMIk57WgVdd4DhsfPHqMh5+ZdE4vc7HQ8NoHInkL2y+4qUBd/UbVBa/8DbwY/uz4w2KW88H+UkUrzjtPIYpFyGEkNSRxUQD0ME7aMC2bxxeN59U4JVeoiCOMPH4+XOX38uPunudyw382gtbvDxqWD+0nGHicqP+vcLZ+bPPe4XRfTsP+NW8668bP3c/guLBZucpDHZ89r5dBjd2WvaWSPp5ATv/eqz7+uvGzz0RguLCOb/zWtdede7lFpZUxItwfmVRN/xGid8vrjDxeIW1CYpb0TT0V897hc1NND92ftXNL69hyxAvHoD03HWkx374xeflbscP3HFrGL84s4MdJ/bjpaF58yq/hneXJ6+jZUaeg8rvd07LHRV3GK0zuNv1p/6C0gjjJyrJjMuuW794o6QHv1H7mF2/NlHjCUO8soIwfkC8826SmbaSzLpDHAjnFdbPPVVoemHqQf1lN3+JhtdwXuGRr6B6jYeGS6R86t8rXJR8+Z23w2t8UdEwdhru9Oy47XOJpJcIdhkJIYTkHp42eO1foAO2Dt7Y1B2kejB3p5sboIz25i67fU6P8yqat7D1qn6CypRoeeOF88qffWyHx76eU3d184pH8XO3CQqvhInHC43bK/9+aBglnv/8RrLaLSpe9eiXjvoNyof6wa9X3F6kKl7FHS/Cwy1qPDYaFvHoFoT6CUrTLy499gqr5/CbnfKkCs0TfrVsmmc3fu5u1J/G5VVudVM/GsaPoLj8wtpp6D5+7bj8wmYHOz07LS/83BUNn9/QPAfVsX3O7SfRMiMcNq1XOw27rtUtKB2NK8hPVJIZl5YtKI9h0kM8GpddR3kNLUtQmXBOtyD0fNjyqv+geDXdID9kD1r3UetL+6tuiRIvbHbbMtG8ZTdfGh6/2Nx+7fB63vYTL31gp6EgDjs+jVN/w8RLCCFk7ySLgNd9s4iH3mBAlHD5CfdNFZt9Y3Wft+vEPpdX0LzZhMmnV7jcxl3/AG6pyqvdtoTkN7Tv6q9eO6kYp5I1piAe3eBff3Xf9qPY+3mJMOVNFC2zXS8A+17phqmjKPnVdO14U1leGzttbO507Tzt7eRUWe06dtc3jr3aYF9qB+BXZnfd5FVys81yM22SeRyxr2f8sl28iVc3Xue1XoOAH93CgDTUb5RwhBBC9g48TTQoeiOK9wtwA7GPk0mq4o2K303SvoHaecV+XrqxeuURJKt+tbxR4vPLUzzUvx0uqHxR43ej4YPKl5003GETqRf4jVr/eRmUI6fKovUdBbuN/PKpfvAbNo1UxWtjx6txJBKXn3+/fEcF8WgaXmlpnvWcpmu75QXc+QPYT2Y9KdhHevrrRbLSdWOnhzTsLUx7qN9EQPy6+aHnEk3DC8SZzPgSIUz6dj6TlV87PjtOe99uj6C20Tg0rL2fV0gkT1rvGk7rAMdB9ZGbJNpmftjn4/lNdtokHa3L7NQZ4kDYoHbxw04/VWjeoqQRNV/qT381fNg6cecvSl6BO32/XxC1LgghhOwdBNrgtcGNwr6R2VuqbyCaLsiJ9NzY5dQN5HQ+soOdVy0PgLu9nx00Hv21QdxB8XuFCQL+/eJzx4XjqPG7cYf3SjvRNBCX5tEdb5Q41a9XGMTrV195Fa2TVGPXS9Q0te28sOONWvepihfYYew0EsmjYtcb3O397IB4ND78anzueNUP0N+8gp1X5M3OZ7Ly6hWXnY6NXVfuekwWdpru9OMB/8nIF+LQzU3UPMUjWXlOFE0fv35li3c+Efzist21DeDmV0d2vuywQWFyAzufUUg0XG6RnTbzQuOxw/iR7LTzCppPvzLlBJp2vDpTf6nIayrbK6hPoCxB5QmbL/jLbv3YaYVN1ysthNXwuq9bonkjhBCS//EU8No3jKCbBM7Z5zVcKnCnYx8H5TGZIF27buzyIg/2cW7jrh/NG/bd9aXnsXmds3/9cNeF7V/3verH7c8+DkNQuYC7TG4/Gs4rrBv1hzjdZbHP6bEXbnc9Dgqv54Kw8+P2r/vuPCth4s9pkFevMiia50Ty7Y7XrvMo8dlhvfJrx+uHO4z+piJeBeE1DoDzdrx+uOO082GfA3oem9c5+zcsmp7Gq2haQH+jxp1M7LTtvGFfz8HN7c9G/brdg1C/dt34Ab/w584H0OMoadtonHb8+I2CHdaN2w3HurnRdPXX9uMXJioah+bXnYamnUrilcPORzLzpOkiPr84bXfse+XVdnOf17jjhUs2dr6RjjsP7rRxrJsbLzc7/tzGq6yKu9yK7eZ13iaMX7hjS3baeQnNq1f+7XKnAqSDNLRO3XnQY/1VvzZ2mCA0nDsNBfth4wqLnVd3/LrvLg9w+7OPvcB5r7pR/Nzd8epxvPQUjRe/QWFwzj7vl58g7PBh8+eFhnXniRBCSGrxNdGggzFuDl43FBzruURuIIli50vR/VTeQOLFjTzYdaJuOY07D4pdb/Y5+9hdRvvYHZ8fmr7uu4/d4JztT4+B7T8orIYDXv4U9avYYbEFhQV2WBs7Huy701H83HSzwbEdlx4D/QX2PlD/uu8+dqNudvx5DbsMQI91i5pvOy5g14H7XBDq1w5v58UvXtuPHUb96G+y47Vx+w2D259fPuxjOx2QSLo2fmE0XjtPOQ3Stsuu2HnyypeGU+x4sGn4eKhf279XWI0XuM/bx+onKu44o8SjZXCjbl7nbLzO23HqPjbs2+fssPZ+PBCHF17xpgoti42drl3OZBIlXvjDZoex3QB+7X31Z2OHTTaaNtC8eQF3t1/NuzvffnHkNmHKqu52mWw3oGUOQs/b4TQ+xR2HnY76td0Aft3h8jJ2frVMivs42SBdTSOo3vSc7dfGPufGK074xabhdN+OR3+BvZ8IGr/uu4/dRM2X7d9NkLsdr6LHXmG8UH/ufCo41nPYomDHZccdNR4bjSeR/BBCCEmcQBu8AIOzDtBu7BuCvZ8K9Ebhh18ek4XGHZQHO/1U10cUkC+tP798ebmHKXMQ7vB2/dho/hR7X/McFFZxx6PALah8ICgNG3cYoG4ah1886t/OC/Z1c4dzx2Xv+4Wx0XPwB7z8BoXPbZA3zbuNned4dRAPhNV0vNIKi7uO9Tde/oF97PafqniD/IYB/rEhXq+8gKA8+oXxwp03r7JoXtx+cxs7b1759qoHuwyJlMlOLyhsUNpe58Lizn/UuDT/uq+/cLPjdoNzXufd4dz+7H3Nr1c8QWg44Bd3TuEug5032z2ZaPx+cau71y82O482ek739TdV5QCaF8Rvp6m/fvlU3HnDvn0MNI3cRvNh5zHML7aoZbDD6bFi5wME/WKLmnZewc63lgO4f1OFnaaN1m8YEN4vHkXPabz2r52WvY8wGney0Ljc+XEDd/ucve+VL/VvuylebkDzoKg/v3iC8MqTYqfjTjMId1z2cZR43CAezW924iGEEBKeAs6AmzHiduzYMbaX90G29cbhdZMjmW/KYevIDgMSrdtE2ydZ6QeRaN7cRM2rna5NmDxkJ60wfkGYfOQmUcpkY/u341CSVW47ThA2Xg3n5z8V8eIc3PXXC/uc7V/xC+fGDgPChsvPJFpPWsc5WUfJbp9k5T+RfNl1COKFSXbZ8xJ2XaSyXImkEzUM/NmksjzATi8orbDlyOn8RyHZZY2Cph0vvlSknZvkhfJo3QO/PNh+QNi8pjLusGjd6m9YouQrahpR85KbaD1kN7/uOho4cGDsDCGEkFQRV4M3r6I3nfxys8wNUDe6hcUOEyWcGw0bNQ477ahhw6LxZjd+O59R4kokXNQw6ies3zD+cpsoZYqHljmZ5bbjjBJvPP92nEH+3MTzrw/w+huG7OQjarj8TCLlVb85XUd2XpOddpS+5SaRfKm/sGHUX1j/+QktT06VK0o6UfMGf/aWasKmpefD+LO3vETYfOn5ZOY/TLogFWnnJnmhPEhbNz9sP0H+3IQJY/sJ8pcoGmfUuO08xQur5+P5U8L6ywuEKX8Y7Dpq2rSp2SeEEJJa8q2AlxBCSOLoA3wyHuIJAba2ju6TvRdbgJ8dYT4hhJC9mwsuuCC2RwghJJVQwEsIIfsQFMqQnIDC3b0bFeCrQJ/tTQghxItTTz1VWrRoETsihBCSSvKtDV5C8gs6+eUkOHfQIY5tkI415AfWBeuNREX7CfvL3k/YcYQQQsi+R5kyZaRly5Zy+umnS6NGjWKuhBBCUk0mAS8hhBBCCCGEEEIIIYSQ/ANNNBBCCCGEEEIIIYQQQkg+hQJeQgghhBBCCCGEEEIIyadQwEsIIYQQQgghhBBCCCH5FAp4CSGEEEIIIYQQQgghJJ9CAS8hhBBCCCGEEEIIIYTkUyjgJYQQQgghhBBCCCGEkHwKBbyEEEIIIYQQQgghhBCST6GAlxBCCCGEEEIIIYQQQvIpFPASQgghhBBCCCGEEEJIPoUCXkIIIYQQQgghhBBCCMmnUMBLCCGEEEIIIYQQQggh+ZQCaQ6x/bzP9nGStu1fkd3rnIMd6W6EEEJIvqGwSKFyUqDo4SJFm8bc4tOvXz/p27evLFmyRLZu3RpzJSQ1FCtWTGrUqCHdunWTLl26xFwJIYQQQggheZV8IuDdJWlb+otsHx87TmfXzl2yfvVGWTx3uezcsVMKFyks1WpVktLlSkrBQlmVk3ds2yGTR8+U/UvvJ4c0PlgKFCgQO7NvsXr5Wvnrh9FSunwpOeaU5lKkaJHYmb2H5QtXypwpi6TxEXWd9i4Rc81bRG2HrZu2yfiR05w+XlGq1a4ccyVRyA/9IlG2bdkmc6cukq2bt0mpA0pKzfrVPMfBMOzYvkOG/vSvrFy8Wo46qRn7W6ooepgU2O8EZ8f/XrRjxw556aWX5Keffoq5REdv87jn2fuJkN3w+R2Uf18r+ymnnCK33nqrFCzIj74IIYQQQgjJqxR62CG2n3fZMVNk65DYgcjaFevlh/cHyKcv/CiDvvtHxv41RcYNm2Z+h/wwSv7qN1q2btwqB9WtKoWLFo6FEun/1Qjp+9YfMm7oVKnVsLqUq1Q2dmbfYuWSNU79/Snbt+6Qw49pYATjexOrl62Vtx7qI6MHTjRlPfSIOlKoUKHY2bxDlHbYvWuXfPnqL9L/y+Eyecwsadii9l4noEw1+aVfJML4EVPltXs+k3/6jzdj4exJC0yfKrZfsZiPrEBQtXnDFoGsyl0PO7fvlD/6DHfinSYNWx4iFauVj50hSWXXMilQuKpIwQNiDlkZNmyYvP3227GjxFGhpPvXjyBBrrrti8LOfbHsM2bMkMaNG0u1atViLoQQQgghhJC8Rr5QxzBmGfDrTKhG/TlBnrnhXfm7/3jZsX2nlDmwlDRr20DanNBUmrSpJyVKFTeajn/2/Vt6Xf+OEXS42b17t+zetTt2RPZmdu3aFdvbe9i9Ky1D+EISY2/qF0vnrZBv3+5vxrQTeh4j9799jdz07IVGizeIhbOWylNXvyXT/5sbcyG5Qdq20bE9b2CWITt4jRVhBJPws68Jb4k/n376aWyPEEIIIYQQkhfJBwJeZ3K6a4nZmzBimnzzxm+ybct2Obh+Vbnjlcvlwfeuk/Nv7y49rjtJLr7ndHn045vkthcvNecLFiogpcvtb8KCDt1byelXHS8X33261GlycMyV7G1AM/vCu7pJl4s7SI9rO+8VJigKFiok3a84zpTpkntOk4rVD4ydIWHZG/sFgEY3TNUccfxhckLPo+WASmWMdnc84RzCbNm0LXZEco1dy51/3i9s8DJyypQpsaPEQV+I8lKIL5CIm6lTp5r+SAghhBBCCMmb5AMBL4QUO9O11N7pb7R2Ici45rFzpPJBWYVcmMhWrVVRrn/qfLnr1SvkwCrlYmfEfK589MktpFGrOgnbpiT5gxp1qkrH09pI6XKlYi75HwjtUKaD61ejZl2C7I39YvmCleb3oHpVI/WLlUvXxvZIrpK22fnn3W6webp9+/bYUWJon4g6ZlDIS2y2bdtGG7yEEEIIIYTkYfKHiQZnojnit7FG46xqrQpy8vntpUixYO07CHCLFi8aO0oHi7JtWLNRNq7dZD5nRryb1m82bjjnB/wijIazwWJES+atkAkjp8mKxasD4wkC8cyfvkjGDZtifnGcKJonxIXfROKKWq4w+dd63LIpfQV41D8WGpv0z0zz6yVQQDzrV2/ICOMHFpiCP/wC+LePbZAP2HGe9M8Mk1cvP0HhQdB5lGPdqvT4sWHfq2xR0bpAn9X48Itj2w39ecqYWcbOrN1f7XzhhYlXm7rbCMCe9bSxswPLgnqwryPkdeaEeWZz9wX4QZ9C3wrTPxE32gnpo93c16CCeOL12XjtCuAH+Y6XnrvM8Ic6R/p+9RuWsHmwKV7C396uF5vXQbAYHtSvtkOYPh2mPYLwqt9lC9LHNb8xRrH7epj82v7R13E9xQNhcK3AP9rKvma8yG59KEjXLktQuRIFwuAoAmHNk+YlXp7c5+P5VxKNX4G7vdnEOw7CjjNKOBs7XLx43Ods/17h9HzQOUIIIYQQQkj+poDzYJ/nn+zXznpAXr//M1m5ZK2cduXxcswpLWJnorFg5hJ568EvpESp/eT6p84zNiq/e+cPs1p8h26t5NRLO8V8ZmboT2Pk27f/kObtGsk5N59iPpffsW2H/P7FUPmr3xhn4r4z5lOk+P7F5KTz2slRnZuF0hKGveBfPhsiw3/5V2BbVdm/9H5y9g2nSKNWh4SeaCNPf34zUgb/MEpgxkIpUrSwHHni4dL5vLZGi1nrASvjX3rf6ZkWYoparij5h2Dt1Xs+NZqoF93ZXX77/C8ZNXCipO1OMyYz3HkBEIi8+cDnUqhIIbn6kbM9TRNACPTmQ1/ImhUb5MqHzpKaDarJFy/1k1F/TpRTLuogx57eJuZTZP6MxfL5iz/J8oWrYi7ORVCwgDQ5op4x36F2S/3CK17ncSlB0IOF/NzxNz2qvpxx9Ymm7ylB7eAFhE/vP/FNprqCEOz9J/o618Zquez+HvLXj6My6hRgMbbzb+0qG9Ztks9f+knmTVts3EHpciXl3Fu6SN3DasZcMrfRxXd3d+IbbfqTti3KgsW7zrzqRClesrhxA3/2HSk/fTjIxId4P+vdz4lrozl36X1nyKGt6xoB3fBfx8ovnw4x/UZB/2zbpYWxH2u/uEFfRB+x0wfoW6ddeYLJB/oW4h3m9L9fPhmSqd8X26+oHH/20dLu1JZSqHD6ImJB7bp0/kr58tWfM9URKFO+lJx6ybEZ6Sl2mcuWLy1fv/lbpnZHPVx012mmP4YlSh60LF74XU/gV+d6hS1ztI9dr6B85bJmbETdoV+hP190V3dZtWyd/NFnWKb6bdC8lpzn9C27T4NkjY12/VaoVi7LdYt+cM7NXZw+fkjMJfo1CDAm9HnlZ1k6L10TGsB/9dqVnGuzkjne3wnT8Yw2st/+6X3eL0ztRjWk500nS7mKexbwDNM/C5e/O+aalY4dO5pflA1tr7+Kn3siIA7gF4/Xea90g/Lil0a8tJWguIGej+fPJpE8+cUfFMYLjccvPi+C0g4bh03YPA8cODC2RwghhBBCCMlrFHrYIbafZ1k2+0cZ8dt/UrhoYel0Zhsj7EgECDTGDJxohEitjzvMaLxhwj5u+DTZtGGzHNamnpl020B78aePB8mGtZvklAs6SIVq5Y0A4+s3fnMm7WOlRp3KctZ1J8mpF3eQek1ryZK5y+WfAROkaPEiRrATNGGCxhiEl5NHzZLqh1SWzue2lRYdDnXyVMwIeCY57rUbVpcDKpaJhfAH2mDfvvOHEYYVL1FUOp1xpBx1UjOp36y2KffUf2fLQXWrSoWq5TLqofQBJaVZu4ZSuEhhE0fUckXNP4QbiGO78wvNNyyUhzxAUHNwvSpGCFjA9Qno/qWKO2mvkLlTFknF6uXNZ+huJo+aafpHnSY1pF2XdGHexL+ny+I5y6Xe4TWllpMHACHou499Zcrf6Yw2Tvk6S7O2jYwAZopTPxDmVKqRLkD2Cm/jdf6vfqONYHPn9p1yVOfDpUP31lLXqbuVi9fIrIkLZM3yddL4iLoZn7n6tYMfKxatlrF/TTG2ZNU/2h1uyxaulPEjppu0TzynrTQ9uoGsX7NRZk6YLwULFZD+Xw+X7Vt3yknntzdCwq1OG6BNZ06cJ4e2qpMh9NI22uL0ewix5kxeZASvrY9rIpUPqiCLZi+TBTOXyuaNW6RB89oZZZkzZaHMGDfXacviMuznsbJ5wxbnOi1ptubtGxmTCH98MUx+/mSwlHP6w2lXHC/dLu9khG7rVm8waW5ctzkjTggcIFAc8M1I07fOvv5kOfm8dlLB6QMQ+q9aukYat6prxoR/B08ywlUIVCHA63rJsXKw0ybwAyH6oS3ryn4xYbRfu0Ij9O2HvzQauPUPr+XU4TGmjtE286Yvlv+GTpGixQpnuqa1zKuXrTUCvNoNq8mxZx4pTY6sZ+oeAsa5UxdJY6dfQ7gZj6h5KOFcN0Wd8sOO7manvQ6qW0UatjzE1NdB9asaO+SFCqULtm02rNlk6ljD1W9WS+oednB6uDpV5JAmB5v40a9WO3129uSFTj9YYF4StT21pRzcoLpZoA3XJdoZLxH0uk3W2Ai0fmH3c/D3o4zwFPWLawj9F8JwLBB3yKHVnX5W2oSJeg1C0/rdx742fa/rpcca28wYQ4oUKSTjR06ThU5/37l9h1Q+uIKTfnVzzc126uLdR79yrpFtZhzp4YwjeOm4n3M/GTdsqkwZM1satTgko8+F6p/ljzV+vfjwww+zCOD013bHpgI+/VXsY3dcbvzcNRxwxwVsN+y701F3YJ9X4Kbu6s+NO04bDecXh7rZ5+x9PWcDN3cYJcjd75wb9aPpqn89Vtzx+MVru/ul73bXY2x+YZSLL744tkcIIYQQQgjJa+QLAe/CSX1l1IAJRtDR1pl8R/0UWXELeKHdBs2sedMWOtsSqV67slRxJvI2mMwP+u4fI6zodHobI1D6+49xRrusXtOactm9Z0jlmhVMXAdWPcAId2ZPWiDTx811Jvm1jSakHxAmoywQgEE7r0adKkaIBhvBEDpCeFHc8dPA0lDzY+zgyfLr50OlUvUD5bonzpNDj6hr4oLQptWxTeTok5ubsmHy5idYjFquqPlX4eGaFetl7aoNcvFdp8npV50g7U5tZcK4hbsAbkWd9sJn2RAmNT2yvmkDBZ89//rZX0Yo1vmctlLNKS/wEuRBs3Xc0KlGWxuCTpShbIXS0rhNPenQtZUR4ujkNhEBL148QFAKIdHhbRuZukC/gaYj/K9atl4ObXWIlCyTvvBfMgW8q5aulWZtG8iFd3Y3QvCqNSsaISEE+5NGzTT5uuKBs6Su07Y419ipbwgNIaSDUBttB+w2ggbj5ff3kEMaH2TKgl9s44dPkyXzVxqhYNkD0wVrKoyD8LW+U17YyO7oXC+weQ3h2/Rxc+Tbt/sbm9hXPniW1Dq0huk7qP+mRzUwn6yPGzZNajvuKB9eAPz4wUCj3Xvp/WcaYSUEZsgnNEChTQ8TLHhZAKExhJYX3NHVvCSAP9jnxjXe5vimUsK6Br3aDZ/jQzsUfeiUC9sbIVzVWpVMmdF36zRxyjxsqsyZvNCEKxOz36tlhlDkwju6ybFnHGnq1tSvc/1h7EBa0D7V+vUjkTwcUKGMNGxZRxbNWmrSOebUltLloo6mDlA2L+EuwDgAPxqu22WdpMNpRxg39A/UufYrCHjRh9GejdvUN/mpWb+asQONFwqrl683Wvrap5M1NgKtX/SFnjee4tRvG5N31G+ztg1lnTOGzJmySHZs2+nUd/r4EfUahCAaL4g6nXmk0eg2L/2c/nNI4xom/kVO/SCuo05qbq435OWT5793fjebrznQv1EObHWc6+EApz//3X+cFHSGEbxcC9s/CxQ/2uTHi//9738ZAjhF9203xe1XscN4nQd+7sAO5/bndxzkD/u66bH964XtH9cd8AvndaxhgFc47Oumx/avG7e7LSDFbzyBqRvbL/Z1C4s7fS+83O0wQXmmgJcQQgghhJC8S1aJWpJYuWq13PtYL+lw6llmwz7csgM+gS2ImbMPal/T3uLZRYSwt2WHJmZ/9KAJRgNNwUQHn8Xv2rlbmrU71HySjk/iIYhCPtp3bZ3pM3WAiT4EhutWbjCajkFgEtWiQ2M57KgGmT5ZhjsEXYUKF5Ql81aaNINAnv/9a5L5LB9au1hF3wZxlyi5n++kDSRSrkTzj3y2OeFwqXd4rZhLMDXrVzVCGqQ71/XpOsx2zJ++RCrVKG+EYEEE2bwsVKRwYP2EAcLO43ocZYSWNhA6QSgFUxLIb6qA8Mg2cVDmwFKm3iBsh7ar3S/QvhAUgvnTFplfG2hhd4DAy9UPEB/abdvmbUaA6QaCRwjabdMAuI7+GzLFfK7v1T+hcd2sXSPZ6bTPjP/mGjeE8VuxHX1NTS6kOX9uMwMK2hPtGo8FM5YajVQIYY84vmmWfgCBeROn70PjFQJ5N9BgdfdlXC91mxxs9hfOXGJ+g8huHlJJ+26tMkyXKJUPPlAqVS8vG9dtMkJekMyx0QbCcrwAskH7tzruMKMNDE1zCFBB1GtwzfL0/eqHpJtiUGCG58Cq5cxYtXzRnvvWXOdawZh2SJMamUxDKBiDyjv9e/aURUbLPRn9U/sCrgng7hs41g2ov5zCnR+gebB/bX/uMFHzrv7c8djhse+OD/51wzk7vDsuPXbHoXi522H8wtnAv70p9n6U9EFQul7nNC09Z6dNCCGEEEIIyT+kTMD7zMtvSr/fBsjqNWvNhn24ZQdMtnfHbIt68f27/eWRS17LtMEtHpiUQ0A4Z8pio7Gl4HNemB/AJ+WNWqZP5vEpLz71h6YXFgaDZql727Jhi/G7bnW6DdJEgJYXNFfDsMlJb/mC1QJTB7UaZdU2DUOyyxWUf3yu3rBl7dhRfCAogoAdgvYxgybK7l17BLXQJkXeDzuyQRYhlJtqtSsa7cSB3/0jn73wo/lkHMLPVFOkaBGjKZ7TYKKuL0SKeZgICGMH1Q0EX1VrVTT7yxfssT+qoP+5TYrgJcvSBaukSLHCstUIAbP2LQjR0DYw1wBgOgXamtCihBmQfwaMN+ZS3ECLt2rNCrJ96w7531PfyoBvRhghXhQWzl5q+lal6uXMixA3qEdoZ4JlC1cZrcwwaJ2H6WOpykOqKOT0HVzfZkyOlS+nxkYF43LJ0iVk0/otsn5tuoDXD79rULWxobHuZtumbealYsVq5WIuIgumLzFlLr5fMZk8emaW8sEkSuEihYxGNsxEJKN/2oK3qMK73AJ5xWaD/GFzu7uJVw6v8xq3omnor553h1W37ObJDeKLF2c8oqYJ7HSjhLf9JpIuIYQQQgghJPdJmYB36Mh/Ynt78HILA7SxILzc6Eya8cmwH7D/2uaEpmaDPcqwQDAIDUdoJU4bOyfmKs4EfpZJD58gq9AKNivxGTuECt+8+bt89Mz3WbY/+/5t/IYFAhKsDj/w25HyyXPfydPXvC0fPNnX2JkMA+wDQ4gGwUqpMsGfPfuRnXJFzT+mn1Env9CSLHtgKWPTdO3KdCEgBCXjR0yVkk6ZDzuqvnELAnZAT72koxFM/Ttksjx30/vywAUvyY/vDzDa3skCgkhofmMBv1fu+kieuPIN8zn73oIKhvFiASYybCBQdrctBF0QeOFT+l8+HuLZt7CYFoRgCAsBAzSRsaAi7J6ivfu8/LPc77TVy3d+ZD6pV6Ei/J/YM91WLfrbzx8NlocvflV6XfeOWUjM1sj3Y+XidA3NijH7y17g2gK41nbs2LNwWLLIC3nILqkYG4Mwfc3ZtjttDJvRNmGvwcOOrm/Gj8Hf/yPzpi0yfQ99a8qYWTLyj3FS5eADjUkKRV9A/Dd0qmf5Pnuxnyydv8rpl2IEwcnon3o9IW/ua0uxz/n5yU2QJ92CUD9BQka/uPTYK6yew6+e1zj0nB/qJyhPXkTxb/vFPrZ4+QpD2DzYZUxGuoQQQgghhJCcJ2UC3mQCu4blKx9gBEAzxs2LuWYFi+n0uO4kszUJIfCzadiqjhQrUcwIDCE4hIBg7JBJxg3ao+5JD1abf+iD6+T57+/23dyr9LvBZGrG+Lny7I3vyTPXvyd/9BluNMlg/xECatW+zEmilCsn848+gEWWIHCH4B1AW27ZglXG3ic0H+OBNoTNTJTv3Ju7mM/et2/dLoO+HyXP3/yBWeQqO2zdtM0sdPfAhS/JB0/1lYn/zDD5Rv5KlU23+bk3AS3beHaDbWD24ebnL/LsU7qdfeMpGdcaPre/9snz5I5XLjcLZqXby14s7z3+tXzz5m8ZJjeg4X3+bd3k/revkeN6HCkHVCxtFjj74qWf5P0nv/HU/PVChcZBQBMUQsVUkRfykF2SMTZGAS8DdBG7qNdgtdqV5ewbTjYC4pfv/Fhu795L7jj9GbOIWsmyJZx+1dX5zRrulIs6eJZLt3vevFrKxOxTJ6t/grACu7xMmDKEETIiHt3gX3913/aj2Ps2fu42YfJkE9a/O213GQghhBBCCCEkDCkT8B7TpnVsbw9ebmHAJ8tYoAeMHTLZfP6bbKrVqii1GlY1AkMIDpc6E/Al81cZN5xTypYvZRbo2bp5m2xYtznmmhhYeOq9x76WnTt2ypWPnCWPf3qz3NDrQiOg7tTjyNAmGsqUK2kWFoJGJRYvS4REypWs/IcBpgFg7xd2fSF4h0YoNDkhRIY7zocF9mFbdGwsNz17odz31jVm4TB8Xj7i1/8yJtVRzRdAE+/zl/rJsJ//lSNPOFwe+fAGuf+da+X827ub+qjVcI8WYH5nfayPlShZPJQQA5+zQ+gHDUbUcxQQPxakOuOazvLQB9fLWdefZEw5jBs2VRbP3WNOBUDTH4vn3ff2NXLFQ2cZzcwZ4+fJzEnzYz68Ua1ZCN38hCpqUqB4iaJSOEJfC0teyEN2SebYGAZ8tbB9204j8C5WvEhC1yBeEkBbF19xXHhnt4ztzlcvk9t6XyqVamRedLNKrXRbvapxHYVE+2cYQZ8tEAzjP7dIVt4Qj449XmMQ3HQDmq7tpqSivhCnnUc/7LQ1TLLwKmsQyUybEEIIIYQQkvOkTMB7541XS5cTO0m5A8qaDftwS5TWxzaRqrUqmNX2v3rt10haT2GwF1ubMHK6sfUKkw3N2x2aaeEqmIrAQlP4DNk255AI44ZONQtPdT63rdQ/vHZkoaICe7ewIQzttSmjZ8dco5FIuZKV/7DoYmuL564wAr4ZE+YbDbyD6oc3x+EGQpfO57U1izVBOL5ja/on01hgCYQV5Cx3/GHVfyyS1fn8dmZBqb0RCNbnTl1sNEjVJmw8iu5XVGo2qG4+WZ8wYprYNpSjgP7V6tjGZsGtIGExhBoNmteWNsc3NWmuWuZv1gVUr13JvDhYNGeZbPSw5Yr8zpmUvqAcyoHyJJu8kIfsksyxMQzzpi8xX1tgsTdoeydyDc6aOF/+/mOcNG5dxywW2fTohmaDYNdrPDu4XlXzVcecKYtkrYfd3jBE7Z/wr8JCP4FdvPN5Ac2j7mcHxKPx4Vfjc8erfoBX3djn3WETRePUvAVh50237KDpRS1LlDwTQgghhBBC8iYpk8gdWL6cPPnAXTLoxy/Nhn24JQo+k+1xbWej9TT9v7ny0l0fy7T/Zmf5pBmTk6XzV8rM8f6mHPzQxdam/TdHJoycYRbxqdUw86Jl0BRt2amx0SIc/N0/MnfKwtiZdJA+hAZ/9BkWVwited/lKgNWo/+r32izYn4YoMHWqlMTIyAa/su/WfK0ecMW6f/VcFm5ZE3MJSuJlCtZ+Q+LLrYGUx1DfhhthDsQlHgtSuUFhJMww+CewKJeECcERSo4w8JKEGLOnrQwk8Y4wsJ2ptueJ+oCGwQ22GymO/1pypjEBO+5BQSouM7s6wv7I38fZxYE+z975wFoRXH18aEjvXeQKr0ooKggIhZUbNh7i723GEsSNTHRxHwmlkRjN/ZesBdEQTrSe++9g3S++c+753HevNl69953H5zfY7m7U86cmZ2+s7PYgsMuG350PqK1qlKjkho7eIoa//OMQvcAZfaL/w1W61blTZrBHvcK94yDPLVm+XqzUrRGnbxX4PGxvLXWJBlWZuJjZCgT9Zt472sLEI+2XVuoZfNXqS/f+Cl/6wcAPaAvHvpUq11ZdT26XcomWYpSB6QTQDj8fkclybqRs2DmMvPxNg6uf/hwpCmjh+q6D6vy45RBfASttK4/8eHFx25+Xr3z5Ofq3ae/UANfHqR++Wmqwt7iPE3wNkcr3U5gpfXXbw8ptIcuHrKhrp05fu8Ed7r5E+nmB+xpYpCfJwWFH6RHGEg/10Ri3HAoviSXoLAA/bpkkzsctj1du/wBP/c4uD423K+XHC/87KOEC+gav7ZfMhMEQRAEQRAEIfcp9YAmdZ67bPvZ/FStWcWstFo4a5laMneFGvPDZPXjJ6PUqO8mqtmTF6hBH4xQn7822EwurF62Tg/6y6qeJ3fN/+r/hjWb1JhBk8yK3EOP7WQmBThwv2ndFrP6DHuz4qNtBx/VrtBgqWbdauZL6ZNHzTKTfbMnLjSTGZNHzFSfvTpY/aDDX7ZwlWrfvaV59dcLrH6dOGKGmjtlkSpZupRav2qDeWX3rSc+Vzt37DI6VNH+8YGeoL1Oa9WvbuI3R8vCNhZmJeD6LWrktxPU+89+bSY38Jo8VqBROtiyo8Yrqv74ANNIfa/gr1ufDvlfsI8CJvihD+4vzrEXpmtvzUlaL+SRg7o0NZNnmKR5/9mv1EfPf6emj82b6Fm9bK0a/tU49d17w83+sKdecYzRF1TRMhfOXqYWzlyqxg6erJbreONVbkxOjRsy1Uz0rF2xIV9+ubJlzIMB5M2VizEZVcJMWv7w4Qj1/fvDVe0G1c3HwpCf6jSsacLwug9eQC4mnWro+0TuMVEEM+xNzGUTdjpwsNpx5vh5Ji4deuRtgUL3CBOpmIybNGK62rhms84LC9QnL31nJmgrVamgLrj1ZB2nvWG5ZHHwgAYTspikxOrrqTqPLZy11GyzgTT98s2fTFpju4zaDWro8yXq2QfeUT8NHKM2rd1sHhpg/92PX/jOpHG3Pu1N+USa/vfBd9T3Hww3k347dL5bovM+8utUfZ9bdWqqep/WPT9tXelRSuddrKCd/ss8M6k9/ufpasmc5WrK6Fnm41uoY0qWLGkeMDVr19j4AUFxDrLnxNUB+N1jP7DiFfotmLFEh7VMDf1irLm/+dvh+OQrr3yXVN0IKP2wFcOo7yeoZfNWqjUr16uhn41Rn7z4vVq/eqNZBdtnQA+TNnHKIMoeVu3PmbxQ15e/qsU6zRfNXm4+5jhB34Ohn/+iJo+codoe3MK8KYH71PSghjqceaadGPX9JDOBi7rB1LXPfGXM8UG81l2amQcWofJnpaOMPi5eeeWVQm0Qn4jDr33twsvcC5Lpkut1Trjs8UvnNGnouiazMJBbPz+ws+NCcLOoOpEZtyO3Ljsb2Ln04ma2ThyyJzvbn5cf/gvIj21ny8D5ZZddlroSBEEQBEEQBCHXKFYTvACv3XY/pqNZQbhWD/bXrlhvXgnG3rkb1m4yk4f4iA0+ZnPR7aeaD2kRQRO8AK8ZY2BfolRJ1f/SPuYDPTYY6DRt09B84R+TCQtmLDWTApgcwMRm92PaqwtvO1XVblRwUsQGq0Tx6jVWiU4dPVuNHzpdLZ2/Uh19xmHq1Mv7qCVzVxp5YSb/MMGBFYDValVWC2YuNZM208bMMRO9tepXUxfeforq0rOt0d1rYjFqvKLqn8QELz6mhIlZxLHDYa1Uj+M7qxI67jb2pBdW+rXq2NRMOmOye+IwTDRON/Fs1LKeuuLeM1W9A/futVy6bGmzohtxX7F4jf5dodNyhc5bVdWV952l6jauZSa4WnXOkw/3jVrUNZNSSA/kIeiANL7kt6erxq0amC0tOh/ZJn9yKZcneLEC8vxbTtb3c5UaM3iymezdpMsZ8seldw8wW2NwwkxmIs1ghzyJdF+EQ+cvfOCq9cHNdDqdka9jFZ03mhxU30y0TR45y9wr/G7ftkOdeHFvdcJ5Pc1kGz70dlDnZmrh7KXmvk4YOs1MIiNtjzzxEHXWdScUKOde6YF6pfORrY0ueGCB/AXdMImIj/tdrvMHJp85QXEOkyacODqAuBO89fX9WLtqvcnXmAjFwy3UIbT1RpwJ3qTqRkDpd0jvdrq+6KiGfTVOTdF5AHVMmXKlVb8Lj1LHn3ukKXsgahnEBNaPn442DwbPv7W/uvjO01Sv/l3VUad2U71O7qZl1VOrl6819RjcttFpAzDR27V3e7N6F2GZvKzjuHLpWjOJfMbVx6vepx5qtngImz9LlD/SyHaBCV4CegCkM6Brgsxd+NnZ2OEQLnOXXD97rjPZBclz4ZJry8Fhm7uIoxPJ5fJdcvyw/QMui85tWVGvCZd+fjrTNf3KBK8gCIIgCIIg5C4ldOd+b+8+R9mz/u+ps8JAfWxBgAkHDELwsTFM/GSTHdt3mEkZTBxjQB8V6I44YEIA+tuDrDhg1dvO7TvTSo+w8cqE/pkEq3mh7+7du81kDba48AOrRzHxiRXerocCNkh7TP6EkZ1rbFizUT11z+smfa556DyznynlgyTjEyXPUPojH/u5JT3xsAPuXHuohoHqFOSTdMpPOmRThyTqCi/SqRux6vWzV34w+y6fd0v//DQBfvkAhCmDeNDw7B/eMtu8YILXJW/OlIXquQffUe27t1AX3HZqoTwV5T755c8SVe9KnRWmT58+qbO9IFzoS7+ZIpPhQCYnk/EISxydyE86+sdJZ9tPGL/cLcfLH7kj+0GDBplfQRAEQRAEQRByj4ztwZsopbw/ooWBB1a+YcUfXvktiskYTCAg/DiTuwA6Q3fEI2iAFhbokm56hI1XJvTPJJhYwZYBiFuYCUtM6sJtmMldgPQKK7s4QPkgyfhEyTOU/kFuSU/c27iTu4DqlKKqT0A2dUiirvCC7kncupFDaRImz4Qpg3jIgP3Dsf82JmhtMLm1aPYyY1+7YS1nnopynzzzZ6mCW27YtG3bNnW2F4p/UDqkSybDgUx+5AJxdIri1gvyH0dOHL9wyw8vuH3nzp3NryAIgiAIgiAIuUmxmOD1e31VEARBEKKCjypiT/JJI2eqF/78ntnSBivYcWDf4Lf+9Zn69KXvzdYXvU/plvKVPCXKH546c3P55ZenzgSh6Lj44otTZ4IgCIIgCIIg5CLFYwVv6WZKlZXVI4IgCEIyYGU49pnufERrNXPCPPXcQ++oBy9/2hxP/u418zFA7JN76W/PUOUrpb8C2QnatdJ5ex570b17d3XKKaekrgQh+yD/de3aNXUlCIIgCIIgCEIuUiz24M1n1xK1Z9tYpXbOV2rPlpShIAhJQfsTo1rI9N6vguAH7b0cd2/zKGB/3FVL16kVi1aZ7RPqNamtatSpmpn8X+IApUo3VSXKHaJUqb0fAQ1iypQp6oMPPlBjxoxR69atS5kK+yP23rhBwD3c0m8Yqlatqrp166YGDBig2rVrlzIVBEEQBEEQBCHn+OxD81O8JngFQRAEQRAEQRAEQRAEQRCE/Ane4rFFgyAIgiAIgiAIgiAIgiAIglAIWcErCIIgCIIgCIIgCIIgCIJQTJEVvIIgCIIgCIIgCIIgCIIgCMUUmeAVBEEQBEEQBEEQBEEQBEEopsgEryAIgiAIgiAIgiAIgiAIQjFFJngFQRAEQRAEQRAEQRAEQRCKKTLBKwiCIAiCIAiCIAiCIAiCUEyRCV5BEARBEARBEARBEARBEIRiikzwCoIgCIIgCIIgCIIgCIIgFFNkglcQBEEQBEEQBEEQBEEQBKGYIhO8giAIgiAIgiAIgiAIgiAIxZQSezSp89xn+3i1Z9tYpXav1xc78swEQRAEQRAEQdCUUapUXVWiXCd92j5lFp2BAweqDz74QC1dulRt3bo1ZSoIgiAIgpA7lCtXTjVu3Fiddtppqn///inT/ZdSD2hS5znMLrV17adq88rv1M7tG1WZsiVViRIlUnaF2bVzl9q8fovavnW7Kl2mlCpZUhYqF3cWzlqifvpktKpSo7KqVLVCylRIgh3bd6gfddqO/n6iqlarsqpSvVLKpngydcxs9cOHI9QmXQc0alEvZbrvsr/FV8hj6+ZtauxPU/TZnmJfZvdV4t6jXzdvVd+8NURNGTVL1WlUQx1QsXzKJjPsa21AFPbNuO/WWW6DjtxM/btZlSjTXJt595ltduzYoR577DH16quvqnXr1qmdO3embMKBdSN+ffQo0BqUdOQlIQMkJcePJNMum2QjbYoTUdLDyy2ZE9y+uOaTpEgnv3G/6cgRskdS+X1/vN8UZ2JfjfuuXbvUmjVr1LBhw9SqVatUjx499utyXTxmPnfMVkM/elU9ePnT6tW/fWwmbv1YMm+FevSG58yBcyF5MADd9uu21FX6mEn5DVvU7l16YGIB87ef/EIN+nCEeuPxT811cQUVLfTHoDJXQJpPGzNHDf96vFq3amPKtPiydP5KE5e5UxamTIo/fuVtX4yv4M9u3ZF5/5mv1NtPfK5eePh9tWLRqpRNfPzq4OJKUda3QffIT7cd23aocUOnqVHfT9Rufk2ZpodfePtaGxCFfT7u28crtXNe6iIcGCB98cUX+YMje4DoBbmL6s+FLSss5I+HDRlJ6ATiyoF7Lz/cLmp8s0GQ7iAX9S4K4qQH3HrlK24HbPm2e1zbZvsqXmkQBvLL0zYb7E/3Jy6UPlHTyS9tyTzb9zsXQJzp2F/47LPP1JgxY1JX+yfFYoLXbMsg5Awb1mxUj9/+shr6xS8pk/QZ/Mko9a+7XlWb1m9OmRSEVmGXKVtKlSrGK7IXzV6m/nrts2rGuGgDLmH/JRPlTdh32L0rmQFDUB1cHMmV+tZ1j7Ktm7Q9+y97to1OnYUD2zKkC/J7Lg4oi0onvwE2t0uiLk8aP92FZImSzq4yJvfKH1f5ymZ6yf0JB92nKPWhpK3Aeffdd1Nn+yfFYKZMF+5dS1PnQi6wfs0mtWVjMquKiBULvVegVaxSQf3m92epK+47S1169xmqfKXMvq6aSTbotPt1c3Irn4V9n0yUN6F4U7JUKXX6Vceq/pcdrS6/5wxVp1GtlE18/Org4kpR1rdB9yjbuknbsx+zC2+yhRso7969W02dOjV1FQ0MrvmAPMrgPJNAj6LWJUz4cJOLExS5ch/3VaLkz6AyJvcqGDsNs4ncH3+QPlQH4pefByFpK3BmzZpl+jP7K8VggheFOtr+X0JmwV6fW3/13yYjCtu1LExi+YG9d9sf2tL8FmdWLVuXOhOEcCRd3oR9Azz46nNGD3Vg64ahOr9+hKmDiyNFXd/63aNs6yZtz37MHmxrFa6OwNtS27fHb2/4gDzdeikpckGXMOHnSnrZ5Kpe+wpR8ye5dfmLImd/hKddUSD3x5900kfSVuCsXbt2v/4G134Xczzh2bRus5r+yxw1a+J8s7elH9iXcOWSNWri8Olmr8u4e/lhn7dVS9caOQgbe+G5wD6bG9duMuEC7m+ZDp/MOdAJr3GTbojj+tUb1OSRM9WCGYtD6Yxw4RbhIL6ucAisJtyzO/hJGcKFzPFDp/rqsXPXLrV1S/oTWLiXuKeI97qVG0zauYiTxgTcQjalbdR9iLesD79/cNj4BIF0R94Nc28JuncIG3kp6MkoZFI58UoXyEQ+9SpziB/Kppc9wsB9Q9mJ8qQ2yv0lgtI+SBeYwc7LnuKKI+i+hi1vRNT48nsXp47Dvfa7r3720DVKeQqTlyltKTyk/5oV63QYs8xv2LxDYaH+CkoX6I38AreZrKc5JI/nMfza+Q7ugspylDoY/sO0oUgTXs9CD7jHYceVdAxqKwiuAw6cu+IVpb4FiAu/RzYw97OnvE75mNy76oGoulEe8+s/+BE1POgelG84cB+1nQFJpzknrk7kL2zcXcAPlW8/OXb84Ab1FHTG/XbFC25c5Rzu4Q/1f1C7EgeERQdd23A7L/sgNy5sP2H9Ae7e5Y/bcbdhsP24/HL7KJA/7t917Qe3D3LrgocVBnJL/sL45X74bxiCwvCzJ3P71wV3E8Y9Yftz+eHmLnsb7pa7t6853I8fYd0B7tbPn23Hf+kIgrsJ4z4dbPlR9MOvl3s/OxDHnsy4HT+3sc293AEuj//GAX6jyIk6Wcvlh4HrEtYv98N//SDZdLgIY89/ObadlwwbuONHXMivnxyyc9n7+QO2HXfv50/QZUgnUM6n0J71f1fffzBcffbKD6plxwPVFfcNUOUOKJeyLczCWUvVs394y5xf89B5qnHL+uYcneY3Hx+o5kxZZK6JA1s3UOffcrKq3bBmyiRvkuDnL39RX7z+o/kSNlGmbGnVq39Xdfx5PVWZcmVSpt5ADj6W8tFz3+jO+N7XrEuWKqF6n9pdnXB+rwJyKJ4X3NZfVatZRb33zFdqxaLVKVusZK1ktilo2qZhykSZwcOLD7+vjj3rcNXtmA7qzX99puZPX5KyVTqtyqpzbjpJdT6idaFKE5MrH7/wnZo4YkaBSaTyFcup4849UvU6uasqVbqUMRs9aKL66o0haqMeTO/YXnBV9QHaPaU10uuLN35UP38xVsd/r8yKVQ5Q5950smrXvYXRA4OT1//xqVo8b7keoIcbfJ586dHqmAE9Uld5LFuwSr3z1OcF4gyq1qysTrn8GNWlZ5sC8Y6TxmDBzCXqzX9+VsBtiZIlVMfDDlIDrjlOVfb5+vaXOj3wwRy8JsvTBNSsV03d+NcL81cnR42PF8h7Q/U9+OK1H/Ugce/kDfID7u1Rp3Qz9xYDyBcf/sAMDi+9+3S1evl69c3bQwv4aXNIM3Xh7aeqCpUPSJnkgY8BDfl8jHb/cwH3yN+dDm+tTv/NsfnpsnrZWvXv+95QO3fsUtf+6XxV/8DaxpyYpPPgy498qOo2rqmuffC8QulJ9w35/MSLe6dMC0Puuuuy0P2YTqHvLwib9ls2/aqee/BdtXjOMnXFvWepNl3xlfK9UB2E9PWLK9LoojtOMa9z24Qtb3Hjm1Qdx8M/75b+KdO9eNlHKU/IZ1+/NUT9NHBMgbRAPXXihUepI/odrNMw73klJkueuud1s3ry0t+err568yc1atAkU7+FaT8Q1vfvDzd70vI8jXQ5/IQuqt+FvfL9e9WfdRrVVOfferJq0qpByiS9etoFyeNxorK8aukadc2D56rJo2b7luWgOth1z95+8nO1bP7e7Rxwz5q3a6zdnaRq1KmWMt1731HPIg++odte1H/givvOVO0PbRW6reCgzL379Je6jC1LmeRR78BaasBVx6sWHZtEqm85Y36YZPRs07WZuuzuAQXyP7pK7+i4j/xuoup58iHq9KuOK6AbpT3S6Ko/nmPSxHWPwugGkIfxcOfye840k3aoy8k90vzw4zurU6/oG1hGw4SHvJdOGxC2bLpIOs1BFJ14+3fZPWeYD63ZbWbzdo3UhXecqqrVqpIy8QY6Q9YHz35TqG5D2T7z2hMKpCGvFw47oXOhPiruzcmX9FZHnHhIftx5OUf7Mm3snECdS1S9y/yGoU+fPiYePK3taxBkZp8Dl3tg+/GSw3HJDPLvJYtjy6VrwP26ZIWRHxaSZf9yvMxAkB5h3blw6eTSBXiFQ+Ygjg7AK0zCTycvf9yOdLTdxpHLscNI4tyLMG6IsPKA7c7LLzf3cwOCwia4ey+ZcfDSI6o5CKsXuQty77K3/XrJgDlw+Qdecl342dm45JMZCCsnLqQr19lLf5euICl9XfLD6AVsu6R0An7hekHhu/xFlRdHVtgwBg0alDrb/yj1gCZ1nrts+1nNnbpIzRw/T9WoW00dfFRbVbpM6ZRlYTCQGaMH9KBbnw6qqh7IYSD7yiMfqvkzlqhDj+mkzteDTnSYS5cuZTrjFatWMBMgyDDION+8NVR9/tpgPWCtqs7Qg4rTftPXdM7Xr9loBht4bbrNIc19l3/jK9ofPf+d+uzVH1RZPWjpe+bhOsyD1YFtGqmFM5eqGePnm/AwIKWMSvFcs3ydGdA1b9tQHaM7/h0PP0htWLvJDBjmTVusOujBMQYrYOXiNeqXn6Ya+5+/Gqeq1aysjj37CJ1O7bUOu82k1Yxf5qqDujQ1aUGs1YO45x56V82ZvFA1blFP9bugl+p6dHtV/8A6ZoJq0vCZZnKJ4on9+7brgRO2csPrvE1a1Vdtu7VQjbRfnLfsdKDavnW7eub3b6opo2Ybc5KJCSlMZmDCoXnbRqq6Ttc9u3ebwVSFSuXVmhUbzD3tcmQbdeBBDYxffmB12ZZNW00cmmn/BFYY/feBd8yKldZdmqkTzu9p8keV6pXMvR43ZKpO+9L59xbESWMMpJ7/07smb/U9s4c654Z+6uBe7Uz6TtWDq4bN66q6jb33wdy4dnN+GiIerQ9uplrp9ELcmrSsr/PAgWYCKU58vBg7eLKZ7MPkCgaVp15+jDpQpx0mWnF/23drpQ7QaY9VTcg/a1asNwPLuVMWmomsXqd0M3kVH+dZOm+lmWxo27W5Hqjm5Xn4+/C5b9T3749Q5SuUzc/frQ9urtav3mg+5jN1zBzVrmsLE055PVBdMGOpyfv1m9bJf/ACUOZ++GCEWjxnuVnRdVDnpqpmveop27wB7bfvDFObdDk+XqdJ9dpVUzaFofu7Vsdn7I9TQt1fECXtUZ7X6vwze9JCVbFyedVGx5Ez5ofJpgygvPjFte9ZPXTeqZeyKUiY8nZAxfKx4ptUHQco/IbN6qgOPQ5Kme7FZR+lPGGy5r3/fGU+Mte4ZT3t9kR1ymVH6zzSTOfLFUbXsuXL5JcJTHLADNsOYGXniG8nmHuIScMDD6pvJhYpD9tQnsbkrp2noSsmUjBpW7tBDbVE37+n7ntdLdK/yK/IL517tjVxmDd9sXHbvnvL/MmcuPW0FySPt4lUllfpMo40n67l+ZVl4FcHN9V+8Avm6Hrhed1e/Lppm7lnZ+t71vPkruqACuXU+KHTCpR1QPe9YpXyaujnv5gwq9asZI5DerczbsK2FQTK6PMPvadW67LHyyjSa7Zux9at2mDyOerYMPWtTTmdjyYOn6HLwGbV4bCWqlLViikb3a/QddrXbw818nbs2GnSCfUAgRWfgz4YbvJt79O6a/llnPcoTFuA/IA8vFmnGR4G4R71Pv1QdUS/Lqp2/Rqm7kCZLqfTnreHLsKEV0KXmzhtQNSy6SLpNI+qE2//1ug+EVb64+E79dUQ9xWL1ujyuVJ10OW5tCPfcH4aONpMWO/cvtPcr6P1fWulw161ZK1pL1BPdzisVX69SnkEe8VhIh71BdUl6J8unrtczZowX9VtVDO/TszXeeV6tXrpOtPWk87N2jU2ui6dv6qAziXKH2n8huGVV14xv3TP0F4Q3AznZMfvr33uckPAjMxtd+SX/wKXO47L3HXO5dA5wc38/AJu5pIFbDc2XuZkxu1sWRSe7cY259c8PO6PILeA+3f5wTnZcTckw+WH23m557L8CHLjsoeZLZ+uuR3Zc3eAX9tycA4zguzIDNfcPbD9E2HOOWTOdcIvv+Z6uLDd25C5bc+vbf/cj58u3A+Hu7P9AC9/wNbFFT4gM/xycwAzMud+6Rx4mXNcblwyvHDZw8yW4dKTu7Gx/djXgMux7WxsWS64HPwS3JzwCs/2B7hb7gfnZMfdkAyXH27n5Z7L8oL8ANtt0LXtN65OLjPAzbzccGw3dO5lzrHd0DUOV9guGcAlw8Vll12WOtv/2G8meGdPWqB++GikGfxhZRUmvSpXq2gmMNAxxkCWOtwzxs9VH/73W1VLD6Su/sM5qln7xnqwX05Vq11FdT6ijXnVb/zQ6aq5Noc+XmAQhJV/NepWVRfceooZWNVrUls1bd3Q7Mk3YdgMM4HKBy0UT2TYS+46TR1z5uGqQdM65sCgAIPsJXNXqNoNa+RPGtEAAStVTruyr1nVg8EbVg1iheDKxav1IGW5GdDSRBQGCO8/+5VJlx7Hd1aX/W6AatyqvtGvRYcmenDRRk3TA3bY129a2wwsMBGEyREMtqBjTz34639pH2OGdMRkE1abIK0wgMeKR+gIme30IAODVkz6YaIPeuAetuzYxKygzps8K6MuuuNU7be9kcmPxXqQhXjzCV5M2mMFICbksMIFk5gNmtU14UE+ZE8YOk0PVhcVmDSJk8ZYATh+yDR1tB5EnnhRb7M6EPkBE1ZH6/xTT6e1VwUDcC94PHCfjj7jMGPWqnNTc2/ixscFJrcweYfB/cV3nWrCwcRLvSa11KHHdlI9juusKug4AD7AxYD4uj+dr+PV2oTL8yomgLCijgbgvwyeor58c4geeNZSNzx8oWqv0w5+kPe69+2YP8m7bet2MymAVao79SAdg3nc64499k600UAeq6pwXzDop7wKMCn9w8ejVLValc2AmQ/ybej+Ih+Gvb9x0r5UmVJmYmvXzt2q0xEHmckFQJPRZnJWZwk86Omo80mp1CpdTJJ89/5wnV9Kqr5nHlZgQoMTpryBOPFNqo4DFH6UCd4o5WnEN+PNalBMol5575mqnq6PsBKyVoPqZhIbD6hmaPntdB6DHJrgXbtyg1qn89Vld5+hBlxzvDrqlO6mHvKa3AW+efqYjurIkw4xZRm6YSIG+bDPgB5mohb5hde586YtMfVmOvW0H34TvLh/CDuoLFetWcW3DoZ+ABPlr/3jY7PKF+3nkSd1NWmNAw8aqut7N+Lb8aqkvmWYDAd03zEJ1/qQZkYXpBX8ItwobQXwLaO6PPTU9+bgo9qpsuXLhqpvXdBDqAUzlpi0Qhki8CB42FfjVI3aVc3DQUyS8odQmBic8PN0fS8P0vmytTFz3aMwulEexls/nY5sra68/ywzQYm4wk013a+YNDLvAWxna9LTJkx4cduAqGXTRdJpHlUnHveqtaqoa/90nkkbijv1hTDRi4d1SE8/0OdD3XD29f1Ul17tjBykKVZAY7J+9fINqj1LQ8ojuNd9zzrcfJiP6hLoi0lePKjBFg+ddRwxWUs64+EdyhDXGQ9n4M/WOZ0JXsLr2s8dzu1rjj04c/mFG7om6JybES47v3PSgQ4OXdu/hJ97fhD83MZlR/5daQDomn4pLkHuAc5te4LsbPcuyF3Y+0Q6AvKHXzr4NXfrRVR7rqefLoCubT1IBuDmgPsHLntbXrrndBD8HOCah2nb++ljQ25tP7gmbP90TW64PZ3bsrxkuNzbbjkuOy6DnxNkbttxN8B2R/BrlxvbPeFlTrjsYWanl5c7G5jZ/vg94nL5NZn5Qe5c9xLY9nSQnR22C/LD7YPcQi5dE3TOzezwbT35NXdrQ+EB243t1yUDZnTYbrkO9jV3C/g5Jyh8F3BHB4dfu2T5meHX1tmLsDrvzxO83iPdNFm1eo2690+PqqNPOcccOIdZUYEBo9c+lniNml7XQ6YZ92PeIByrIarXLbhSEG4xiNypO9gz9QA0iAbN6pgtBfhKQYDX0GvUqWJe8cXAwgYTYgd1aZa6ygODkVYdDzTni2YtNb8cDI7s13uhLwbMYLkeDGDiD6zQg4pZExeYCbNjzuxh3HHwqu2hx3Uyk1ej9ECT9ocLAmF3PbqD6nREmwKvZcIck0WlSpc0K0swCZYuC2cuMwMYTAwcdlznQoW8CQY6PQ4yK5dowp8TJY0xoPKilB60+1UwYUk3Ppw9+s9+HZeAXOjsAqug7K0R8OozVg9tWr/ZDPABVkmN/WmyKVNYheoqJ0ecdIhZjTdl9Bwz4QQatahr5GMVL1alEcgTmJDrdWo3M0idNWmBmdAhZk9epLCfZ8sOTTwnCmyi3N84aY80wSvOKFdY4UUgjbByqpMui227tlALZy03kxMEVt9hYN64Zd3AydMohI1v0nVcHMKWJ9QTmGguWRJb2hyqyqdWhxKIHyaF1+u8ZL+yj7zZ4/guhdLEC56nXemC+qxCpQPydUM69ezfzTwQ4/kF5lgVCRZMX2x+OVHq6XQIW5bDgBXJKKMtOjY2edoGk8Q1dXrNmbpYYfsSDh6G9Dt/77YWBOIfpa2gMoq2s5v2x9MPQD49ZIkLHkJhwhpgggwPZwDKDCarMSnXZ8Bh5n5NGTXL2AG0j1NHzzI6031MAtSfvXQes9OuaduGOl0rmYfZeIiRJGHzTTplk5Nkmqer07FnH56/pQGBvhDKK+qFqWNmG738gH888MEDKw4mfjF5jXZs1dLCH7xDvYAtUXi+xnmXnm1MP235wtVq5bK1KZu9BOk8Y9zcQJ3DYJc3QHKD5MMe/nHYbu34ehHWXRJAPh1+uOzDpkkcooTncguzTOjF4eG6dOCQPl7u/OzSxUuubU7Xfu790pT7w3mQ+2zg0oH05Pp6EeTWJZ/D/YWV4eUuCRCOn0507ZVmLmyZmcZL/yh6eMnghJEVlE64JrNspxPBwwwKH/Z+egbFAXZ08LQJSifY02FDsmw/hJedSxbwMnfhFSYI0smG3JJdpnTeH8nYBO/fnnhGDfzqO7Vm7Tpz4BxmRUXNutXMql2sHjTbEkxZ6JxkwOvhy3RHuky50mqrGSxMLXRgchSrXvAqc1xKlymlKlYON1HFKZeaKMaEdViwwgNgwg9/YOWS1eYVbKzgq1TVrYd5Fb08XjNdW2CPzrhgBanfSqOoLJqzzExA121Uw0y82KCioIFjlEkTVxo3bF7H3PNBH41Ub/zfp+ZVzyj3IAxJxger2Bo0ra22b92hXv7rh+q794eZgWUcSpUqae4bBosUZ7w6vGLhGjMBgf1GXWDyE/ta80kBTGhiYnPtqg1qiU5DgEp66phZqoIuDx0Pa2Veo1+9bJ2JI8CAH6+oJjV54rq/cdIekwWYcN62ZZupTwisekc9gglh+EG6Y2UmMXviAhNW224t056QCoMd32zVcX6ELU+oo7CdA+ow7KHu0vVXnRcBtrHg4KFa224F90b2g/I0tnJo1s7/tfcgMPkWFVc9nTSushyGhTOWGj/lD8ADm1mF7gEeFqJNw0MZvJrOQVrybRbC4GorqIxihaI9AZkkLdo3MvKxryvegABYwYyHTqi72ulyi7ptvk4TmszGRCtWx6IuxPYimQZlBxOeuIdR7mNcXPkmnbJpk1SaJ6kTp0nrvL2016/eZLahigPq+ops792wVNL1EeKOh4uIc1ga6nQDaHvj6hwE2kXXgMwGbvwGY2QXZcDG3UbxxwnSPY7csGmSFK7woDcOl3m24WHSeVD6wJ70z5TOttyo4QTFwQuKVybj5gWF6QqXzEi/OKSTJoStB365faagcILiEFaXuGmRDi79KQ2Bl+4uc9vMy28QfmHiKIp0csH1pPMg3ShteRr7Ybsl+fQLczoAmQOXmQuST79hgFuSG9aPF0H6ueBhFoXO+yoZm+AdMnxk6mwvLrNsgVd+z7nxRDN4x6qQp+95Xd13/uPqrX8NVCsW7f1gDAanGKTu2LZTffG/H9Wrf/u40IEPx2DiDJkrbMbCJA9W/r337y/V47e/rB67+UU137G6K1vQCpLqtSsXWh1EmEGkHtht/RX73+YNisKCQeDyhSvVoA+Hq9ce+0g9ct1/1Ut/+cDISopVqVWhdVL70rmgSRPzoaodBSceooDXY0+5vI8Z5GKf08dueVH9/uJ/qU9f/E4PupKZBEsyPsibJ5yXtz8l0vzzVwerBy57Sj16w3Nmnz+sVkwHhI+JQryK6jWZxScFsDoXYJCLiU2YYdIW8IE8JoAxiYuHL9PHzDH2WOmLFb/YYiDo9di4xE176IqJZ+xZiRVlSFdMVtOkA01c4FViTFRv3bRVx3W+eagStHdmpshUHReFsOUJ21PgdXW8vvz+M187df3+gxEp1wVB008dgDBQnsZ9ruzx0MsF8urCWUvUV2/8pF7+6wfq4av/o955+ouU7b4BTfSPGzLNeQ/e+OdAtWzBap3eurOlyzYHqyn97kPYtoLKaK0GNcxvpsh/CKXrLHrItHjOCvMqPeourMzEgx2s0se+yQBbDGDCsEX7xqZO3B9Ip2zaJJXmSerkAtsOoV4MA+p6fEANH9h98u5XTb2AbS4io8sOtvMBUSalaUugzRu3mA+bFiVoQ7zaEjIjN0UJ16W4gjSkg8eDzos6jW289MmkniSb5zn84trv3pMduUtXx0zG0Q87XIqLX9y9SDpNiGymDcKiww9yY6cTxZ2OXAL6BMXPNqdr8gvwGzZ+cGvLtAmyzzW89A0bD0o3nqY8PXm6cns6d4XjFbaXeRii+CX96YgLwsTB4xuVdMLfV8nYBG/S0OQK9rXcFbBi5VfdsYY77PGHj8cQeLX0jy/daL7gjf3QwKjvJ6n/u+1lNeHnaeaawMrEW/9xqfrHx7/zPM69+eTAzIgtGPBxtweveFq99eRn5kMw9Q+sZV5ppY/RFCW79WA8qGCUKlXC7B0YBsiaOWGe+vvNL6i/3fiC+ubtn82grUWHxubDUBjsJ02YFUyYWMRXrOOC+4y9I//40g3qglv7m1f2sSoG+8L+49aX9GAzucn6pOKD11MvuuM0df9/rzOvcVavU8VsDfDWvz5TL/7lfTMATRezosua0HGBPXUJmvSkbRiwRycN5BEvTIxignTGhPnmwQJW+mLFLwb4laq596tNiqhpT7rSNgxYNbZ4zsr8rSRo4gIPc1AO8IotXrVtpM1q1Utue4Y4JFXHxSFqecIKNrh16UgHtsLJJsgrmJx+8PKn1D/veFUN+XyM2W8ae382bJb5VZxFwcmXHu1MezrueeZas49pGIqirQgDPYTCamHaEmDa2NnmDQPUXYA/hEI88Bo89G3btWVGyksuk0TZTDrNM1VfYJsFvNXkB952wocaf3/Jv9RLf/3A7JWMPapRL+C7D+lQqWr0hwfoA5cuXbRdfbo/+LXvVS6UF66f67e4gfKBg+uPc7q27YoK6BFEpvTkaUF68DQKAu7C6O9Huv7jQPHj8ee/6ZBEmhQ1YfS30w7AjKdtcU8HHkeKC49jGOAvivtcJcy9DIonpR254zIpnWx7OqdfThI6uQgjl7vhOuM3jH8hO2Ss19ezx6Gps724zMKCj0OhY43VHXy/Sxdzpy42AwXsW1bRet0arzXiYxRX/fFc9cDLN5mvdmMvSnzlG/u34RVUDA6wegiv+6UDVia+8PC7Zt+2Ey88Sv359VvV3U9fpc67pb/5kEadhu5X27MB9tMD+Or4dh1vFzRRjsGX/bqsF/h40wt/es98TOvqB88xcb7p0UvU2TecqPqefXhoOWGg1ZaYtPSqVGjFC76IXzq1oiUdsNq5a58O6pa/X6Lue/Y6s/8m8smwL8elXbFlKj5Y/YQPWd333+t0vj/HrB6dOWG+mjV5QcpFdLBqF6umtmzeqjZ4bP2AVUNYPYTJUL6qDfsDNmxeO38bBgzo+UCetj6A3fIFq82K+0xPnsRNe8QLK8hoGwbsFbxFx5m2kqCJC/jFirP505eYV20RlzIJloUoJFnHAdSpcQkqT9VqVjZ7cG7dsk1tTEBXPyhPY6uGMPuaDv96nHrj8U91fq6q7vjnFeqh/92irnnwPFPX4WNs+xL1UxPWtIo2CaK2FVRGl81fmXZdGwRW16OexJYA+Pgdf8MA0IMdrMaH/YJZeW8YYOuR/YWky2YSaZ6p+oLq/rLlSxfYL9oGb3C8+a+Buj85Vh1+fBf14Cs3qfufu15ddOfpJl83a9sw5TI81I7iTRHU3WEhnbHQoWQadXQmoXLMB4nZJNP1SFFB6WnHD9c4iiKtOUnq4YpnWCidSA8uh3Skc0Du6DcuJDtdOelAcQKUBnT4kak0sbHlZwOeJnGBvpATR2/ymzSQGUcu9KEDcBl+8sjOLz5x9Mk20BEHxT8JSCbB0xeQncsMkP8kdeLElQt/6ejF4xgVhJmp9CjOZGyC97c3X6v6n9BX1ahezRw4h1lcGjSpbfYUxX6XX735k+fqQ6z8+vmLseb84KPaF/rIBgd7NJ5wfk8zEUyv3pXVneGmbRqZlYkTh01X9MGPOCycvcx8JAaTPX3OONRzK4SioFb9amYVJVYTrlnpnsygiXJ8ARpbW4QBX8bHhHm/C3qp1l2a+w6G0qWRHvBh0LN47nIzmW6Dezd3ct7eqLinuLdJgonTfhf2Mg8eMCG0I+Srm15kOj6oAPG1+R7HdTb5e/Xywh/3CwtWn+NjR1ithIlLFyuXrDX7/1WvVSX/gQLAxCYmOFHepo6aVWggD1Bmdm7focvgNLPqHSugsPI9U8RNe6Qp4gK/08bOMR/9oe0ZCExcY9Jh8sgZZlUaVs4emNrTsShIso4DtBIZEwrpfBzMVZ5Q76D+wSvX+JJ8JuF5eurovO1BvEA8sZ87trE59cq+5mOa+3IHA/velqtQzrQJeCslCaK2FVRG505ZpNY6PkyaJMjTWGW/etlaNXHETPPgh94wAPkPoXT7OUHnA7yB0KRl/Yy/YZBLJF02k0jzTNQXWDU8IyWrWbvG+fq4WLFkjS4ji7QO9VW/i44yOqfL0vkrzMNQtIG8HfUjis7ZgAalNkVdZyJ80i2dAWZxAfHNhXaK65BEutN9TBeeH/g1SEI+pyjvA49L1HuRyTRxgTCykVY8nDDxylQa8PRNCshMIg1JtyD97LBc7pPQJ9NwHZO4J5DhF28eBj/nfpLWCZCcMPKiuA0LZCFeOMLKzYQe+xoZm32rVbOG+svv71Y/fPqOOXAOs7hgovb483uaAfWMcfPUm098VuDL9Hhddvq4Oep/j31iVoA1aFZbdTmyTco27+vKrg+rrV253uzbVrthdTPhC/D1YXyQbezgKWr8zzMKZSDsAffF/wab1a9+QCfzCjt+mQjIG//z9CLdg7dOo1rq4J5tTFp98uJ3hSbM5+lBCibKMag/vN/BevBdeAXISrbakSaJ6BV3exsNpP9PA0eb1YtebNn4a/6qk7w08y+4WPGDbTeWzV+lvnzjpwL3Ni+NZ5hJmGq1K6uuR7dL2cQDWwng4YGt06qla81EJQZeUSZcaZ9ByKM0Szo++HDVWmsSFzIRNiZK6jeJP2GKAWPP/l1Nefzm7aGFXqnHvUQc8EAGq+TtjyxhghMTnSO/m2gGr3wgD7DXLlZnwX7VkrWquR6kVqlZOWWbPOmkPSaeMfhGvYSPTdH2DAStWJ46do6aPWmhPq+n6ui4RcVV3uKSVB0HIAf3EvskL12wMmWaB17B/+nT0amrvYQtT6h3uvXtYPLZ4I9GmnqJA//4qB3yYLpbjiD/de/b0ZQN1H12WMjT3777s9FRd3H1PXDfC6zmHvzxqNRV8cKrDm7YrI5q1bGJmXT7+u0hhfbwxqQ40mbm+LxJpTBEbStQZzRr21itWbHehMV1gJ7Tf5mjhn3lfpPCVd/6gYdQLTocaCYKh33xS4E3DIg2h7Qwb7gMGTjWbFPT/rBWvp13L6Lqli5JhZd02UwizdPVCXvm2vkK++bi4R3q/k6HH5SycYP0xIF+Hw4OtpSYmtpX3gX2F146r2D9mVfnDDd14sG92jnbwCg6Dxs1Rp1x8VXqiWdfUjt3xv8mQRz8Bqb2dTbx0ysT8DAyFR7k4vAaMJN9VLifOP6JIL9RwiF7iqvtl99fG1u26xr+vWT4yfbDpWvScNl2OHacSJcw8SF3Xm7DyIgCyXPFIWl43Ozw6Jqbk1uO7c8L7s6WTeHbbuywwmDHhZ8DCsc2By63YSGZXmlEdnSdJFxeOrKD/KYTjivu3MwrbYLC4fZR/MLOvk9ewJ3tNkgvwksn/Lp08JNru7dl7e+UekCTOs9dtv1sfmrWraaq1apiXi9HRxgTB0M+G20GA1+89qMa9d1EMyjE5O6ld5+hO7d7J5UGfThCvfn4QDOxihu/buV6NVF3gj99aZDatWOXOuni3qr+gXmv+mFFSI06VcyEzvih08wqw4WzlppXyTEw+PLNn8xkBl4nru3zwZfSpUupySNmGr/4cBBeRV08Z7ka+MoPplOOSSB8EKRbnw6qao28jjtWf+CVdAyoO/QoPJhw2WMlyy8/TTUrIPFRLXu/XJc9CkWjFnXVolnLTXqOGTzZTAhiO4kR34xXn782WA+ksLqqpxlY8EKEyRmkC1aWLJq9TMueor57f7hq3w0rGUupiSNmmFVWeC1w/aoNRv5bT3xuXjXEPptVqlcqpOe0MXPN5AHcLp6zTH368iDjHhNvYJKWiS9mH9Slab4ZwsKqrum/zDOTa7i3S3T64ivvgz8eqX78ZJQqWbKkOvv6fmYVCxE1jTFge//Zr9RHz3+nputBE8Aqo+FfjVPfvTfcTG6desUxJl5BYIUPZC+YsUTrukwN/WKsmWTrqAdhZcuXjRUfF1jh9t8H31HffzDcfFV8h07LJXOXq89eHWwmGlt1aqp6n9bd3ANMZiJ/YOLk4KPaFdo6xMu+Rm3stVnCyBvzw2STz/HhNKwK/fC5b80kIe7X6Vf0LbQdQfkDyprJTrg5oGJ5ddw5RxbYnxCrOJEf5kxeZMrr8ecdqeo2CjchHacMxc1LAK/AIm9idSM47pyeqlaD6uYcQPavm7apScNn6rTcrQ4/8WCT/mHxK294KBUnvknVcaCSrseQ3+ZNW2w+woV8jTT88ZPRZqITq5nxIK1B03jlCfV+6TK6LtW64QOBsycuNBM3qFuRn3/4aKRatnCVat+9pXkrAXUqHgxgdSivW8NQq35186X6Obr++uXHKXkrutdvUSO/naB1/tpM0GB7i+btm6g1y9ebeGIFO+7xmuVrTZuCuq5i5fJmq4d6jWvlp3mcetoPl/u4ZRn41cGIX9ODGqrpOr5YGYm966m9MGnzzFfGHHvlt+7SzGzLEpQvcX+itBU46jaqodvOWcYPJrE26nu1SOuK9h95Z+3ydarDYa3y9+z3q2+D0hd5DmUDH99r3r6hOvyEg006EOUOKGPiv2bZOrP69NizDs8Pl/C7p3664T755eE4edwvPBAn30Qtm0EkkeZRdaK4bdL1LCZKfxo4Rtdn69RCnUb4cGKUdrdc2TK6jMzVdekyc+/RPqKN+0H3P7/XdXZt3S7go6E8DSmP7NR6jB40Ma+/qOM/Wt9f1DmudpTfD0wM4z4G6Vyi/JHq2ZdfV8NHjVVz5i9QR/bo7rno4pVXXjG/vN/Hzwkve/ucrtGW82uCX5MbwM1tP8DLPsg/Pwe4psOGBopkx9243Lvs7TiFSQeCm0W1x7WXH5e5izC6e50Ttj0ddM3TmJ/zXy9c9lwOsN244sDD5YeXHD89Xecu90F+QJRzihfAL11zt4Ttlv/6ATcUF8D9uOJIeJ0Ttj0OV3wIl30UbPe4JjM7HvyazPBL4ZMZwe3oGthmtn/65ZA7wssN4bIHJIfb8/C5va0XIB3InNu5IHvbHZfNZXrhZ8chuYBk45f79zonbHs66Jrra+tOv35wN37ntiwve/xG0QnX5I7s6Nw294K7s93aMlz2/BfgnA66toFZGJ35NZlddtll5nd/JHPvz2cA3LDux3RUtz52iep8ZBuzSmPLxq2mk4uBDvZvw+ueNzx8kR6oF+y4Hn3aoar/ZX3MfqEfPfet+ZoyVupVrl5RXfWHc/SgsOAAtNMRbdSt/7jMrBpaNGe5Gv71eHOgs922a3Nj17Zbi5RrNxjUDbj2eFW5WiXtd4IJ892nvzT7xN3414vMBFsmtzAIAq+NX3HfANX3zB7m40AYtCOOU0bPNnseX/Pguero0w/LLygEVjr2OT1vP2UMtjHgwkQGVr51OqK1OmbAYWbFyScvfGfiPOiDEeqoU7urax44R7XseKDxx8HWFade0ce82o7VnNADA/zqtauawupHbT1IuuEvF6jDju1kJplGfDvBxAGTC1j1ifuEe5kOuEcDrjpe9TzpEDOR985TX5h4Dfl8rKrftLa+lxeaVZlhOOL4Lmagj1VI44ZON5NDWK1KJBUfrJi98v6zVcMWddXoHyar1x77WL3x+EA1Z/JC1evkrurSu09Pe8sQrJY69pwj1CV3nWbCm6QH0NAV9w95BuXtinvPdG6TgrTKns0AAP/0SURBVLBbpz502LRNw/zX/An4p60Patatqhq3CJe+6RA37aGrWUlWsoR5xR8PTmwwUYr6CZOXrToVLgN++JW3dEiijgOYgDnl0j6p/czz8jXkbNqwWV1531nqlMv7FPjYZdTyhPRFPYT6yOzBOXG+kY/7g611ehzfSd322GWqQfP0P2yGuJx57Qnq7Bv6mf14J/w8XX3432/U8G/Gq6o1KxkdeuryA3qf0s3EGQ9Q3vv3lyYO+OjambrOv+yeAYET47lEmDq4ui6HNz96serVv6tZWUjtBSbSatarqi7W9cBpVx4buk2L01Y0OaihukW3/5jERbp/+94wNfDlH8z+16jXbvzrxfo+7f3IW1B96wdW2SMfoly3796q0EMqPCTBan0Q5w2DdHSLQybCS7psJpHmcXVCGTjnppNUO13n/fTZGPXF/340DyFRp1/5+7NUx8Nbp1x6g7ZuwDXHGz9oD/Pa3U/MQ7qbHrnI7IWPfqsLPEjB9xmQl1EesBodZQPl7dLfnuG53dhZ1/czW6iE0fnonoerChWif6gtXVCH8L6c3znuXzbg4RJkhl86oE+6Otn++bVLj3TgOnvJjhJmJnWHf5JBcrnuYeW75AB+bmPLp3BtyNzLzg9u7yUjSWz5/NpOSz+3QcAtHTZR5ARhy+Lh2vFJCpdc0iNsmHDn0pHkEPya3OKXzrm97TcKLl2AHb59zf3ALqoOtjxAZhReVJle2HJcYceFpwXJJd25XVi4bvwc2LJseyKOTmRObghung4u2Rwy5/Y4p8MVPjdz+bP9UPh07M+U0AmQ8ymwZ/3fU2cFwUowDDR3795tBgJYCRgEogs/WAGBlXdhJrngFn4wcMWg35UJ/aAwoS/88xUpucSvm7eaFSzYizLMnm14lRYriVzu46QZ3U/6KFcupjPPc2HTyQXSeuf2nb56JhUfTLrhg3lY0QM5YSdgokLhhC2LuUwullm/8pYu6dZxRNQ8EKc8ZTOfhSmn+1K+p/sRVAcnWT7i5j3yV7ps6cB0D3Mfi4ps65bJ8HKxLMTRKUre8gLpHKY/hbe5Xnz4ffNAAw/c0SeFX7xZhnvkaq/RFrz48Adm8vqK+840Hw4mnfH2i6tfW6LqXeZ3yPBR6sXX31b/+uuDqnIl957Rffr0SZ0lA+oL4FefgLjtTlwoXJBN3TIZ3yiy4TaqDpnSnXSJo1NceFyCwk1HPwoHZCtugMfPJp34EEnICEs2wuAgPI5X2GHduSC/2YwXoLQMSlOuX5DbIEgWkek4c92ThNIh3fRIkjg6pRsP+OOEkcHD5AT5tXWlXxe2m0GDBqVs9j+KxwTvptd0j9v9ISdBEARBEARBKG64JniDcE3w+lKqsSpR6Ty1cdNmdefv/6xO6Xes+fCxF9dff72aOnVq6io97CGG38AMeNlnAhoE0i+Hm7nscxUeJ+DSm+xAcYmXkCw8DwDJB4IgZJK47Whcf507d1b//Oc/U1f7H0W3P0AEsHeYIAiCIAiCIAjhKVH+cPP7wmtvqYb166p+fXubay8uv/zy1Fn6YGBGh4090RhnEBcXCtue6AL2gDKbeiUFpacdP7oujnESkoXyiOQFQRD2NS6++OLU2f5JsZjgVaWbKVW2c+pCEARBEARBEARf0Hcunbef9Y1XXabuveMmVbq0/wcGu3fvrk455ZTUVfp4TSrya7ixJyMzCYXtmuCyr4sT0J3SEodXXPzshH0bXs74uSAIwr4A+i9du+Z9L2V/pVhs0ZDPriVqz7axSu2cr1ulLSlDQRAEQRAEQShe0B7B2A857B7U6LZjv13su+ve41dfl6qrSpTrpE/bp8yiM2XKFPXBBx+oMWPGqHXr1qVM4wO9aQKS4snPiwqXDrmgV7ogDoDSnM6F/RvKC0DygyAImYTa0jhtapR2q2rVqqpbt25qwIABql27dinT/ZfiNcErCIIgCIIgCIIgCIIgCIIg5FM8tmgQBEEQBEEQBEEQBEEQBEEQCiETvIIgCIIgCIIgCIIgCIIgCMUUmeAVBEEQBEEQBEEQBEEQBEEopsgEryAIgiAIgiAIgiAIgiAIQjFFJngFQRAEQRAEQRAEQRAEQRCKKTLBKwiCIAiCIAiCIAiCIAiCUEyRCV5BEARBEARBEARBEARBEIRiikzwCoIgCIIgCIIgCIIgCIIgFFNkglcQBEEQBEEQBEEQBEEQBKGYIhO8giAIgiAIgiAIgiAIgiAIxRSZ4BUEQRAEQRAEQRAEQRAEQSimlNijSZ3nPuvmqD1rZym1fZNSe3alDAVBEARBEARBEARBEITEKFFKqbKVVYnqLZSq1jxlKAhCrlLqAU3qPHfZs1ttmzdEbZk3Su36dZMqXba0KlGiRMqyMLt27lRbNmxU27duU6VKl1YlS8pC5eLO4tnz1PDPv1eVq1dTFatWTpkKSbBz+3b182ffqXGDh6kqOn0rV6+ashHAjF8mqaGffq02rduoGjRvkjL1Z+mcBWrQu5+qlYuXqQbNGquSpXTnSLNqyTI1deR4Va1WdVWmXDljFgY8h5s1booa/+MIVaNebVW+wgEpm9xl7YpV6od3B6rlCxYXSAMvtm35VU0YOkqp3XsSzYPbf92q5k6ZrpbOXah+3bRFValRTZUo6d1+7OugbRw68Bu1Wf/Wql9vv04LP7zKsLCXrbo8DdJlfMbYiapWg7rqgIoVUjb+uOpU1HGLZ85V86bMVNXr1FSlypQ25mFAGR/17Y9q6fxFqk7D+rrfl/v3ivJXlHaFWL9qjZo7aZpasWCJ6eNWqFwxZSMIuUlx7MNkkkz3u3ds266mjRqnNq3foKrVruk7Zi4qKA0mDxsTqf2IQjr1rMDZo9SurUptWqpv3K+qRKX62kz6joKQqxSPmc9NS9SIt19Rf7/md+qdfz6vdmzdlrJwgwmFJ25/wBw4F5IHAzsMqpKCJuV379qdMtkLzD/6z//UkE++Vu8/9aLasnFTyqb4gU4u4oOOTa6ANJ81brIa/e0QtX7N2pSpQCyfv9ikzfxpM1MmwSAd4QfpSnl67fJV6n9/eVJ9/Oz/1Cf/faNQHsA18obrpYpVi5eqD//zqvrh/c/UFy+/m1P5x4tfN21Wv/w4rEAaeLF75y716fNvqI/+/ap6/e//MRPhSTBlxFj1N91uvPrwk+rtx59TH/77ZbV5w4aU7b5JUB3zw/ufq+/fHqjr0pcj5en9DVcZFgqyY8d2NXn4GFPOUd7D4qpTF82cq155+An13pMvmkljG78+x/ghI9XnL72jBuo6ZMKQUSnT3IbyV5QyiH4S4vh/N96n3nzsWVOnDf7g85RtdvBrp4T9m32tD5NJMt3vHvLx16Z+eO2Rp9W8KTNSprkFpUHU9iMKcerZfY3Ex53r5iq1eXnqQhCEXKRYTPCabRmEnGHj2nXqmXv+okZ8NThlkj4/D/xO/fe+R92TLyVKqJKl8rJq6TJlVMmSxXcl1dK5C9Q/b/2DmjVhaspE2B/BQN3mk+fe8HyAVaJkyb1loCzeSth3VxOi079nd/oTaljd9tmLb6vdu3epPmf3V7c/9bC6+uG7VaVq+/YK9aA6plRqJSp+UZ8KQq6xa1fBLbiC+hyoD2kletnyZc3vvsiY74eqUd/+ZFbknXfH1equZx9R/a84L2WbHfzaKWH/Rvowucce3Z/abdWnwv5FJsade1ZPS50JgpCLFIMJ3j1K/bomdS7kAhvXrldbNif7tHXl4qWps8JUqFxJXfS7G9SFd19vBjXlKxbfV7s2rFmntm76NXUl7E9Ur1tLnXPbVer4CweoU6+5UA9y9k5EYGXahtXeqzhqNainLv/DbeqC316nTvnNBapkMXgFOQqIz0mXnWPS5oI7r1G1GuL1r/SYPnaiqau6HnOkOvqsk1W1OjVVhSqVc/JVxSQJqmOOOfdUdcn9N6srHrhDNWrVLGUqCEUL8uI5t16lTr7iXNVX51FOUJ/j4KMPV1f88Q5ztO/RNWW6b4E2YsrwsapkiZKq/xXnq3aHHWK2rCp7QPmUi8wT1E4J+y/7ex8m1zjylGN1XXqeOu+ua1Wz9m1SpsL+SEbGnWZeRt7iEIRcpRhM8OrBuHxQLafYtH6j2rYlue0Ztm/dqjauWZ+6coOBTOuuncxvcWbN8pWpM2F/pGGLpqrnaccXysfbt21T6wMGzjXr11FtunVW5fbRvesw+Yq0aXRQ80QmYemhESaO9vVJXU5QHVOmXFnVslM7Vb9Z4/0qXYTcBnmx1cHt1WH9+hSq44L6HFgZeGDbluagVYL7Gtt0P2ndytWqYrXKqmaDOinT7BKmnRL2T6QPk1vgwc9h/Y5WrQ/puM/WiUI4MjLuNPMy0n8UhFxlv6v1sRfN5vUb1Kzxk9XcydPNvm5+4FXq1UuWq6kjfzH7+cbdwwavHa9ZtsLIQdjYD8cFnoJvWrc+/xVu7g+vHLte7YZOeIWRdEMcN65Zq6aNHm/2tQujM8KFW4SD+LrCIbBX0p7dwU/uEC5kYgN9Pz127dxlBi/pgnuJe4p44yMkSDsXcdKYgFvIprSFrChs2RB+/+Cw8QkC6Y68G+beEnTvEDbyUtB+e5BJ5cQrXSAT+dSrzCF+KJte9ggD9y3s/n/8vvqVOQ7cwG3YeAPEFfcJ4SA8v/uEuCEN7PTZvm272uFRPsLC82ZQ3ZZOGeD1S5R0CoLyB7+/+MU1N4uaN8sFrHALk3eBSxekIfRYuWiJSUMcPA/DHT42h49K2bpSmk8fMyEw38Bf2DSPUsd4gTRAWiBN/OoMO76AykPYMueCwkdcXXUf1QUI25VuQfYAOkepX/k9gG7Ih3Gg/BvULgKEiTiE7a9EIYoeAGmKuiGsewJ5IEydCnO45X0ZImyfw490yjmlVVAcAPJR1HYnCqVLl1ZlyvpvrUJ5G+Ej//jpC6jM4t761f9B7RTCdbVvhMseacvvOcLGR3Wh+9bNBVedIR5RygNkRu37+GHrCn1Qv0M+9HHFG27s/GS3G5yw+RT+kBY8DZBeYcoaESZ9wuqfRB+Gxz3MeAtpQ+Uybh8ZMoLyvuu+R2kLeJ3glU+8gD5Ib57+LkhHyg/kz6sNDEo72HN5NkH20Afyo7YXYUFaJNU2wi9k+NWXSB9e3uAmib4dCJPvId8uh5TGQeU9TJ8QfpNKT0EQip4SulB7txg5wp5p76qfPvpKffPGh6p5h9bqgruu830tbcmc+erlP//TnF92/62qQfMDzTkq4w+eflnNn1pwT1+s8Bpww6XmFSICFfKobwar797+pEAns7TuWB9+Yh919Fn9zUqoICBn0rDR6vOX3ylQyeKJ6hEn91V9zj6lgByK55k3Xa6q1qxuPsbEPziEL62ed8c1qvFBzVMmylTub/ztP+qoM/qpLr176Di+Yip9omz58ur06y5W7XscYlbJcNCwf/HKu2rqqHEFBlDYBqH3mSerHv2ONl9pBuMGDzdfI924boNuWHYYM6J8pQPy0xpfw//urU/USJ1+vGGrUKWSOuO6S9RBh3Q0euBjae/960W1dP5C3bCEGwQdd8EZqtfpJ6Su8lixcKn66JlXC8QZVK5RTfW7+CzV4YiuBeIdJ43B4llz1ftPvVLALfb9a9u9i9kHr5LPV3C/1/nol8HDdIdofaHGvkbdWurKh+7MX9UZNT5eIJyRX/+gvn3zE7NKmkB+OPqsk9ThJx1j7i06am/8/T9qzqTp6tzbr9LlZLX64b3PC/hp1aWdOuumK9UB1te68aXeEV/+YD7cxN0jf7c79GDz2j2lC54iv/jAP3RnZpe67Pe3qrpNGhpzYtqo8erNfzyjajesZ+ztvVLpviGfH3v+6SnTwkQtcwBl/LMX31QTfx6df39wb9sfdoiqVruGGvLJN6ZsDbjhMmMH0Ckb9M5A9fPn3xUoD1hFhrijXNn1FeoflCPKx8hL7z/5kk6bVaE/MoFXHLEKhvCKL/RvrOu203WZ43UbiFMG0FTM1Xlk4AtvFSoDSCe8dsnzB9XDDZo2CayzAdVjPM0ob65aulxdev8tusM8MTBvUhq74LKj5F1g6zJ52FjzwRikP5Vh8MIfHjOrkU+/9hL1hb4nsyfm7XuGdOp+bC91opa7cMacQmlep3F9de5tV6najRqkTKKluV8d48LVlkZpDwAGeBRf6D700290nbO33oee3fr2VP0uOTtUe4l7gjYGX9bmcUDbcfLl5+XXfZS3KlSsWKDuJPzs0Q/4TKfnTD2Q4XG061eeH4+/aIC5B2HbVRdh20UiSn8lClH1ABjEfvzsa3oQuS5lkuf+mHNOUUM/+Vr9umVLgb4WiFqn8naI6ji/PocLuy0F6ZbzMHUOQByjtDuUv+x2xYbKGNoIF7xPhDyDD1XOmzazQN5G3YJ727BlwS1ZvMo78taZN16a7z6onSId7PbNxmXP+6+dex1qPgyFPhDg7tD/wke6yA4gPzVt00qdfv0lqnqdWinT8H2fqHBdu+p6zS6fkH/cBaerQ0/onV+GwrQbyK9R8ymve8+/42o17PPvC9SbSJsOh3fVbcSFhbY1Q1g/vDdQDftiUIFyBXfYHqX7cb1NuCBI/zOuv1R9+ep7afdhooy3wrYTfoTN+4Df96hjrKVzFqj3n36pQL6F+16nHa9mT5iq5k2dWSg9OJikfflP/zTpe/E9N6pm7VunbPaC9Hjr/55Vs8ZP0fXSFarjkd0928CwaUd9RK/6ycs+SvtCeWvJvAWF2g8/otQFfvVslPqSl7ck+nYgSr6P0y6FHXfG7WuUaHN26kwQhFyj1AOa1HnusmqKWjBttpozcZqpuNF4lSrj3TlDZTbux7wBfpejepgKDJOJb/3jWdMoH3L0EWrAjZepQ4/vrUqXLmOeVlWsXFk1bp33ajAG1T+8+5n69q2PVLVaNc2ecOhctdONNwY4Y38YpuVtVC07t1MlS3ovgsaX4b945R3dCH5kKulep51gwkQ4i2fP1437NBNes/YH5Td4FM91K1brzt5gdWCb5qqX7lS0O+xgE69Vi5ephdNn685AJ1U+9ZrTqiXL1cSho/UgaL1uLH4yEzZHnXGi6tTzUN1o7VIrFi3RDdEU1bJT2wIDH4Txv78+pSv1mapBswP1YO1UnV6HmYm3xbpzMG3kOPNEj+K5VQ/i0DnAIwGkQ8OWTVXrQzroRrmJati8qel47Ny2Tb300OOm8anfrEm+zAN0x3GhTvvpoyeoA1u3NB8JwYeU8IXTAypWMK8eltb3tMPhh6jGBzUzMvmB1zPReWzRsa1Ok5apGOR9efvVvzxhnpK27NRO9Tmnv+qk8wcmqBbNnKcHXKNUmbJl8+8tiJPGq5euUK89+rSx73VaP3XaNReafIiPF8wcN1nVa9pI1bEab84mnY7oMKMRRzyQps07tk7F70DVrF1r06jHiY8XE4aMUJ8+/4aqUqOa7uSfbyYvGrduoTuKK80KmTZdO+sOfQUzUYlBOCZ250+dreZPm6U7Kz3NIAjhLJm7wHz1HHof1KWD7szk5Xn4+/zlt9VPH3+lylVAhzUvf7fs3F5tWL3OdH5m6LRpfXBHE0453aldpPP94lnzVL0DG6mGLfZ25lDmhn78tVo6d6FJoxad2ugOSO2UbV7n5scPv1CbNmxUx+iBMiYIXMQpc5CNQeVUnd8r16iq+p53qu5Ynaya6LSaNX6qmjx8rHGHe9z20C7m3ISjO3joJJc9oJwehPZTfXVexyvGWAUy6psfdaRUofoKg4ll8xfl52OkIbYnKV+hgr7nK1WlalVUhx5dddk6sED+r9ekkclD27duM/Kow4V0+/nTb9XAF99UJVRJPTDrpY485TjVpntn4xaDh0k/j1FN27ZSVXS9QMQpA8O/+F69/9RLekC4Mz+c5rpOWb1khQkHZRjhUp1I9XDlalUD62xA9RhPM8qbq3Wehb4YwATlTezZjRVuVNYK1FO6w476BekWJe8C0mXd6jU6A+j8+uk36oBKFc09Q53ZoUc3Ux/8MuhntVrfy0nDxuhyW8WU4ZZd2pt0QhzKlCunvnrtfePvuAvPUAfpMNavWq2W63yzRA8GkceoUx8lzf3rmL0H0gd1gJ03o7YHAIMLxBf1+NQR482g5oj+x2pdjzKv4y6du0hhwINV1LzedmHaXT1gwcARbQcGUceed5qq1bCeucdrtc4YBKOepLyFuvCQPkcUWqXtZY844qvi0MmOI9J+yZx5qq1Oz3IHHJCfH7fotPxl0HCzh3aYdtUFVteEbRdBlP5KFKLqAfDgDfUjBu5oi467cIDZ8xYrSTFJi4ezuCfU1wJx6lTeDlEd59fn4Af6aag/UVfx+x21jSI/UeucOO0O5S+eBi7QLypbvpyJG8o7EgMPlfEgEXFv2u4gU9ZQ9l77y1Nq2YJFqqtOgzNuuEz1OvUEVaNebTVtzPhC7cCyeQvVC3/8h/kAD9oj1FMdDu9m8vbCmXNMv6b1IZ10fVHRpIlfO0U62O2bjcue0uGAShV0HTJOLV+4xPRhUbd2PLKbqt2ovpl4+N+jT+k0/9WkLfawx+vn5Q+ooCYNH6Nm/lLwHobt+0SFdN2t+66//PCzqlCpUn66lS5TSi3VaYoHFLUb1s3vD4ZpNzBBFDWfUt27ZdMWtUj3qRbofhvKGPJ/nSYNjC5LZi9Qv27OawuozkZ5+vS5N8yDOPQ9T7vmYnXCxQPMPVk2b5GJV1ndRlH9EqQ/6uRfN25Oqw8TZbwVpZ3wIkreB3Tfo46xMLn76l+fNO1Oi45tTHvf48RjdL6sqoZ/OUit1P0swNPDBpPBm9dvMnUR6rVWui9h1/uYzP3xwy9NWe+j8wD8uNrAKGlHfUSv+sllH7V9obyFdOXthx9R6wKvejZqfUnlLam+XdR8H6ddCjPuxNYqcfsaJWq1T50JgpBr7DcTvHOnzDAdk7bduuiK/FJjVqlqFdNYYnUFBh7UAUJn6rOX3lY169VRl9xzk+lIY8+oqrVqmCe0eJVikh6goPKHPl6ggkXjgMbsrBsvN5VrncYNzKq4xi2bqSkjfjEVMCY10TAAiicq/3Nv+42ZOMJkGA40DhjUoxNWq0Hd/AkyasB2bN+hTrzsbNXvkrNMBV5Xd/IwYbNq8XLTuOCL6a0O7mD8oLEY+Pybap5Ol266kcBqPQyeoB8664jnzF8mqXmTZ6i6BzY0nWzEA/vgojMHHXv062M+igQzpCMmatGxQFp16tnddKqhI2QepN3s3rnbpK3ppGg9cA8x4MGEyyTdcJXVDd/Zt1xpOk2QyQ90YOyBAQbB7z/1spkMPe78M1R/3ZFHOiE8yG+uZU8eMVbNnz6rQMcrThqP+3GYWblwZP9jVd/zT1MVq1RWyA9wf8TJx+oOdUNnA0igI8zj0e/Ss9SRpxxvzFpo3dChihsfF+iMfPvGx2rj+vUmTdFpQ4cHsg455kjV7Zie5ok6oI4DBtYNdaN/+e9v1fE62LjleXXtyjVa3w4m7mDikJHq+3c+1YOZ+urKP95hJprgB3kPEwAbMTCZMNV06NHhwEc1EBYG/ejktNODVJosRodm0Puf6c5IKT2G2G0GGJRXwZrlK3T5/U5VrVHdfDyCyotNnDI3ZeQvpm5APC7//W2mw4YOfP2mjc2ExtqVq9QKPejkHUQMqL5+7QOdpgeoi393o+rc6zAdZg0TFlZA6CiYibKgCV6UBeiITuXEYaP0IKihWWWATh7P/1hFiDzLJz/AAt3ZxUAWZe6Se28yq4qgA/JNp16HmnDRqcYTeqwCIj3ilAGkPQbhp12d93AD4SC/QP9po8cZ3dp07ZifPxKd4NUd6Drm/gTnTdwHrBKhssbrKVPP6zwWNe8iX5Eu0BMd9v5XnW9Wyxx+Ul+jL8rw3kH3ZrPap/+V55t8hHRCPYd7PGvcFJ2mTdWFv71eNdJ1LsJEnkN9u2rRMnOv6eFGlDT3q2P4gQkEVzpHbQ8AxXfj2g2mDbjo7hv0AKKt8ddcD2ir1qxmVtBsWqfLnJbhVW4BJo+/+t/7Jh0vQtro9EKdhfyHCWO0KZjoAnEmeIPieNjxR5kBToVU/qX8iHr95CvPC9WuehGlXQRR+itRiKoHBoaoX7DaDW3SCToNatWva/In3DRo3lhN/2WiccsH6HHqVCpfvI7z63Pwg+pPOz+kU86j1Dlx2h2viQcb3GcMxqmfhPbxtGsu0nn4KBN3TKyaSTt9nxbNmmvu07EXnGEmGVB+Gunwm7RqYcrDJl1O8dAOdSAm6cro8tTr1OPVUQNONHU/z9t4CIKVZ8gjSE+/dgo6gHQmeNesWKmq6T7Vbx68U/U+M2+VLeoZ1Avv/ut5nX4bzWoyTObgIRUO1JXwM+b7oaqkLqfQMUrfJyqkK/pqqN9Puvzc/HRDHkFdivodk7JYqY66LEy7ESefUt2LstmgWWN14d03mnoM/prp32ZtdX9x5Fi1fP6SVF2cN1E15vshZiK5RYe2pg2C7ri/uIe49/OmzNT1wDTzIAVpHKR/RZ2WfnmDDq8+TNTxVpR2wosoeR/QfY8yxsJDn69f/8BMnKG9OevmK0w46J/gPuE+4nX4XzdvKZAeLjDRjDrEPNDV+Rl9Ag7eosDE56HHH23SGrjawChp55rA5bjso7YvlLfCTvBGrQsA3TuuZ5z6Mum+XdR8H6ddCjPuTKevIRO8gpC7RB8hhGTV6jXq3j89qo4+5Rxz4BxmRQVWVvFXMDh4VYteR8KEx6Qho81rS4fqAR++vM6BW0xAorJFhysINOh4xQwVN6d2o7zBy/o1a9Q63UGzQeXaolNeA0VQIwaWzJ5vfjlNdCXfQXcq+UQj9G2tGyiwUjcwaKQAGj1U7FX0ALznaScUel0NDcohfY5Uu8yKtGE6PcLtn4SwMdmFL1lTmgKYN23XUpXSDSUGdljhky6LZ803T8jRoHbte2ShCdaGrZqpdt0OVvh6qOuV7ShpvGuH94f+0Km3w45DuvEpgM7qezDL6AByvSbbDu/ft9BWE1gNYgZaGzaYzgNAB2nC0FGmTKGz4yonh/brbbbumD52klq9bLkxx0AEWy8smT2vwAc5MHBYr2VjUFe3cUM1d/IMhb2miHm684pX1fBAgCZgvIhS5pCvJ/w00sTDVd7x+nq9AxunrvYyUcd9m87DeAUSk0QcxB2rVzKNqauGjzF6dNUDV7xOxcF97qLLIgZe6PxjZYpNlDKACYzeA04yHVAOJvHM6hx9f7C6IVOEzZtBxM27BPy16dZRdel5mGe5xyQqHsLwOhAD6HqNG5k6tcvRPfRgYm/+RL7EgAB2S+YsTJlmL83TbQ+QVoeffEyB7R4AVs3h7QO83rh+9d7X+10gP+OtDhdIR1unqFAcK1atrAeGfQrJK60Hwrb+IEq76gX8RmkXw/ZXohJVj8Wz55o6ANvmdOldOL9jAIlXgDlx69SkSbecgyh1Tty+XhLgg5Lzps7wvE/4oCImWxbp+7lhbd4HbRF/TJhjsom7h3mzVP2Pia5sUaZMWbP1kp3eC2fMNat60fZjRZwN3hxD/TR/+myzSi1u3ycKqBMO7n14gXTDOfoDqENXLllqHkpzvNqNdPMpzFFn29sw4KFAi47tTP8Ak7YA5XrK8LGqZImS5k0L2w/afqwO36D7Zlh5zvHSPx3ijLeSaCfi5v0obQHu05xJ3u0NJnpRL4ShdoN6+l62MZPjM1IP1Aj0AeZMmmbCadfj4JSpm0y3sUiXTI7/ItcFHsSpL4kk+nZx8j0nqb4wyFRfQxCEoiVjJfdvTzyjBn71nVqjB3Y4cA6zoqJGndpmoImVJa+Z11BnmcrTZuvmLWqFrvyxwhAdI2wQbx94rQZPvjas8R+w+oEnvXjyHRW8OgrQWISFVrOYTm+qHl+9dLnCq5VYjVPJY8IMT+7KlC9r9vzZuqXgxy7iYJ6aH7B3H610WTJ3vkkHrDKEbBs02s065nXWwgzCCVca12/e2NzzIZ9+o95/8kWFjfDtPY3SJcn4YHVC3SaN1I6teXtz/fTxl6YjGAd0ysrq8oBOADoDAJ0nvMaPwQU6SS7Q0apVv16BDgfMGjZvYga6SEOAzg46rQeYwUVn0xnCap6Vi/MGMlgJgdceoUfrroU7dWFxlTmsnkBnDx0yhBsGdE7RSQX8ldtsg/uPV7KAPblL4Ek8XpVDvkLHOCxR6hlMjPG9KLOJK28GETfvcrBqByvSo1ACm2ikOstUJxPIQ1iVFZak0zxT7QG2ysCr/Fh16DXpQuAVX7wJgdX8L/3pcTX2h5/NCtKkoDhiYry6NaCKg6tdjYOrXQzbX0kSlx4YkKIOwEqlirouCUOcOjUTJFHOXUStc+L29aKAPike/OIe4mGo3WfFK+fQF6/joo8bBPJetkEew6pJG6yyg+7Y4mnG2ImF4obXiFHH4IHwzh07Eu37RAX3GWUX98I1PnC1G5nKpwin3oF53zlAeQTY4gr1dzldNrGK3k5LHFs3502MYRWyTZx2z484461MtxNx8r5zjLVspcl3mJz12lIsLEjzzr16mLpnwpBRBeKLxRBII0wAIyw/Mp12frjal6hErQu8SLq+jNq3y8Q8Q5y+MCiKvoYgCJknYxO8Q4aPTJ3txWWWLfB067RrLzavZuH1oxf++Jh6+LLbzMbifDN0NApoHPBU/ds3Pzb7yNkHNpZH5xFPwTE5FQY09ON/HK4+/e/r6pnf/UU9fdef1IIsro6wWb00b9UXVoi5Vi2BMuXKqFK6Y7Ht122+T0NdYPITX9gd8vHX6t1/Pq/+dcsf1Ot/+4/ZSzcpsC8uwGttXlBji9cjw3ykxQu8UnjCRWeqMmXLmQ7W03f+ST3ymzvUV6++Z1anJUGS8UGnos/Z/RX2sEOaf/P6R+pvV9+tnrj1ATVu8DCTv9MB4ePDOli95dUh5h0OvEYIMDF1UNeOxgyrDgBeu0LHDBO/GMhgEnf3DuxtPMnYY6UvVvzWbFDHrBgLS5gyh9fYtugBDV5LwwRzGLZt3WpelcNkV8Uq4SY9MgFe19ywZq0ZGGKvQRcYGNAX17EPXBJgQIDX7j9/6W313P1/U4/fdL+aMmJcyjb3iZt3OXhlL5tkOs0z3R6EAYMdfKwSrypicgEfP/nrlber/973qJquB3PpPlCjOGJPWLxKWhSEbRfD9lfiElYPmhjCCvKwD7Li1KmZIIlyHoei6OvRZBwG5+84+qw4sHrdBQbz2Jf2+7c/VW/+/RlTt+CDetkGEySYKLGhCQ7se+mKF7a1WrFI51OdP3EfM9338YNP9KAc2LjajUzm05Il88LDFidYWY+JJUxa4SOA2K7GlZ4/6TrBi6TbvTjjrSTbiUzmfSzCABWrVTGr09OlUaumqr7uI2NxAdXLSDdsJYC0wQRw0OR7pttYImz7EpWodYEX6dSXSZCpeYY4ZLqvIQhC0ZCxCd6koVcetusKMWhVGQafO37drjtE5bS/vXsVHXRwB3XXM4+YL5bia5MAr7r/+7cPq8nDx5hrApMm1z5yj3ronWc8D3ytM2jQg84YNjD/+7W/M1/9nDtlZmqPrNZmz9qiBq/rBDUeJUvhtTbvDxZwIAv7Mj11x0PqydsfMl8ExmpNs9duy2amsUqa3buDn1aiYxNlhZwN7jP2e/rts4+oM2+8zKyYxATb0IHfmvyDfbaSIqn4oMycfctv1O1PPax6DzjRrCJAg40vAOOrskk8ucf99utIEXxPtKa6c4ltGmgbBqzkxb5SmPjFBDBW8uCjD1i1i7IM+7w81DrUKrJcL3OJo5Pf67U7TtC+dEHgI0ufv/i2ebDx5mPPmAlH7HmGlSOV9SCmuBEn72abbKd50u1BVDDBfMUDd6gb//FH81E5vDKMuvX1R55WA194o9iuLInTLkbpr4SlKNrnoiZb5TwX2h18Kd7VV6Xj3hcfN6/uA0zCTBgy0uj77D2PqBFf/WD6NKhb0AbnGsddcIYzTnTc+sSfTP0BstH3CSLqqu1M5lOkB6+z8QX9u3Rf1pWOdGC7kWwRdbyVbjtR3PI+wGrTVp3bmxWf0B35BfuqYi/cBi2wD2zzlEt/MtnGZqt9iVIX+BGlvswESc0zpEsm+hqCIBQtGevN9+xxaOpsLy6zsOCLtFgxt3LRUt1RK7xXGmfBtDlmErhqzRrmK7cc7CmDTeovvvdmdfd//6Y69zrUrIQc9fWP5tVrrJCsXqe2edKIjdzTASsTX3/0aTXjl0mq73mn6cbi/9TN/3zAfIDgpMvP8XwdKxtgXziwftVa86q3C5ooxyb9WD0QBmwc/5qO865dO9Ul99+s7n3p/9RVf/6tOvXqi9RRA/olukUDrXTF623oWLigVRR4pQerz9IFq9s6H9VDXf3w3eq2J/9sPmaB135Hf/OTpw5hyVR8sPoK+e82Pdi5+N6bzF5dcyZPMx8bigtWmmDFCV7H9VrBjKfUmzdsUvhCNDqnRLXatVT9Zo3yt2HAF3ex0gsTv6BClcqmQ4iyjgN5Ch1D7LkV1NGJWuawhcEBFSqEfhULYIBVpUZ183QdX6guKpAHsL8XBqt8P2MOVu1g9Q6I+2EZgJUG7z/9shrx9Q+qW99e6u7n/q5uf/ov6uxbf2PKNr6yW1xIJ+9mk2ymeabagzigjONV7VOuulAPOh41X3nHq4rYb5q2dSmh64Oog0WKI1ayb/s1O6+lEnHbxaD+SlSi6kEfzwr7miiIU6dmgmyW86Lu6+HDh4jDxjXrPcuvzejvflLvP/WSwhfcr//7/ep3LzymLv39LSYvHHpC75SraGCladLg40gAH5+NSib6Pn5QfkI62K9qe5HJfEry4Af1Kt70wVfxscXOpnXpjW+SIJ3xVph2wotM5H2bmvXzPqb168ZN5v4lAfbYRR7G9gRox/BRL0z44qNmtAgqDGHSrlSZ6GU50+O/dOoCTpz6MkmSnGdIiqT7GoIgFC0Zm+D97c3Xqv4n9FU1qlczB85hFhe8mo2989CY4XUaryfweBI58pvB5jyo0cPHMPqcc4rCRxEwQYIBCV7dxF6DeJI+dcQvZv/PuCyes8Dse4kvVvbsf5znq69FQc16tc0qypVLlql1Hnt60UQ5Npu3J8q9mPzzGNMoHKPTtWWndvmvq2UCfMEbHeml8xaaAZYN7t38qXkfl8A9Tfq1XAwejjn3VPPgAflnh84/6ZDp+KBTh49q4YNcyN+YYI0LViRhQhrlcNGseSnTgmAPMmxlgBWHfG8wrD7GE2NMkM4YO8Gs5KXtGQhs04B8hK/C4gMhVWvX0HVAg5StN1HLXHldByBc7Mdlf1QEYKKd9qQjkO70JVysVnCBL+1mGsQNK8QA0tD1UGDj2g1qxaIlpkPZuFX8CUE8VFswbZb5AGDf8041qz6KK+nk3WySzTTPVHuQLmg/Du7dw5RnPhiqVK2yKbtRJioojqhfVyzMe8U1WyTRLrr6K1GJqgc+eImB8NK5C83bFjbbf92mduwouOIrTp2aCbJZzou6r2f2+dRxWDx3XuACCIBJjakjxplJnRMvPdt8IA79g3SpUS/vgUC6EzActFtovxZMn21WScchyb6PH8sWLDay0V+hB/ZBZCqforziQ2Eov807tDFmqLdRf2/ZuFnNGj/FmBUlSY23vNoJF5nK+zZ4+I4VmisWLdP1deF8i0lfjGejgHuPVcb42NrU0ePMvqloD1rp/nRcvNKO+rhRJkEzPf5Loi4AUevLpElyniETJNHXEAShaMnY7FutmjXUX35/t/rh03fMgXOYxQUTtX3O6W8aZTwl/PDfL6u1y1elbPNeuZk1YYp694kXzIpKfFwAX7Ql8ATKtXk4Ok14co6Py2BgAtr3OMQ8VR8/ZKSarCtfe+IEg8Nv3/xI4UuzftDXKfdo3fT/KdO8Ac6kEWOLdA/eWrpD2fGIbiatvnzlPdO55KABxUQ5GtPuxx7l3NtptW4YKW2ogaLtM+xtNJD+wz773gz6vMC+fbRCFffTNWHFadK6pWp1SAdzP75/59MC9xZ+ce+mjBynqtaqrjr1ir96HKCzjIcHtk6rl68wE5VYHRZlwpX254I8xBUkHR88ibf3XYXMVYuXm4nkuqnJwThgK4XDTupjyiNew0LacLBq9Pu3P0mtLjis0Fdi8ToZOr9jfxhmBkS0PQOBBzrYc3fs4J/14GaFatqmlarssc8sJ2qZw0C8he6IguFfDCqQXvDzy+Bhapg252AwcFDXDiYNJ/48ulDcZ+t66JvXP0xdRQOvs9EHrMKUAazsRF015vuhaoqOHwcrQH/88AszGMDgtkHzJimb6ODjIeZDWXiF39oOAvHFRymKC+nm3WyRbpq76hgvkmgP0gV64l7YE4lbt2zR5XKV2e+6eupjNbR6HRMVM8dPLlBONuk2BPtu2m1NzXp1VWtdv+Y9JP4kf2U7sXTOAjX0029MuUmaqO1ilP7KqG9/Uk/d/qAa+dXgAungIqoe+Jo4wsJDorGDhhVK50/++7r5YA8nTp0aFlefw4tslvOi7utB9zbdupj7h7bHztvI08gn438akZd++IcPQmmw2o6D+zps4HepKzde7RRWKmNCcd7Umbrd2ds/hz32v42zbzgm4Jp1aG0+OvTDe58VKp/YxmbwB58X+Np82L4P8j32IcUepCj/YcFkPiZzOUjznz780vQHOx7RPVR/BaSbTzEpN0vHndfxOB+t+wRL5i4wDwibtGlhzFFvdzn6cBPWz599a+p1Du4TVjcjne02ICxR+zBRx1uwD9tOOEkz74cF9WaDpk3MntzDPv++QF2OfPeFbmddD8D8wP2jj639rPVE37lp21aqWsixdZS0w2pv9NExCbpiQcEP9GJhw/Avvk9d7SVq+xKVOHWBi8j1ZQZIap4hCq4+YZS+Bt5QQV8DetnuBUHILUqnfosF+NDVqVddoAa+8LaaOmq8OfDqUfkK5dXGdXs/OoXJ3XNvv6bAfp1oYL/TnaRaDeqpQ084SlXGaiXdSAz/cpDpmHft29N0tAA2Hcdrddiw/b0nXzCDPqyuBPiq9NJ5C8zrDHgC57fPD1a/4Gvd08aMV5+98KYZ9OzUleL4H0eoNctXmlUuG9eFf/UxSTBJddQZ/XRHeJGZMH/yjgfNk+HSZUrrDskGU5GjETju/DNUk9Sr8wR14sf9NFxt2bTJmCE+F99zk5lIQqP49Wsf6A7iFlW1RnUdx/VquE7/ilUqmw6DDQ3W1yxfZTa8b9KmpVm51rVvL999wLAS9PgLzzCv8Y/+dojumM5SB+p7UqJUCdORnz99lrlP/S45K/9V0zigIURnbMLQkaaz3PWYnibPzdc6YtCLV6YO7n14yrU/tKpj8AdfqKVz55vVZ+i0XXDntWZgnFR81q9co974+3/MhDkedLTq0sHs7Yu8h/uNspTOik7QvF1rddTp/dSg9waqFx/8P9WqczuTFjt37DT5Bx/yQDhHnnKcyW8c6vxin134QVnioOxiz90RX/5g8lqb7p0LyXARp8wd0udwNVHf22XzF6t/3/1ns88Z9u+erwc/eJW7a58j1Iiv8t4KIJCemIyfpusgHnfUD6uXLVddjuphvlAcFrzWjNU1a5atVK898pSq17Sxvk/T1Mm6Hmp32CEpV4VBXYX9yD557nX17r9eMK9T1ahXW+3ZtUfNnTLdlKnajerrfDXA5J241KhbR9VuUN98xRgfIemgB7Bgpr7PM8ZNUjXr1TGTg8WFdPJutoib5kF1jIt02oOkWDxrnnr1L0+Y84N7H6HrhOZ64LlVjfrmR12u5qtDjz/KTNICxKO7vsbE2Xdvfaxm/TJZ1WpY10x2YMIXaYD7yUEa9B5wkvGDsvXUXX9SHfQgq3rdWmbAijiiP4F4o/wlSdR2MWx/BYOzyT+PNh+WGfb5d7qu6GJWKXsRVQ+8pXLYiX3UZy++pb5580PzcRv0hZDvMKmECXP0t9ZZK9Ti1Kl++PU5oKMX2SrnRd3Xg+74sBg+wITy+/jN95s0L6f7KVQmMGF3kL7/bXVbivJzYJtWpv0d+Pxb6vD+fVWFihVMHsN+pLUa1DVvJtkEtVNN2x2kmrdvY3R49t5HzJs6qEPQLmLCt0GzxmbyNwro55106TnmI7R4kDlj3OT8ugn5cOb4Kabvj28koM+ABw5h+z6rli5XU0b/YiZ6Rn492HxsKAzYmumlB3R+Ori9atr+ILVa988mj/wldn5KN59+/84natLQUWbSCkwbPc6UPcg46bJzCrz9ATnHnH2KKc8vPvAPM0FIfQaUT+xVDH9tunVS9SqGrwfT6cNEGW9FaSdcxM37UUE4PfX4Be0N789jNSTKY8PmTVVznY+93gLzAosjsOcuVmdjojfMx9WIKGmHRRYdenQ1ur/85yd0WW6n8E0b3N9Fs+brMtRU4QOBnDjjvyhErQu8VhBHri8jLN4JS1LzDGHw6xOG7mts3WoefqCvgfveXueNBvEXjguCkGFKPaBJnecuq/JeJUKljE4DBjF4jQQdRgxwUBFjEg6dkl6nnaBOvfrCQk/P8VoSVgHjy/xTR45Xk4ePNa81o1N+9i1Xqpa6Iudgz9+23Q9Wy3Qlu1g3fEtmL9CV7gLzRKuV7ryfe9vV+U/FvTigUgVVs35d05HAa+YIE6uuDmzdUp110+Wm0zV30jTV+ajDVOXqefpiw3w0+NhrqO2heZ01jsser5hMHDraDCI6HtldldKNHcfLHnuJtjv0YDNwXzhzjlo0c56JI1ZMYoXDWTddYVaK2h1KDIh36Y4nOhhoCDCAadr2ID3Y62hWCe7eudt04meMnWTijJUOPU89Tp1wyZlq+bzF5tUkrgd+MUBCGiFsfDigtG7IOxzezewThfCnjkKHdZHpnB7YZu8EA9IQg3TkAUyA4ou4iMOGtevMqs8L7rre7OfKiZrGGFiiE4GPMKCzPVV35BEv5AtsLXDBXdeZzlAYEM91q1bruOS9Jrxpw0azt2zzDq1NOsSJjwvkdaTVkjnzjM7Qd+rIcUbOYccfbR6U0GQPnsRiJSpWeuK+oKHneNnjI28H6sEB7tFS3SHBahDoivuEvIUOFF6Bw6o/G8QV2wcgnVt0aqu66U4E31MY9xx/k4eNMU/bMfmE14aCiFPmoGvb7l3U2pW4L4vU8gVYnbNINWrRVJ13xzWmLsHEBrZDoPwCXZHf0VnHBNzKRctM3CHz/NuvMXXD5GFjdXgVC+R1r3yMuOH1VryFgHSGm2q1qptOFB5++N0j5FOUP3RWF8zQ90DXVXgNfZeuEw89vreJdyXrg1xRywBW/DTQdS8eauBpP1YLYxCJD32dc9tVqlHLpiaNsCqBdMMAG194RoeRp4EXrnoqbt4EXmkN4uTdIF0AOsG/DPpZ7dB1HCb5KY+BIP+2vnHSHATVMUm2B37xBUH2HJQzlDnci+ljJpiyi98d27ervuefrvqcdXKBhxQYtFSoVFG7n2XiZOrJNWtV7zNPVidcNMCkGQaZh/Q5Iv8+YoDa6YjuZqXPwplzTT5H/YBVZ4j7ubdfnZ+WcdtVF5g0iNIuhu2vYJCG7WBQp+FVb8TVbzAaVQ+Aj8wgTfBVcQzukc4IE2nc+8yTzMTF2pWrCtzfOHWqX/nw63OgHaO6BvtD8/udiXLuso/T7lD+8aqDbYLKEuoL1AXIN6gzEE8caBdQ/x9z3qnmYSDiDfAxKZSX+dNmqumj88ob2uR+Oh+gHz3zl8lm0o7rFtROQQfUM9jSAxOFy+YtMm0RVgVeePf1qra+3xN/HmW2DKA6OUw5Qrnt0usws7KO7iEO1E21tD4nX3GeOuLkY82ETpS+T5my5dRiXQ9gC4QGzZoo7EHpB+mKvhjS85fBw9UULR+6oN5Eewv50IEI027EyaeUH7BifMB1lymsshw/ZITOfzPU5o2bVJODmqvzbr/WrMLnoP7G/u1If/QvsS0EwsJ9woTywb0PM3U96RlGf5BOHybKeCtqO+Eiat6P2xZgmwOk88IZc015QBpjC6TDT+qr+l95nlq1aKmp0/zS1QZlDN9WgI742HOv0/sZMxtXnRgl7UoiT+p8jnRCXwJ1OO4JJlnPuvkKs6UDPsCFeo/SKWr7QnkCk8BB/QMiSl0AvOrZqPVlkn07Ikq+DwrDz96vT4gJ5FB9jVKl1HIdB4x36jSqbz7QV7aR94MbQRCKlhK6U5KZ9w8SZM+0d1NnBcGk7q+bNqndu3erMmXKqvK6kx0EootN7/EKCVaOUkfPD1Sc+MAMGjx8DAodpChQmNATK4SCOh9FxdZNW3Tjtd0MFGk1sx+YXN+mGz2X+zhpRvcTbnM1nXmeC5tOLpDWO3fu8NUzqfiYD23pDoO5F5UqJb4vFkHhhC2LmSRu2lEcotxbyutYoRamPvGDZJUuXSZWGqZbV4Uhaj1RHMilvOsiTpqHqWP8KMr7TG0LVigF5WOqk0GU+i3d9iYOUctn2P7KiC8HmYmCAddfFmo1V5x6gnQBUdIrTp3qhV+fIwyZLufZ6IOEJWz5jZMmYdopuldh+9lhiZLGFDe/vg8mit7+v/+ayXdMjPgxbfR49cbf/mMmRvBgH/FCOuNV/yT7VmHuCT6g9sIfHjNbm112/63mQUycspZ0mchmHyZKO+Ei6bj7kYl8kg5R0i5qOsVpX+KQZH1blP0dkI00Qxy9+oRh+hpwAxllDyhn/Jdoc3bKRhCEXKN4TPDO+07XTPE3VBcEQRAEQdjXwF6jb//zOdXvojPVge1apUwFQQgDViGO/HKwOveOq81Kaz9cE7xFhWuCVxAEIStUqK1KNDk6dSEIQq5R9I8RQ1CidsHtEwRBEARBEPZnsG3B16+/r9ofdkjG9kYWhH0VfLTvxw++VMddeEbg5K4gCIKQR4mabVNngiDkIsVigldVrKdUtfQ+CCUIgiAIgrCvgH0Mz7zpCnVE/2Mz9hqsIOyr1GxQV13157vMXqaCIAhCCDAfU9H7Q4aCIBQ9xWKLhnx+Xa32rJ2l1OblSu3aljIUBEEQBEEQBEHIDLQXadw9X5OE9hDHEK6o93sWBGEfp1Q5M6lbonpLpQ6omTIUBCFXKV4TvIIgCIIgCIIgCIIgCIIgCEI+xWOLBkEQBEEQBEEQBEEQBEEQBKEQMsErCIIgCIIgCIIgCIIgCIJQTJEJXkEQBEEQBEEQBEEQBEEQhGKKTPAKgiAIgiAIgiAIgiAIgiAUU2SCVxAEQRAEQRAEQRAEQRAEoZgiE7yCIAiCIAiCIAiCIAiCIAjFFJngFQRBEARBEARBEARBEARBKKbIBK8gCIIgCIIgCIIgCIIgCEIxRSZ4BUEQBEEQBEEQBEEQBEEQiikywSsIgiAIgiAIgiAIgiAIglBMkQleQRAEQRAEQRAEQRAEQRCEYopM8AqCIAiCIAiCIAiCIAiCIBRTZIJXEARBEARBEARBEARBEAShmCITvIIgCIIgCIIgCIIgCIIgCMUUmeAVBEEQBEEQBEEQBEEQBEEopsgEryAIgiAIgiAIgiAIgiAIQjFFJngFQRAEQRAEQRAEQRAEQRCKKTLBKwiCIAiCIAiCIAiCIAiCUEyRCV5BEARBEARBEARBEARBEIRiikzwCoIgCIIgCIIgCIIgCIIgFFNK7NGkzvMZOHCg+uCDD9TSpUvV1q1bU6aCIAiCIAiCIAiCIAiCIAiCH4MGDUqdZYcCE7xr1qxR//73v9V3332XMgmGvJcoUcL82tfZBGEj3KLUAZAeQbjSrqh0FnILyhvEvpIvMh0vu0wJ+wZh7yvVofSbSVxh8PBBpnUIC9cnG2lTlKQbP0orYl9OK2HfI+m6p6jrCwo/6XjlOtlK96K+v2Gh+0/sL/kgiH0lXfa38i0IxQEpl8mR7QneAls0/PGPf4w0uQvopudCJqCwizojhg3fK+3sBrs4AJ3pSJJMyCwOIC/QkavQfYlyfzIdLy57f8w3+xp0D6PmF7jP9P33y2c8H2YL6EGHDdclG2mTLSgeUeND6eTyR/cu2/dPEJIgTt4NKg/AZZdNkiyTXnHNJbKV7rlyf4Og+59UHthXKIp0iVt+yJ+XX4pDHNlCHn7pKwhxkHIZjVwpgwUmeJctW5avGD84LrtsNizFDTu9+AHstIN5cU3PTOgNmZK/hDhIvtl/ofq1qCiq8L3yfHFuV4KgtI6a5lI/CPsSyP+8LEQtF7leHsLGIwyIq5R/QYhHOuVHyl1mkbpNEIqWXCmDBSZ4f/3113zF+EGgg+VlJ3hjpxkdBM555zXJjmxxR9JCiALyi+SZ/ReqV+06Nlvw8LMJ8rxfmLDjZaMo0iZpeJzxy88FYX/DLgNhy0NQ3VHUhI1HWKgOFAQhOlJ+chu5P4JQtORKGSwwwbt58+bUmZBteCc2lzvbXmRK5+KYFkLRUVzLjyCkS1CnYl8rG+nEReoIYV+Dyj9+ow4wcmVAki32t/gKQpLELT/S7mYeSWNBKFpypQwWmOBNEmoA8EuHH9w9/80Gtn7ZDJvg8Q4Kn9xwt9wPP+fYbl1+Odzey00cwsr1s+cy/ODu7IPMCX7uhe0mjB8X8MePMJC7sH64Gz8/QfKC7L3g/uLK4HD/XrJ4OF6/LsgfHRy6tn+jwv37ybLt+C8dceB+w8rhbsL6AeQujh8Q1o8ND9fGJR+/Lrc25I77c8HdeGHb+7nndn6yk+pQ8DC8wgLkjrvh/rh5VKLKyUZnKqpOtpswflzw8Pg5h8y5PXfHzzm2H46XOYfs7V8vuDs/P7ZdkFtu73JDcLuwfgjbjZ+fKG6D4H5xHkZW1PIQp/yQHmF04m75b1i8wiBzbkfntjkH8Q0bZy6P/7rgdty9nx+C3HF/Qdhuwvqhg67DEuQnHXvbzkuGDdzxIy7k108O2bns/fwB24679/MXF5LPw7Eh86j2UcpPuiBsOujaD9s+yL0fdpgu2fxwQea2G5c5t3dh+3e59zKPQphwCNuOu/ey83LDz72w3UTxg18v92TH3RK2H9vOtue45AT5IaK4t+3DyPeC+40iB27JfVh/trsgfxQGHWFx+aFz29yLsO7DyssGGZvgpQaAGgMcfhHn7olMJxSXzcMlMhm2Fy49XNjpxf3Redi05n4B+eP23I0tNygdiahybXsC7riMMNjuXf7p3NaDcJnDD8y9/NiQO/jjB5l7heH69QqXh0HgnPuz4W5dBNnbIAweJg/bFb4X3D3XwdbHyx0H5l5h+8mma27OwwuC3HI5OLiZC9sN+SNzHGEgt+QX0C+X4Tond4D75245tj/uB7j8eYWVDl7+XfoBmLt0AzCHOzro2gsvOztsgmRyXLrAne2XuyM7242NSzbMcNhhkLkNueNu6ZybRYHC4XK4LJceceBygnTluvBfr3Qhc5dcl/sgICdM2LYb+gXcHwfmdNh4+eGQG+7fpRuZcfc4uJkL7p7/cmBm27t0IMg8rB/bPYFrP/cccuuy88IVLs7pmsvyckt4hcvNyT3350cU9y63CNtLLxeucGBGB0HnLvdBYXI7262fXA75sd3b8jgwhzs66NoPlyzym2Q4HHJLfjm2LC97lzvulofhB3dHRxwofFse4HoBsiN7jpcfL0gODzsJSBbJDyM7yA3ZU1p5ERR3bh8mTEobOvwg3VzugvSyIVkEyXTJJt1wuMIhc+6Grsmeu/HClk3+ALfj5hzbvwuXGy95XpB7r/iQmf0L6NxLVy/9YO6yI3MellcYZIfDJQu4zLlML8gfuaNfmLtk2uZ2GNyO3Lp04O6iwGVxXb3gOth6evnjfmy8/AAKww4nCJc/OudmLkg+d8/92OHb9kQYPZMm8QleRAKR45HBOZlHgdxnImG8ZHJzOx65COnH9aRzv/Tm/uiga4o3mXG4vdc1gXOXO+6GsO1td/ychwdsty5se7q25QDI53A3Lh1hZuvkgtvTOf1SmH5hcyhMl3sywzn373WeCaADhUG/XjoHQbJs/bl8P5nkn85t/Oy8ILfk1w8vudzcSw7ccDuc4wirK/l1uYcZmdthcHPbjuDngPzZfghuT5CZjZeMdEA4rrDI3LYjHWDOdbGvw0By6NzPP7m13ZA/OgB3x81duOy4GelnEye+XrK8gHwKx0tPbs/d0S9hX3Ngx+PD3eLcvnYB/3Rw4N5lbuMl14XtNkg+uef+6DyMPwLXFJZt5weFwf14hcvNvcIgc/zSwbGvSWcXXnZkbttBNpm5wuZwO/gh93SQfO7OC3JP59yP65zLtX8BybKx/XE/wL72kxMV8mOHkSQuvbx05XrQOdxyPV1uONw9h8xtO5IJcy7Pvua43PGDwuHuuB039wvHCy6LY1/7QWHSL/ySf5JP8HPCZQa4Dl5uOHDDwyW8zjm2OcnC4fLDdeNE1dkPL/9JhuEVjyC5sOdpw93j3Pbv5Y5kuMy9dCO4Hy/IDZfnCg/YuvDwbXOXG47tl+DnLr+wJ/l0EEF+OVwOh2TSYeMll5u7/JEZt6NzWyZ3QzryA2ZkTpA5nRNe5zY8HIBfOwxAbuiwId1syNy2Ixle5oDsYOaSYePSyw+4Jz/06wqDy/XSAeZ2+LiOojd++bn9GyQnDF4ySD5+KUyObW+74+dJ6BmVxCd4KbI2FDk7ki63wEtOEkAu5Nu6ADKDm3TDz5T+BNfVjgvp76UD3JM/OmxzG5e5yx0BO7LHb1i55M824+Aa/gjbntu55AOXPjCjwwX5oYNjX/tBbrkfV5heMrmetj9u5vJPZra/pKDwEQ79ElHC5DKAHZega4KH6QqfwqDwCJdbQO7DQnJtP7imI4zuBLn18sMhNy45thmXR3oBVzguuTDDtcu9lzk3s2VlC4TLDxuXWRz9uHyvNCJcYQL4o4PAOdyTucsv2Xvh5Y8Isk8Xku/S0TbHOR10zXXjbm2C7Li9l1uExQ+OfU3Ysv3gMrgfHp5LFpnBjW1Pfsm/jZ9usOP+/GS47GDmssM1HV7hkz/80sHlcH8kC3DzIMgf909wM5dM2z2AGelq+wmrV1C4ZMbdULh0HQbuj86JsDK84LI4djjZwi8+PP7cHenJ7ek6bBzgjh82LjOugxfwR3rZ7l3+44ZDkH8vP7D3ckPX+MVBuhPcH9nTNZ0T3B+Hu/Ny44LCjIKfe9jZOnsRV2cXXv6TCiMozkH2Xvj5DWvuld5+sm0gg7slmSSDX/NzgGsyI8gdDu6O+yfIHXfL8fJDwJ4OwiXHD1s+4ZIdhK0bh65dcYUZHS7IDx0c+xq43PnBdSK/dO2lk+0uDBRHOsjMSw7MuFvCviai6OOSQX7DyCDdvHDZR9GbzLgfMrPNk4bk49fGNid9bLOiJONbNIAwkXTdJJ5YSd5EW6atH4WbbthcRiaxw6Bw6fDS3/YHyC1+XfaEn52LTMkF8GPHkeRECQvX/IBMW19+DujaDt8FyfXCy84lm7vlOlAYdHBwzWXZ9klCYbl0iIrLD8kPA9ySDJc/rqdLpsuMywzSg4ftAuZ+Mrg/LxleUNxcYbjkcvd0cHDN5XB7MicZXrjsbN2An4y4BIVD5+SOrtPRhdLDT5Ztzw+Cn7viERVbBpcPePgUB5sgPcLqSe68wiH87DKBS3+uQ1D6uAhy52UPcxw8rVzY/smf7Z/wiyPZ0TXHy5+XX5cMAHOXLML25yeHy3LJ9NKZoHO4I3mAuyHIntwStlu6doVtw8Olg4NrLse2zyRB+nvZu8x53ILkBhFXLz8onb3S18vOFRZ3Z8eZrr3C4dhh2n5s2SBOOF7AL/dPsvHLw7Qhe5cbyIO5l15edi5ZwMvchVeYIEgnG3JLdpnSOYhshJEt/NKQ//rdR04Ud35yXXa4Jn+2veucm3FIBqBfwM8JuPWSExWSZcvk5y4dQFRzgssGPHwc8I+Du+PngK7tsGx3HFtmGOCeHwQ/94qvy9wlg5sB1zWZRYlDkDvYcx3DyLXjZPvBNZlxXZPUmwjrDth629j2dB2kdxQdsknGJnhteMLxc0oYVwLBHSVskglI4UMm18XGtoviFgS597NPl7hh+92PdO5BJuTCn1dcyAy/UeR7yQojx+WXw+1JZjpAH0oDgs79ZIdxkw62TukAOTjstI8qn9z7+aP0JOjcDhtwvVz2YYjrj8fBLz4AYfi5ITuXzKj+KD6ueLnMbPlx0yMJEDYO0olfJ6EX5CQhy06zpPCSm5TeQZB8VziZDjsO0AkHpRs/90vLdIl7L+KEzf3wcwrfpQfckY5BegbZk6woUNhRIX15eBR+GHlh3XL5XpAbP7dh3BQ1lBauNIHeOGAXJn2zRZAusCe9o6Q9xZP88Gv8hgXuw/hJNxw/uGzClk16Am7nMnMBe9KZ/AQBtyQ3rB8vgvRzwcMsCp29yEYY2YLHBeCc4uQVtyj3wg8Ki4cJ6JrsiLDhAr+wSY6fm0wSJR4EdCV9o/h3uYUZjqD4hw0nKTlEVPcEpRH5jyInjL+w8uCO5IX1w/ELn2QTcfTm11xWNqDwXOFmW5c4ZG2C14XXDSaQgJlIRJKJ8L3kczv7F3b8AC45MCN7G9i5/CSNK3yvcP3iQpAb/HrFzSZTcglbLvzDLKocDvmFHDr8IDd+YXL7MO7jAJn81wWF7ecmLnb80oHrydOJhxEWcuuSR7jC8ILkRIXk4hdHHBlRoDBc8eG6cD3o3E832NEBSJafHx4eD9MOPxcgXZOCp1VYuA52miVBGJ2SDM8LiqdfWOSG0iHXoHvjl6bppCXFGzLSiX8UvxQXChcE+Sc/XpB//HK5LvzsbLg8CiNdguJCkLsgt+QmSD+S4yePZPm5KUrCxDFXdSe89EtC7zh5lNIsKHxygzCSKgsEyeNyKSwKFweZgyAdyJ2Nl3kYoviFfvyIC8LEARlxdU8n/DCkk6a5CKU1HS7ixDmqLAqf33sy84LuNX65P4L8+8lIGtIJeOkVBy43DOQ+bBqQGzscigMdYfALi8sgmUG6hYXkhNGTwqXDRVi9wrrj+IVLuOzT0ZubU9pnEpLvpQ8gN9nQJw5FOsGbC8S5KZQ56RCKDkp/+uUFLmnCyAzKD7CHHDps90noTbL3BVzphHO6tu2CoHSBH55GUeUkga1DJqA44deOn198oVemdRO8sdOe7l8m7glk+uUFIbt4lb197R7Fzc+5nD5h4hNGT684CtkhqfuYKYpKP8ikIwzQk9y6/GUqHmHkcjdcN/yG8V8c2VfjlSRx8mS66ZoLec4On8pEruSZKPeFu6V40Hnc+OR6+hQFiDulbabg8hEehUnm+3P6B1GkE7xFdYPChAfdyF1xzEC8UISF3w+vOJMb/IYNI1NyOVwuyYgjy8u9l95xiKtbEFyen2y6DxQnuE0qfhRukvJc+pH+fvG04TLIr5cMMuN+4kD+6ZfkRtE7E3B9uC5e5zbwTwcgt9zMhtzgFwe5pfNcIyndKN5h5XB3OE83fC9Irl8cMxU2h6ePV3jkBr90nmv46R8Vuickj6dRnPjHTTM7PlyPMJA7Ox5x9SHgHzJtubhOVzbg8sISxa0XXHe/eFDckwgzE8RJv1yA0jSJPBQEhRM1jeK4jxNOECQv6BfY4eMcR6bSOa5c0jOufx7HqCDMTKUHkWn5RQHlpXQhOXHSyOXH1ovO6Zf8eIXH/WYaW88kw0b8wqZpJtMCsiEnrC6cTKYPYYcRRFJ6kIwo6cL9eOngZ+5lFwTCozBJhp8O6UDp4acvuSG9co2cWMGb7YRBeLhhfjclyD6X4Zkxahwo3i64XH4ehkzJBdwPDyOOjgRPN5jz86SBTDrSgWRAVy9ZPF70C/z8RIXkJCXPBY9HWFx+6NpLVtQwbOA/G+nhBcJ0hesVL3LP9baBHfnncsifCy6Ln7vk5Ap+uiEOXuljQ24hJ4wfHi4dmcCW69ItU2HbUPq44HqFSb+iIul7lZQ8nmZRZNI9wWGne1gZ3G/S9450ywTQleIfRm9yS+dxCRMujzf95iq5rp8N1zed+xgGv3tI+cCG8gadhyFOOH643EM2D4cfXu6JqOF7QXLCyIviNiyQ5RdnF5nQw8YrDLoHmQw7G1CapwuXESVN4Ja7p3PSi1/TOXfvBdeH+80EFBZ+6UiHKPEkuFuuA8z5eRBxwg6Cwie96DpJIJPiGkZ+0nrwdA7CdudKay9ZSehNMijcdOV54ZcmPM6u+OcCObMHL86zlUhB4cCebio/z1V4fGzduV0Q3C9+/eR64XKThFzbDwf+SQaAPZfrhS2T68HtANnjcNnxXy9gT4cNhR2ksx/cr0tPwM3onH7Jj+0mqk7k3tbBlh0G8uMXnygyyW1QnLjMqGFw4A9heYUXpEcS8DDseNjX3C3OXfHmZnSOX/Jr++N23JzckRm3I8hftuHhch0BnYfVjced4uzCKxzCy5+NrbsfFCb82PHhdnSdCXgY+OXhZDr8pGS79Obgmo6wuNySvn5wfzjncfQK3zana/LjSiey84P8eukdJj5euMJORx6HxxfnXvHk5jyutnu69pJDcP29wuVmQfKiwsNPR7atY9J6JgXpZf96we3TiZOdzi653A0H9rBz5Q+6dsmAGXfvchMGcu8Kn2OHZ+viB7e33fr5hV3Y+MCd7TZIL8JLJ/y6dPCT63IPSJafX07cMPgvoHOXexuX/zCQ7Kj+bCDHpTuBazqCCHLD7ekcv9CB60Hn/Bpwty5c5iQDkFyCn7sI69bPXZQwbGDnFVdgh0tucW7LJXs7DQBdc3Nyy7H9hYX78wo7CfzCIWCOw04H2z25s839oPSy/djpSJB8r7QmO7oGuKZzwM8B+bPd2GYA1166JQGX79LbjpsL20+2KfItGhBpSiyeiOkmDCW+F7Y9D4PrURzwigvMg9KBQ265f54OfnJd4cA9jrhyuRvuh7shbLdhsN156cGveTggTrjAlgPg32UeFcjAweVxM4Bffu6C+42Cyx+dc52i4tKTxyMMFL5LNw53R2GQuyC/HFd4hJd5kiB8QOHQNcGvuS6kmx1vMgP45eeA3HJ/gJuTW4LLIHf45UdRgbBJP9KFX0chKJ4wJzs6J2x7G9uty40L7o9jh0fXmYDkks4UJsHNk9LBJYfimS6QweXTNR1hwkhHDztuJIvCt/Eyc7nHNeTxOJF8rjMPk9zbeJmHIa6/qFD87XjSwe3p3NaNX5ObILh88s/NAA8zHbgMCiNdSG/Sl64Bl59EWHGgcCnu/Jefw51Lb0Du0gEySQ6Fxa9tYOdlz69t3Wy59nVUyA/pY8sg+XTYcHP8wj3JsGXZ/skvd8fDs/274O5wzgmSYbsHMKPDC1uul85eegXhJctlTpAdsO1d7gmyI7/0G4TLHWT5hRUWyODy6ZqOoDDIHZ1zvWy/Lne2f0B2ZE/nNl7mBNmRXMDDIPg5hUfnXpA7/HJ33IzLtbHto/jjkFvyS/BrWx6/Jjf45bI43C4s5Ae/XB43iyrTBckmuXTO4eET3D3geuEI0s12Q9d0AJcMuHMBtzxsuraxzbk/8gvIDXcL7OukIflcDzoH3Jzrwt1wP9xNtijyLRrsxLETCkcmE8YOg67pPJNhZwLoi4PHIw7kl+LP08cPL39EFLm2X35tu/dzGwa4xwG5Ll2An45eflxQWDaQ4TKPAvl3/eLwih83Jz+An0eBh2sTVialBw6XzsDLPAiSSWG4oLAJfh7kl0NyXG7D+E8H0pPwOydd/H5x2DJtyM727/JDdgS/tv0XNXY8ougVxi+3s9OK+/cKF3ZkT2683HK4G64DsOVlGjt8rkcm8AovDvDr0pPLpPQMAm5sd/AbNR1Ijp9fMuf25B6HrYetGz93+SH33IxwmYXBJY/CTgqSTzJdutrhucK35QRB7l2/OCAnrKywkEwKA9BvXLgswM95eNnGK+24OekHSEeKD7dLEgrHDteFK3zbvxdRwgkCMnC4ZHA9vHQi/4Bk4BcHt+OQObkhuHk6uGRzyJzb45wOV/jczOUvXZ0BlxU2DLID3J/9y3GZAS9zF+SWdEon/nZ8CS4T9mHDgFuXfhQO2dF5kFzul85dfrzMKDwXdvi2DH7tJ8cVDvm1w+B4yce5nz8buMNB/ly4zEm+lx8b0imse8Llh4dN5+kCOTwsLhdmPCzujmP74dde2G5wTYcrDIL7I3dkRmFzN8BLpi2LX9syYE9HNqBwSA/6dYVv68qvs6UvUUIHmB9inz59UmdFgx15O6EyCcJGePSby3Adud5EUvpzmSCM3DB6xJELyJ/LPexgTr8uuB13T3j5s+F+QFh/HDv8ODLCwMPJVBhepJtOUdIm0/FLNy6AdMy0rpygNAyyB3H0JrlEGH/cT9hwskWcNPAjTFzjhBlGrh/cP0girlHJpg7pppcfdN/oNyph04HL52ESQWG7/IAgfyCKHx5OGNlBxNE3HXh4QWElqVvS6eZFlPhFJcn0SIqw6RrWXTrEDQPuOUF+sxGXuMTRLd34wB8njAweJifIr60r/XoR1p2LqH7jhBXHDwE/RFS/QaSjl02Ssjhx5Ub1B3cgbBhx9LL9ePnl5twt4fLjgvsBXv7CuosC1zsJeWGgeASFl5Rucf2TnkRYGXH0TjeOcUgnfgDuBw0aZM6zRYEVvG3btk2dFQ1IAH5kEwov2+EmRSbSjcsMKzeMe+7Gz51NkHsqSHZB9CMdPaL645C/dGSEgYeTbShudMQB/nA/ve6pn12SJBUX/ptpeLp4pRHp4peGcfSGW36EIar7bEI6JaVbmLjGCTOMXD+4/7gy0iWbOmQyHJIZVzbXLaqMOP64n7D+ovgh+yB3YeHhJiXTjyhhcbdh3PtB/tOVE0RS+rrgsjMhPw6kR5A+Yd2lQ9ww4J4fQZCbMG6zTRzd0o0P/PEjCnH9kls/P+iPwZ5+oxImDE5U9yCOHwJ+6EiadPSySVIWJ67cqP7gLkoYUeVz4viFWzrCwv34+QvrLgokJyl5YQirf1K6xfVPetIRFnIbx082oXjREZao7pOkwATv5ZdfnjoThOJHnMIn5D50T+1JSLqW++2G0s2VPjwtvdwIgiAIgiAI2UP6Y4IgCEI6FJjg7d69uzrllFNSV4JQPOCTVfYkoFB8QScX95MOr06vn93+DpUHO334NaWvIAiCIAiCUHR49dsEQRAEIQwF9uAlpkyZoj744AM1ZswYtW7dupSpkCvwxh/n+3sngGdhv7SQdCu+2PeOzoVwUH7n+V7KgCAUf+y6MWyZdtUJgiAIQmHSqS/hB0g9K+xLRMnX3G2cMiQIxZ1s78HrnOAVBEEQBEEQBEEQBEEQBEEQcp8CWzQIgiAIgiAIgiAIgiAIgiAIxQeZ4BUEQRAEQRAEQRAEQRAEQSimyASvIAiCIAiCIAiCIAiCIAhCMUUmeAVBEARBEARBEARBEARBEIopMsErCIIgCIIgCIIgCIIgCIJQTJEJXkEQBEEQBEEQBEEQBEEQhGKKTPAKgiAIgiAIgiAIgiAIgiAUU2SCVxAEQRAEQRAEQRAEQRAEoZgiE7yCIAiCIAiCIAiCIAiCIAjFFJngFQRBEARBEARBEARBEARBKKbIBK8gCIIgCIIgCIIgCIIgCEIxpcQeTepc9enTJ3UmCIIgCPsX5cqVU40bN1annXaa6t+/f8pUEARBEARBEARBEHKbfWqCF1EpUaJE6iq3oGTOVf2Kmly+d7lGrqdVLuZ10okojnktarpSPsn1/JKrnHzyyer2229XJUvKiy6CIAiCIAiCIAhCbrNPjVxpEsOezPEDbunINHH029ehtCiqCahs3fskIF3ttCpK/SlsrgP0y7W8TjrZaZckiCsdUfHzR+ZxdYe/ODolhV/ccpnPPvtMjRkzJnUlCIIgCIIgCIIgCLmLLE3SZHLSR/CGT/rQJFC2J4MyPemXFEgT0tVOn1zWvzikbZLEjS/d20yQzfLkIpNxyzTvvvtu6kwQBEEQBEEQBEEQcpf9eoKXJs2EooEmfmgCiq6zdU+KeuIrLDyfFgedoWNxSdtcIRPpRXkmm2XKprjng1mzZqXOBEEQBEEQBEEQBCF32e9X8MpEVNFBaS8TUMFATxxFmVZhKQ46ZoJ04rwvp1dxrmPXrl2bOhMEQRAEQRAEQRCE3KXQBC8Nxl2/dATh8uuHbR82DDroOipRJlW4fB5uOti6B8m07aPqAPd02HiZc8je/rXxchfk3gvbPsg94GF6uU9iIpLL9guLIHtyyw8vuJ5+7lxw93QeFB4R1T3B3bv82WZBsm1ZYdxzt0Hug0hSlouocm19vPxydy64fy83foTxH6WMkQw/eRzuJqp7EMaPIAiCIAiCIAiCIBQHPFfwYlCOATANzmmgTuauwbFtzv164ZLjFwaAOelCbv3CsOFyyZ+Xf3LL7XFO1146+mGHyX+95LnMyX1YHeCeDhsy85NFbrh/v/Bt93YYLnmA7Em2bQ+8wiQ/BPxy/2Tv5R/42RHkhsvmYQXJJ3fcj40tw8+tH7au9Atzl55kzt1zP2Eg9y5sO1y7dLHNyJ+fbLiHve3WJT8I8sNlcXkcfk1uwsLlcrz0JbfkDwfp6sIlG3D/hJcMDrnh/nGQOeniJ4vbkVvSg+QBWwa5BeQG8HPA3QFbDoAf250gCIIgCIIgCIIgFEd8t2igATBBg2F7MA3IHezIntwTXud8oE0HyeHuuB03t6+D4O5JJofbwS2dc3de51FwyaDwCO6G9OYHzHh8wmK7jysL7oGXHzLHLx1+frh70scPLoPObT/cDdl5yeVuvSDd6Jz78TrnwC/JsP27IHsvd37+EYYrrmRu20EWmXG5XudRgD/XAVx6AK4jdw/4OQG3ZG7LIDlhgF8eLuE6J7f8msA5v+aQne2esPWFHQ8HkP+wcSP3dG7/Bskht8D2T37tXxtbBrlzyQb8HMA9zGw3dI1fl0zujw6YkbkgCIIgCIIgCIIgFFd8J3hdg14aONMvoIEyQf7swTM/55B/Ojj2NXDJcLnzA+55uFwmlwVzsnOFQWYunbwgmbY8MveSRX7o4NjXQfi5hx3XwUsf250LcoNfOvzgbvzCteXwMGxgBnuS53JDeMmwCZJHZuSGAzOyp/D8ZPBfl7w4kP502HjplA5cHsnHQeGTPa65W25vu+e645z80i/B3UWBwvTDz97PP9lxey+3AHaueJAfP78E3NhyyMw2DwLu+S8g/9zMhsLiuMxsIBtuvMIIuib/dHDsa0EQBEEQBEEQBEEoTgR+ZI0PfIMGwbCnQbQLPkD3k0vXNJAHdE52tp+kIR35wcE118+2D8Iljw4A2aQD4fIDuB5hcLm3ZdlhAS9/QXq4ZPkBOWH9kDvbves6rEw/SDd+cHDN08Fln2287hvhdW4T5b7YuHQgvGTC3C9Ml52XHy8ZXvi5TycdkoCHnbQeQfJg7+cmqj5+7r3S2csM7jm2f9sfXdv+BEEQBEEQBEEQBKG4ETjBa8MHw3TuGnBzaPBNvwC/ZOYHD4PLyQZcVy/CuAkLyeDxgxmOsOmUDlwGP6ewXTpw/Wx7sosK5JA/L/+2eZxw4hKkG/Byg2tXOhYFdM/84sFJV2+KO4XpFW5QOOSffgn7OlME6ZdteJyD4m+nV1TssILCSweXfhSmbeelh5d7Gy//giAIgiAIgiAIglAciDzBG4TXQJqb45wOP8gNDdKzDennpyfp6OcmKhTXsLLJTbppxOVQmEEyyY8LL/MgKPwosuk63TQIA4XlpRuAHR0cXGdDx3SBjvxIF54WkGenjVcY3A3HNif/ttx0ofjTsa9gp33YuMEfuaW0TiJdSAc6XFB4dph0DnMOd+8HufEKVxAEQRAEQRAEQRBynUQneMMMkO3Bdhw/2QT6ZXvg74pvrqfT/kZR5ItswOOE/ER5Cr9Jxdcly5V3w4Tn8pcE2UiHooCnF+KBg8cvbJqTX/LPCSOD4G65HhSGjStM7s+2I1yybFz+BEEQBEEQBEEQBKE4kMgEr2vQHYYwg24OhRHVXxx4XPziRXFPQicKx5aVjfgSdlheOmUahBclTO42k7oWRb4oahBPxMMvvlEhmYR9HjU8csvlJE0m0qEoQTwoTpRudB0E+cWRNKSDSzaFaetIcXD5CRMfQRAEQRAEQRAEQSjOJDLBywfVYQfTfDAe1g+59xrEJzmQJ3kIy0su7Px0igIPg8slHeg8k1BYOOywSIdsQXqEhXSO6i8qCIPCsdOI4DpkUpekofh4xStpeNp4nUfRJSn9s50ORQ3SGwfFl6d/WOCXjrCQ2yh+vKA42EA2mScRjiAIgiAIgiAIgiDkIomt4PWD29vnNDC3ZdA1/fLBO8y4e5ebqNjy+bVLP+DSISy2XwoP57YssnfpQde2eRB+cnBwfQiyyzR2PO0wSQ8vN7Z7wvbDIXMve4LSBbjuB+BmQfJyDcSJxxEkGQdbFl1HSTMvt6S3fV9wHiTTJp10IH9RwwS23kkDmXRwcG3H14WXf0D+veSQH+4Xbm33LtkEhQ0/LndkzyH3Lj907fq13QqCIAiCIAiCIAhCrpLYCl4apNMg2h4wE9wdndtu+DW5IWDH/dnXUeCySZYND4PsuRnAL5flB/mz3ZNs245fkxuCX9vy/HC5pXBsO1wjHK43hcvD5+dJQuESXA+uC7nh7m2dyJxj+3e5cQF/FBbJ4GYAv2Hl5QI8Lrbe3C4ulDa2HLrmYVP45N52Q5A74HJD565wveBuuXzgJ8d2C+A2KFxu7xd2EpBMW3acsFzx4voTdnz4r1dcXXJsbD8AZtycX3vpBcgNfmHO/QmCIAiCIAiCIAhCrpP4R9Zo0MwHzDRo5gNqwmVGfl12HNsdXUeB9CI9QZhfHOQ3XcLIc5mTPlF1IPfcH87pILkE6Ufwcy8/6QJ5kGtjh23rxf3Zbm33LvnAy5wgGa5fHBTWvgSlXbrxsv3bacfh6Wi743Yc7s7GZRYVhEnhe+HS2Q/bnl/7hRMXOzyEQUdYIMMVL8gIo39QWCSHuyMz25wTxZz0tO1IPh2CIAiCIAiCIAiCkOsUmuClQS/g54SfPa7poIEx/ZK5DTfng2o/9za2W5cbL8gthWvDZZE9/drh+kHubHk8XD953I778/Pjhy0LhJHFwwYuP/zaT15QWFw2hUe/wMs/NydduSyCzGzZtjsX3I3Lv5+MMPK9cPkNkhfFHueIBz9gRm74OeDmhN85vyZcZoDc46C0pV8y5/Br0h34ufMCbkgGHTAjv/zcBfcTFfIL7HBc8rzsXW69gNsw7rk70pF+gS2D3NtuyR3Z8YP8kD2dA9u/DZmTO4LL8QqLIHNg2wmCIAiCIAiCIAhCLpLoCl5O1AEy3PEjCHITxm0QYcNNMkwQNlwO9xPFn4s4suL4SQIKK2qYYfSMK5tI13+ugXjwI2niyCQ/YfyS3nTEJa6cOH446fiNQzp60m+QDO7WhvzT4QfsaXLWhZ8dCBMWmeO3c+fO5lwQBEEQBEEQBEEQcpmMTfAKgiAIQtLQ5Kw9kUvXXhO3cbj44otTZ4IgCIIgCIIgCIKQu8gEryAIgpDz0KQuHV4TuX52UTjllFNU165dU1eCIAiCIAiCIAiCkLuU0IPh/GVQffr0SZ0J+yI08ZHUBIggCEJRQM0W1Wd0ni5Vq1ZV3bp1UwMGDFDt2rVLmQqCIAiCIAiCIAhCblNgglcQBEEQBEEQBEEQBEEQBEEoPsgWDYIgCIIgCIIgCIIgCIIgCMUUmeAVBEEQBEEQBEEQBEEQBEEopsgEryAIgiAIgiAIgiAIgiAIQjFFJngFQRAEQRAEQRAEQRAEQRCKKTLBKwiCIAiCIAiCIAiCIAiCUEyRCV5BEARBEARBEARBEARBEIRiikzwCoIgCIIgCIIgCIIgCIIgFFNkglcQBEEQBEEQBEEQBEEQBKGYIhO8giAIgiAIgiAIgiAIgiAIxRSZ4BUEQRAEQRAEQRAEQRAEQSimyASvIAiCIAiCIAiCIAiCIAhCMUUmeAVBEARBEARBEARBEARBEIoppR7QpM4Ne/bsUevWb1Bbt25T5cuVUyVKlEjZuCH3W7b8qsqWKaNKltx35ow3bNyk/vPS/9TgoSNUswMbqyqVK6VshKIG+W7ilOlq9LgJqlH9eqqMzntg8dJl6j8v/k/NmjNPtW3dSpUuVcqYT50xS/3nhVfV6rVrVduDWhmz4g7Fae78hQXiKuxlyPCR6uU33i2y+57kPdq2fbt67e0P1CdffKPq1K6lateskbLZt9i0eYv64ttBpox7xXHZ8pVq5NhxaqYu52XKlFZVq1RJ2ewfIC+sXbtebdu2TZUtW1a3u/7tdKYgPdD+Bx2lS5cy+X+r1vn7n342ZbJBvbqBfQxh30TaLyEJqF386vsfpZ8ewP7Sh8gkxane+mDgF+rdjz7bp+51cUl/mT/wJhP91zDjBiG3SbrM7O/tXaHZ2F9/3aru+sPDqs+p56r/vf1+ytQbcn/ahVeqGbPmpkzTwxT+detNQc00CANhIUybbdu2q691p/HTL79R69dvTJlmBj89hMJMmDxVXXPb79Q9Dz2i/v3i/1Kmytwn3K8hw0epXTt3pUyVWr5ilXrvk8/V2PGTUia5RZw8T3Gy4yrsZcbseUV635O8R/APOZAHufsiO3ftUn9+7F/q9395TN189x/UvAULUzZ57Ny5U9s/ofqdfbG69d4H1Z2//7P67ytvpGz3H4aNHKv6nn6euuiaW9SatetSptmH9AhzwC148bW3zX274c771ehfJhiz4gY6opi0TpL9rQ8g7Vd0stk3ziX8yga1i9nopxcVaPcQ/127dqdM4rE/9CEyTXGqt9Dv3dfudXFJ/2zOHxQ3gvqvUftXQeMGIT6Z6Ot6EafMhOkbZKMOzMX+u+dy2927d+uB2Dtq4pRpKZPs8ae//8tMGmPyONNMnT5LnXL+5fmDz6IiV/QojqDzW9zJZp4XhOLALt0G7d5dcCLjg4Ffmsa6Qb066v8e/oP67qO31L233ZiyFYqKUqVKqnp1a6tGDep5HuXLlU25zgP3d5fumBc3Vq5ao8678gb11oefpkySQfoAQhD7az9hfy8br779gbrw6puL9GGeIAhCpkm3f+UaNwjxyFRfN0lkDs8b3/0U1qxbZ56ILFm2PGWSefCkAK/fZosVq1abJxRFTa7oUVzo1L6t+vtD96l7brtR3XjVZSnT4km287wg5Cp43e7uW65Xt13/G/XPvzxgXtMhUE7wdBfbAN17+03q2N49Ve1aNVSFCgekXAhFRf26ddXrzz6pPn/nVc+jR/dDjNvLzj9b378b9f39o+p+SBdjVpxYadrq5FfkSB9A8GN/7ifs72Vjzrz5qTNBEIR9lzj9K79xgxCfTPV1k0Tm8LzxnODFIBqFZs68BWZP02ytkvx161a1fGX2OrELFy9OnRUtuaJHcQH7Nvbs0V2df+apqlLFCinT4km287wg5DLVq1VVl19wjurUvk2B/Vk3b/nVPGysWaO6atqkUcpUKG5gQv68Aaeqo444zKz8LW6sWbfW7PeWNNIHEPzYn/sJ+3PZwGptDB4FQRD2deL2r7zGDUJ8MtXXTRKZw/PGc3SFSbO7br5O1ahWTX365bfqf+98EHvfL+wbhZUHPwwZrkaNHe87y41O7NZt4fawwKTz/IWL1fc/DjUf24mz98XadRtSZ+HAKgrE4eeRY8x+G34g3gsXLzH6BbmPogfk4lWt1WvW+k68kzsc9t5dPO2wDQfi5SIorLC6wA5ukAaufET7l3jZ23Eh93iFIOk9T1y6IAykE/IwOtsuHTnQMRN53g/ohPRBXoOuYdIFelF+ht+geHHonlDc4BcfucOHzew0gluUhcFDh5tfXHsBf/CPtPNLb8SP33/kscnTZpi4bNy02ZgFAd0hw74/CI/SMuj+EVQ3oEwFxTEISi/Igkyv8mkDf0H5jtLNK06Qwe+rjV2WXe6j1JM2pB8vf5wypUurcmXLpa7cwB/8B9UP5M5Vf4VJSwJ2CMvrPrnsk8i/UUEYYer9TEL5B3kGaRwEdOT3B37w4PnrQT961nN2nsR9Rt2E+ge/dr5CGJCFdEH62HmBs37DRrOFVRiiyPXqAwSVB4LcUZzjpBsHYUWtA72ALpARtW6Mkn5EVL0pDJRzlPewutl5DFA8w9Z7iE/Y8phEP4GH5+ozU5x4vWQDGV7ll+KPPDZr7rzA+8XvFQ6cu/J4lP4x/Kdb93OoXJEsuEU9jXja9wtucB/D3H+kHbXxfu537NyhNoccZIdNTw7p7NfXsqE0gc5+7smdqwxSuQsq2375Dbjs6d5y/eAGcUQd6JLjgvIzdIxSbyG+VA/Y94B0C8p3CAt+XfFGuqL8BqVdGEjXoPoPacF1hrtMtydx0x9Avl8dQHnTyx5hwx6/NnHTH7LC1g9eIB3DjI/i3C+4wT3i9wZ9UegbpX5Ihyj9Kw7dT1edFCfvuUBaJt1+Qje7roLfKPk+SC8XYcp9lHtB8lx1ngvojD5C2PrDi6hzeAgH4YXJz0iTMG00iKpHNiihI1cgdqgUbv7dH9W0mbPUfx9/VC1etkzd+9Cjxu5vD92n+vQ83JwTtvt2bfZ+qR6J89X3g9Wj//p3gYTB6mC8Yv/QPXfkr8Sat2CR+WDWoiVLTaayufW636grLjzHnEPuOx8NVE8991KBgXC5smXVhWefrq694mJVvpz/BMDTz7+iPv7ia10QVxfK2I0a1Fev/Ptxc37p9bfpjLvRLPv/dvAQ9faHn+S7RzzOPPVEdddN1xYIzyveWK108blnquuvvCTffRg98BoyB7fskX8+rd58/xN10nF91J/v/63zS6L4ouQ9+t7169s73w2+YP7m+x+rZ19+vUDDBd2O7d1L3X3LdaoW+9IgKipKA/v+giB7AvbX3XGf+QLqE488aFbfcqZMm6muvu1urWNp9dwTf1OtmjdN2eQxaMgwddu9D5rXsh954B61XQ90kO/wJf0nHnlIHd2zh3FHctq0amnCode3UZhv/t0f1KknHqf+fN9dxswLytPzFy3WcXrETAo88/JrBdLryMO6qUf+eI+qWqVyyiQPr3ufbp53QXE69JAu5r49/I8n1dgJez8mhrjfeu2V6twzTin0RBOTHNh+BR9h4BV4y2ZN1UP33qE6tG2dMvGG7j2enCJejz7xHzV8VN7+M4jvWaeepH536/Vq3MQp6qG//6vAxvcI57E/3a+aN22SMsnL1yN1A4F4cLeQddzRvdT9d95cIL0p/r+5+HzV/4S+5sNNaDAApd2Lr7+j/vmf5wvdd4SFL2vig10NG9RT/37sYfNFfzBp6nT1h7/8I18WgA6HdO6g/nTvnaph/Xop0zzQUD39wqvma528kTqkUwd1rNb7bzpdcI94fvQDZeS+P/2tQPjwd8WF56phOn3HjJtQIM+DKPkO+e3yG+9UO7bv8C1rzQ9sop7716NmxSyH0hTpfvM1lxfIB//40+/Vy2++G6qe9ILna6QZVu5CPvR24VVOUD/+9fGnVOcO7cz9rVypYspmL+MnTVHX3n6vaqnTgNxESUvi/of/bvKTly4u+zD51wvy69VG2ESt98MSVQ9AdXSVypVD+aH89tc/3K0ObNxI3avLBq8fkO8evv8u3aYcmjIpWDchTz79wivmQTXqOl4W0bFF+fz+p58L1IPIB9dcdqG64KzTVenSpY0Z/P9bl/NVqwt33vG1X97+RZEb1AdA3+N3D/5VzZm/wKTBicf2SdnuBR8Zuf/Pf1Nffjc4302cdCOi1oFexK0bo6QfJ4reKBO4n/iYME93pMs9t92gTjimt+9KoHTqvSjlMd1+AoBOYfrMaBf//uQz6rV3PlRHHNpV/d+f/1DgvuB+/uX/njL7oN9yzRXqiovONWnkdb+aNmms/vL73zr7E2jnHvzb46Y+4KBvgC1cuh3cKVT/uKLWzx6DxK37XfB6+rBuB+ty9Ii59wBpg37F0Uf2MGnG+4m4/6f0O1bdc+sNBdIQ8QgzPli3foO6+4G/qumzZpsBs43dpwmTntS3Rb/5H3/+vVq8ZFnovi0HExRX3XJ35DoJRC3bQe2Fy57iSX14TCI889L/TNqHaavi1lth+tV8/HbJeWepO2+8OuWqIJSH+RgP9cYzL/5Pvf7uRwX0QtrdeNXl6pzT+5t8RFC/w+4vgtlz56s/PvIPNWFywe/s1KlVU9150zWF6r9stidJ9Kk/+/o7M/7FWBPfa+B1MO7BH/76D/Xx51+bt0B/p8sojyvlH0wE/ef//mLCBVHSn9oHjH2fePQhXY8MK9DWIP5IY4xrvOoeTtTxUbr9psf/8kddp32Qls5euPqNUfpXLkimnS9QJjGe4mNjgJW+f77vt4X68i4Q/0y1n3hDg+qq5//1NzV0xCj1xH9fKlAnI/89+sA9qm6d2imTPMLqxUF6QIehI0YXqKN4uR/41Xeh70WcuQQsAnvgkcfNBCuBPHfDby5VL+l8u3HTpsD7HaVvELW9g7xMzuFli1IPaFLnhh07dqovvv1BrVqzRndOjjOdAtzkCZOnqhmz5pjXKitXqpRyXdh9bZ1JADL6K2+9ZzISKs6zT+uvLj3/LNWn1+EmcceMn6i+1P66dumo6tauZeTgZqPSWLh4qapZo5qptDrqzNGudSutR0fVpFFDI/c/L76mC8CLZt8/dMTvvvk64xb+P9IVNm4IbhoqIy/QQUGDiUKBTjMK42FdDzZhtWtzkOp+cGd9s3apjz77Sq3VHa3vfxpqOiaIw9m6EocuU3WHcvzEKapixYrq4E7tjVx0av72r/+ofz7zgjqgfHl15UXnmQm2zh3aqsm6I4IJMKRH90M6m98wepSzPk4Dfyhk2I8SOvXS96Rm9Wop2zzQED2pK4nFS5erW6690lRiqFwe+ee/zVfMK2mdSbcjDuuqlq9cZXT7SRc8fo9xr5AGKOT8/hJB9kQ5XRhQuEaPm6ALUhXT6HI+1RUKJlKxSqV1i+aqvY47gXv+4utvq2m6A/ubS85TbVq1yM93qFzQcaRKGg3Up199awZHMC9TpowxxyAJE96ttd9jjjrSmHlBshcuWqKGjx5rntycfepJ6sJzzjD3ER3pGbPnmq889jz80Px8lqk87wXFadfuXboz872poFHxoIJGPkQHbsToX1Szpk1Ui6YHpnzl+bv+zvt0HOaoM04+wXQeMUBs3LChbiR/1joOztfRD7r3SKevdAe6Vo3qJvwjD+2m5i1crEaMGafKly+n/u/f/zV2t153peql02vJshVq5py5asr0GeZewA14472PTIcMeYnSroceUEEWJjWX6Lx8TK8j8tOb4l+lSiXz8GWmvif1dANYVV/3O/ZoM3n8y8TJ5h7a9x3u//jX/zOTu+gMoCIG6ATccNf9ar3ulF1x4Xnqj7+9VXcATzNvNKC82eUD6YwyhY4QGpMrLz5P3XDVparnYd1NHNH4Il+gA8vzoxfIW9fpQScerCHut177G3WBbqjr1Kpl0gdP4AHP81HzXYUKFdQk3XGdNG26b1nboBvZw7sdoho1zEsbAHn/feUNM+C8/jeX6Dq4Tn4+WKHrkG8HD1Vz5y8MrCf9oPtKaYa0P+CAA0ydhTwAHRG3rp07+pYTdBjQqZ6rO7XoINluIOelN94x9xyT50ifqGlJYLA6XbeP2GfWFUeXfZj860W+Xz2oPePkfibveRGn3g9LFD0IqqPRJoTxQ2UY7fGrerCB+/4bXc6OOeoIs7Jt1px55sMG/J5QnkTnGW3sh/ocdRDyRId2rfVg93C1bMVKdd2d95p72rZ1S9O57H/CsapVi2Zmhd73P/5s/FJfYpMuD2ifkEdQb6PjijSjtvrQrp1Nu4xtRKLIDeoDoM7ctHmzGvXLeLV16zbVt3fPQpObs3W98J8X/mceUl2nO/UVdHmJk24gah3oRdy6MWr6EVH0RrjPvvSaekGXCYTx4O/uUDddfblq1qSJKacLlyxVfXoeYQZKXsSt96KWx3T7CYhr2D5zKZ0P2x7USv08aoyZ+MGgB5OkBCbKMPFyaNcu6vbrrzJ9U0xAXnbD7abtQpvF+yAYNwzRA9beR/Yw/T4CEyc33Hm/WqT7hIfrOhF+kAfq1K5p7vtS3a9FW497GdQ/Rh6wxyBx6n4vqI6bPW++efh5fJ+jzH2GzIlTp+m2crb5XskzOj/1P76vyeeYNMaEM+IP/ai/H2V8sGf3HrMlB+pWtHtldflA2J3btzXx79yxnblXIGx6Auo3Y0CO+Ifp29qgflm9dm3kOilO2Q5qL1z2KDOI57LlKxQ+uISHL8jLKDutmjdTx+v86VW249ZbyCeh+tW6jafx2zpd7o49uqdJGw7yO/II0oLGbxjT4SOLb3/4qe6ztVJ/vPs2XQavNmUOZRCTlQccUE510eUVeQhQvwN68oks5Bc83FiweEmB/IJx0wRth0l59Mu5rGy1J0n1qZGmqJcx8YK6HHUCgXoP5RWTrxhvoFyhPBIzZ88z9QP6YJecO8DkrajpT+0DXnEfr9Nuxqy5phycrvMGtQ9Tp89UG3S9ZrdlLqKOj9LpN0En5BHUEaQz1Wkop2F19sLVbwzbv/KCZPJ8gYdkt9/3oMnTp510vHr493eb+rZsmdJmshx5gudxF5luP6muWqrrRpTHz7763kwiQk88AMGKXNwr/KLfSvVWFL3oPqH+RVnEw027/p2i7yvubR89Tt6ze3eoexG6zmP1AdrQO+//sykXJ+pxDvZNPu2kE8ybmShzGFsiXfzmk0BQv5n3DaK0d1HaaPyG0cOew8sa+gYWQBf8PVfedNeeI/udsWfy1BnGbMPGTXuuuvXuPR2PPM784ppwuQejx03Y0+O40/b0PvnsPbqTkzLNY7ducZ9/9U0jD34hg4AMyLLNiZ9Hjt7Trc/Je0678Mo9+qalTPPYsWPHnjt//2djP3LMuJSpP/f9+W9Gj0E/DUuZ7GXFytV7Tjz7EmN/z0OPFNLn0y+/3dO51wl7Blxy9R6dKVOme/ZMnzl7jx447NE3PGWSB6WJ7R746eFCF749N9/9B+Pn6edfSZnuZdzEySasi665Jf9+kb5eaXf/w3838v741//bs2PnTmNOaWDfXyLInqM7dXsO7XvKnguuumnP+g0bUqZ78xDyCux1BbRHN6Yp2z0mrZBmfU49d8/sufONGfmx08wr/8AN3CKdg+CyL7/xjj26g5CyyYPuI9cHZCrPe0FxQn5/472PTRgED4/nAco3yAcvvv52AT+A4nDrvQ8UuAcu6N5DFsLauXNXymZvnA7ufWKhOmPRkqV7+p93mbEbNnJMynTPHt0Z3/PfV97Ys3TZipRJHvMXLtpz3IALCqU3xf/go/rtueKmOwvdJ4ByCDf8vg8eOtzoduLZF++ZMn1mynTPHl1R7znz0mtMeuqGOGW6Fyo/f3/y2ZTJ3nLmuucoU0/+9yXnPXeBMnf3A38x7h989HHjn6M7t/n1Ec/zcfLdwK++NWZ33P+n/LIOlq1Yueekcy7NL4t/ffzplE0eSH/cB16Hxa0nvaD7aqdZlLoGIO6P/uvfRhbSlccTLFy8dE+/sy42B85B3DJM9TfymwuXfZj86wX5RXogXfyIU++HhfQ44cyL9ujOktHFPlatXlMgL1PdEEZ3QGUYflB2OVx/fo8hF/IR72NOO7dAPQPgD30F+HOVNV5HffPDTynTPEgf171OR65fHwBlH/FA3kSdY4M+APzyvkCcdItTB3oRp26Mm35R9UaehJy+p523Rw9SjBmBdswO1wXlMegapd6LWx7j9hPi9JmpHkSeQ94DlPb2/YSMN977aM/oX8YX6E+QbMTlnQ8Hpkz37NGDzj0XXn2TSQNXHwRxs/sefmUD7pEmvF2IU/d7QXUc4v3LhEkp0zxQxhAP5Ec7Ll98O8iY2/c/6viA8plXfRklPSmtEJ8ofVsXUesknh+ilO2g9sJlT/FEmhx23Kl7Pvrsq0Lp4kWceitqvxrur7vjXuP+82++T7naC9orpAPvu7/94afGvd2fBpQHjj39/D1z5y9ImbrLTVB+GT9pqklPXp5AttqTpPrU0AH9W7hFf5fz/U8/m3BR/pHOdv8A9RX88f5v1PTn7cMdv/9TIT+Uzl7lxybq+CjO/UpaZy+oTnWVadIbv1EgmTxf/DRshLlnKHd2fYNrPmb1ItPtJ6+TMTeC+8whf4gHryui6kVmCMdV/6JessuT372IM5eA/IQ6zcvP0BGjTf7CweseP8L0DWAfpb3LxhxeNgj1+AUrB/DU7cDGDc3s9Stvvmtm9r2A3dffD1abt2xRA045UXVs1yZlkwdmvfv3O1Y1btjAzKjrzJ6y8QdyP/9mkHmCde4Zp+a/Uk3gCfJJxx+jdGVlXmVOCjypuOjsAYVeBenSsZ15wqAzjVl5QRzUsrl5ioEnlBy88tygfl21fMVKpSvplGk8sDwcK0UQ529/GGKeIhB56fS9Sf+TjjvG3D9dwIyZLlDqqkvOd6bd+QNOM3H9cdgItWBh8htGN2vS2KwGxCpErHYhFi9bbp5Q4Uk2VitNmT7TrPYldGEz7vFEBCsus8kl555V6NVlvNKOJ7u6gKsly/L0zFSeDwOeEJ524nEFnkLi/IS+vc1qAXyBWXcCjPmcuQvM6gnkxVP7FfQD2rZqaVZ0Tpo6w+TrMCCfH969a4FXww5s0lC1atHcrFaCbsiDBPJeh7ZtjN2UGbNSpsroirxZr27B11BgfpCWhTcJFixakjLdC56u33z15aFeMcdTabwqhq1AHn3gXtX2oJYpG6XG63uCfIgnc8iHNjDH02E9yDNP/gGeDuKen9D3qEKvoqBMIZ5hQZnDU2Xse36+4xXkBnXrFiq3cfMdnjIjvfDEFm8BEFhFunT5CnXRuWeYJ/ZYoaM7rylbpcaMm2juA55K8hURIGo9mWkQ9zP6n2jSc/ioXwrUOeCnYSPNk92jjjhU39e6RVaGo+TfqGSr3sfKgHMuv071Pf28QofugJrVK+mC1QtYRcCB/mf072eetE+cMr1AOwgQ7zNPOcmsnObMXbDI7BeGugWvydllDeUceQd1FFa0oM8RhkzJxRsY2J4IeRP3E3mVQJzRB0A+P67PUSnTvURJtzh1oBdx6sa46RdVbz2uUPbrdATaMTtcP6LUe9nuh+X1BaP3mbHqFau9sDryyWdfyltR+J8XzApivLnB60aj85mnqa5dOhXoT8D80EO6mPPxk6eYX4DXtadMn+XZB0E6+q2cDkPUuj8MaA/RD+EcqvMVVp9hGyOsnOJxObhje7Nyye7vJz0+iJueYfu2XkStkzJVN/qBcobtM04+oW+hdPEiTr0VtV+N8Ru27wCffvmtqRcIpOOgIT+bdKDxG1ZWYrUrVphdcu6ZBfrToFrVKuqYo3qaegZ9Oj8ov0CfM3U/x9a1Y7vWqk+vI3Q9uUl98uU3KdO9ZLo9SapPjVV1WEkHUN6xMg8gfYePGqNqVK+mLtflECsHfxg63NgB5LvBPw83YSHvgHTSH3X5FRecW8gPXj/v0e0QE1f0+4NAuYkzPorTbwqj85jxBbc8yEV27txt6gAXSAM+ZnWRjfaTc9UlF5j7yUH5OO7oo0w88DYxdIqjF9W/XuNLtBF2H8aPOHMJk3Xdg/Lh5QdvV2BVdyaI0t5lYw4vG4ReX49MdvM1V5hM8Mqb75lXSr3Y8uuvasbsvL12sGehC3SIMLmCRmzmnHCDP+zLgclBNI6bt2w2y93tAx056LhiVeYnEvChHzQOKHi7PQYLHOhVvWrBSZF0wMQeChD2wcIeIwS2Zfjx55HmnlGjun79BpM2qLjxGqKLRg3rmb16wnTu4oAJIUwM2Y3D6F8mmNfB0VlEg4yGauqMvfuIofFDPul9RA+ThkUNJgfRMOK+owEBmcrz6YCK/MBGDU3jsmp1XgM+d8EC03FDPsBknV1+8Drl7j271a86Phs2xNuIHpTQf6VSr4VUrFCwk4BKPahh5eCeowPlRRudphh8+YEO9GDdibvpt38w1//86x8LNbITJ08z97RihQq6/IwolDZoHMuWLWMmPLdt22E6fei8gu56IGs3VlFB5wx5H1tqNKhXJ2XqT9x8hwcleGCCyVwyQ6fhp2Ej8jqrvY406bNId0jwmitAB3nEmF9Mx4A6vmGIWk8mSbMDG6se3Q82r9B+o+8hgTKBQSnuNQZRuHdFVYbD5N+4xK330TE96ZxLVaeexxc4YAY7G6Tjycf3Nftu2wdetapaNTOdNtBQd24xWFu/YYNanarnCAxQ7MENwAMv5AnUj6gnXWCCDvU83G7S+SUMmZKL/Il8mlc3YXJqecoG7eM40wdAPkd+D4sr3aLWgV7ErRvjpl9UvStXrmg693j98De3/Na8Xos6IUlc9V62+2Fx+8y4X+eccYp5MDJYpyf2AP7ux6FmEnNA/34pV8G4XrHEa5GoP1HHoj7NFFHq/riULFHS+Md9xv3mlCxZKpLsuOODJNPT1bf1AnGLUidlqm4MAnu2YrIvDHHrrTj9ajz8wITBLxMmm0UshGv8hnTDHp1oz/Aw1ZaPY4Oux8Hylf4LMyi/4L64JlMQZ7z6D3APsc1RGJJoT5LuU+P1cEzq8ElM1Kujxk4w/d+jDj/MLDqaOGVa/gQzJqOwrQXSB1u7gSTTn0CexCvcAPk9LkHjIy/8+k1eQGdKEywcynXQlmL/0+8GDzVbCWBhBvJ+WIq6/SRoL1pMKqI8xtGL6t+DWjVXjXTdki5x6jws6EL6Iw8h7xU1Udo7ELeNLirCz7JoMAGHpw94KvDwY0+aStHFli1bzQw3bjz2BXWBioL23uQdAz/QAKAhwGTNE8++ZD5KYx/YVPzXrVtNAcOERVGCBgWbVeMDU+ddeYM689JrzN4nSYHGBh0sZE7+FJhWJ2DfSFqdsHrNOlMpoEH32teEZ/aly/au6ksSTAxhgmjs+Inm6RN0xqQSNabUIA/6aZiZUEJnHKsI0SHsEmL/zqIiU3k+KRYuzlsJRJ0PNHR3/qFw+cGBCfeiBPccG+ZjH66Lr71VnXTOJb4PlDCRjAllP/D0/aa7/2AauG6HdDKTajbUEGJzdVe63PunR82+xqhb0HBt1p1RdPZQZpJorNCZBthPG6s6wxA336GhwgMTlHXs0wx4xxcTwCirqOuHDBtl7LHSF09fmzZuZPZsKg4g7thjCnUOf9MB9TDighVY1GEtqjIcJv/GJW69jwcwWEnQSOcDfsDM9XAGD++wp9gffntroQMfjMJgNVPQRMoW3fG1V5XCHJMwNrTSBathvFYtlMcEXZnSppxjb60wZEouQD7FXq5o29HGA7SfaPsxwYQ95pA/w+JKt6h1oBdx68a46RdVbwyM8OEprLRBmcdHQnqddKa66JqbzUSE1+redMl2PyydPjP6lzf+5jKzigVpgkkE7NVpr/whMHBDnfr086+qW+990LTbDzz6fynbvdBkRpPG3vsGJ0GUur8oSGp8kK30dBGlTspk3egHylNY4tZbcfrVmIzH6koseMEHjwjX6nJMkGCiBGUZHwZ2ycdHtcJA+aU5+y6HDS3KQB6lcWUQSbQncdPfC76QYe68vP41Jrjn6TRA/xd5EYuOMKk8S+sBMK+BSd5ueixKE6dJpr8LPGgMO5EedXzkhV+/yQ/sMwuwv20Sq+wzCT709eDvbjf90+F6nHPZ9berw48/3Xx8kH9wzotstp9+UB22dv16k+Zx9KL6F2ObAw7Yu990XOLUefRQAN9ugV65Tqbn8DJNpAle3BC8itX7iMPMRMmTz71sOqteIFP5DQIIe4P5IDAAf+v5p9WEIV97HvgyZ1FlIEyE3H7fQ6rv6efrgcPfTSbHCi18sA4f1EmSPrqDgMlRegpMqxMwIYrXnew0MPdkd96rKn5UqJB+BeACHULoS9swYGP4aVpveuWbGmS82oMPJCzUldLc+QvME6zG7GNPuUqm8ny6YNNzDr7A7Co3dAz54oP8p4bZApuu//Xxp9VRJ5+pB4gPmI+koCHAK0G1aqT3+vrxxxylPnrteVMGMdjDF8x5Y8zBV8ldaULHZ2+/XGDT+FwgTr6jhym0DQO2Z6COLyaAqaxi1S46gFixio5y90M65cTT17BgEgcHvemAB0cDv/rW2GGbG0z2cHK1DKdD1Hof9/elpx5Tn7/zaoEDZrl67w8oX05V0p3qKGAiz6seIDCgwSqjKGRCLvIptg7BAAFtPNp6tPlo+/Gq68E6j8fBlW5FXQfGTb8oeuNhxUtP/0N9+L/ndD1wsqpWpYr5MMqNv/29evgfT0Ra6ROVqOUxXeL2mcdNnGTaZeQ5PAD8YeiwQvcF9wqvi6K/e/5vblRvffCxeRsC7TY+iFuURK37s0E2xweZJk6dlKk6NxeI2q/ufeRhZnUrPYCg8ZvX6nJ8DPi7j95yyqYDrxaHAR/fCgL3N8rbdiCX2hNayIC6nLZhGDJ8lJlsQ/8X8IUMyJd4DR5bMfQ6/LCMpj8nzKRbpsZHcfpNAB/Fw4cfc52ePQ7V9+xN9cQjD5kPjoFPvvhGnX3ZdeqbH34y10Fksv2MAh4M83oxF+bCcnEuIV32lTY6Ws2tQYV/963Xm30rsB/vP55+rtBTHOxJhT1B0FjhS9Uu4AdPgED1auFeL8CTELxOgQKzZl24VwqyDQrxjXf/3jyFvemqy9TQLz5Un7zxgvrzfXepe269wfO1vLjgCSS+WIynwOgY0OoE+3VNrBZB5YCJmpWrC79iC3BP8IQIjRu+/ghKloz2On0QaFjxZJS2YcDSfuQDeuWbGmQ8QcWTVEz04jUANLZF0RkPS6byfDrQ/UTjUj71FceDWjQ19zfKE+NsgCeR9/3pUfOF2rNOPVn98Ok76sv3/qf+9uC9ZhUgXt1LB+Qd1Fl33XStGcj/+/lXCz31bt0yb3+9sPseYvCNSQI8JU1nOwuiSaMG5hd5ZPu2cE/G08l32EsIA3DahgEdYN7xpS1V8CrQ7LkLzL5lXh3fXAarhc489URzjpVF+HIx9mXE9jb8C7fppGWUVULZJG69X5zAQ2bUH1j1HnbSHa/GAtxnTEa5QJphdQvqTqwoCkOm5BLYwgj5Fm082nq0+ah/sJ9j1PbRlW5R60Av4taNcdMvrt6ox1o0O1D9/s5b1Hcfv6Ue+N1tpg+CVwyT2DfaJtvlMZ0+M/pfL772jqpZo5p64O7bTLv5yhvvmT08Oe9/+rlZiff/7Z0FuBXF+8eHxgIREaQE6UYBRcHAbmxFxda/3d0t6k+xFbtbLLARRVJEFJAOaZC0RRD/85173svcubt7dvfsOfcc+H7Os8/ZmHinZ96dndm6zlbqreceV0MGvqWe6NvHtNvHHt4zZWodMnMQLxQzGeyGIWzdnyuyMT7IZXx6EbZOilu2y+vxB8pCLohbb8XtV8sMaHkBgRlumE2Ke/bs8tpbbWn6Y7//8YdatiKzsa/kF/Tr/PKLrJm5ia4/KlUMp8RLoj1Juk8N8OUnJjyhPsOu/5jQIF+pAZnIgPuY3fzjpKKv1Oz9OZKMf5ufU2uzb7pJsII1G+OjOP0mIDKjbSqUcQDGwLt376oeu/cONVjHHZYTQzv7ev8PzLIgfuSi/QxDcXnU7RnCEkcuqX/x5SH0RZkSp87D0lNAZvbnI7nW4WWTWK0mBsG3XH2ZeXvw8aAvS01ZRqdK1hQcrRstr0YE6/jh0wy8qfRb79AFb7g66k4ZPl37/MthxYum5xMTp0w1DfRu3bqqk447ysRFtsEmBmjABg8dofo997K5Zz5NS31KAfDWAQouKC+wHpEXc+bNNzNq8VawUSoTo5NVu1atWBWcF2gQoCBCJYU3qVjMHo2r3ZmBggmzxLBMw9CR35h81iFkHikrspXnMwEzLqG8Q3piXVeAdMX1RN0Zxxo9+QI6XmPH/2gGCuefeXLxp1FJg07btZedb87dZWaQJkibseMnmDd46UCnCJ+tg5Hfem/qiPWtwoJN1JDX0dn3UjCiQ+I2zJnkOwy+UBbRmR4ybGSpji/Aixf4C2X4t9+PN3mnUJZnsLHXu3vsmRd1XbbSzJDBZ1RCJnEpn8dmqhhLmrj1fiGBMowXhkjfOnpwGAa8TMHsdXy2ucBnswRZrw11UvWQ9VG23BVkWSbYR1uPNh/hls2souAVb1HrQD/i1o1x4y8JufEi+5D99zF9t2xNIsh1eYzbZ4Z8+EJvpU6ji88+wyjrTjruSHNd9OVe0fqoGNihbYBS/IoLzjabk6Qb9LfWbTD6f9/r9j4XS1WFqftzRTbGB7mOT5ewdVLcsl2zRg2jAEtaueZF3Horbr8afTDZbA3rhOIlBPp4B+6zRwnlOOICcYKXy5hhmgmSXzDTGsoMF9QRY34o+rQadUfYz7mTaE+S7lMDfPmJGYRz5y9QX3w93KSPfKUGZCIDvhRFXYav2Nq0al7iS6Uk41/AV3PQnUBJtmNqzWM/sjE+itNviiJzvgLl6Lmnn2heJCxessSMf/zIdvsZBtSHw0cXLeGyfYd2Jt/GkUvq38lTpxevc50Jceo8jK+Qd7BMCvKSC178/aPHm2VJWejwskXs16LYafO03seaxPLiyJ4HKCxu3f+Dj0vNlMNbo6deeNWsM9S9axdTabngU+DfdIMO7E968Kk13B346SCdsb8uNQjH4BtrkmBdtSjI+pdwD/7FRXZt/Bef31mywV18DuAqw13iyAEFKWbsogGF+4hPd3YCKoXjjzrU/Pd79iVTudtgvatHnnq+uHMhaz+hIsHMDITpky+GmMpGwJuvB594xqyZFAUoiFAxjPjmO4VF9mV5BkFmFkK5++3Ycfq8qa5Mit785DPZyvPpQGU0dcbM1FURSE/4h8Zr/712L15TFOmKtZkxK/r+x58y5mwg51vvDTTlK6z/SYBNaJDHTNlx8j2+FJB1YJNA1hJHY3vz3fcXd3LxkgHr8qGxelyXEcSFDQb9T+o4xVpOAANZNALoLH/8+ZelyhTk7vvoU6mr9CCPI6+j0/XSG/1LlbV7HnrczJJxySTf4cUJlMrvDvzUvAywO74AZRWzGd778BOjvNy+Q1vf9WnzGax3t9fuRTt+48WSvYGJTdy4RB2MthADIzwXUIbwOZjrVq6IW+/nI5j5AOWXDa6ffeUNE/eHHrhv6M4Y0mu/PXczyh6UK7fDDWXJG+8MMINTfMrttbYtBoRSR0oHOwl30/UBkG+Rf9HWo81Hvg7aXClKvEWtA/2IWzfGjb+ociNuIZM7yPhNt4sovxjc162z7kVXUiRRHqP2E6L2mfH8rfcHqm/GfG82hUF6ID0xcwz1P+7jOczhkA3k7PYKoB174fW3UlfrgNIHyyYgnlGf2mkF96BAQR/ElRPE6R+HrftzQSbjAzPrOzWTy073TOIzKcLUSXHLtnxZA+XaMJ1+djiQx+7v97TpzyZB3Hork361vIAYMXqMUUAiHju0LbnfCOIC6xmj3njh1bdMXNnAzTHfjzMK9nTKI8xo3UX3X6bP+snUNXa5hTuoI6BsxtehB+27Z+rJOrLZniTdpwZQlHfWY0zknzffHVDiKzUB/TnMHH/lrfdM+dxj125GFiGT+EcYkbZ2fYXz/h98ZBRdbVs1V9u1C95fJpPxUZx+U1SZMVY/rPcZph1x24G4ePWvooJxk7w0soHO4lddRjGjNN3yFNlsP12w7IZbf2PsgPRFedxrt26pJ9HlwiQUbCqIdhDl3q2jkK7P67ztllHglRZx6rxWeny7jZYDsr2rx5S2zKjLb767r5kRHIdC1uFli9jflSLD9j76cLNG6lvvf5i6uw4sbn3RWaerW+6+X11x4+2qU4f25g3CvzrioNSbt2Chmclw8Tmnm8pcqFmzhqperZp523bu5dcZRR8qsKsuPtcoZuDuVRedq6655S511c191HOvvqlaNy9a32Pi1Glq8tQZZnF/fOKCNzTpkM9Vnnj+ZaO5xyYYFSuUVw/cebO5HxW8oUADjYJ6+70PqZ126KRWr15t3szOnb/QzI5DRnYJkiPdoFUaHzTKmG3nNzsBu5KefmIvM4vh1PMuUzvv2Nls6PSPlg/T0THYwa6PJ/U6qrhxw//RurP19fBvzE7TqATat25p7CBdNttsU/OG1OttjB9QEKGig3tIezSuNjKzEJ1xADnDDtzLkmzl+XTgM6pLr7/VKJzMm+g583ReGOqbnmefeqLZUAB+YIH+bjt2MW810agPGzXadFCwbtEeu3QL/fY+UxroeGqsO7no0N10V1+jlAbIl8gHDevXMwODJHDrroeffM5suIN8h+VnsFtu/wEfmU4L4g/rTC1bsVINH/WtKV+9jjjExDNmfCHvorOMWSt2mUJdBIUo3txCeRoG5PHTeh9jGhDIhRmzqMcwSwrp0qZVC7Vjp45qlO4g2MTNd0CUyvg80GsjQyg6sObuq2+/bzqDbse3kECHCJ8TYxauvYGJTdy47NyxvdpBpw3K1HFnnG8GvMg3yAdYa7yVbqMwAEgayLPnocemrkqDte9OPPaIyPV+PoLyhI0Odt15RzPTHOu4Y1kRdOKPPOQA05EOC8KJOMFn+Eizw044vbisL12+3MQL+nYXnnWqUZ7YiDIfa3nKbKJ58xepR/93u+mEx3U3bB9AOtYvvfGOKbP4gieIKPEWpw70I07dGDddosqN+D3rkquNXfSdOurBKmYIvvHuADVx8jTT58nWplVx+mEgbj8hap8ZM4uffvE106+76OzTius59CnPPf0kdd7l15tPTVHntdN9QTNo1e3Hbf97SJ14zOGqWrXNjELn1bfeM+2LuwwJ8jLS7/wrbjBphQE45N9ss03UEN3PHKuvm+g6dtduXYtfJmbaTw9T9+eCOOMDUXCirsdmNojv736YoI7seaBZ7zNKfG668cYpV5MlTJ0Ut2wjfMccfrDpF2H221BdlhvrfCX9VeQN+JkUceutuP1qeQEBBSjMoI7yyp9YaxUTEx54/Bl1ynmXluibYHY6No1Cfw2fordo6r/2NerKi885wygi7H4mNnvF2AH5BfUBljNDv9sl2+1Jkn1qoWun7cxEBnk5j0lENviyDxMZoPRuUK+uCZdL3PhHHnjvo8/UR4O+VD2672zuDR46XJeDmSbfXnnhOWln5GYyPoqSXjZQAoaRGeOTF17vb5R2WEcadS3aprik619F4aU33zHju0YNG6hjdR1iviDQbdMrb71rlHhH6PBDaR9EtttPm/c//sy0pT122dksATds1Bjf8hhVLuiJzjz5OPX9hB/NC5UjTjzT1NOQE7PlkZfQv8BkQcm/6dIiap0HO8cfdZi6476HTTnC5ouQGXXBiG/G6DZqR/MVEPZfCsv6oMPLFhktbISMe94ZJ3vORgSoiPvd38c8/1YPbtGYvDPgY1MRnXD0Yeqlfg+ajosNFlq/+uJzzIxOVCaY/YQ1y7B+iYC3Iq89/Yh5c41MDHdxzJg521TeeBb2Df1RupO0/1491N9/rzI77U/QFWgmnyDj85JrLz1PN0g1dIfyI7OT4E19+poC9vyj95nBNgqMS6Zy4E0U/ECBxMZrXpgCftJx6p5brlVb63gf/PVwE2+IY+zijl3QH+xzcynlMCqh2667zHS2kSaw88mgr0xF/rJOQzR0UUBnCIoixAOUJV6NKRazRkOCRhmNc6GQrTwfBPL6XTdeozsY89U9D/Uzb83QeB935KHqvttuKJWeuEY6I70BllmBnPjHwvlX6wHjfbdfnzPlLoBMULJiJgPy5RU33qGuvqWPHuz+qstNX3XBmaekbYijgLoLnVx0Nvvr9Hnxjf7mjRvSBmmEuMMbSaQF4uYr3SHCmkcoO1dccE6xYgMd2DtvuMqYX/PvmuIyBZ5+6H+649rT5OGw7NSlk1knCh0SdBiRd4aMGKXdP8ykWYtm69YFs4mT7wAaHnSgQYe2rUxjb4OyKkuqoNHzKquFAr4aaFi/vkmPnvvvW0J5YhMnLpF/b736UlNvSb5BvqpcqbJ68fEH1GknHO1Z7+eCuPV+vrHvnrur88881XRE//fwEwobO2FQCvmvuPDs4o50WNC+INynnnCM+dJByjqUIk1057lf3z7qZA+lNwafJ/c60pxjN2vIg3VcK1YsmnEW192wfQDY69i2jUlX7MKONj+IqPEWtQ70I27dGDf+osjdtlUL3cbdaJafglJK+ml46XfZeWfqgdM5Jn6zQdzymEk/IWyfGQOy+x9/Sq1a9Y+64P9ONXW+DRRvvY85vMSnpr2POcKsaTh3/nyF3aYRlwM//cIshdT3jhuNktcFfcqXn3zQ9FVh76kXXzUz87Avw3FH9lTPP3Z/iS9FMu0fh637s02c8QHa6Et1nkSfAEpepDs+Y61bZyvTZwFR4zNpwtZJccs2FNaXnf9/RtmNF6WwAwXC/518vHrknltV82ZFa70mQdx6K5N+tSyzh9nLmKDjlT9xD3GDOMI6kFAEwX30TbCm5REH7282XApS7gook88+fK867KD91MJFi40bcAubQuEFAuoD1BleZLs9SbpPDWQiA8oW8if8sJGJDADh9yorceMfZft/OowN69VVT77wiur33Evmq0u8VHz6oXtKKfm8yGR8FKffBCVdn5uuNvGcTuaqVauo5k22NXGL9iLTeiZd/yoKqE8RzmXLl6s+9z9q6lsorlH/YpzlpytxyWb7aXPjFRdpP1qqV956x8y+RV2HNH/4nts8X+JG1YWhLCK/4OUgyuLLb75j4gVfU++9+66l8m+6tIhT56Et73PjVWYNZ7xMh3nMiEdevPXqy0qNQdOxvujwskE53UEo6iFkGUyRR4ZCxODNj1cDZiPmK1WqFFiZR3XXD0wzh5YemS7qQNELRCs+CcFboihuxpUDM+zu7PuwOuuUE9Q5p52YuhsM3pxiIfsqVSqHajDjhmlDJVt5Pog4+Qd20CBhfcAklahxyRd5ouZ3ST/MWErijR3iAW7irWo6ZYpNUnXi+gZmOlxw1Y1qnx67qNuuuyKUAidOXOLlyh/6wGC0rN7cBhG13i9rnnn5DXX/Y0+Z3Xqx0YGUS5Bk/o5a70g6pzMf1V2YD6rD8ekbdvjFrKHH77vDd7OoJOItqTY/k7oxTnsQRW5JRwxayqK+jFoeJS7j9hOy1T7ErVeihCdd2fAjTt2fTeKUK3zuiVlUSK+gdMs0f8QhbJ3kErVsSxyAqP2iOOS63opCUu142LxYFu1JJvGfbeLEv9jJpG8YNl/FSS984XDSORdrP35TT/S9y6xdLDIH+Qe3IRfCFaVeDiJs/yoMEvY1a/7NuF+edPuJcKJtwguDB/vcYmaAx8n3UeUK256AbPR149QfQcDvQtbhZYPsto4WCCg+RcHsgzAJKebTVZxR3fUD/sCdpBIEskCmqG7GkQNriOLzM7wBTve5pg0KYK0ttwjdOMUN04ZK1Lwp5sOmhxdx8g/sIB9k2ogmRb7IEzW/S/ol1RFFPGBmQdRBTNR8tyGAASjWXwPuBpRBxIlLpD/yb1L5IGmi1vv5hpTLpPN31HpH0jmd+ajuwnxQnYNP9rBcCD69szcnTUeceBM7YetAPzKpG6PGH4git6Rj0vkpLFHLo8RlWPMuYj/p8EYNhxAlPDATJk1t4tb92SROuUI/AP2BdOmWaf6IQ9w6CTJGKdsSB3H6RXGQuMxVvRWFuOXNJU5eBGIvSj0S1a9M4j/bxIl/sZNJeOLmqzjpBUTmIP/gXtIKLWmXo4bTCwl7pnEPJE9GjccoxMn3UeUK256AsGkRJW9KmiQVj/A7bL0SBpEvqptJy5EJOVPwkuwxasxY8/kE1k5J97kmIYRsaGDH6G/0ABTLLoSdXURIvoENLrB2/eo1a8xSIu6npoSQkrDuzy6skwghhJD8ggreAgdT599+/yOzmDY2C8mH2QmEEJIvYAD6zoBPzJp/GIDm+1qzhPgxddpM87k5NoLYsYDWpiekLGDdn31YJxFCCCH5Rc7W4CXZQdZdyeV6W4QQUihEWWuK5B+y/lehrBmcTaKsS8d4Ixs6rPuzT5Q6iRQubE8KizjpJfUl1EL5sIbohoCs9Yr1gVmHkiShgpcQQgghhBBCCCGEEEIKFC7RQAghhBBCCCGEEEIIIQUKFbyEEEIIIYQQQgghhBBSoFDBSwghhBBCCCGEEEIIIQUKFbyEEEIIIYQQQgghhBBSoFDBSwghhBBCCCGEEEIIIQUKFbyEEEIIIYQQQgghhBBSoFDBSwghhBBCCCGEEEIIIQUKFbyEEEIIIYQQQgghhBBSoFDBSwghhBBCCCGEEEIIIQUKFbyEEEIIIYQQQgghhBBSoFDBSwghhBBCCCGEEEIIIQVKuf80qXNCCCGEEEIIIYQQkgUGDBig+vfvrxYuXKj+/vvv1F1CSByqVKmiGjRooHr27KkOOuig1N0Nlwo3aVLnJM9Z9c8/6qXX+6tPvhiiGm/TQFXbbNPUk8JGwvX+R5+prWptqWrV3CL1JJjf//hTffT5YIV3FGHtbIggfmbPna9efvNd9bGOr6+GjVTLV6xUzZo0VuXLcxJ/FH797Xf12LMv6jgclUgZjJv3SdngVwfPX7hIPfbMi2r6zJ9UqxbNVMUKFcx94s9Pc+aqL74erupstZXaqGrV1N2yZ31tZ/OZpOvBSVOnq8eefkHNmj03Z+UxX/NzUvj1t/oP+Ei9+e7AEunGMqTUmjVr1NhxE9SESVPUz0uXqlpb1lQVK1ZMPSUbAknVCWU51pG6dNmKFapV82apu/Eoi/7u36tWmTSA/HXr1FblypVLPSk7Vq9erfr27auef/55tXLlSlNX+OHOwcsH+csCxAPCLv9lQSZpkQ9y58L/skynf//9Vy1fvlyNGDFCLdVtbteuXcsszvMBancKiH/X/KuGjhytPvj4M/XLL7+l7sYHjcqKlb/oQrE2dSd7oLDDLzTwLhKut97/UC3+eWnqbjBrdEG+7X8PqOvv+J+64MobTEdqfQVxhriTSjoKv/3+h7rq5j7q0BNOV/2ee8nEMY7v9MCjQg6Uu0HpXoisWvWP+lQPWqOWQSiG//zzr9TVOuLk/bjke1oUQl7xq4Nxjnt4BjMkmHkLFqmzL71W3dSnr7rlnvvzKs2TbmcLlUzanagkXQ/CDbiVq/KYz/k5CYL6W9/9MKFUum3oZejHyVPVvkeeoE457zJ12fW3qctvuF3NnDUn9ZRsCCRVJ5T1WEfqUpTzTEm6ng/DMy+9bsrguZddp74dOy51t2yBAmrgwIGpq2CgoJKDFMVHNvskcFsOlzhpIe6InWzK7uL6nUvgZy7D6oLyNWbMmNTVhgkVvBswL7zeXx1/5gVmNme2mTRlujq41ylqxDffpe4kx79r16q1a8uuIsk2t97zgBkg/PVXtE94oMDv++iT5s1/y+ZN1OvPPKrGfvWxGjf0U3XrNZflpNLPZroXCkuWLlfHnnaueu2dD1J3yoZ8TwvmlQ2T1av9Z6+QsiNuu7Ohs77n5/W9v5Up6E/f2Oc+tWz5SnXkIQeo9195xhwtmjVJmSAbGknVCSx78UHcYYZfPoBlGUg8cqE0zNbYGLKXhbK1LChL5a7w5ptvps42TKjg3YCZ+dPs1Fn2+XnpMjOLMSnwyeWVF56jLj7ndHX/HTeZzwDXRzDrc9HiJamraGAWyUeff6m2aVBP3Xvr9apV86aqQoXcFvmk070QWWLioOxnMeV7WjCvbDjUr1tH/e/W60z9feMVF6sqlSunnpB8IJN2Z0Nkfc/PG0p/Kwl++HGSWapn5x06qSsuPFs1alhfbVFj85z3vUjZklSdwLKXGSf3Okpdc8l5Ou5uVF2275i6W3asXbtWTZo0KXVFwiKKUfwXkpIUstrKznxQfGaTfEqn6dOnm/K2ocIexwYKZuVAoZIr5s6fnzpLjhqbV1enHHe0at+mZUFV+FH46++/1eIl8QbaU6fPUn/8+adq26qlWXuqLMhGuhcay1euMGuolTX5nhbMKxsWbVo2N/V3rS1zu6YgSU8m7c6GyvqenzeE/lYSYN1nDCpbNmuqqlapkrpLNkSSqhNY9uKz8cYbqWMPP0TtuvOOefGSBfue/LOeLeGzPpGN8iVu4p/lN3esWLFig95nqDjkeKuA9dbwOXHQWkFibtnyFaUWBsdarpj18eXQkWr0dz8EzsbCM/jltS4lSPfcD8iHT6SGfzPGHDgPemMC98dPnKy+GDLMbETlt9g54sSOG5jDDEmE05URZuAm/EdceQE7dhwi7mb+NEd9OniIsRt7vSbtHsKB8Eyb+ZOvO6vXrFZ/hFQ6hXUziBUrf02dhUPiEHkJimivNIQZpInXOoF2PkiXF13EXQkn3MImSgi/V3q7iOxBaQk3IbctO/IDwot8IOsiY6D996p4eeG3P/4w/9s2ahi6UXHzJWRHmHHY4Qgbv1HTPQzwG3kCcRUmf4jctr0wZQxxMH3WTxmXyV9+/S3SW0T4ky7vC8gnc+cvMHkzqL4BcdICfrv5NIp8dpynMx8kH8KJ/ObV7gC/52HzM5BwZZreIJ28gpjDgXMbiXs7D3sh5rz8gpth2uR08vo9h1xe7SLyItb/DsKrjRd/RE6EDXXv0JHflMo7MIu8j00j8Y9rF1c+cS9sXe4HwhmmTfTLf175C2Ylb4aRC3EEs4hrxJkdN4JX+KU8BuXxKO0O3EAcIC6C+lCCpFumaSBIvME9v3zgRZj4E+CmlCPEm5fMXvnZJqycMGfnGTu+0B6li19B5PFLYzdvuEAOOzxi3m4LMgVhQVjTuSl+S70g4H66Ohvuwn3bD/iJtERf63ddT3m57eLGRzo23XST1Nk60sni5gnEj9QzfvkO+LmLetPNa3gudUDY/AT7Qe2DIOZwxA2L5AkvN4Dfc7hny4e8gPKGwytfeAH3wo5hw/iXVJ0A99yy55XmMIe4hfxBfS0Av6ReSdd3jIPtPsLoFwcudj4JM96EuxJmpJ0bh+nyU1g5YQ5u2HlC0i+T+EMa2UcYxFxYO645Lztyz8+9qM+D/uWIguuOjX3PNudlNmnC+Bdkxn5m/0fFthfFjSj+u8+8zKZzx77vZwbgmRyCnLv3iTfldCQVx9Krb7+v7uz7sOrQtrV69H+3q808Oig/TJiozrrkGtV020bFZlDxffLFV+quBx4tUclBc96+TSt1y9WXms+UbK67/R6zk+ZFZ5+uTj3+6NTddaR77gV2+7z57r5q4uRpqTtFNG3cyHyi0Xm79qk7yjQEdz/4mNld01a+IDz/d/Lx6rgjDy2x4y0ajwuuukGd3ruX2rHzduqaW/uYBhfgDeFt116udu/WVb30xjvq8edeKm4kEAcH77eXuvqic4054ZmX31D3P/aUuvOGK9U2Depr9+4usXg+3tjeft3lqnvXHVJ3ihqTC666UU2eNl090fcu1brluh1NkQZvvDtAPfzksyUG1vgs6PijDlVnndrbzCZY+cuv6sqb7lRTps8wjZXLIfvvbcICwroZxCNPPa/e++hTHVfLjHs29eturZ5/tK/aRMcLwvXNd9+re2+7Xs1fsKhEHIJuO3ZWfW68WlWvtlnqzro02WH7jurBPjcXxy8G8Nfq+MRGYjZ4+33btVeUyosudlofccj+pdyCPxeddZo65rCDSyhOMUvzoSee1XH2QYmwIi1RBvAGWcxLWs6eN1+nZR8zQHn82ReNPcQL0uCehx5X8xYsNApCl6ByIfKHQdJAZhjY+XLLmjVL5PMH+9yidu/eNVT8hkn3qLMaUFV9oztTt9/7UImygjK29+67qOsuu8AzfyAdka+vu/1uNe7HyamnRel4y1WXqr177FJKAY6BETbHQCdZQDqee/pJ6lkdR7/9/nupMujywcefq0effkEtXVZ6EI1dxWEfcRUn7yNOvepczFDofcwR6pzTTiwum5mkhZtPoUwLI1+UtAojHzjpnIt15/o3z3hHHvV6HiY/xym3bh2MNufMi680s7ZQF220UVXV5/5HTJt6wN491G3XXeG5kz/Wx776lrvUfnvu5mkmV22yX/wJfs/tMnbQvnuazUygNADp2m6vNl78kbi/S7fRI0cXrckM2bGm5VUXnaO+Hz9R3XLPAyXyFtp5fBKLF1pCnLrcL40B4jVKmyj5747rrzT9jDt0WkrZQZlDHmzcsIF6UOe/1995vzj/oRyfdUpvddoJx5TaeR/1LzbcwaY3dt8F4b/lmktV21YtUnei14E/zZmn82OfUO0Odid//JkX1ctvvluifkP+O++MU9TRhx5UasYU+mhIA8kjADKcevwxaoRO5zHfjysul+nAwP0RXb9iV3bb/+3bt1V76ToG/Tu3bwCixB+YMGlKqf4Z8uIeu+xs+pVbpnaC9+uzIh5RhlEe7fplqy1rqq5dtleVK1Uy10fp+MIySnadVbtWrVL5HPnmvttuMHVCEAM/HWTqlu5du6j7br+hRL5E/XzDnfeq9z78VPU64hBdps4t0QZKGYDi5LH77jBxKnnJjVMJt51uQWXIBoqXMy680ihYUHd12b5D6sk6kM8uufYWo0RBnOy/V49E+1o3XXWJuuKG200eelyH1SteUdbPuexas/SCnxlJNy+kHZO+rp8s0hYjzK++/Z7q99zLxfUFQHnaa7dd1JUXnl2c74AdxkfuvlW9+EZ/0/+Q/I1xxF03XW3i260D4N8d11+lduzk//k68kvc9ixqWKQtrbbZZp59E7/nYdp6PxD/UcewYfxLqk7wKntuvg7bN/MLq1ffEYjf9tgwHXHqecgVpW1FvkL/+sXX3y4Rh6gDrr74XLXvHruZOsAvvyBPDxk+yqw1b/fzEQ+dOrRXDevXNdcN69dTvY7sqX799ffivgmWvHvu1TdLtNnIK+hjXH7+WSXk9KJHjx7Gf7vOFeS+33MXmBNc835upfPDz7ycg3Tu+Z3beLnlh58bwM8duQ8y9SMMfv7Z7vqdu4SVJawbrjlcC2H88UPc8fMnDNm0M3jw4NTZhkeFmzSpc1NxfTl0hJqlO5Po0KFis0GEPvvKG2aAhIq6U8d25t7zr72l7rjvYRPZR/U8SJ3U60jVY5edTEMz5ofx6uPPvzRma9faMuWSMorVKdNnmsZsu/ZtUnfXke65Czqi2CUTO5fupO2gkUJHcKtaNY0MCxcvMR3ySpUqqgWLFquzL7vG3G/VoqlR2hy0716qWZPGZvbRF0OGm44QGkdU2gADH3ReZvw0Ww3WcbRPj11NOBFH4ydNVpOnzlDLV67UnbWX1EH77KlO632sGXCjgzvux0nGHXReJUOOHf+jGvntd7px+Fe9oBuoTh3a6UHYsWqPXXc2M2vRkcRmQ3a8YaF+rKm6dPlydfB+e+uGqqa5jzR47JmX9CDxGbV17dqmcbvygrONIgUN17u6E4+GHOEB+PQSjd2ChYtNRwJh6aA7Ma1bNFMd2rXWHYpmkdyUOPIC8YhOHhpsdGqwLtmOnbYzfrVu2Vx12a6DsY9wYeCFQRfy11F6IH/80YfpjnQr01mYOmOW2Y25+047lEqTelvXMWldSYcFCuxLrr1ZjdP5oecB+6jb9cAag/fKOt2hcEIe76g750EVg7iLRfkxAKpefTOTn9BhQP6ZPG2GGvXtWNW4UUPVpNE2xg7i5PQLLldf6Q6Dnacw2P3hx4mmk7Rdh7bFSyVIWi5a/LPuhP9nOgvohNXcYnPVbNvGuvx0Uyt//dXYnzt/obmPuG+nB5+Iu87btStVPoUqVSqrShUrmgEw5II52DVxnjq2rrOVcXfTTTZRhx24nxl4AMmXm1erpl7r/76W4TeT/5DXDtxnD9PZChO/y1akT3fIGYVX3nrXDB4wEJN6pmvn7dRPc+ebDiPyM8q4mz+WLFuu3nxvgAnHGSf10gOUPczOxDNmzdadzTFqp86dissSQPm+7LrbzCBy/712N2uf9TxgXxOnqP/wYgSy22XQi99//93MhENZQjpAcYCBp8TBDp06qI2qVo2c9yH73Q88pu5//Glj/7QTjjVpAPM/6s4sFGLI31LfhCmDfmkh+XTuvAUmX2CQHaZsRkmrMPKhnnx34CfGPa94R1vj9Txdfkb8xCm3bh2Mgd0Hn3xuBqqoiypXrmSU+J9+McS8TNxFp3vNGpsbswIGKFBSzNdxceFZp3m+eMpVm+wXf4Lfcylj1aptqj7/aqiapvNCna1q6bpsU7WfLju2stXFq40Xf5DfPhk8RG25RQ1T93bbobPJO6PGfK+qVq2i7nv0CfPsorNPU7vofLdg0c9q2sxZauKUqboN7WbMgDh1eRLtrJQDyX/on4zQ/yccfbgpq8hfeIZyj/7BgE8HqROPOVIdpweyNXW4pkybacKK9G7edFvjFkB4oGiaOmOmrrf3NUoUKA4a1Kun88lwna5flUjXqHUgwo6wpGt3kHcxMH79nQ9Um5bN1I1XXqwuOedMU8bx8hhxvdFGVUq0tagrzr7kGjV/0SJj7qKzTjfh3WrLLU19gRmMAOXHqyzYQPY+9z+qXnqjv2m70N8694yTVPcdu5h8AEUB0svuG4Co8Tdn3nx17hXX6fK9zCjbEU60CfAfu8G3bN60ON945WfE07W33qUGDRlm7EExAGV7u9Yt1LBRo9XYcT+a+qFO7a2M8gblXfIMXva9qussuIW+4V67dTdyYAmA77WZHt139pwlKmy80Ua6TA4zdmAWbgtIY/RV8cIGZRp9QLQlwrQZP5l6BeX3xGMO1+1DleK85MaphNtON78y5AIZ0VcYNWasSUcooyW/COiTP/XCa6phvbrq7FN7m3Y5yb7WEbo9mz13rq47pqmquh30kgGz9F547W3dFrVXxx91WKmXLgDxC3vS3pfodzl9XT9Z9tH1UgVtBnkbu/+jfybt+847dtJ996Wmff965DemL7HZppsavyWMKEOoh1f9s6q4nkP6jx77g3H3yRdeVX/+9be64MxTTP2MsQaW8ho99nu1W7euWpZqxj0XhCtOe4Y+aNSwSFuKPGf3TQW/5+naeinTLnHaSxDGv6TqBK+yJ2kepW8Wte8IxG9sEoi2NR1x6vmobSvM99P119M6X6EOuPmqS9X5Ok83btjQxPfcBQtNnYfxil9+QZxdfM0tpu9781WXqKsuPNe8QP5Fj7ug+MXYHX5Bwd6udUv199+rTN/kZ51vUa+iHkY+gRIeZX2SNv/D+IlqE53P0+ksnnvuOfMv9YX9L/Eu/4I8dxE7XuaB3Jd/+z4O213XjuBegyAzcm7/B/kj/+nwM4f7Xs/kvp89G5HP/ZdnwL72chP35HCx78k5/l235NrrmYvfc9wX7OdyLs9x7XUP2G7b7tnY9uUf2OdA3PLyA9jXrl0/wpo7+eSTU2cbHiV6KfW2rm0aNcxCHaArRDRKGHgLaLiHDP/GNDIYVAEMLJ947hXTyD109y2mIhQwiEDD/kC/Z9QDjz9T/OYxaaDUw9tIKMQuPOtUs6i6JD46ruedfrKqULGCqezR4ej76FOmkUFljhkYdmcNs5DOuuRq06DsrBsTdKptKpSvoO677XrVsV1RBQ730cl+UIfxp5fm6Ubm5BL+owHD7A8ojdAxtDvZAEodzO5BB0dAp+zmu+83g6SX33zH9225gIbqOd0Zh1+YBSEd29p6oI2F5aFowdt8NKhouNFJRqOHmV/gknPO0J2Skm/Jo7rpB57jwJtsDJaOPbxnqTfp6EQJ8O/um64p8UYfnePzLr9eDRkxSs3Rg/wgpcGESZP1MdXk4xsuv7A4ba/QnQWEs1y58qErhsm6o3LJuWdqmdfN7kLaoCOOPI0Of9fO25uBRS0t76l6AFhZ57E9dulWPHMJHRQM2J94/hX12eCvjSLfBoOVtz/4UN14xUXmDbkt22XnnWnePmNwgY6LOwvcj611xxBKScwwwOyjju1aqxu0+zbirh/vffSZmYVx3aUXlPATM1vDxG+YdI8KyiIGJwfrwVyd2rVSd5XaoVNHdfqFV5iO+Bzd2XXzBzpkmDFqxy/cQh7GTIb3P/5M57GiGUZQMqLOWq3rCbcuQWcV5fSKG2831+no1LG9OSQdMKvMnsUB4uR91AWouzAAwCy5TTfZOGV6nXm7vkkiLaCorl69murXt0+oshklrcLIt2RV0cyYuPjlZ3Qo4pTbMGBAtIOuG5EWnw0eouuNRqknRUyZNsMM5rBOn99svEJpk4eOGG2UKh+9+UKJ/BEXlL/jjzxUnXzc0cVp0rpFc4WZOA898Zz5GgcDY9S9AC8E0G5PnDLd1NuIJ5sodbkfmbSJpo+g41oU9Bgoo2/77oefGGX0rddcZvIcwD9mckGujwd9aWbXou8CxUDfR580s2vdugmzMJs3bWzK4jMvv25mbcGOELYORD8gTLuDWWkDP/3CxLOdDrCPF1nnXXGdeuXNd/UgeycdXw2MYuH5V980L8HdfhdeXOy5Wzd1wZU3mrCF4Uddn8L/LTbfvFQex0tyKC9Rdm3ixB9mxUHZgnobisQi8/VN/2/16tWeij4blHG8+IR811xyfnE8Ie9V0OX4ihvvULvsvIOZISiyCD8vWabuv/3GEnm5245dTNxiBubXI75RRx16YOpJadA+4MU9ZolOmjqtRLsIZSZeLqDegKICctr+QKmKT5EhNyYDZJO9dR/6jXcGmHqs9zFHKmxOZQMlFvYS2Gv37qZOjltnB/W18LJ60FfDPGVA3kXdi9mw+BrPb3Ye6gV8XRDU75L2PkiWAZ8MUv0HfGzSy65nwCH77V08NkAdf93lF5RoDzC+2XWnHdVVF59TLCdmI/7fJVeZL49QFjEDWdzcdeeu6sKrb1Tfjh2nRn1b9ELJjzjt2ceDvoodlrj4tfV+ZNpeRvUvkzrBiyh9s6h9x6jEreejtq2YZIF2C+3kXTdeYzaSBqgPDz94f11HrA2smyEn8h36GZed938m7kEttYW6/rILzfgYCt5rdfq4Xx+gXsQ4wE5v6AEQv+jD4ssJvDwMG3+SxnZaeym6/PKCKMkEmAtSlMlz155ch/HHNSPXYewK6ewkgetvkF9RnvmZjeKfHd84F7P2dZB9YD/3csMLMSfPXb/sa/cciDng2vXDfu6eww1xhyRLUc8oBSL4sIP2N53mkaPHmo6fDTqU6BTuqhsfDDyRKJ/qShadL1SqdsMI4N5BukPUoF5d04hipko2QGcKA7ttt2loOg1uRkElLIOdWXPmmYELGg50Et1GAB1exAE6SjJjyQazcps3WTejBqDTg7eC6Fyik2n7v50eCOBN7uKfl6iFi35O3V3H7noAZCt3AWQ67KD9zBvW8ROnmBlufiANPvxssJHzmMMOKdGBAnDrgH32MA0ZPo0JQzbcDAtmMbkKAnQk0XiiUV+waFHqrjdr1qwt/izNBXLLYCAM6KT2dDrfON9Xd+aQf2bNnmPensv9A/fZ06S/7Qfud+7Y3viNWdm2Qg9AViztceC+e5bwp6xBnj3ntJNKdViTjN+oIM7POLFXCYUhwH2USSyFAKWhC9LRLZeQVZSIM3U6YtNBAMUBBrd+dQkUQtka8EbJ+5jVB6WD3UEHkLuurpv96ptMiCJf3LTKFn75OW65DQMG2JjdATc+/3JoiXq8qI79wrSdGET6KRYhRyG0yZgdg1lhbv6IC/L1Tl06lUiTbRrWU8103kHbjHrZjjO0UdhMEs8mTp2euruOKHW5F5m2iVB62soTDLS779TF1KWYAWp/Hg25sAwUwocX0fg0FMycNce8GPGrm1o1a2qUK3gBh1l7NlHqwHSgLGAmH2Y3nXjMEaXy7ubVq6k9du1uZuihLgVQMECpgXzcy1n+CtStXbtUnAYhSr9999y11JIKcBt5wSVO/K1e86/59wKz6Fw3XLCuOOSEAsKNJ4R5442qmnraK+6RP9wXFYjbHbbfzpxL3PqBPIYXHwD1BJQaAHl55Ogxaosam6tTdBuCL1O+HDbSPAPI418NH1mUP3TfJNs03qaBDud2ph6DnDaoM78Z873JN1AEA8R50n2t7dq3NYojLxlQ56LuRb7BjMok8JMFLyHQLuA52k+veqbX4T3NbFpR3LlgTGEroWtvtaV5OYb0xzPbTeRJ1LMAs5+DiNqeJRGWOPi19V4k0V5G8Q9kUif4kS99xzj1fJy2FbPf7WUZbFAnuP66/LPqH90HXWHiYJv6Jb8WQTqi3wpFLmYPuyC/nnDU4aXSGy90MHsbbQfaviCQr9w6yMbvGeLKxTYr5/Iv5l33cC0HgDn7Gohd/Hv5K8jzIDPAdts+Twov/7PpZxL++ZmJKms6WbzAc9jzMyfPvNwWwsoZ5AYIcied3XTPN2RKaWOks4U3cHhLK2BmGxrrTTbe2DTgSJA///pLTZ1RtMYO1inyAkpPfOKAgRc+ncsG+CQE7kMG+BfE7LnzTNi20YMtNEJeoKKGchVmsQFDOsqnZi2io1ylcsm3++XLVwhdCGzq6UYOHXB8LrJMN0R+YC1QDALR+frjzz/MbA33QAcVCu6flwY3OkI23MyEihUqmvRARxEKxiDq16tjZhFhNgY+xUSnDHkjSfBmFuul+XUAXKAQRKfND8zsTGLmQpJghhIURi65iN+oIB9i4BuVTTYu6lyv1R1FaSSgHEJ4MFsF5a+siZL3AeKiRvXoMy/iEke+OGmVKX75OYh05TYMUKxBaQQFGtZZFrxm3vpRCG1yS+0eXn5mEz38MJ8ZAym7AsIe5+VS2Lo8G20iyg5A+ZFzQfoUNrPmzDFyYoA55vvxpfwfOmq0WvvfWvWXzgOiFE6HVx2YDuRDrPsI5QSWu3LlwPGr7reAxUuK4hQvc/BSB0th1K2zlbkXFyjuoMADXbbvGLp/FSf+WjVvYtL0uVffUlibGEuQ+CkWvMDSJUhfKFmg8LL5+59V5jNrLJe0UYR6RpZlWPNv+nYXn5VD8WNPFIAso78bZ5YOwGzP+vW2NkuIYLkGAAUFPnNGvYN2MNug74MlFqCUQX2Gek1AnYm6E/Uf5ElH3L4WyjVm5+KlhSsD6lzkeZlBnBResvzyy6+mHkEexex5L9AHw74druLOD7tu9FrSA7NGwxKlPctGWMIQpa1Por2M2rfIRp3gRVn0HePU83Ha1s0228QosNFm44swzMa1y2w6Klcp6ofiKzOUbRu8CMFyDMi3mCEcFoz9oQNAfKM9DcJua3GeqZIKZRyHuCP/9j0vvJ7ZdgX7HMCMl7kgv1xss1HsRQXypYuHJInin2smioyuWTsdgkhnTmS3wyDXcs/1Ox1ebgpe90gylBoR2Z0t+y0tPufHjAHMVpVO359//m3e9gVVhHBP1sNDJyAbQBELGqY+0whCZo3hDZ3fG9eqqKgrVdSNzV9mTciyQBTDaICk4+3FqlWrzdpE6Cg82O9Zs8mNe2AjAHzGE7YgZcPNXIGNUrCeEgbuI78dq04+5xK10z6Hmk9n7I1KMsFWNLgzpTD4Q2cF69fhU6uDe51iNijAJ3l+uIP7fAADAqStSy7iNx3oyGGdPazt1vusi9QBR59o1p1Lgpk/zTb/WObCK/z5BupnfNKJjXiOPe1cdcRJ/1e89Eo+kM20ioJffhbilNswQAkG5Ss6/fjEUAZ0MvMWyy+kGxwWQpuM+hD1YqERVJfb5EObKMpSvFS77IbS/uPAp9bZBspPKEERH7f970FPOfCZug0UQgDrdmK2dyagXwbFMpQXUV7CxYk/LNtx6XlnmvKCWWaoX3c98Aj1v4ef0Pkl/bIxLZs2Mesx4quxN98baJREAHtFPPzkc6ZewKZV2Wpr6tWtYxS5Cxf/rGbp+g1gQsRPus+8285dTT8Ya8NCYT59VlHbB2UvykLnju1y9jIOG7RCiQY5pA1GWUOdCaWrqf8cRWTSfS3MzsUsRtSp0oairkWdi5fa++xRNIM4KbxkWbZ8pVF4QVHtt26xrbhbuGhJ6m5uiNKelVVY0rX1Nkm0l1H8A2VdJwjZ6DvGqefjtK1QBmP5Byz7gPTDppm7HHCEOuH/LlBYPzfdSzikKWbPo+1/7JkX1ezU7HGkBb7cxdI8WOJl28beLyYyRcIh5/Z1EkjegZty7mI/s83b/0Bkw78cch/YZkl47Piz4xTXYeLUy35U/OzZ93Hu+mU/DyOra8a+FjflnySH55QXVJo45C0t3mhhDSqAT3RQudogYTDzIR3YUCFfQAPgZjoXvNnGZjllyUa6YxG0kYaADsprTz2ixg391PfAOn9RClA23MwF2DF40Luvml1aZWM5rBl41Mlnq8++/NpcJ0WNGkVvvJGXRo35Xh3W+wx16Amnmx2DMajC4KmdHrxgkLK+kMv4tcHA7c6+j5gB9kXX3KSw+RQUsRiEb7lFMp+GFwpYFxI7i+95aC/dub3HKCYwgxJrk2KGSFlTKGmVi3KLdUgx+wzrE2L9PSi9MUsMX5Bg+YUw9eeG0CaXNVKXB5EPbSLW7PTyV46hH/UvtW5gNsDM50HvvuYpgxzumuP5QJT4Qzoee/gh6gsdTuyVgE+4Mevvhdfe0u3dWUYZGgQmEeCFKD6LvufBx9X2ux+g2nffx7zowjq4119+oakTswVmvUGRC8WFLMOAzeGguMXsXoClAvD5M9bRRr2BzZpQ7+2y045Zzcc2UAKiL4FP11E3Qg6vNV1BtupszNTE5/iIK9StqGNlBjHWq5bN9HKBqb/X+i8PImy8cWazPOMQtT3L57AIRsYctZdlXSfka98xatuKpZWefeRe9c6LT5q1d7GGMtYmP++K69Xt9z5YrDj3A/Ue1uWfOn2meTmENEBa3HL3/WY/AaSD269KEoQD+U4Or3KTBFHcgQxyhMGWO4o9UoTEl+QBkKt4DJMvXDlw7doLI6uYkfxi2wljn8TDsyeEBuiIQ/Y353hLO0k3OliDyu1oYd1ZrJeDBn7Rz95vX7GuDjZBAzU2XzcbIMlZi9umOl74fC5dpsUbegB50VH3AjNmMXMWO+ri7XJZgDffeKOJt6BBnQqsIYRP7KBQWb7SfymHKGTDzVyD2W5YX/Cxe+9Qgz94w6zZhrz4ev8PSq3NFhW4s+KXX4wfm25ctI4VNgk47/LrdKditerX90417KN31IuP32822Tij93GBnw0WItmMXy9QFrDzMHZtP/KQA9WX2s+P33pR3X3zNSaOsaxKEuBzQZCLpUfigk/7zrvyejNr5vwzTjZ57f1Xnla3XXu52RDJ73PIXJGNtCpfPt4n+OnIRbnFLDls4iHKC5l5G/azY5DtNjlb8ZvveNXlXuRDm9i8SSOjvMJnqVHWZ0warOmJLzh+/+MPtWxFuLhoWL+u+Ue+w/qHmQBFEAb3mNEVdikKkEn8ofxhA96Xn3hQffTGi0YZgk9733h3QNo+5/hJU8ymQtiEFBsG/e/W69TTD96jvhrwZqkNtrJBx/ZtjPINymjsiD967A9mVi9m9wLM/kc9hPv4Gu7HSVNVI90OYkZtLsEau5ATn/pjpuSwUd+aOlPWdBWyWWdjsyQsM4C6FXUs6lqMAWQJnGyDma5QdmMMsmSZ9wxxqbOQl6tXy+4GeF6Ebc/ihqW8bofiKumjkskYNhPKqk7Idt8xTj2fSduKeGrSeBuzMdqg915TN111sXmphWUdpk4PXn4K/iEe8FJI0gD/2Ci23313JrafQBCQX44kCau8E3Ne5t1nfv/AdotEw80DdjwGxSme4Yga97a9OLj+RfEbuOblOq48xB/fVlQ+V8JbWnzCgM6s29FCp1fW3Rv93feeCY3P2GbMmq0b0o1LrHEkyykksbB+a90RxQDt+/E/pv3kFA0QKm58rrbAZyF5WVcUg2fsTloWoDOOtYyQBnX0YMYPrNPUUQ/w8VnP518OM7MOMiUbbpYl6ECce/qJZlC4eMkSMzDMBKzDNW/+QjMjEWtNgU8GDTEdQey07W4OtL6TdPx6gYHpWF2+USbPP/PkrH06ivoMgwt8xorPxlzwUugfnc5lycQpU82nrLt166pOOu4oUw/nE9lIKwyya9eqlbiCLVflVpQX2KEaM86A12fHQWSzTc5W/OY7XnW5F/nQJjbSg2/IOXHyVLMmYVmBPhHKNgbxmO0ZBmyugxlamA3ppUhBGYTCKAx44V0/pZyEss8L7F3gklT8QcF13hknmzKDzXSwXqMfaENQVqFE6nnAPmqPXbsZJSI29IIiIhc0qLe1mZE8d/4C9cXXw03YMatX/IeyHrNfsdEgls/B8g1tWjXP+Rr0UA5CSYhP/Qd/PUwNGjLM9Cl22alLykQR2ayzsbwANqxE3frQk8+ZTbXwOX0u1iIGmEGJjbGgcMS6yV7MmTdfLdDjHORl5OmyIEx7FjcsNWvU0H3KTSK9QIpLJmPYuJRlnZDtvmOcej6pthX1wCH772PCFqYf8/HnX6qhI79RPbUdSQP84wVPWSmbkP/kyARRwuHfLyx+z738ts3JuRyZykpKInEaJl5h1v4Pg202btrZboTxW/zxMhtFdhIN354RPlfCpgKojPFJl99mMEf2PMCsT9X/g49Lra2ImVxPvfCq6bB179rFDAoEdOagSBnzwzjzXEBGwOfeUdZpRKOLz1fhDvyDvwLcwyDkrfcGmnP4u9+eu5kO3D0PPW46HzZQEr/xzgDTmJsdYyMMwOMwYdIU08mxwTXWFUP8HHrgvmkbYawNhjQY+Okg3UB+XarQonOCtY2wVpGLebueWnvQXrYiEzeDQMMP4F66dZLigNmjXht/Yc2+X3/9zczQDLPkBUBHaOqMmamrIrAmM/IYlJj777V78bpdsuHJGmfXbcjz0pv9dTyHn2nkBT5B/E13eEGY5UWyRdz49Up3uIW1s44/8wKjUA0CmxagA4jDzTcjR39nPi9NAuykjt2Nkb/f/fCTEvGMFy43393XzACLAwbQ4l4mCiJsmGHiAZ89WvLBbSyRkW4dtWyXwUzTyks+DAKw8Qjc/OSLISXyH/LRg088Y/JgVLJdbgVRXuDzSKQP2kJ75m0YstkmZyt+84Uodbkf2WoTwwLlE9a4RJ68//GnSu0PgLRFPwfyubLFxavdQZ8IigkoI1549S3TZ7KBmTHfjzOKH+lfNWpYX7XUdSvq0Jfe6F8qf6EvhlmAYcCAAIN4vNTHIB0vw21Qx/R99KnU1TrixB+UMXDfjc+58xaYfIMXLig7fkBGKKQRtsNOOMOsFYtPgG+/9yHVf8BHZh1OKD2yCT4z7rxdB6OQf/PdASWWZxBQF+CrtVfees/UAVB05HrghXwla42/8Nrb5sVLpw5tVZ3aJTdrymadjTDjpRn6/8hHUBRh87VsfqptgzJ1/FGHmv9+z75UKm8jzz7y1POmDThwnz1Mni4LwrRnccMis2qRX4fpds4ue6g/7u/3dGLtMog7ho1LWdYJmfYd0xG3no/atuI58pM7CeM3nS+QVng5VbdO0UtAPzbddGMzxr7prvvMGARpgOORp15QXwwZZtxx5UgKuCuHi9S7mdS/6eTGc3HfPge2/0Hu4Jn9PBN58xE7frKJ635Y/yR9xLyXPa80See+/dzvHMh1OveALYfI7RLGnTDAnaTcKnQC10lApfv2Bx+aN5h4q+3VmcCmSxeddbqpGK+48XbdIWtvZsn+qxsRNFT4DAVvcS8+53TTsAmdO7ZXO3TqaDpRx51xvhmoVq5USU2cOk3NX7BItWrezAwSwgAF6IVnnarOv+IG00BCAYU1s7DTJj73Gquvm2gZdtWDAgziTj+xl/l8A34fdsLpuqOyvfF76fLl5pMN5A24B6VxtsEMZixwv+vOO5rP5rAGE9ZKQ2N45CEHGGV0OpAGV110rrrmlrvUVTf3Uc+9+qZqreMPID4nT51hdvfETATMiADSiUL6YMOR7XVH+rsfJujOzoFm3bw4bgYhy2g88fzL5i0yNmCoWKG8euDOm839pHjpzXfMRgWNGjZQxx5+cNFs7dlz9cDlXdOxOULHKTqcYYDy+9TzL9cdu85FM1zmzFODdAcQnQrkmZN6HVVccWH9OGxYcN+jTxp7iJOiTs47prOBt9pxqFmzhqperZqZfXPu5dfpzlMTk2+vuvhck8dzTdT4DUp3zPQc/PVw01nH0g74vMqPBrpOaawH0+jU3XRXX6OQASivUHY1rF/PvLTJFMzOOv6ow9Qd9z2sHnj8GfXJF1+ZfL9sxUo14psxug7Z0aydtmix9+x/L+RlFtb1k5ll8+YvUo/+7/ZY+QIzTqDcw7q2GBTstEMntXr1avM56Vw9KMant8h7LkFpkeRMjrhplU6+ow89SH2t63PsmIwXAu1bt1T/6HCjPGym4xEz1dwOfzqyVW5dRCk26KthZvDmzrwNS7baZNRj2YjffCFKXe5H0m1iVCDf2aeeaDbDQppgzcZuO3YxX1BAETVs1GijUMUa6Xvs0i1Q8ZiOdO0O1og85/QTTR15ynmXlshjmGGODTdRfrCMT4umTUz5Pa33MUaB8Nb7H6pvvx9v4glLJUDuNq1aqB11fxBrq4YBypZd9IEZhKeed5naWZdjbOyDdECfCkq5dwd+mjJdRNT4q6zbMSgksLla21bN1eEH729mFqKfhJd/mMGIMh0Eyji+YrjwqptMnffxoC9TT9aBuMEn0tlsz7t22s7UZaKoquvUG1iOAcsyTJ/1ky7ndU1ftCyAkhBKNOQT1E1eXzlku87GbF1sXIm8BQU+vpzIJV20fxijYJannbdRF6MNjVJnZYuw7VmcsKA8HKP7lsgDmEU9dNS3qnHD+sVlFP0ElL2kiDuGjUtZ1glx+45hiVvPR21bMTHqrEuuNs+RDzu2a6Pzxx9myZyJk6eZvky6Tdd3776TmbWL+EdfFYcL2oK7bro6Vl8tLFBGueUY1173w+Jlz3YvnfvyTJ67ZjORLd/xChfCC5IMsxvHII4/Yhb/4qa4I9juuee2n372bHdt+2LevZ8OL7Ne7kdF5EnCrfWBwG+b8NlMw/r1TYep5/77+kYWOtP97u9jOmbffj/OVOzvDPjYNF4nHH2Yeqnfg0aZaIMK89arLzVrmeFNLmbt9td2KleqrF58/AF12glHG6VIWLD5xctPPmg2AJg7f7566sVXzSyOSbpxOO7Inur5x+4vnqGDzsGDfW5Wp55wjJmFAb8hM5TBTXRD069vH3VyjjpP++65u27sTzWdHezMjMEEdvbE2kxXXHh26A7F3rvvol57+hEzmxmNIcKDY8bM2aZDj2f2bC80xNgdGoo6dGAQB/j0vG6drYoLSVQ3gziq54Fq/716mM8ZP/1iiJqgG9NmTRqnnibHicceYeJu2fLlZud+7MCKWQL47AvrxSJ/hAVr16GThQ7DPQ/1M7N7oHg/7shD1X233VCi0UdcnXL80am31P2Mv8+89LrqfcwRZp04fH4Vh9q1tlRXX3yO+YwSmwEgnbCuGTYUKAuixm9QukMR2L5NuFmMiGvsmosBF5TCmPVw9S199ADhV/X8o33VBWeeElpxnw7I3OfGq8yacEh75HnMUkN5vPXqy4yiKwpQRJzc60hz/uXQkaasY92wihXjfR2Az5OvvfQ8E+dvf/CRSYOb+vQ1Hd/nH73PpJFX3ZmrMhg3rdLJhzr+tusuM/U4ygLS5ZNBXxml58u6jcHALCrZKrdeYHY70ggK/yj1kE022+RsxG++EKUuDyLJNjEOkBN9F9TBAINT+I//zTbdVLcV56r7br8+I+UuSNfuIN+hj4S+EtZtxGZUksewfvkRB+9vNsyBclfA5/RoI9DngAIYZoeMGKXT4DATphbNwq/5ihmVd95wlUk/zOhEPQP/wdMP/U/1OqKnp6IvSvzhk99rLjnfbLI2ZdpMU8eifnit//uqeZNt1XO6rk23Ti1mq6Huw5ql3wz6QI389D2zMR2OJ3TcYbd81HdQgGXz5YnMrEO7AMWGOyMVitEu2xeVb7zsTzebPVsgfaAsBF6zQkG262zETVtdFwJsuoYvJ3IJlKdnnnScuueWa9XWuo6WvI0yWE7/kHeRh8PWWdkiTHsWNyxQbF52/v+ZiSiY6AM7UBD+38nHq0fuuVU1b7ZtymQyxGkv41KWdULcvmMU4tbzUdrWtq1a6Hr6RrOsFF7sSDjwZcVlelx71UXnlHoxZIOZxffq8TbarRce66vGfvWx2SsCafD+K8+Y/iviBEs44CuRbIF21KsPl6RyCm7Z7sm1nAf549q1ETeAfb6+IGGSsCeVHjYSvwL8iOKPa9a+lnM/92y/bbM4XLmAe+3aCYO467oF5J7Xs7CElWNDoZyOTN/YxGyrC666Ue3TYxc98LsisMIUUHFCYYtGAp+ChYlwdNT+0AcacygeM0VkqFSpkmcn3wUzCFet+sesGZWUkigdz7z8hrr/safMgvoYeCIZZCH/sPHmR5Q0wGeXmFUIM0Fm46SrF4hrvDGG8iyJt+F+SHziM76o+QpKuAuuusHM3ECHBHYhN+IAs5qC1nxLKp5coubpbBM1fv3SHZ/AXXrdrWYDGyj3wpCr8ppkmQRSzyUlt8iHmdNRylOuyiCIk1bp5Isb7iCyVW5tXn37fXVn34fVWaecoM457cTU3Wjkok3ORvyWFZnU5enIRZ5JR7brwrDtDmbxYcOzKlUqh+5zJZEGQGTEmrhR+49h40/6SfgPG9eYtXbhNTcZpcNzj9xrFAYumIF69qXXqiXLlmkz9yWmRNoQyFb5W7Z8hTrjwivN5I8nH7i7eL3nsiJq2coVcdqzqGGRcgeSqCvCkM16PV/qhFy18XHr+ShpIP1qTJgIm15Q3J53xQ1mHe8zTuyVulsSLBdx9S13ZdRf86NHj3VjHaQFZMY/SDK/2dj+ZMuP9QlJD5DN+LLTPZO0yURe8Ted/0nI52Xflh3E9QO4/gwePNj8b4j41rhQvGC9LhBlMxg0FHjjjZkfYRMJnXKsvxO1c+6HyBC2MwRz8D8bA6SwIK4QZ1HizY8oaYBGF7M30pmNk65eIK7hTrY6FILEZ1L5CnIjntJ1UpKKJ5eoeTrbRI1fv3THbFYMpPDWPyy5Kq8SxqTSUuq5pOQW+aKWp1yVQRAnrdLJFzfcQcAduJdUWrtg92osrYCvR7BBTRxy1SZnI37zCeSvMHV5OrKdZ8KQ7bpQwgh/goD/kCOdOSGpNAAiY5x2Pmz8ST8pSlyv/W+tWr16jXlZ9fcq7zU1sSkwliTDTDTMICbhyVb5w+ZuWAfebwmcXBO1bOWCuO1Z1LBIuUuqrghDNuv1fKkTctXGx63no6SB9KujpBfiHsrtP/74o5RyCeDFApZ6hIIZM9STplWrdZv1icz4Dyt/HGx/SHokPbIdX7Yfmfgl7sRxI6z/cdxG+cIRJJv9LI4fNrZbHTok9wVmIeJb606ZNkN9890Pvp9JEUJIJsyeO189+fwr6uKzTzdv3glZXxk1ZqzZ6Asb08QdMLBNJqRwwEZdPbp3VUuXr1BnX3qNevPdgWajQqyfjfXnsYyYrCN5xQVnlfkn90SZNZixHilmg2OpiEwHm+srSbRnGyKsE/KDdq1amHV/n3/tLXXd7feYJdiQBjjwldS5l1+r3n7/I3X4QfuZpSOS5pRTTkmdEbJ+IwpX+0WK+1LF6yVLEvTu3Tt1tmHiqeDFDu/vDPjEzKzD2kRsZAghSbNNg3rqxX4PmLU/CVlfwSeEGCxgkxBsCBJ25q0N22RCCg+sEXzJOaebz8xv/d8Dar8je6s9Dz1WHXLcqerhJ58365g+/dA9bAPzBCgusUYqNlnDZmukNEm0ZxsyrBPKHiyNcd/tN+g4bqUGfvqFOvHsi00a4DjnsmvNhmsXnXVapH1wotClSxd18MEHp64IWb+RGbyiyLVfnMo9MZMUKF+dOoX/Mnh9xHMN3rDrspL4yLpB+bauFlm3TliUNZ0IIcQLWU8uk/Wz2SbHg3U5yQdQfpcsXaYmT5uh/ln9j9kssUmjbRJZPookB9YMzdX69IVKEu0ZYZ2QL2AsPuOn2Wrh4p/NJu8tmzVRtbasmZMlQSZOnKj69++vxowZo1auXJm6S8j6i63ktc+ToHr16qpz587q8MMPV61b8yvHwE3WCCGEEEIIIYQQQgghhOQvuVm1nhBCCCGEEEIIIYQQQkjiUMFLCCGEEEIIIYQQQgghBQoVvIQQQgghhBBCCCGEEFKgUMFLCCGEEEIIIYQQQgghBQoVvIQQQgghhBBCCCGEEFKgUMFLCCGEEEIIIYQQQgghBQoVvIQQQgghhBBCCCGEEFKgUMFLCCGEEEIIIYQQQgghBQoVvIQQQgghhBBCCCGEEFKgUMFLCCGEEEIIIYQQQgghBQoVvIQQQgghhBBCCCGEEFKglPtPkzovZsCAAap///5q4cKF6u+//07dJYQQQgghhBBCCCGEEJIkgwcPTp3Fo4SCd/Xq1er+++9XAwcOVOXKlUvdXYcYDXomeJkhpKxBPi2EvClyBpU5QoT1tf5dH8O1oZRpN5ysy0pi523EiXsdhihxmlT8Mx1Lph3IZVzA7w057pMikzQs1DTIx7K7oeVnll+SKflYjl0KOZ/nQ/wWQhpHZX2p+3KVNpkqeEss0TBixAhf5S7AfRwInATQRp6T5PGLc7J+Y5epQk1/ybtJy58tdwsRySf5XP9KOkVJr3wPV9w8KOGJaq+QcNMs0zSUuFqf4ixuHEkcRIlTmBXzmcZhUu4UMnZ8JgHiMl184nmSfm7ISPpFiU9JH7GTr/k/KC/li+xuXK7vuOEt6/gnhQvyUFnlI/jn56f9LF/LtcjoFYZ8kt1O40IhKG5BoYUHSFjsMNlp4xXWoDjIJSUUvFiWIQyFmPEKHcb5+odUAl6HV1oXcvpnS3aWCVLWMA+SQoN5Nv9AmgSlC/oF9j8pW/z6aflAurxU1th5GOf2sSGAcOZz+pDCIdf5KKhusZ/lc1nOdZxFwa4H3fNCIChuCyUMUfAKr10OypISCt7p06enzoLxynwkuzCe1y+QnlIJeB1CoZcxCWfSZMtdQghZHyn0tmR9Jky6ePUPSG5B3NtplY/lqRDKuORjkVWucayv2OEFhZBOJD9B3imr/BPGX5jJx7Kcr3LZ2PWge74+IPmnrPJvEkB2P/nzKVwlFLx//PFH6iwcduYj2YXxvGGyPpSxbFV4hdxAkPUD1sulcTs/7jUpG9aHtmR9hmWkMJAylM/lKd/zksi3odVJhZB3SP5TlvknjL/5nLcLpW7Ef77L6pIu3e18m895JB12OLzIl3QroeCNgp0Jw+KaDWPX9ifIvG3O/vfDfZ7OvAvMyyHIuXvfj7Dmw7oHbDft/3SENR9kDvfs+35uBbkBvJ7j3D7se9kkl355YfsbxX/XbJA78sw1I+cu9v0gcyBKJZ6ku+ns++Hasd1J555rLp35KMAt+wiDmAtrxzYTZCede+me+2Hby8QNv3850uHayQXil+13ELY516zc83oWFi83o4Dyadtxr23s+1H9cRH7+A/jlmsmyI64KYcg5+59F9sckDiRusy9joLtthwu9n2/5/Jvmw2Dayeq3aB/mzBmbNznYc3jP51ZL2z7Xvg9R5rHSXcb202cB8lgH+49uY6Kn1su9nMxY5/beD1PZ07+bXNedrzws2+TlBngPgsyG5aoeUlkFL/TyeA+T2c+iCh+4TyMX2LGNu/a87svhHluH2ERs1727Gf2fxxs94PcEXO2GduefT8KXm4EuWWbA35mXbeC7ODaPrxwn9v/ci7Y1+4zGy+7Nu5zOff6l8PFvu/1HNj3bfNe2M+DzAY9i0IYv4A8t83IuXs/DFHbWNevdP7Z5u3/OATJmk4W97mce/3LEYRrXs6zge0HSOePl1nXDS9sM2HM27h2bfzaX9u8a8fGz904xFLwRi0kwEtYuOMXWLkvftmR5pp3zdn/fm67wDzuez3zAublEOTcvueF+GGbt+24MrjPBb9w2P8gTLi87AXhui942fcKTxB+z+U+/uEm/tO5FReR2fbT9itdfCZJEmEU+SXeXOSebcY158YJsM3ZcWKfy3PXPSFJd/Ech9i3zduIOTn3w3bH9sfGdguIOT/zURB3RQ455L7tryD+uv+unILth4Bz256LbdaLdM9d4Iftp+23l//pgH1xU67l8HNT7rl2BNeOfW2bi4LII36lcwdmxTyw7bjyhXFLkHPXfRvX/SDErCubl7v2Pdd8WFz38W+76+eebQbgGma9zIubYdx1gTlxW5B7gnsdBbGHfzngnu0fCHLfdQO48nq5h3tiR+zFQey6/zZez7zkElw3cO1lXq5t910/ouD66yLPvWSJiis7sOX3cl+e4R/Pxbzcj4PtppzbfuPclRX/tv+CmLXN2Wb9sM3Y5uQcz7yQ5+6/yOGF7b7gmocZ25zrlusGroP8DCKdPS+/cU9kdGXxwsv9KDKLGfHL9VOeu+YAzuU6jF+2edsdG7/7QpA9OYQwMgmuu7Ar99z/KO7CrLhl+yH3XcScbVbO7Xtxsd32cs+WKd1zG5h1n8k9OXAthx/uczn3suOaE39cvOza+D0XN+U5/uXw8kvMeeFlVsz7ySzPbXNB7sRB3LP9st3z8882I+f2vXTY7kaxb5uVwyteBNu8EGTeRszYdl13BPu+F37PcR/uyHP8yxFGTjEr5zZR5AOuX+nsB8kmz1zZcN/PHsxEMe8idoR0dsO4CzNwN6wM6Yg9g1dwA+liCyqC2wfuuQGS+3Iu+J279oFc28+87NgH7nm5FQe444X4I366uM9dc/a5nx8uYs626+L6EWQWyHM/c/Z9CU8SuGFOyl0buGmngYv9PF9x40mw77vyB8WthFnO3WeCnNvx45oH9rMk3QV2OOxzAXb8zHiZB/Z92085x3Mx48pln0fByw35F79cef38Evm8zMs9nNv2/c6zAWQQP+TfT+aw2G4CnOPwck/uixkX+7nftYBz+zoIP/tessh9ORe8zIg5W0Yv5JmYs+36EeQeEDfEHfcaiBv4t92TazFrP/NDzItdF/u5IGbdA7hyyn2vf5gVt+1zF3FT/oF9DtzrMIi/tp84l/thEPP2uVyL2zi83BNz8g/ErNiLgu1eWPsil23Wtm8fwA0H7gfJaz/PBq48fgTJJue2Gb9zL1yzQfHhYpuTc7m23XHD6V6LHeA+E+z7tnlB/HGfybWXu17uAJiVIwx+ftjuyzPc8zpAWP+88LMrbtvIPfsZzuEG/t37gv1cDtyT+0GIfF7m5J64J+e2Wb9zEGTONRsH2x2vf5E5Dl5xJ9dh4tV+7idHGHdcoobJdt89d/32k8W+n05mVz5ce8ks97zkAOJPFL+zgeunyOQVJi9c+V383LLtAZixzYkctjnXjhB0H2667gj287B4hcUL210v/72uXVnEXlg/BTHv+uHiymj/g6j++hElXK45QewIYl/u2c9sMrnvyi3gvpfsct/rGXDdCjIbliC/8Ez+5dxF7Pu5E5XICl4vocJiB84NgFeAvMy5wE1x15bNvvZyI6osSQG3xW8X9z7O5RC87AE77DYw7/fMxjXn+mM/Eznl3zUL5B7M2HYzxUuOpLHD5pKUn0FuJBlfLrbbrgz2M69w4p6Y8ZJf7tlmxB05F2z7SbtrX9vngrgXBdcPIDIIYgb3bDns87iIP17+2djPbWDWPmzse1725Z5rLynEf/gj/0ImfnrZFbfdcHr5LXjd9zIn4FnQcy/8zHvdD+O+hD1q/PmZD+NnFGy3vM6jyA07XmkE/O67fsoh/spz9z6Qe+59166NPMO/1/O4uDII4kdYv8Qd/MsB3DDJv0vU+37AfJAcLmLeRewB2y03PEDu2/cEv/tJEdbtIDnwzCtcgtwTMwLuB9kDfvddxC38ywFc9+Uf2PKIXUGubTMA13LY5gU/O4L7DHi5A8QfOYLAc7gTJJPthm1O7Ik5uReVIDvivhdR79thdc342QmD7Z4dX15u2uYE3BPZbLzMxgHuiB+C3HPvRwH2RG7XbbnGeRjSyZGJnGEQ91155Vr8FjOuOWCbjSqr2IEbrt0gt+RZGL/lmW02KbzcEn/kPwxhwm9f227jvjyz/ZZDsM/DAPNw18ue3/0ksf2Xc8H1230uiDnXvJdZ4OeOH2Lez58kiBIuVx5BrsUt93kUxH0vN2x/vOQOQuzYdm03bP9sM3HDEmQPz+ywAC/ztpxx5bAJVPCKZzbw1L7vZUZwhXQFlmvXjaCAuW4CP/P2/biypCOdefe5XLvyuAQ9C8JLHrgVJXww65oT+7Zcrpv2M4BrOUAYv9Nh++H6lxQiJ/6D/MiW/0m56xfffvf94lbiwT5scG276T73I1vuijlx33YD5/a1F37P/e6LH37yBT0LAnaC7AX552KblXORyz5scG275T5PEvHLS4ZMsO0HuSXh9JLBJlN5vPBy05ZHSCe//RznYtc+Bzh3zbvXQYQ1F4QtjxdR/BC30oVBngX5HTVsXubhvu2HLVdU98Niu5uUH3BHjiC8nkv4g+LajyD/vNyzZcTzID/TyRrkd9CzskDktQ8bXNtx4T4XvO7bcRIXkSmMv64ZuQ6yGySb67aY97Pndc91Iwj3ude13Asrdy7w8k/ks/9tc66dMOEKi/hlHza4tv2xn4tdV16Aa/de0mTivp/dMG668e7awbXc84ob4Lrhku65IO57+WPLIf/irp9Z11wUbDf9/LGxn8k5/mHX9h/35L6cJ4ntXhS3bRntc8GV1c9tMSdueLkVB9s9P7+B17N0MiQlo4stS5DMgpccsCd2syVnVMKGS9JK/m1wHWQ3LOKGxI2fP645G697tjtybt+zEffFHS/3kgZ+2P7gPJ2cUQlU8IbxJJ0ZCUQYc2Hwcse16+dW0rLEQfz2kiGdXEEEuWuHO8gPPBOzLnJP3JFzIPb8CHoWB1uGbCBue/nh569fGKPeB0nHlw3klzB4+YN7XmEUs2HkDjLjki13BdeOHXa/tPTCK97S2cdz8SdT2XEexw0bCYPrrv3vRRgzmRA3fuJg+2OfQwb738brXraBn1H89TMr9+3nco7w288lPvzSwu9+HMQ/21/B614QdhhcvO4B8Vv88vPPvu/nFhC3BNesuOPnT9LY/qTzMyhcII7MbnyEAf74+SVuebkp9mw/7esgd4HYkX8br3v5hIQrKHxhzLhI3IUhnbl0skWJ47jpESXsNhIP6exHdV/CLW7HlS8biFw2IqN73yWJcIgbQW55mZG4TCdjXFy/ksQNq3sdFj97uI8jW3EjhE0DkVPM+xH0zEX89fLb734YvOyFCWNS2HEQJj7ETCbyZSN84p6Xu7mKy0zxS4ugsMGcxGe+hjMoXCJ7thD/xC8/gp75IXEexm62wwlEHsH1T+SME1YvYq/BGyYiJDDpzIoZN1C4tg8vxG08l3Nxy7YjfogZP8SMn3+ZIG4GySBmXPmDSGcuTLhtXLNw3ytOxJw898J+5mcmn5AwBskqZvBvm5dr+4gT5lzGE2QMg8gUJBueyRGWbLkriD0Jp50mYcPuhWvXT7Y4Mgu23Di3r5NC5AuSU/wOMhMXN3xlgS2DH2IG/0mnQVREhnSy2OGxzeFcnsl9uSeHF3734+DK7SWf/Ach9oLMiRn8i5ti3r0GYt7Gfe5lRu7BrJzjX9yX83zHlj2X+MVNOjkkfgX72o5/wXZPzu3nLmIG/7bdfEDkDpJfwh9kJkns+EoCN/7jhkPsZSMexM0wYYZZ27x9DcK4kUtEPltGL8RMpvKLP0H+iV9iRvwMspMUth/wN6nwwh05x39Yt2HWlsmLdM+TQGQN45eYscPs4sYHCQZxJEdcJM/BDUnPJBC3gmQTMyJDoZBO1kzTpKwIk2ZJIO7DPz+/7GdJywO3xX0JczYRP2z/xH+5l1QYYyl443geJuLEXdusBFrOvdyx7clz255LFFk2NCTcdpza/36EidP1Hclz9rE+gTTORjpny107/t20SDJ9wsge1y/Yk/jB4bqTRLyJ2yS/sdPIzr+SR4LwMmO7kWvEX8jkypFLmeCXV7wI9jnMufLadsUt916hILL6/RcikN1OD1DI4fHCzXNlhV++STK+4VamYc2HuBK8wpNkfCVNmLhLQn74k0/pBOxwiXy4J/czkdd2Q9yx3Q6DyFNoZBJvJD52XrMpxDxE1g+yXRfkQ56HX64c2fI/9gzeKCSRaBIpfhGB+3IA20+/81xjy+Ynh5ixw5IOrzBniu2WyOLKFMY/mBdzScqXLSR8kNVPXjHjxkehEVZ+20yQeYmzsOmcLXdtxI5rP45bAmTFIW4GyZ4E4l/S/tjuBbkt4ZQ4g1k5zxTxNyn34mDL4CeHmMG/nOcDkAUy+8kk4bHDJWbdsOLavZcLvOQAYeLZDouf7GIG/15u4p5tN8gdMStmXLu2+2JODvtZPmHLn49IvMWV000j+9x22899MYN/Oc8HbFmC5JKw+YUvU5J2V9yTfzv+M0HiIBtpaMeBfR4GyJOJ/VyRC7nstAlKJ8giBxCz9r1sAv8k3WwZMvFb3MQBbLeC3A3jfyZyhcWWO51/YeSxw5ML+TMlTLizSRy/JY7Frp2Gcp4EYfKGmMF/kn5nGzts2SYo/pImTJolQRi3IYuYy1QWcUvcscMp59nG9kdkkSNJGbKu4LUFxnk6xEwYs0HAT7hhu4PzKLJkA1sGF1fWqCSVMWy/bTddmSSO8R8UJve5uONnp6wRmb2w48A+LxRE5iiywywOxImfPTuNw6Zrtty18bMT1S2Rz5bTdsNP/mwAv+TIBHED4fBzC88knHZ4g+xERdxJyr04SDx4YctVVjLGjaOgdHLDi2u/OEgakcnLv6gywC0/O3bYg+LOtp/OfzzHETYM6dwrayQscuQrmcRjUHogzH5u2/ERJm7EnVzEI/wQ2f38wzORyS+MmSL+y5EpdniScM8m23GA/zh+2HayJWMmSNjkPFvAbfHLzx88E1nsuBLz9j0/xEymYRFZovgdFnE3nYyun17mk5QriLDxIGHDv5/ZdM/zEQlXWWDHUxQ5chXHkp5e2LKWVfxlSi7iEERJ20wRf7IZNgkP/v38Sfc8Kkm6lQm2DNmQJ2czeCVC3Ywp1/Z9MWvj2nPxc9cF96PIkiTiN3D9t58F+e/asf8BzoPsh0HiRxA37XsgnT+2HS/7wHUD1+nczSa2nPi3ZbGflaWMYQiSzw5HGGyzbpwI9j0/v213XBmSdNdGrmHGNueHnx8Az4L8crGfe52HsS+Hi8gRJkx+2HZx7uWPfU/O5V/suGaiyiTmXRlct7OFLbOXDPIsSJYwZjIFfog/Qlj/bPm87OC5fd81I/a87MbBDofrtxDGL5gRt7zCIM/CuC/Xrhty2ODaDoONyIF/+zyfseVzw1rW2PLgPKx8rjm5dt2TsEtaCfYz+346xKzrFgiTD7zse2G75coueMmQDWxZMvUH9uGeX1z53U+HxFE24sF2089912/XnFyHvR+GTOy6wA1JF9e9pPyx09bLH2Dfs/21ZXPN2OaEoHu2HAKeyWGDay/zUfFyNywil8SBjf1MrrOB7b/4KdjX7jMv8NyW1w1TPmPHgUu6cGeK7b4rg5/fXvfDxHcYtwU8Fze95JJn6dxJEjuMmfjrhiUXYYDsbjwKSfkPd2x/bHfta/u+IHHr9cwlnRk8t92T80wIkjlJxB8//yQ89nmSZF3BK8IDN5D2tZiRgMq5jf1M8DJr35PDvgZ+7gAxkzSu37i2/XXlFlzZbHPyj3s4xK6Yse3a5+mwzYo/LuKXjWsvnZ+ufbmOImsUXP/8EP/dMNj3w7pVVnjJLnLb98MCO+KG2LfvAXFfsM/FrIvthjy374E47gLbzbC4dkQO977ck3M8k+e2OSDmxC0g/2Fw3QPiZ6bADZFL3LPvAfzb517YdqPgZU/ObZmyhYTHz0/7vht29xrAfNIy2zJ5yRDknzzHv9gNMi9mBdsujiC7cbH9E8L4JfbEnGvHvm/7gfte7su1bc/+F9xrG9fNILP5BOSUwwVhcsOVKyCP+C/yiSy2TO65bU5w7UlY7Wvbjn1fzKbDNmu7BdxrG9sv+z8dsIcD5sUN+x7Af1j34iJ+ePkj8oQB9v3MR3EHiHmRyU++TBE3bb9cOW1/xZxrRq7tf7Fn20+H2I9j1wvYFzf8ZAaZ+iPATQm7uG/fA7ZMtjn7vot93zYndgX3GohZ1233Oiq23IIblnR++D2HO2If53KdDcQPOffzR565z8UuwDP7uhDwk1nu5TI84pcdx3JuyxFVJtu8HV7bHy9cv227wL6fzq1MsN2Gn7YMcZGw4BD5xV3b/ST9cvHyL1NsvyRcXtj3vczAjSC5vNy2zeNZkuFK0i0/xA8Jl1+82HiZyZSczOAFXpEqAQob4TDnldi4tu/BTFBkefkXVZZMEX/E3yD/3bDY17Y79n3XDA7XnSBcs+nsun7ItZzb9m0zXqTzK1eIfCJPOrnzCTsObXlxjiNqHLtxYP/jEHe9sP30su/3jyOuuy7iht9zwX5u+2v75SLPgC0HDvuZ4F6nQ9xygTte96Mg9r3+cXjJD+z7YgfY51Gw/XWJ62Yc3DDJv1cc2PjZywXwG/4FyWjLg3Mv+fzcsM2KX0kB9+RwkXtez7wQcyKf/PvZd+/b9uww2ucA9uTwwjYfZC4f8JJN7onsONw4yTWu/15x7MqHezby3HVLEPO2OeC6kw6RB8ANOXf/bbzuAb/7giur/S9+p3MjE4LCIn7jEHnCIua97AS548rj50Y2EL9EBttfOx4EL1nlP8hcOvzMR3XHCy83RNYk3Ad2PLj/OOCPnxxB8rnY7th23X8b1y1xw8tsFFw34I+f3H7Y5sUtuYfrOG5GBe57xUWQvxJ2W1Zxw75fCNjhF7nlXi7CYfvvhSsHzl25YMbPDdesfR3kr42YE7vyH9Z+pkj44K8rQ1xst4B9bvuXBHBH4krclHtJ+SHYftmk88dLvjDAnh0OuZbzsO4EATdcd2x/MsXPHfe+LUOS/tuU044Wu9qjR4/UWfYICqRNWHOCmIc5nKczD6L6kTRx/bfD6kUS4ZI4lP+wRLUX159cAbls8lFGP9y4TTKOo7oJc0KQ+Wy4G8dN23xYeyCMnSjuCba7IKr9sISRP1tI2IRc+y/EkcO2k025cxlHkgfkP2kkLF5uxw1nVHtxwpbOThw3yxI7zvzkFjP5EC5bXpBkWkRxOx3idxQZ4tixydR+HOCX4OenmIkqU9jw2M/D2skFkAH4yRFGxrjhyGY8SLiEpN23iRMOW750duK4L8Sx44fIHFcWG3FLSErGKNgyhPFfwpxp2POBfIh/ECZOM5FV7EYNX1nHj+1/0n7nKmy5jsMocZZp/MI+7Ml/0uQi7tKFIUzYBg8enDqLR4kZvK1atUqdZQ8EyD78CGtOsM2FMQ/Ejm03l8T1P515280gc+mQQuAWhiDEv7D+RjWfayCXfRQiIneS8kd1E+bkCCJb7oKwbgpiPoq9dHbsSj9uufJzOwlsf3KNhE2OsiKOHFHNx8X2Jxd+2f9JIXk/KAz2syj+iz3bfhBR3Bai2IlSxssSvzCJ/HHiKVtAFvsIIqrcUdxOh9iP4k4cOzaZ2o+Ln3+Z5p9MwpPrOPACMgTJkU5GqSfxH7UuEbfT+REHuGkf2UTcj+JPFNniuC/EseOHLW+m7opbtpu5Jqr/Yq6s5E0SO+xlGR7xO0gGW84gc17EsQNs/+LYz5Rs+m27nQ33hVz5I0TxK4pZL8ReXPvpsOXLph/2fxBR2/awlFDwnnLKKakzQkoWAkIKEbvizFYlGhWRg+WKbIhImxJUNvOlrEYFckvY5DyfkXj2im9X/nwPC8k9zD/ZR+KW8UcIIYQUNtI3wr/bT0qSEgreLl26qIMPPjh1RTZUpEMJ7HNCCgmpOKUizZcBkshEyIaKlEdpX+zyIPfyqczGoRBkFxnx78pbyHFPcgPzT/bxiltCCCGEFDbZbNtLrMErTJw4UfXv31+NGTNGrVy5MnWXbCjYWYIdy8JE0nBDTr84+ZjxRkhusctcoZc/yC/hKLQweMlciOEgZUNZ5h/xB/+AeZYQQggh+YbdXwnqq2S6Bq+ngpcQQgghhBBCCCGEEEJI/lNiiQZCCCGEEEIIIYQQQgghhQMVvIQQQgghhBBCCCGEEFKgUMFLCCGEEEIIIYQQQgghBQoVvIQQQgghhBBCCCGEEFKgUMFLCCGEEEIIIYQQQgghBQoVvIQQQgghhBBCCCGEEFKgUMFLCCGEEEIIIYQQQgghBQoVvIQQQgghhBBCCCGEEFKgUMFLCCGEEEIIIYQQQgghBQoVvIQQQgghhBBCCCGEEFKgUMFLCCGEEEIIIYQQQgghBUq5/zSpc9WjR4/UGck2VapUUQ0aNFA9e/ZUBx10UOouIYQQQgghhBBCCCGEhCcvFbyWSIZy5cqlztIjdqPYKWsOPPBAdckll6jy5TmhmhBCCCGEEEIIIYQQEp681ChCOStHVNLZcZXH+cDAgQPVmDFjUleEEEIIIYQQQgghhBASjvVmyqiruMW13MtHpa7Lm2++mTojhBBCCCGEEEIIIYSQcKx3awKIMteeAYz/fFfyTp8+PXVGCCGEEEIIIYQQQggh4VhvFLxxlnPIJ1asWJE6I4QQQgghhBBCCCGEkHD4Knjt5Q3scxf3mf0vRxC2mTDm02HP3I2KK4uLPLfN2aR7TgghhBBCCCGEEEIIIUlSSsErykl7eQMc9j0vXDNiT+7jcBHzth3gZ96LIHNR3MBhywLkvhe2ORtxw++5uOnnLiGEEEIIIYQQQgghhISllII3SHEpBCk97WeiyAxyU8zLP+7JEQbXnO1/OjfCmMX9sLL53Qdxw0cIIYQQQgghhBBCCCF+eM7ghfLRVn4CXMvhp5x07QAx69qx3XLd9HInm4gMfrjPcS6HkO458LpHCCGEEEIIIYQQQgghcfGdwWsrXG3CKEMFPzcEccs1l85eErhh8JJB7tkyij37ObDPBb/nQfFHCCGEEEIIIYQQQgghYfHdZM3FS4EZBluZaZ/DvXxRdPrJgfs4XEWtV1yIWeBnRu57PSOEEEIIIYQQQgghhJCoBCp4RWHppejMhHSK0FwQxu+g5xInbtxI2Oxnck0IIYQQQgghhBBCCCFJEmkG7/qopESY0il6Xex4gF2JG/tcsJ8B+xkhhBBCCCGEEEIIIYRkQgkFrygf5V+UkvKfFPmg7LTD6CdHOvn84gX3vcKIcz87hBBCCCGEEEIIIYQQEpUSCl5b2ZlOuZkpufLHD1fR6iWHnzIW9yWu5ABlFRZCCCGEEEIIIYQQQsiGSakZvKK89MLvfhzELVGUCrbCNNuIX15htp/JtYttz3XDtuuH+CHnhBBCCCGEEEIIIYQQEgXPGbxeyka/+3ERt2w35VzkyDZ+Clj4jWd2fLhm08kndsUduWcjz7zcJ4QQQgghhBBCCCGEkHSU2mRNlI5eCseklZDiXi788sP2R5S2cs9V0NrYZvzwclvAtRxe7hNCCCGEEEIIIYQQQkg6Sil4BVFIyr+thAxzLoQxK4pO4Lrh5WYQfublfjr3RBYcYfyGmbDmbOQa/xJ2QgghhBBCCCGEEEIIiYKvgtdWQGYTuG8fZUmuZRE/8N+hQwdzTgghhBBCCCGEEEIIIWHxVfCS3NK7d+/UGSGEEEIIIYQQQgghhISDCt484OCDD1adOnVKXRFCCCGEEEIIIYQQQkg4yv1nLQDbo0cyNbCGAAAzGUlEQVSP1BnJNtWrV1edO3dWhx9+uGrdunXqLiGEEEIIIYQQQgghhISnhIKXEEIIIYQQQgghhBBCSOHAJRoIIYQQQgghhBBCCCGkQKGClxBCCCGEEEIIIYQQQgoUKngJIYQQQgghhBBCCCGkQKGClxBCCCGEEEIIIYQQQgoUKngJIYQQQgghhBBCCCGkQKGClxBCCCGEEEIIIYQQQgoUKngJIYQQQgghhBBCCCGkQKGClxBCCCGEEEIIIYQQQgoUKngJIYQQQgghhBBCCCGkQKGClxBCCCGEEEIIIYQQQgoUKngJIYQQQgghhBBCCCGkQCn3nyZ1vo5/flD/rfpOqbW/6IvVRfcIIYQQQsgGyb9r/lWzJs1T2zSvqypVqZS6SwqRv/9YpWZNXqhadumiylfZTqnKHVJPCCGEEEJIoVLhJk3qXPOvWvvnp+qPJYPU378vN9cVK1UselQGTBozQ335zij1+y9/qvpN6qTuknwmW2m2etVqNWHUVO3uH6rGVtVVuXLlUk8y4+/f/1YzfpyjxgyeoGaMn6P++PVPtXjuUnOs+usftfmW1VImc8Nff/ytPnttqJo4erraqv4WaqNNqqaeFA5+aVUI5bmsZZw/c5H65JWv1c/zl2v/a6sKFSqknuQvq/5apWZMmGNk/1OXp+pbbKbKlU+mfJJkMIq5ifPU3GkL1C/Lf1PVa2yqKlTM/7yVK8qi3P08b6muJ6epGrWqqcoFoiydNu4n9cxtb6vfV/6hWndpmrq7DtQFP02er+ZOX6j++fsftfFmG4WKS2mHkQ7qP6U22rSqKl8+/Qdmce2tL2TSX+j/xKfq09eHqm1b1lA1aizV8fe7KlepiX7CupsQQgghpFApqeBdPV2tWvmZeq7Pu+qdJz5TVXVnsXGr+qmH2QEd1LX/eiuSx4+cqgb3H6U21p32tl2bp+6SpMHg/y89UKqoB/yZKmaylWafvzlC9e/3mfph6GSTJ7eovXnqSTwwcX34R9+pp259S33z+Tg9SJxrjh+GTSk+1v67Nuf57q/f/1LvPztYzZ4yX7XfuaVRlhUafmmVL+U5n+ucudMWqg+eG6zl+0917N6yTF+whWHciMnqkatfMWUIZWamLkOQu8pGVVImssvqf1abmWiVKldM7KXP+sbc6QvUA5e/qIYOHGPSCMqglp22Lci6JVvkutwtX7xS9bvxdfXt4Alq6cIVqs2OTfP+ZQ6Ut/37fW5egvY8fa8S+ee3Fb+rNx7+UL36wEA1etB4k89GfTZOffXeaGMP7YDXCwXYe03bee2hD9WYwT8ae8M/GquGfzxWbV6ruqrTcEvPch3X3vpGJv0FKIO/GzLRuNF2x2aq/H9LVLmKdZUqXyNlghBCCCGEFBolpjqYZRlyyK/Lf1N9L3lODdMdc1J2fPX+aPXA5S+YGZf5ztq1a/UgfG3qKj7jR0xRH+iBUfny5dSxFx6o7njtYnXve1epPm9eaq5J5iSVVknCOic5Fs1eot554nOTxvsc211d98TZ6sJ7TlSb1dg0ZSL7vP3YJ+qFu98zswVJaTDT8o2HP1K/6f+u+3RQVz16hj7OVPUa106ZIGXNv//+mzrLb2ZNnK9mTZqr2u/cQuefrVJ3lVqx+Bf12PWvqe+HTlabbb6p2uPwHdVxFx+kttulpXn+Rf9R6t2nPjcvkm1g74mbX1fjdFu8xVbV1f69dzX2OnZrYV7CvXzf++rLd0eZl7E2ce2RkjRoWkc1a9dQTfpulpo7fZG599+qb80/IYQQQggpTCwFr+4M/7swdZ4bfln+u/rzt79SV6Ss+Hnu0tRZ/rL7oV3U4f+3tzr5qsNV03bbpO7GAzOKhn041iggjzh7P9Vlj3bFMw4rVa5kZm+S+CSZVknDOic5Jo6ZoX7V8bnj3u3VPsd2UzVqV1ebVNs4ZzPnUI5XLPktdUW8+GnKfLVw9lLVYrtG6tDT91K16tVUm26+iSpfgfurliX4quHEK3uqg07eXR11zn6m3cln8MXDmC8nmFm4nXV7WT412xhK1CEfjDZLGjXv2Ehd8eBp6sCTeqhOu7dVJ1x2qDrz5mPURptU0XZ/NGv3CmJvwawlxt4l956s9jpyZ2Ov9xWHqd6X9TRfFH32xgiztIgQ1x4pDdZQ7rJnO/NybOyQH4sU4v/+rJ9QMU4IIYQQUqhYozwMytcUneYIrHP591+ceVWW/KPjH0qvfAcK2G4HdDLr/mWqnEC+W7pwufmcsXGreqm7JCmSTKukYZ2THPJiqGHzujlT6tr88/dq9csyKniDwJqy/639T9VvXIebYuUZDZrWVT0O66qqFcBSGSuW/KpmTpyr6jSsZZY/EH7V5W/it9ONEveA3rupqs7L0UYt6qrmHRur1f+sUXOmrZtAsGjOUrM8gJ+9dju1UDvt21Gt+nOVGvHxWKNgBnHtEW+wWV7tBjXV9AlzzGx/9d+f+u76v7QFIYQQQsj6SmjtC97uY+01HOZNvwbrH86ZOl/9+M00PdD+tfh+WDCTDoPPsOBTYKxXN37kFPN5sPvJnwueL1mw3JhfqM1D3ijAPD7pFntwD+sZThk702zuYYOwo4OMZ9PHzzafCnqBWWdYP05kR5gWz12ifhg2ycRlGBnhNvxAvK/UAy+/z+Bdv+A27OEQf9boAdDff2ZP4QXZICNk9UszmEHcSZwhLpf/vFLbmW7+cQ17CAvM+YUXYUI6I72R7l5+AWwEhQ3UamxVTW20ceXUXX/gLvKBnfe9EHN+ae8C+RAnUdIehA0nCJsvBXEbMnmVmaTSCoTJGzZRw+JFvtc56UCZ9suLiA/EC+IH8WQ/l3Sz6wMvxFy6tLOpunHwertR8itAGBEO5MGgOP9n1erA+JW48ssnXs8l/EH52yYozl3gtuR3lHf4Hwc7j4V1p8om6ddERlxmWs+FlQ3mguoIr+eQye2DwAziE21o2PwKmZBmkBFlO6y9KGkdJs/DPcSjXxyFlRPm7HINc1HqrDAgLHgR3Lz9NmrjTTdK3VVmzf62OzRTex/bTdVttG7ZBgEzfStXKVrPeKmOBwGzefGyrXHr+iUUxgJeGHXo3kpV0XULFMtQMIO49lwkLwXVh268ukj6edVBsIv8H5T+QMqSuAFzfn1MPIvaXxA5/PqKmM3fsOnWasn85SaNCSGEEEJIYVNOd3SLRyn//XKP6RA+c3t/M7A48KTd1R6HdzXP5D5mPv7fzceoH0fPUJ+9PkzfX6ccbLl9Y3X8JYeYnZOD+HbwePXJK0PNuoCY2WGDmRn/d8uxqoHudH7Rf6Qa+PyXqssebfXRXr31+Cfq53nLUiaVqrbFpuqkKw9TjVqWnIWJTiw22/jo5SFmAx4BG/HsclAns15kmNlM6BQ/c/vbaq8jd1Lb795avXDPe7qDXTRrzY6bOdMWqNcf+rD4GcDAZ9vWDdSxFx6gtthq3YZgEiasGVer3hbq1fsHlgjTJtU2Ur0uOki16oTdjEuC2SvYyGT2lAWpO0VUr7mZOviUPczmMPZMOtsvxNUrfQfowUTRbF3cw+Yk839arAermLVREsT5sRcelLoKj51mOx+wfajwYYDz8NUvm8+7T7riUPXJq1+r0YMnGEUcPvE/9drDzUy0fje8ZvLWeXceX2LW0+pVq9Wnrw1VXw8YUyI/VdV5af/jd1U777edmUkq/ixbtDJlYh0162xe7K6ku8QBBnmP3/iaWjx3mTr+4oPVdru2TtlaB2YKIaxjh07yNWMzacwM9eYjH5eYgYi42e+4XcwmXxg8SjkQwoZTgELqVZ3mM51PVbdpUVf1uvBA87m2ALe/eHukWY/ZLtMoM5gRtd/xu5iZuZmkVZy8IUQpY14UWp0jcWlvVjb1+1nq5fs+MOenXXeEati8SAak82sPfGgUGrbyus42W6pjzj9ANWxW1yg03n3yMzV04Hdqe503e110oFG+uIwdMlG93PcDtV33Vr5mXntggBr9xYTUVUlsuaPmVygg3nt6kBo/amqJcGxVv6aRBeEAS+Yv0/EwQC1bvEL9+VtpJaPUzXZaetVlXs/D5G+ELUyc2yD/uvkd+bfdjs3NciZh1i1GfA79cIxud4eXKKPlK5RT7XdqYZZgEHckbF7YdZ1NJvVcFNnA3OkLfetz4PXc7YNgY61PXx+qZfrPN0w2UJAhPYe8/22J/Lht6/pm5ifynle5i5LWqAeGffSd+uilISXiocpGldXex3RTux7cuXizMSlHdl8C4CUUNrn9ftgkEzYB7XzzDtsU2995/+1UvW3rFKc12vTNa1YLXWdF4aMXv1KfvzVCnXTVoTo9i9bWDQPyy0v3fqDTarI65LQ91W6HdDF10av3DzDLNux/wq5qr6N2TpkuCRSwj13/qun3nHbdkbp/uW0se17tCZAwdT9we3XoGXuX6DvZ/eDDztxbm+mUelLEL0t/VY9e94pas/pfdc7tx+n8V7QxmV8dhjoP6b+LdsfebC5sHzNqfwHlEXkd7bmdh2DnsDP3KdFXRLuFtcwlfcpVv9zcJ4QQQgghhUeFmzSpc92rHW4GQWO/nqQHNb+YNc6w+zGQ+0sXrVDTfvhJTRk7yyh+dtEDlm1a1lfzZixSC39aYgYnrTptqwev/pOD//pjlZl9haW+MCukYbOtVavOTVT9JnXMedP22yjs8IvZGvBrhZYFn+Vt26qe2kN3hNvt1Fz9qgejGMT8NHm+mUGCDjTA4OGz14apD1/6ymzAcZjuuPc8fU/VYecW2q/f1DeDxpsZIBgslA+QEWBWA8K80aZV1fgRRbMMN9eDLFxvt0srVbvBlmbQ99Qtb6q/fl+l9jyiqzrq3P3MYGCjjauYQc2kMTNVaz3AgB0gYcL6r9hhGgoqhAm7GOPTcQxKpn7/k2rSpr4e0FUzdgBmYTxx0xtmZk6Ljo3Vvr2668F1K1VND5pnT12gvtcDbsyUwSBOOu7i1ybVqpo1Z5E21Wtuao6Ou7TUMiiz3uzyn381u4Z37NbSfLKHdGik0xT/URE/sa4bBmJ2+JBmSxasKBU+DISRLlguAjOjRn0+zoQLg5Ftmm+t2uj0hWJuzOAJRkm2w17tiwfgGMi8pQcn2DQLm4Ycfe7+6uCTd9cD4cY6P/5s3K1ctZKJlwoVyptwVtLHMp2PK1etXBxmzGJpogf3UMhJumMjmbZdm5vBOZTgM8bPUf/8849q37VFqR3BF81dpgdUQ9UWtaurffRADnb8mKAHfy/e/Z76689VavtdWpuB3A57tjNrBw5+5xuTPyFH5x5ti3fFjhJOpD8Guc/3ecfkjR32aK966cH/zvtvb/zAoHWT6hsXm0XZfufJz8xgsOrGlXU+3skoD1pst615ITD5u5lGiVGr7hYZpVWcvAGiljEvCq3OwRqdKN+ymz/K//N3vWvOT7n6cFPnAig7n7z5TbVw9s9qx73aGUXlHod1VTW3rqF+HDXNbHyE+Nx8y2omfD8Mn2KUEK06N1Wbbb6JcUNAHvvw5a9M2A/svXuJFwA2G+u0rqzzJ+IUs+FLxGWLuuYFwto1ayPl1wUzF6uHr31ZzdP/zTs0MvUbZuJBYYZ1ZJEH23RpahR+yK9QxFbduKopxwgH4rqBlgMyNGnb0ORVSUspxy5ez8Pkb9TBYeJc8jAUkk/d+qYpS8i/R+v8u50u9wjbJB2uetvWNm1JEFJGv3h7VKkyCqUPyo1dDjbV8iJeJb9vqWXD5lgmjay6ziZuPRdVNoC48KojBK/n0gdZseQXozz78t1vTH7YVNdlmD3aceeWqqITJgGKRmz0BeVuFZ3v9tRlGi+tWmqZ0K5DyYW4cstd2PIlaf3dVz8aBSuUqkecta865JQ91Da6D4V8CqV1m87NiuMA7cCCWT+X6GehDEKJOW7kVNPHOOnKQ42sWAYFZQDryq5c+puqoeuZpu0a6rBvUpyPly9eaZTLYeqsKCDuRn76gylz3Q/qXNwmhWGZlunzt4brqC1n8j7qIdT/Iz/5wfQxofDeyqeeUTqNJ347Qy1buFI11m1F7fpbxLJnvyS1qVCpgmk/0O9CP6Cy9QIOs1kH9x9pFLjYiLWdrh8qWC+70IaO+OR70xfbUedP9Hex+duTup2a+eNc1UCXMyhfO+3eRm29zVYm7SeMnGbaRrsdCNPHjNpfMO3R68PUoLdHmvJ+zHkHqAOO31XVql/ThAt5sW2XZsVl5S9dh6P/WF3nWdRv5ap2M/cJIYQQQkjhEVnBi8/N0Ok8+9ZeelDcwqzJ1qhFPT2or6fGjZhqlIWtuzQxAw8/oARBRxLKAQxMuuvO+kEn9TD30PmFIgLIwAWfAJ94eU+1hx44YiCHA0ohKH4wQMJMWOnET/1hltnZfcutt1Bn3nC0atymgbG/ea1qqoMeAEJ+zPzZVt/HYC4I6XxjxucWW1UzM4T2OhqzcLqYOIAC4KV73zODYswww7qjmPmFAwqjGtrPUZ//oPT4wAx2gYQJdo+94EAdpq56AFDLhAkdegyIZ02arwd6a3QYm5qBA5R1mDUFxcKBJ+5mBo51G9c2cY8BKgZ64/RABYM/pJkMwMQvdOpbbN/YpFmPw7saObeoXcPYgzKmSDlcSZ1w6SFq+93amHTAwCAO4icGGW74MADxCp8oVfA55Ur9/OQrD1OH/98+Jp6xjivM+CkERn32g5nBBKXQadccoeo0qmWebVm3hhngYrA1VcvTutO2ZnYXBso1t95cfa/TFUobCXMzbV8UHq6CF0BhMkEP6Jcu0uVCm8VA1Wb4R2PNLBsoUSGzH/js8u1+n5iwIi0x8xrKKMwAQlrWb1JbTRw93Zi1FbxRwon8N2PCHKMAwaAeeRMKByjCUL4wSwcKfBlkjv1qovr41aF6AL2lOvf241UbXbaQt5AHsAFdtwO2N2lYrly5jNIqTt6IU8a8KLQ6x1Y0zZ+5SL2gB/hYc7bXhQeZvApE6Q8lPvLSAb13N2kM5QDyOdL42y9/NOnRRsdnNf1s/oxFat6MxaZ+Rvm3wU7qg94aafL9nrqe8FOW1ahV3SiI4Rbiwo5LtBdQhETNr1DUoQ5C/YSZeajfkDcw+xNKtp8mLzB1LuIc7iCtpRxDgYK80V7HNWRAeQKSlnEUvH75GwqfKHGOuMAM4B+GTla79+yi9j9hNxNe5A34ubsui3VSZSuIwDK6Z7tiReqqv/8xL1iRvqhPJL+32aGpOub8A0382HWdS5x6LqpsQXWE4PXc7oNg47jDz9rHzCLeVcchFOZ++RXMnrpQDXj+S/NS6IwbjtJ1fluTj/GZf8furfCWxuRJu9xFLV///vOvecnz24o/VO/LDzFxDbPwA2HouncHtbFOe8FLwYsy+Nkbw1X9bbdSJ1xyiKqu4x9hR3xuUbuamjByqnmZceyFBxb3sex6NWydFQW8GPvm8/Em/qFYddPKDyiGP35lqJZttuq8exszIUDaeyjUUadjBrifohYK2OnjfjKyo+5EeOLYk7h1wcsJ5EvUuS10G4D8IOAF5PTxc0y78OuKP3U72rREn3b4R9+ZL6m6H9TJ5AXEDdp1tLtd9+lgNhjFCyekG144dejeUk0eM9M831rXhfJCJ10fM05/AW3mB88ONmX81OuONH085EOkPb6awBcceLktoI5APYqXFO26NlPlN+qeekIIIYQQQgqN4OlkPuymB6ruJ6X4XLF2/Zrq91/+MEreJMGgEBt12GCQ3Kxd0Q7986YXbd6BAc73QyaZzy8xgwi7uttgNhIGBmt0Z3ya7tiHBYNMDMzdMMsO5U3aNfD8DBAKlJpahpmT5utOdMmd+zHwchWBkK+LHghiZhs+6cVAEcydBqXMItNB31EPEl1lAAYYmGGCGXUYFLug079fr6JP7HNFuvBhRtGvqfAJmJXVdZ+OpdLaD3xGCcUZZtjsdsgOpTZcQR6BEuWXpb+ZgXMm1NaD9PY7NTebtxTvOJ0CnzaPGzFZDwA3NrPkgpij8ypkwcYmnXdvWyotodSCsssmTjgxO9D+RNQG6SCfxkOJ8d3XOjzarFeZgTmsuejKGTWtbKLkjUzKWCaUdZ0jYFYYliNAXXD0efuXiLdFc5cahYFfXqq37VZmJhlmj0EJhXpsp3230zKVN/kV+VZAOJCvkb+327VNqTwWhTj5FfGE2YFQhtjhwH3MNgVzdF7IFX75O2qcAyh//KhQqWIpN1zsMrrnkV0989jOB2yvsNTIxG9nGgVoXKLWc7mUTYBfmM0NpWG6uBO+/3qiCVPH7i1VA2f5DMgIZZxL1LT+T//sz+FtYBdpnQ68zIWcUOK55QYKSLwEQf8Ks2BdwtZZuQD55ofhU9XoQeONonLvo7rptqRoBizKA15WRSWuPT/QrmFWPtyEElpAnp4xYbZZ9gMzoZHvZ/y4bpkjpBE2JUN/ELO3AZYlgkJ48y03My8ukadssITQDnu312FYa+LEXT/Xr48Zp7+AuMcXYl6gPXdlw8xduPHHr3+VWLqEEEIIIYQUHrEUvF7g83cMPjD4gnIpF8jGMeIf1iHDJ6SVqlRUfxslw6RSBzrimNmAT6fDgtk0WzcsPVtk7tSFJrxVN8LgdXopv9Dhr1ipghkQrAnZccZMw031oAyd7V9XFim55s1cZAYG+ETR3uBEQKcfsxnB4nnLzOfFNtiQBJ905gNb6kETZkEhrfC5og0+H23V2X8Wpgs+TcTnz5gtiXUS3fjH8ddvRUo/fKacCYhjKL6wecvE0TPMZ+wC0hnrVmLGG9IoCHyCjrSs17i22eAkDHHCWbP25mbW7viRU4s+G5041wyQXf7Q9n6eu1xhNjPySViiplUYvPJGNspYJuSqzlmzpmjX+X43vW4+vT7mggMV1gm1wafXeKmz8SZV1YyJ80r5i0+6MdjHjDnM0gLY1R5LJiC/Iu4E5Gfka9Q/rTt7r1kZlqTLJRQQucYvf8eJcygCkf6D3/1GvXLfB2aJiihtpJRRKEmxHrEXUEZhSY1MX7BGredyKZtNu52bFysM04EXDnhJBJq0K/kCIYioaY1ZkXUb1TIKw+fufEcNenuEsl+ihAEzLfGS6zcdV1A02kD59q/ON5jpac/ATIdbZ0UF4cOyGFEYP2KKev3BgSY8vS46oITiHwpGhDEqce0FgRdmeOGF2dvIJ2DpopVq3vTFqmnbhqrldo2M0nX6uNk6/oraT/SxMOO2QdPaxV9kLFmwzNR7+IoDL0C8wHI0kH/J/BUl1mkHfn3MOP0FzDqG4hcz5x+//lX1zaBxpTZsI4QQQggh6yeJKXjzASh4oOjBJ94fvTjEfNbsHtiMBAMwDPIwOAtDuXI6mjwGhaKwwTp8Xn69cv8AtWjOMmMVSqowYNYbNt/BZ5FYGw3I7tNbpT7r8wLKFADF2OrVJRVdxs2Qg9pcgXXvMCCygYRR5MSgGoNPKMPffvxTzzT4ov+olOnMwafcjVvVVVi+BGv8AQzCv/1yvFkPr/OebdMqHX6eW6RoqLFltdBhjRNOfPaNGZ9Q3OLz3Ueuflld26uv2djn53nrNipDfoGSEvlnM5+BqRdR0yoKdt7IRhlLkmzVOT9Nmq8H56+ZGY91db5r2rZBqfgW5Sg20Xvx7nc9/cYMRBvMCoQCD3GFfCtKJORn5GvMrs70ZVAm5RIvIbCL/CevfK2eu7O/uv3Mx9Qbj3yUepo7/PJ3nDjHusMHn9LDvADFus7/u/AZdX3vB9QHzwxSWNc0HVJGMcvOT9ltv2DF59yZEKWey7Vsgr0eajpEQQnlWtDSUS5R0xr5Zd9ji9bGRx324QtfqZtOfljdde6TavQX68paEEVxX1/NGD9XDf9kbPFLObzk+fjlr00cdtTuZ6vu9QJLGdjLF6QDs7xfe/BDY++Uqw9TDZqWnDGNF3KbbFbU1vybUpp6AYXriiVF5QN5K669ILD+NV5MQGm7cmlR3kSaIk9D+QsFLhS5s6fML867mO2L+hzLxFSqXKRwXrqwaOPWGrU28/1SCi95UBaQN9yvTfz6mHH6C5gNjI3hsHkg1mt+XafFdbq+efCKF8xyDq6if63OU2XRdhJCCCGEkORZrxS8AmYTXXTvSere967yPTAjLqlBEja98PJDjqsfP8uspRcFdNLdDVHCzMDBgAMK4nynqh78+c10iQpmiN347LmecS+HvUt5XJAmWCIDM37w+TJmxcyf9bOaNWmBWUJg21YNUiazQ9RwYkmDG589T5167RGq5fZFn+5i1/b7Ln5OjRs+2VznI155IxtlLEmSrnMataqnLn/wNLNJD9Z6/PiVrz1nYIMue7T19E+O21652CzvImBdZig1kG+Rf5GPkZ8R5zt4LAETlyj5FXUblJ83n/Kwuv/SF9TQD8eYNVsxWxSz1/KNKHGO+MTa0YiL4y46yCypg0/sv3xvtLr3omfNBnphgBIGyph0YBOxTIhTz+VKtrIgSlrjBcoJl/ZU1z1xttrrqJ1Uja2qmZnArz0wUD1zx9tpZ1JCOYgXc1s32kq9//QX6ooj7lGX9uyjbj/zcbNM0xFn72teGJQFYdLYKHcf+NAoM0+77gid1+ulnqwDYaxZp0hhPH/6YvPvBZSomIWKfIgvO+LaCwJLWGCmrizDgKUTpoydaepHKH/Rn8J641CUYukgKI8x2xd1JZaTcTHK0jQv8SpUKGfWeM4mWDv7nDuOV5c/dLraeb+OapPNNjLtyNO3vaXefvyTEm2JvKTBy2CkGyGEEEIIKVzWKwUvPuOGUsFrdmg22DqleJAZtkmAjvY/q9aYgYUMhmXmLgaKfoMHmW2EXcwrRpjdlGskfBV1+CpXyWwwsXnNzcyMrL//XKV+y0F6g+btGunBPNZdXKR+0gMmKECgrOm8ezujGEnHlqkNoKJ8rp9JOPFZKzb7OePGY9RNz51vFIb41HfYh2PNYBUznMz6e7/9ZTaVKku88kY2yliSZKvOqVixolEOHdB7N7O++ajPx6khH4wuUf7xGS5e5qDsu8uyBIENvrCxlKyzinyM/BxmiZEwxMmvIz/9Xr3S9wOzRMSl95+qbnnxQvV/Nx+rjjp3f7PJXxzctSaTIG6cAyioOvVoqy6850R1bb+zjYIIeWbEx98HKoWkjP6py8evPp/8Y/O3P37708gGs5kStp6LKxvWApV1wLMN2lGsjQrFn3wVE4ZM0hplDGuqXvvE2bruPdooBKeNm62m/1hydrcXWH9/2aIV6qCTe6iTrz5MnXhFT3X2bb3UzS+cbza9TOoFTFiwHET1mpua+hnKQD9s5e4pVx/uqdwVRDmKvCVLI7hgc1gs8YKNNLG/A4hrL4iW2zcxymAsw4DlE+amlmeA8hdgnV0s04BN0rDR7aI5S1T9prXNkkKC+INZwP/4yIW8hy+z0LfDjPYwxOkvCMgn2ODviLP3My968eIAafPDsMlqwU8/p0ytkwt9x7DLnhBCCCGEkPxkvVLwVt6ostnZGjNNsAacrJmWLbZpXtesVYid/1cm9OkpdvvGbBIMGGQH8/rb1jYDkPmzFpsdkl0Qzlk/zjXnCD/iIV/xCl9cMOMESgh8Cj5l7KzU3ewin7hjXbzP3hiqJnwzzWyAgs2+woABF5QGWFsPn/a7rPp7tVGI2CQVTswI37dXd6PswAwnKDywRiLkx5qAk76dmTJZNnjljWyUsSTJdp2DeDgGS21stpH65JWhxg8B8YRPd+dOW6gWz1+WuhsObJIFpRPyL/Ix6LR7+iVGwhA1v0J5hrWioXw45LQ9zZIUSSixRAETR0HnRyZxbgMF4H7H72KWDcCLldW6LPphl9E5uox4sWTBCoX1bSEbZMyUsPVcXNmwHAyWhcnFy7nKeAmTWisVy9V4gRdcLkmkNfJxy+23VV337mDqiGWLg9eyRZvw6WvDijbl2rOdate1herQrZWO922MYrAsQBgQD1iP2G8tXle526hV8HruWIYCL3Ow9AE20nTBDNNRn/1g8h/ir1rNzcz9uPaCwBrZteptoRbM+tnUQ3/+9meJzSxlmQYo3scNn2JeyjRpq9PDUtJuufXmRgmMNaqXp5aHcEEbBrlQN6KODEOc/oIXeJmCmegIl/syEmsOQ6761lcehBBCCCGkMMkLBe8Sa2ZqpgqSDju3MJtLfffVRLOLszszatGcpeqjF78qXm8tE7BeXjM94MXM2k9fH1pqjT0Mej9/c7geVJZWcsyZtshsRGSD6y/f+cZ06DG4k7XcMKjB5/aLZi8t9ak2wodwYmCyea3NVKfdW6eeRONPPcCVWcD4XFriDWtEPnnz6+qJG1+PFGdRwhcXKKOwHiQGlV+9+436adK6na4BwoD19D57fViim4xgEyoMMn+avECt1IO59ju1LLX7tR/1t61jdkhHPsTmJ3b+hHLzzUc+NspXmzjhNJ+SemyshgE61kitVa+GUfhCadBFpwVeIAz/6LtSbiNfIA9j5lJSRMkbmZSxIAqpzsFMuCPO2secv/Pk57oeWGLOsVYu1syF4mXgC1+ZtLJBXI345Hs15ssJpWTCTF3M2EX+RT6G0gEbsCVB1Pz6n/6t/dc7LVAmvnpvdOrKm5VLfzH5ANh1F9IES2dAQbdwTlGcCdPG/aS+/uDb1FV44sQ5FDNYhsFNA5QpvGSBIjHopRzKaPeDOpn4RJy5SzpABrQLmJGNGfpJbagZpp6LK5us64qXAJgZaccN0vxDXV4Qx0kABWWrLkWzNMd+PamUjFO/n2XWyXaJk9bYQG+Fo8RFHYw1XuH/1g3919EHFcqXNzOO505fqO4+7yn10v/e1W3CR6r/458YxeX08bPNMgKZgnKH9dgfuPwFNX/motRdfxo039rUzTMnFL1ItsG6rm889JHJA8dfcnBa5S5A3Hbdt6P5muS9p74o0R6gDH+p640fhk8xZXinfbcrfuET114Q2LysYdOtzSxZtIGyPIOAPI71drEG7/CPx5o6pVlqU1thq/pbqu26tzSK0/efGVSqv4E6EG7jZeVO+20X+kVanP4CzCCPuwph5OPlOm/i6wps1AdQ32LmMl40QZlMCCGEEEIKmwo3aVLnSq0abgYjGARhg5XmHRsZ5SKw72+3a2u1Vb2Ss4TSPfcCHVB8LrZw9s9mfbmxX09Ug94eqdp0bmqUT7N0pxgzbqDkadu1ecrWOryeo7OOzisUnnB7kh58YLCEQQgGoB+/+rUZ8ONTP3Scg1gyf7kJE2ZwYOMUd900fALcqHk9NeX7n8xMNaxvigHepDEz1DefjzNrneE+Ziq16NjYDJBEZnzuOPqLcWrRT0vU8iW/qGEDx+iBwRems47ZPj0O76rK68Ge+INZvFPG/qQHoz+ZAcyCmYvVxG+nq6/e+0YNeX+0MXvUOfupxq3XrY+YLv6EyWNmGQUaPiHFYO+D5wabWSFIe+yc/tkbw82u0Zh11qiF/2eXQPzcvOam6istF2bFpAsfNsH5ZtB4M2jr3KOtqr7FZua+za/Lf1djBk8ws2Z22Kt9sQIQM7Ow+cqPOn2xkQ02p8Fg6sdR08ygHAO+RXOXqjZdmhYrJ/zcEiTd/eINeRO7y8+eusDMgsT6sOnW+hNgF5veTRozU8fT7OL8ifzyzlOfm920y1csbxRWdlxEDefgd0apV/sOMHkFA76VOg3Gj5iqPnh2sPpXpy0+/d96m62M21tuXcPECTYTGjtkYtFMcT1QNXm436dGVixDgNm0maRVnLwRp4wFUah1DpQOSP8JOr2x8Vpbnc6I30Y6TebpMguZoGxaqNMO8YFP6t96/FMz42zN6jWq3Y7NVQVtXygHRdLGlcxzKEYQ59umPn8Oy4RRU00a2u2EECW/QmkDxQPqNswCRZovX7zC5Fds1rTJZlXNDMs6DbYsmSZr/zPxjQ2Opo3XdqcsMArwLWpXU7W12U2rbWzKKdbOxCZ9C3Q8wY8h739rlMZQ4uCFR91G69IyXf6GwihKnCM/vt3vE/XuU4PUlO+KZsjj8/uR2t6gt0YaZdEhp+6hqqV5QbSFrnu172qSdmPMlz+a/AXFDGZ0G6X/nKUmHQ49dc8SMwvDtgFehK3n4siGfA1FJsrIVC3fjPGzTTohDt99epCJF7RByENSh8TpYwhQVC/Ube28GYvNixiREeUTm5ltr91Dfqxec7Pichc1rbFExRM3v6G+6D/SKB5Xa/kXaPPI74ibZu0bqd16djFuA6/yU7FyRbPO7PiR08yn84g7yIylMn78Zrr6Vtd/Xw8YY17QIY+DOHXWNB3fkOuXpb+ptWvXmmV8gjB1D2TS7VL7nZsbpSfAS8QX7n7X3MeLmrFDJqmPXh6iPn1taKlj6vczVYedWpgwIm7rNqxlyvmMCXON8hN1BPLBe88MMmW/StXK6qhz9zWzZYW49oIQJTDyBV64dOzWUrXTcsp9gHz7g65D8EICX2x0P3D74nQEMFu/SW01b/pi048a89WPxe0UFPMfvvSVWX5ov+O6q+12aV3sdro+Zpz+wtxpC1S/m94w+eT3FX+Yl71Yf/c9Xa6Qjzr3aGNetqANQFv9xdsjTBu2+6E7mKUjylXtlvKdEEIIIYQUGmWq4IXS6F89OMKndj/PW24Gvk3aNDQzhzDDJ87ABWDgg2soqtChnYdDD5IwYGqxXWN14hWHlVJIeJGu8w3wiWqn3dqY2TyQx/in/VqycIWqVbeGOuzMfdRuh+xgPpEDIvP2u7XWHe12ZtA4UQ/csG5cpSoV1X7H76r2OaabGQTZYD24Dt1amDDMmjhPzZm20PgDpdi2rRuoU645wiiQbNLFH0CY6jaqpWb8OFctXbDCDDjRycdnoZjRUUk/nz5htvpt5Z+qxfbbhlbw7nNsNz1IaqmGDhxjBoZB4ctEaYiBUqOW9cyO0Yh7KIgQL/NnLjYKgi57tFHHX3yIqpX6NBhkquCFn/jMccLIqapj95ZmxikGS2Gp37SOKR8YlEI5BXmhwDr4lD3U3kd1MwNXlCM7LqKGEzOSqm5S1QwwEf8/DJtilPUocydccoj5fFWAMhUzxLF0A/LVnKkLzKw6lB98eopZWVizFTIkoeCNkjdA1DIWRKHWOYj7hs22NrO2kJbYhR1piPUxMYMYaQ1lCxQM8BeKoc1qbKL2P24XdeCJuxtzLhXKlTcKYwzuD9BxD2VCFIIUvFHza30dn5hBN/PHOUaRhTD+uuIPo/zc44iuRsEB5aId51Dq4+UEFG5QEEMWrFvcQeetLWpXN/m6ia4b4S7SZeHsImVZ5Y0qqeMvOli12bGpGjdsslG6i7th8jfyZ9g4h4K3WbtGZv1ahAEKKIQNcYJ64FRdb9dJvWgJAvXLtm0amBmg+Fwb+RB+IsxQaO3Tq7vqeeqeZoagTbr8HETYei6ubHhpgTV50Z4h38MOlqvYW9cBB5/cw9xH+UlCwYuXBijjUOBBYY1P6eEf1hA++arDTF7FyzAshWKXuyhpvZE2gw3Q5s5YaNIaeQsvfVAfdtt/e3Xk2fuWaGu8ys/c6QvUC3e/p9rt2Eyd3+cEk/e7H9jJKN9Q3rHMA/Iy5O/QraVpq+PUWZi5iZctWHsVM13rN6lj7vtRRZcZ1GmY+b5t64ZqS13vAqTHxNEzzDleFOHwA2nQqUeb4jhA3Lbu3NSU6wWzlhiFKOIDZRDpceo1R5bq04C49oLAy4Yfv5lmyv0+vbrpeqXkizhs/Dlzku4j6fZ6p/23M8p6F+SB9jvp+P1Px/nk+cV1Hmbqb73NlqYd3V63YyhXQpg+ZtT+QjV9NGy+tXlhInUp/pHW+/feTe17bHeTFmDStzPM+u5QarffuaW5RwUvIYQQQkjhUu4/65uv/365J3WWWzDDAJ1zKHJkZkhSYFCITyuh/MFg0u5cJw2iEn5hkAO/pBNtg9k9+BwU66Ede+FBxXZAWPnC+BMVuAU3oZBw5YBS6dk7+6tD9CAdA6goiKwYmMLdbG+sg89XoRSAchED7mwAReNzd/XXA+cF6swbj44cJ0KctBfChlP8QDmAAtNVZnuB2eVr9EA3qbzlR5y8kVTeX1/qHBekHfJnmHBBwf7OE5+pffSAH2szZ5Ow+TVO+ZX4huLHz04264WwcS51LGZMZprv8rmeiyqbxAsIWw9kguQXfJYepj60CZvWEgd4yRA2TFgn+tk+/c2L1nPvPN6sv+2CFztP3vym+nXFb+q8209QNWrHX44DMuJlS9j8g5d+z9zxluqwc0vV66IDdZiSaxvsdipK2YhrLxdEqYvDIGEFYdsVaefQTrp2/Mp3ueqXm39CCCGEEFJ4lBx1VCibTRYwyMKsg2x0ztGxxSfrmAGbbUUL3Ic/8C+s4knsRJEvjj/pwAAUM/lcOTCo+PbLCeYTdKzTGRWRFW5ne+AOkIeQl7Kl9ACYyYPPQhu3qmtmRcUlTtoLYcMpfsBsWGUG3Ewyb/kRJ2+InUzlW1/qHBekXZhwYbPGUZ99bz69x4Zr2SZsfo1TfiW+g+zEcTcsYeNc6tgwZtORzfAIceu5qLJJvOSqjZD8ElW5C8KmtcRBlDD9999ao6j899+1CjNJvcCSGcsXr1Sb10T8RpffBjJGyT9N2jZQzTpso378doZZlzlJ7HYqXdzaxLWXC8LmlbBIWKO0K9LOedmR8t2mcxPVsFmqb1dh3RJfhBBCCCGk8Cgx8uCnWcQFn8li7bkDe/fIusKvEMCnrd8OmqDW6IF4593bmVlqhBQaWCcSSxZgozVsuEaIDeu53FNl46qq9Q7NzFq+T978htnQCxu2YaPTJfOXqc/fGq763fi6MdvztD1V1U2zp9z3AnlgzyN2NueTxxQty0AKF/TrsLbyrj27KJmNXa7qTuafEEIIIYQUJiWWaAD//fWpUv/8kLoiSeMu0ZDvIHus1YP8Ch5rw22IYIOTfje8Ztb6/L+bjjUztAgpJPDZ7jO391ezp8xXp1x7uGrRcd16zIQA1nNlA2bwfj1wjNn8DRtn2WD5pG1a1FVHnbO/WR+/LIDiH+ss19+2Tk5mW5PsgSUasNlog2Z1i2b3Vu6gym20T+opIYQQQggpREopeA3/LlD/rfpOqTWzlfrvz9RNkgSyJlo2104k2SOba7cSkgtkDdKgNWvJhg3rubIF6xJjczZsqLZm9RpVo1Y1s5FjnGUlCPGl3EZKVWykylXZXqkKdVM3CSGEEEJIoeKt4CWEEEIIIYQQQgghhBCS9/AbO0IIIYQQQgghhBBCCClQqOAlhBBCCCGEEEIIIYSQAoUKXkIIIYQQQgghhBBCCClQqOAlhBBCCCGEEEIIIYSQAoUKXkIIIYQQQgghhBBCCClQqOAlhBBCCCGEEEIIIYSQAoUKXkIIIYQQQgghhBBCCClQqOAlhBBCCCGEEEIIIYSQAoUKXkIIIYQQQgghhBBCCClQqOAlhBBCCCGEEEIIIYSQAoUKXkIIIYQQQgghhBBCCClQqOAlhBBCCCGEEEIIIYSQAoUKXkIIIYQQQgghhBBCCClQqOAlhBBCCCGEEEIIIYSQgkSp/wdOJwX7eTCUTQAAAABJRU5ErkJggg==;" parent="1" vertex="1">
          <mxGeometry x="-132" y="-21" width="605.03" height="241" as="geometry" />
        </mxCell>
        <mxCell id="nav4vZcdkOdR8qJwMDK2-48" value="Murtadha&#xa;- Research (very confident)&#xa;- management/ leadership (little confidence)&#xa;- code debugging (very confident)&#xa;- documenting (very confident)&#xa;- development, or machine learning (weak)" style="text;whiteSpace=wrap;fontSize=16;" parent="1" vertex="1">
          <mxGeometry x="261" y="-401" width="320" height="134" as="geometry" />
        </mxCell>
        <mxCell id="nav4vZcdkOdR8qJwMDK2-50" value="Raza&#xa;- UI/UX designing on Figma (very confident)&#xa;- ⁠graphic designing(confident)&#xa;- ⁠video editing (little Confident)&#xa;- researching(confident)&#xa;- documenting/ writing (little confident)&#xa;- management(confident)&#xa;- ⁠databases(weak)" style="text;whiteSpace=wrap;fontSize=16;" parent="1" vertex="1">
          <mxGeometry x="388.5" y="-580" width="339" height="166" as="geometry" />
        </mxCell>
        <mxCell id="nav4vZcdkOdR8qJwMDK2-51" value="Shehroz Nusrat Abbasi&#xa;- HTML/CSS – Strong understanding of web development and styling.&#xa;- Report Making – Skilled in creating detailed, structured, and professional reports.&#xa;- Research – Experienced in conducting thorough and analytical research." style="text;whiteSpace=wrap;fontSize=16;" parent="1" vertex="1">
          <mxGeometry x="283.0029411764707" y="-260.9964705882353" width="550" height="137" as="geometry" />
        </mxCell>
        <mxCell id="nav4vZcdkOdR8qJwMDK2-53" value="Maryam Afsarzai&#xa;- design/illustrating: little confident.&#xa;- UI development: least confident. &#xa;- researching: confident &#xa;- documenting/ writing: very confident. &#xa;- management: little confident &#xa;- anything related to databases: Little confident." style="text;whiteSpace=wrap;fontSize=16;" parent="1" vertex="1">
          <mxGeometry x="590.0024137931038" y="-409.00344827586207" width="364" height="156" as="geometry" />
        </mxCell>
        <mxCell id="nav4vZcdkOdR8qJwMDK2-65" style="edgeStyle=none;curved=1;rounded=0;orthogonalLoop=1;jettySize=auto;html=1;fontSize=12;startSize=8;endSize=8;" parent="1" source="nav4vZcdkOdR8qJwMDK2-57" target="nav4vZcdkOdR8qJwMDK2-63" edge="1">
          <mxGeometry relative="1" as="geometry" />
        </mxCell>
        <mxCell id="nav4vZcdkOdR8qJwMDK2-57" value="&lt;div style=&quot;text-align: center;&quot;&gt;&lt;span style=&quot;background-color: initial;&quot;&gt;TASK&lt;/span&gt;&lt;/div&gt;Before the chairman meeting I created a very rough design/workflow use it as a bases and improve it.&lt;br&gt;&lt;div style=&quot;&quot;&gt;&lt;span style=&quot;background-color: initial;&quot;&gt;follow this &lt;a href=&quot;https://excalidraw.com/#json=kQVo93TWnCrWSeu44t-8V,57wsOHR28U-2cuEvuikCxg&quot;&gt;Link&lt;/a&gt;&lt;/span&gt;&lt;/div&gt;&lt;div style=&quot;&quot;&gt;Please read the case study multiple times.&lt;br&gt;&lt;/div&gt;&lt;div style=&quot;&quot;&gt;your design must be a drawIO file but you could use figma, insert the screenshots in a drawIO file and annotate over them.&lt;/div&gt;" style="shape=cube;whiteSpace=wrap;html=1;boundedLbl=1;backgroundOutline=1;darkOpacity=0.05;darkOpacity2=0.1;fontSize=16;size=13;align=left;" parent="1" vertex="1">
          <mxGeometry x="328" y="369" width="422" height="214" as="geometry" />
        </mxCell>
        <mxCell id="nav4vZcdkOdR8qJwMDK2-63" value="&lt;div style=&quot;text-align: center;&quot;&gt;&lt;span style=&quot;background-color: initial;&quot;&gt;TASK&lt;/span&gt;&lt;/div&gt;&lt;div style=&quot;text-align: center;&quot;&gt;Describe the features of the deign in written form (200 words)&lt;/div&gt;" style="shape=cube;whiteSpace=wrap;html=1;boundedLbl=1;backgroundOutline=1;darkOpacity=0.05;darkOpacity2=0.1;fontSize=16;size=13;align=left;" parent="1" vertex="1">
          <mxGeometry x="525" y="613" width="233" height="109" as="geometry" />
        </mxCell>
        <mxCell id="nav4vZcdkOdR8qJwMDK2-67" value="&lt;h1&gt;PART 1&lt;/h1&gt;" style="text;html=1;strokeColor=none;fillColor=none;spacing=5;spacingTop=-20;whiteSpace=wrap;overflow=hidden;rounded=0;fontSize=16;" parent="1" vertex="1">
          <mxGeometry x="92" y="-84" width="142" height="57" as="geometry" />
        </mxCell>
        <mxCell id="s855YbBclX5Yx-Qv4mFr-1" value="Keep in mind" style="swimlane;whiteSpace=wrap;html=1;fontSize=16;" vertex="1" parent="1">
          <mxGeometry x="-444" y="-656" width="500" height="448" as="geometry">
            <mxRectangle x="-444" y="-656" width="171" height="31" as="alternateBounds" />
          </mxGeometry>
        </mxCell>
        <mxCell id="s855YbBclX5Yx-Qv4mFr-2" value="Not all members have to &lt;br&gt;contribute on all tasks" style="text;html=1;align=center;verticalAlign=middle;resizable=0;points=[];autosize=1;strokeColor=none;fillColor=none;fontSize=16;" vertex="1" parent="s855YbBclX5Yx-Qv4mFr-1">
          <mxGeometry x="4" y="32" width="191" height="50" as="geometry" />
        </mxCell>
      </root>
    </mxGraphModel>
  </diagram>
</mxfile>
